<?xml version="1.0" encoding="UTF-8"?>
<svg id="Layer_2" data-name="Layer 2" xmlns="http://www.w3.org/2000/svg" viewBox="0 0 556.36 457.25">
  <defs>
    <style>
      .cls-1 {
        fill: #fff;
      }
    </style>
  </defs>
  <g id="Layer_1-2" data-name="Layer 1">
    <g>
      <g>
        <path class="cls-1" d="M310.06,243.64h-29.24V69.07h-63.29v-23.37c33.37,0,63.64-8.93,70.17-45.71h22.36v243.64Z"/>
        <path class="cls-1" d="M472.77,0c53.32,0,73.96,31.27,73.96,62.2,0,21.65-13.76,41.58-33.71,50.51,29.24,9.28,43.34,30.58,43.34,60.83,0,47.08-35.78,74.23-80.84,74.23s-82.9-24.4-82.9-74.23c0-28.87,15.48-51.2,42.66-60.83-20.3-8.25-34.06-28.52-34.06-50.51,0-40.21,34.06-62.2,71.55-62.2ZM475.52,221.99c29.24,0,49.88-20.28,49.88-47.42s-22.7-46.39-50.22-46.39c-28.9,0-51.6,18.56-51.6,46.74s21.67,47.08,51.94,47.08ZM475.52,102.41c23.05,0,40.25-14.43,40.25-39.18s-17.2-37.46-40.94-37.46-42.66,13.06-42.66,37.46c0,26.8,19.26,39.18,43.34,39.18Z"/>
      </g>
      <path class="cls-1" d="M99.76,32.15v80.76h77.74v20.62h-77.74v81.44h-22.02v-81.44H0v-20.62h77.74V32.15h22.02Z"/>
      <g>
        <path class="cls-1" d="M144.5,453.76c-3.73,2.24-8.46,3.48-15.19,3.48-10.95,0-17.92-5.97-17.92-19.9-11.7,13.68-27.39,19.9-45.31,19.9-23.4,0-42.57-10.45-42.57-36.06,0-29.1,21.66-35.32,43.57-39.55,23.4-4.48,43.32-2.98,43.32-18.9,0-18.41-15.19-21.39-28.63-21.39-17.92,0-31.12,5.47-32.12,24.37h-21.16c1.25-31.84,25.89-43.03,54.52-43.03,23.15,0,48.3,5.22,48.3,35.32v66.16c0,9.95,0,14.43,6.72,14.43,1.74,0,3.73-.25,6.47-1.24v16.42ZM110.15,387.85c-8.22,5.97-24.15,6.22-38.34,8.71-13.94,2.49-25.89,7.46-25.89,23.13,0,13.93,11.95,18.9,24.9,18.9,27.88,0,39.34-17.41,39.34-29.1v-21.64Z"/>
        <path class="cls-1" d="M164.17,325.67h19.92v20.39h.5c8.96-15.92,23.4-23.38,41.83-23.38,33.86,0,44.32,19.4,44.32,47.01v84.56h-21.16v-87.05c0-15.67-9.96-25.87-26.14-25.87-25.64,0-38.09,17.16-38.09,40.29v72.63h-21.16v-128.59ZM260.77,277.42c-1,6.96-3.49,13.68-7.72,19.9-4.23,4.73-10.21,7.71-19.67,7.71-4.23,0-10.46-2.49-16.43-4.97-5.98-2.24-12.2-4.73-16.68-4.73-5.48,0-12.45,4.23-11.95,10.45h-12.95c3.98-14.67,10.46-27.36,26.14-27.36,6.47,0,12.7,2.49,18.42,4.97,5.73,2.49,11.2,4.97,16.43,4.97,6.47,0,9.96-5.97,11.45-10.94h12.95Z"/>
        <path class="cls-1" d="M358.11,322.69c40.83,0,62.49,29.6,62.49,67.4s-21.66,67.15-62.49,67.15-62.49-29.6-62.49-67.15,21.66-67.4,62.49-67.4ZM358.11,438.59c22.16,0,40.08-17.41,40.08-48.5s-17.93-48.75-40.08-48.75-40.08,17.41-40.08,48.75,17.93,48.5,40.08,48.5Z"/>
        <path class="cls-1" d="M458.44,413.72c.75,18.9,17.18,24.87,34.61,24.87,13.2,0,31.12-2.99,31.12-19.15s-20.91-19.15-42.07-23.88c-20.91-4.73-42.08-11.69-42.08-36.31,0-25.87,25.64-36.56,48.05-36.56,28.38,0,51.04,8.95,52.78,40.29h-21.16c-1.49-16.42-15.93-21.64-29.88-21.64-12.7,0-27.39,3.48-27.39,16.42,0,15.17,22.41,17.66,42.07,22.38,21.16,4.73,42.08,11.69,42.08,36.56,0,30.59-28.63,40.54-54.77,40.54-28.88,0-53.28-11.69-54.52-43.53h21.16Z"/>
      </g>
    </g>
  </g>
</svg>