<?xml version="1.0" encoding="UTF-8"?>
<svg xmlns="http://www.w3.org/2000/svg" xmlns:xlink="http://www.w3.org/1999/xlink" viewBox="0 0 173.24 152.09">
  <defs>
    <style>
      .cls-1 {
        fill: url(#linear-gradient-2);
      }

      .cls-2 {
        fill: url(#radial-gradient-2);
        mix-blend-mode: screen;
        opacity: .69;
      }

      .cls-3 {
        fill: #fff;
      }

      .cls-4 {
        fill: #da8f22;
      }

      .cls-5 {
        fill: url(#radial-gradient);
      }

      .cls-6 {
        fill: #c4c4c3;
      }

      .cls-7 {
        isolation: isolate;
      }

      .cls-8 {
        fill: url(#linear-gradient-3);
      }

      .cls-8, .cls-9, .cls-10 {
        mix-blend-mode: multiply;
      }

      .cls-9 {
        fill: url(#linear-gradient);
      }

      .cls-11 {
        fill: #c84f1c;
      }

      .cls-12 {
        fill: #d47c1d;
      }

      .cls-10 {
        opacity: .5;
      }
    </style>
    <radialGradient id="radial-gradient" cx="110.61" cy="136.33" fx="110.61" fy="136.33" r="95.93" gradientUnits="userSpaceOnUse">
      <stop offset="0" stop-color="#fcf6d3"/>
      <stop offset="1" stop-color="#d47c1d"/>
    </radialGradient>
    <linearGradient id="linear-gradient" x1="-731.55" y1="1054.72" x2="-731.55" y2="1084.89" gradientTransform="translate(1283.25 -288.46) rotate(37.12)" gradientUnits="userSpaceOnUse">
      <stop offset=".07" stop-color="#fff"/>
      <stop offset=".15" stop-color="#fdf9f7"/>
      <stop offset=".27" stop-color="#f8ebe3"/>
      <stop offset=".42" stop-color="#f1d4c2"/>
      <stop offset=".59" stop-color="#e6b494"/>
      <stop offset=".77" stop-color="#d98c5a"/>
      <stop offset=".87" stop-color="#d27538"/>
    </linearGradient>
    <linearGradient id="linear-gradient-2" x1="103.64" y1="167.54" x2="95.69" y2="111.9" gradientUnits="userSpaceOnUse">
      <stop offset="0" stop-color="#5ba0d9"/>
      <stop offset="1" stop-color="#345ca3"/>
    </linearGradient>
    <radialGradient id="radial-gradient-2" cx="-52.15" cy="-197.64" fx="-52.15" fy="-197.64" r="39.36" gradientTransform="translate(119.59 249.63) rotate(8.18)" gradientUnits="userSpaceOnUse">
      <stop offset="0" stop-color="#5ba0de"/>
      <stop offset="1" stop-color="#4275b7"/>
    </radialGradient>
    <linearGradient id="linear-gradient-3" x1="-52.15" y1="-122.66" x2="-52.15" y2="-95.9" gradientTransform="translate(119.59 249.63) rotate(8.18)" gradientUnits="userSpaceOnUse">
      <stop offset=".07" stop-color="#fff"/>
      <stop offset=".16" stop-color="#f7f9fb"/>
      <stop offset=".28" stop-color="#e3e9f3"/>
      <stop offset=".44" stop-color="#c2d0e6"/>
      <stop offset=".61" stop-color="#94acd3"/>
      <stop offset=".8" stop-color="#597fbb"/>
      <stop offset=".87" stop-color="#446fb2"/>
    </linearGradient>
  </defs>
  <g class="cls-7">
    <g id="Layer_2" data-name="Layer 2">
      <g id="Layer_1-2" data-name="Layer 1">
        <g>
          <g>
            <g>
              <path class="cls-5" d="M89.69,152.09c-16.67,0-32.52-5.33-45.84-15.42-16.19-12.26-26.65-30.09-29.43-50.21-2.78-20.12,2.44-40.12,14.7-56.31C43.63,10.99,65.75,0,89.81,0c16.67,0,32.52,5.33,45.84,15.41,33.43,25.31,40.04,73.1,14.73,106.53-14.51,19.16-36.62,30.15-60.69,30.15Z"/>
              <path class="cls-9" d="M63.68,110.49c9.05,6.86,18.57,11.34,26.97,14.06,8.33,2.87,15.55,3.97,18.12,7.51,2.4,2.92-.79,9.63-11.94,11.19-10.66,1.73-29.31-1.69-46.51-15.12-17.6-12.91-25.95-29.92-27.17-40.66-1.53-11.16,4.06-16.05,7.52-14.53,4.11,1.52,7.13,8.17,12.15,15.41,4.9,7.35,11.79,15.29,20.86,22.15Z"/>
            </g>
            <g>
              <path class="cls-1" d="M156.78,89.52c-5.21,36.25-38.81,61.41-75.07,56.21-36.25-5.21-61.41-38.82-56.2-75.06C30.72,34.41,64.33,9.25,100.57,14.46c36.25,5.21,61.41,38.82,56.21,75.06Z"/>
              <path class="cls-2" d="M137.95,74.93c-12.56,4.41-30.16-4.3-45.24-4.96-14.66-3.61-34-.21-44.81-7.98-4.59-4.17-4.61-14.81,4.6-24.7,8.74-9.72,26.72-18.7,47.11-15.34,20.52,2.52,35.23,16.19,40.88,27.97,6.06,12.09,3.04,22.29-2.54,25Z"/>
              <path class="cls-8" d="M85.5,120.23c9.97,1.44,19.27.83,26.97-.66,7.69-1.36,13.78-3.6,17.29-1.96,3.12,1.24,3.53,7.81-4.46,13.81-7.54,5.93-23.47,11.28-42.59,8.24-19.2-2.46-32.99-12.09-38.56-19.89-5.97-8.01-3.73-14.2-.39-14.51,3.84-.58,9.04,3.28,16.05,6.75,6.96,3.6,15.72,6.8,25.7,8.23Z"/>
            </g>
          </g>
          <g>
            <g class="cls-10">
              <path class="cls-6" d="M26.65,144.93l-1.55-2.85c-.77-1.41-18.95-35.03-24.5-71.2l-.59-3.85,3.67-1.3c.76-.27,18.72-6.59,26.04-7.71l2.06,9.14c2.34-.7,3.47-2.95,3.34-4.71.23,3.22,4.42,34.26,11.78,48.53,3.83-1.38,10.25-3.45,21.2-6.98l4.04-1.3,1.71,3.89c.2.46,4.98,11.37,6.79,17.92l.17.62v.64c0,3.27-2.13,4.17-6.8,6.16-2.25.96-5.94,2.46-10.75,4.15-8.08,2.84-20.43,6.61-33.4,8.41l-3.22.45h0ZM10.52,73.31c4.92,27.25,17.05,52.92,21.31,61.37,16.42-2.73,31.88-8.58,38.54-11.41-1.07-3.06-2.43-6.45-3.48-8.99-8.52,2.77-18.55,6.08-19.89,6.67,1.91-.84,3.27-3.52,2.19-6.02l-7.63,5.18-.63-.63-.18-.41c-4.37-6.49-8.22-17.79-11.45-33.6-1.28-6.29-2.18-11.92-2.71-15.54-.08-.55-.15-1.07-.22-1.54-4.87,1.3-11.32,3.39-15.85,4.93h0Z"/>
              <path class="cls-6" d="M144.74,120.06c-14.81,0-26.85-12.23-26.85-27.26s12.05-27.26,26.85-27.26,26.86,12.23,26.86,27.26-12.05,27.26-26.86,27.26h0ZM144.74,74.94c-9.63,0-17.46,8.01-17.46,17.86s7.83,17.86,17.46,17.86,17.46-8.01,17.46-17.86-7.83-17.86-17.46-17.86h0ZM144.14,105.29c-5.09,0-9.24-4.2-9.24-9.35s4.14-9.35,9.24-9.35,9.24,4.2,9.24,9.35-4.14,9.35-9.24,9.35h0Z"/>
              <path class="cls-6" d="M98.3,114.9l-.71-4.06c-1.57-9-3.34-19.42-4.27-25.58-.88.06-1.87.12-2.98.18-3.67.21-7.35.36-7.35.36l-4.45.19-.42-4.43c-1.5-15.88-.87-18-.63-18.79l.81-2.69,2.76-.56c1.11-.23,27.38-5.54,45.85-7.16l2.18-.19,1.55,1.55q1.16,1.16,5.1,18.67l1.01,4.49-4.47,1.1c-1.99.49-5.54,1.35-8.51,2.05,0,.01,0,.03.01.04.47,2.67,1.07,6.31,1.64,10.01.82,5.3,1.4,9.45,1.75,12.42h.33l.05,4.23c0,.33,0,.61,0,.82l-4.69-.17-.06,4.52c.07,0,.15,0,.26,0-.49.04-2.87.42-4.97.75-6.86,1.07-12.77,1.97-15.67,2.1l-4.12.18h0ZM102.06,79.94c.1,1.6,2.05,13.34,4.04,24.96,3.24-.42,7.41-1.08,10.54-1.57.42-.07.8-.13,1.16-.18-.94-7.55-3.4-23.03-4-25.17.26.89,1.33,2.68,3.62,3.08l.52-3.01-1.83-5.82.99-.49h.69c1.06-.21,4.21-.96,7.76-1.81-.67-2.94-1.32-5.74-1.81-7.84-13.45,1.47-29.98,4.51-37.18,5.9.08,2.15.28,5.15.52,8.21,4.28-.21,8.23-.47,9.1-.62-1.42.25-3.52,1.86-3.52,4.51h9.4v-.14h0Z"/>
              <path class="cls-6" d="M70.76,124.25c-15.2,0-27.56-12.95-27.56-28.87s12.36-28.88,27.56-28.88,27.56,12.95,27.56,28.88-12.36,28.87-27.56,28.87h0ZM70.76,75.9c-10.02,0-18.16,8.74-18.16,19.48s8.15,19.48,18.16,19.48,18.17-8.74,18.17-19.48-8.15-19.48-18.17-19.48h0ZM71.69,108.67c-5.09,0-9.24-4.46-9.24-9.95s4.15-9.96,9.24-9.96,9.24,4.47,9.24,9.96-4.15,9.95-9.24,9.95h0Z"/>
            </g>
            <path class="cls-4" d="M11.22,69.32c4.92,27.24,17.06,52.92,21.31,61.37,16.42-2.73,31.89-8.58,38.55-11.41-1.07-3.06-2.43-6.45-3.49-8.99-8.51,2.77-18.54,6.08-19.89,6.68,1.91-.84,3.27-3.52,2.19-6.03l-7.63,5.19-.64-.64-.18-.41c-4.37-6.49-8.22-17.79-11.45-33.6-1.28-6.29-2.18-11.92-2.71-15.54-.08-.56-.16-1.07-.23-1.55-4.88,1.3-11.33,3.39-15.86,4.93h0Z"/>
            <g>
              <g>
                <path class="cls-3" d="M5.68,64.53s18.22-6.43,25.19-7.5c-.13,0,4.56,39.93,14.47,54.12-.27-.27,24.65-8.31,24.65-8.31,0,0,4.83,10.99,6.57,17.28,0,.27-22.77,10.72-46.89,14.07,0,0-18.49-33.9-23.99-69.67Z"/>
                <path class="cls-3" d="M29.67,138.89c-1.7,0-3.29-.92-4.12-2.45-.77-1.41-18.95-35.04-24.5-71.2-.34-2.23.95-4.39,3.08-5.14.76-.27,18.72-6.59,26.04-7.72,2.44-.38,4.75,1.2,5.3,3.6.07.32.11.64.12.95.32,3.8,4.51,34.32,11.78,48.42,3.83-1.38,10.25-3.45,21.2-6.98,2.3-.74,4.77.38,5.74,2.58.2.46,4.99,11.38,6.79,17.92.11.41.17.83.17,1.25,0,3.27-2.13,4.18-6.79,6.16-2.25.96-5.94,2.46-10.75,4.15-8.08,2.84-20.43,6.61-33.4,8.41-.22.03-.43.04-.65.04ZM10.97,67.67c4.91,27.2,17.06,52.92,21.32,61.37,16.42-2.73,31.89-8.58,38.54-11.42-1.07-3.06-2.43-6.45-3.49-8.99-8.16,2.65-17.72,5.81-19.68,6.59-1.82,1.04-4.13.75-5.64-.74-.2-.2-.38-.42-.55-.65h0c-4.48-6.42-8.43-17.86-11.73-34.01-1.28-6.29-2.18-11.92-2.71-15.54-.08-.55-.16-1.07-.22-1.55-4.87,1.3-11.33,3.4-15.86,4.93ZM48.8,114.32c-.22.24-.46.45-.73.65.26-.18.51-.4.73-.65ZM49.66,109.3c.14.32.24.65.3.99-.06-.33-.16-.66-.3-.99ZM33.48,60.93c-.37.25-.79.45-1.24.59.46-.14.87-.34,1.24-.59ZM35.57,57.11c0,.28-.03.55-.09.82.06-.28.09-.55.09-.82Z"/>
              </g>
              <g>
                <path class="cls-3" d="M146.38,65.83c-12.24,0-22.15,10.1-22.15,22.56s9.92,22.56,22.15,22.56,22.16-10.1,22.16-22.56-9.92-22.56-22.16-22.56ZM145.78,96.19c-2.51,0-4.54-2.08-4.54-4.66s2.03-4.65,4.54-4.65,4.54,2.08,4.54,4.65-2.04,4.66-4.54,4.66Z"/>
                <path class="cls-3" d="M146.38,115.65c-14.81,0-26.85-12.23-26.85-27.25s12.05-27.26,26.85-27.26,26.86,12.23,26.86,27.26-12.05,27.25-26.86,27.25ZM146.38,70.53c-9.63,0-17.46,8.02-17.46,17.87s7.83,17.86,17.46,17.86,17.46-8.01,17.46-17.86-7.83-17.87-17.46-17.87ZM145.78,100.88c-5.09,0-9.24-4.2-9.24-9.35s4.14-9.35,9.24-9.35,9.24,4.2,9.24,9.35-4.14,9.35-9.24,9.35Z"/>
              </g>
              <g>
                <path class="cls-3" d="M82.14,58.75s26.91-5.46,45.32-7.08c.2.2,3.85,16.39,3.85,16.39,0,0-11.53,2.83-12.95,3.03.41-.2,4.86,27.92,4.66,30.75,0-.2-15.98,2.63-20.64,2.83,0,0-4.86-27.92-4.86-29.95,0,.41-14.57,1.01-14.57,1.01,0,0-1.41-14.97-.81-16.99Z"/>
                <path class="cls-3" d="M102.37,109.38c-2.27,0-4.23-1.63-4.63-3.89-1.57-9-3.34-19.42-4.27-25.58-.94.06-1.96.12-2.98.18-3.67.2-7.35.36-7.35.36-2.5.1-4.64-1.76-4.87-4.25-1.5-15.88-.87-17.99-.63-18.78.5-1.66,1.87-2.91,3.57-3.26,1.11-.22,27.39-5.53,45.85-7.16,1.38-.12,2.76.38,3.74,1.37q1.16,1.16,5.1,18.67c.56,2.5-.98,4.98-3.46,5.59-1.99.49-5.53,1.35-8.51,2.05,0,.01,0,.03,0,.04.47,2.66,1.07,6.31,1.64,10.01,1.53,9.91,2.25,15.78,2.13,17.46-.18,2.46-2.21,4.35-4.65,4.36-.74.09-2.87.43-4.77.72-6.87,1.08-12.79,1.98-15.69,2.11-.07,0-.14,0-.21,0ZM102.21,74.63c.13,1.72,2.05,13.39,4.04,24.94,3.25-.43,7.43-1.08,10.56-1.57.41-.06.8-.12,1.15-.18-.91-7.23-3.25-22.05-3.95-24.92-.05-.13-.1-.27-.15-.41-.68-2.21.34-4.58,2.41-5.6.44-.22.92-.37,1.41-.44h0c.67-.11,4.11-.91,8.01-1.85-.67-2.94-1.32-5.74-1.81-7.84-13.45,1.47-29.97,4.51-37.18,5.9.08,2.15.28,5.15.52,8.21,3.92-.2,7.56-.42,8.82-.58.46-.15.95-.23,1.46-.23,2.56,0,4.64,2.04,4.7,4.59ZM115.29,74.65c.49.43,1.12.8,1.9,1-.71-.18-1.36-.52-1.9-1ZM93.2,72.88c-.24.54-.38,1.16-.38,1.86,0-.66.14-1.29.38-1.86Z"/>
              </g>
              <g>
                <path class="cls-3" d="M71.21,61.99c-12.63,0-22.86,10.83-22.86,24.18s10.24,24.18,22.86,24.18,22.86-10.82,22.86-24.18-10.23-24.18-22.86-24.18ZM72.13,94.77c-2.51,0-4.54-2.35-4.54-5.26s2.03-5.26,4.54-5.26,4.54,2.36,4.54,5.26-2.03,5.26-4.54,5.26Z"/>
                <path class="cls-3" d="M71.21,115.05c-15.2,0-27.56-12.95-27.56-28.87s12.36-28.88,27.56-28.88,27.56,12.95,27.56,28.88-12.36,28.87-27.56,28.87ZM71.21,66.69c-10.02,0-18.17,8.74-18.17,19.48s8.15,19.48,18.17,19.48,18.16-8.74,18.16-19.48-8.15-19.48-18.16-19.48ZM72.13,99.47c-5.09,0-9.24-4.47-9.24-9.96s4.14-9.96,9.24-9.96,9.24,4.47,9.24,9.96-4.14,9.96-9.24,9.96Z"/>
              </g>
            </g>
            <g>
              <path class="cls-11" d="M6.09,65.11s18.22-6.43,25.19-7.5c-.14,0,4.55,39.92,14.47,54.12-.28-.27,24.65-8.31,24.65-8.31,0,0,4.82,10.98,6.57,17.28,0,.27-22.78,10.72-46.89,14.07,0,0-18.49-33.89-23.98-69.67Z"/>
              <path class="cls-11" d="M146.79,66.42c-12.24,0-22.16,10.1-22.16,22.56s9.92,22.56,22.16,22.56,22.15-10.1,22.15-22.56-9.92-22.56-22.15-22.56ZM146.18,96.77c-2.5,0-4.54-2.09-4.54-4.66s2.03-4.65,4.54-4.65,4.55,2.09,4.55,4.65-2.03,4.66-4.55,4.66Z"/>
              <path class="cls-11" d="M82.55,59.34s26.91-5.46,45.32-7.08c.2.21,3.85,16.39,3.85,16.39,0,0-11.53,2.83-12.95,3.03.41-.2,4.86,27.92,4.65,30.76,0-.2-15.98,2.63-20.64,2.83,0,0-4.86-27.92-4.86-29.94,0,.4-14.57,1.01-14.57,1.01,0,0-1.41-14.97-.81-16.99Z"/>
              <path class="cls-11" d="M71.62,62.58c-12.63,0-22.87,10.82-22.87,24.18s10.24,24.18,22.87,24.18,22.86-10.83,22.86-24.18-10.24-24.18-22.86-24.18ZM72.54,95.35c-2.51,0-4.54-2.35-4.54-5.26s2.03-5.26,4.54-5.26,4.54,2.36,4.54,5.26-2.04,5.26-4.54,5.26Z"/>
            </g>
            <g>
              <path class="cls-12" d="M4.98,65.33s18.21-6.43,25.19-7.5c-.14,0,4.55,39.92,14.47,54.12-.27-.27,24.65-8.31,24.65-8.31,0,0,4.82,10.99,6.57,17.29,0,.27-22.78,10.71-46.89,14.07,0,0-18.49-33.9-23.98-69.67Z"/>
              <path class="cls-12" d="M145.68,66.65c-12.24,0-22.16,10.1-22.16,22.56s9.92,22.56,22.16,22.56,22.16-10.1,22.16-22.56-9.92-22.56-22.16-22.56ZM145.08,97c-2.51,0-4.54-2.09-4.54-4.66s2.04-4.65,4.54-4.65,4.54,2.09,4.54,4.65-2.03,4.66-4.54,4.66Z"/>
              <path class="cls-12" d="M81.44,59.56s26.91-5.46,45.33-7.08c.2.21,3.84,16.39,3.84,16.39,0,0-11.53,2.83-12.95,3.03.4-.2,4.85,27.92,4.66,30.76,0-.2-15.99,2.63-20.64,2.83,0,0-4.86-27.92-4.86-29.94,0,.4-14.57,1.01-14.57,1.01,0,0-1.42-14.97-.81-17Z"/>
              <path class="cls-12" d="M70.51,62.8c-12.63,0-22.87,10.83-22.87,24.18s10.24,24.18,22.87,24.18,22.86-10.82,22.86-24.18-10.24-24.18-22.86-24.18ZM71.43,95.57c-2.51,0-4.54-2.36-4.54-5.26s2.03-5.26,4.54-5.26,4.54,2.36,4.54,5.26-2.03,5.26-4.54,5.26Z"/>
            </g>
          </g>
        </g>
      </g>
    </g>
  </g>
</svg>