<?xml version="1.0" encoding="UTF-8"?>
<svg id="Layer_2" data-name="Layer 2" xmlns="http://www.w3.org/2000/svg" viewBox="0 0 512 478.03">
  <defs>
    <style>
      .cls-1 {
        fill: #fff;
      }
    </style>
  </defs>
  <g id="Capa_1" data-name="Capa 1">
    <g>
      <path class="cls-1" d="M467.58,47.91l-4.17-4.17C434.82,15.15,396.7-.42,356.07,0c-37.15.36-72.33,13.94-100.07,38.46C228.26,14.05,192.81.7,155.14.7c-40.96,0-79.3,15.78-107.94,44.42l-2.78,2.78C15.78,76.55,0,114.64,0,155.16s15.78,78.6,44.42,107.25l30.87,30.87-5.7,6.29c-14.29,15.76-13.7,39.89,1.34,54.93,7.8,7.8,18.54,12.01,29.56,11.63-.98,11.34,3,22.98,11.87,31.58,7.4,7.17,17.07,11.08,27.33,11.08,2.3,0,4.59-.2,6.85-.59.46,9.27,4.21,18.39,11.24,25.48,7.38,7.44,17.15,11.5,27.58,11.5,3.53,0,7.05-.47,10.46-1.4,1.07,7.94,4.59,15.61,10.55,21.89,7.43,7.82,17.45,12.21,28.24,12.36,10.65.16,21.02-4.05,28.57-11.56l120.14-119.81c3.91-3.91,3.91-10.26,0-14.17-3.91-3.91-10.26-3.91-14.17,0l-120.11,119.78c-5.93,5.9-15.27,7.41-22.74,3.63-7.01-3.54-11.34-11.16-10.67-18.99.37-4.31,2.21-8.41,5.1-11.62l73.31-80.19c3.73-4.08,3.45-10.42-.63-14.16-4.08-3.74-10.42-3.45-14.16.63l-79.94,87.43c-3.52,3.85-8.32,6.02-13.53,6.13-5.24.1-10.1-1.87-13.77-5.57-7.09-7.15-7.33-18.57-.53-26.01l83.24-89.89c3.77-4.05,3.55-10.39-.5-14.16s-10.39-3.54-14.16.51l-86.23,92.6c-3.56,3.82-8.39,6-13.61,6.13-5.23.12-10.16-1.79-13.9-5.43-7.54-7.31-7.89-19.11-.79-26.86l87.7-95.68c3.74-4.08,3.46-10.42-.62-14.16-4.08-3.74-10.42-3.46-14.16.62l-84.75,92.46c-7.51,8.19-20.72,8.48-28.59.62-7.47-7.48-7.77-19.47-.67-27.3l156.03-172.11,34.82,29.04c17.37,14.49,43.34,13.14,59.11-3.08,8.37-8.6,12.85-20.41,12.29-32.4-.56-11.99-6.12-23.33-15.25-31.11l-60.35-51.45c23.84-20.32,54.34-31.57,85.81-31.87.43,0-.43,0,0,0,34.72,0,67.89,13.42,92.33,37.86l4.17,4.17c24.86,24.86,38.55,57.92,38.55,93.08s-13.69,68.22-38.55,93.08l-21.24,21.24c-3.91,3.91-3.91,10.26,0,14.17,3.91,3.91,10.26,3.91,14.17,0l21.24-21.24c28.64-28.64,44.42-66.72,44.42-107.24s-15.78-78.6-44.42-107.25h0ZM326.67,135.41c.31,6.57-2.05,12.78-6.63,17.49-8.52,8.75-22.53,9.48-31.91,1.66l-42.2-35.2c-4.13-3.44-10.23-3.02-13.84.96l-143.32,158.08-30.18-30.17c-24.86-24.86-38.55-57.91-38.55-93.07s13.69-68.22,38.55-93.08l2.78-2.78c24.86-24.86,58.17-38.56,93.77-38.56s68.91,13.69,93.77,38.56c.11.11,69.52,59.31,69.52,59.31,5,4.26,7.93,10.23,8.23,16.8h0Z"/>
      <path class="cls-1" d="M400.34,301.14c-3.78,4.03-3.57,10.36.45,14.14s10.36,3.57,14.14-.45,3.57-10.36-.45-14.14c-4.03-3.78-10.36-3.57-14.14.45Z"/>
    </g>
  </g>
</svg>