<?xml version="1.0" encoding="UTF-8"?>
<svg id="Layer_2" data-name="Layer 2" xmlns="http://www.w3.org/2000/svg" viewBox="0 0 512 512">
  <defs>
    <style>
      .cls-1 {
        fill: #64b5f6;
      }

      .cls-2 {
        fill: #0063d3;
      }

      .cls-3 {
        fill: #eceff1;
      }

      .cls-4 {
        fill: #008ddb;
      }

      .cls-5 {
        fill: #90a4ae;
      }
    </style>
  </defs>
  <g id="Capa_1" data-name="Capa 1">
    <path class="cls-1" d="M0,192l246.53,156.9c2.82,2.08,6.14,3.1,9.47,3.1s6.66-1.02,9.47-3.1l246.53-156.9L265.6,3.2c-5.7-4.26-13.5-4.26-19.2,0L0,192Z"/>
    <path class="cls-3" d="M416,0H96c-17.63,0-32,14.37-32,32v352c0,8.83,7.17,16,16,16h352c8.83,0,16-7.17,16-16V32c0-17.63-14.34-32-32-32Z"/>
    <g>
      <path class="cls-5" d="M144,96h224c8.83,0,16-7.17,16-16s-7.17-16-16-16h-224c-8.83,0-16,7.17-16,16s7.17,16,16,16Z"/>
      <path class="cls-5" d="M368,128h-224c-8.83,0-16,7.17-16,16s7.17,16,16,16h224c8.83,0,16-7.17,16-16s-7.17-16-16-16Z"/>
      <path class="cls-5" d="M272,192h-128c-8.83,0-16,7.17-16,16s7.17,16,16,16h128c8.83,0,16-7.17,16-16s-7.17-16-16-16Z"/>
    </g>
    <path class="cls-2" d="M265.47,348.9c-2.82,2.08-6.14,3.1-9.47,3.1s-6.66-1.02-9.47-3.1L0,192v288c0,17.66,14.34,32,32,32h448c17.66,0,32-14.34,32-32V192l-246.53,156.9Z"/>
    <path class="cls-4" d="M480,512H32c-17.95,0-32-14.05-32-32,0-5.09,2.43-9.89,6.53-12.9l240-160c2.82-2.08,6.14-3.1,9.47-3.1s6.66,1.02,9.47,3.1l240,160c4.1,3.01,6.53,7.81,6.53,12.9,0,17.95-14.05,32-32,32Z"/>
  </g>
</svg>