<?xml version="1.0" encoding="UTF-8"?>
<svg id="Layer_2" data-name="Layer 2" xmlns="http://www.w3.org/2000/svg" viewBox="0 0 343.8 343.8">
  <defs>
    <style>
      .cls-1 {
        fill: #fff;
      }
    </style>
  </defs>
  <g id="Layer_1-2" data-name="Layer 1">
    <g>
      <path class="cls-1" d="M237.6,0H106.2C47.6,0,0,47.6,0,106.2v131.4c0,58.6,47.6,106.2,106.2,106.2h131.4c58.6,0,106.2-47.6,106.2-106.2V106.2C343.8,47.7,296.1,0,237.6,0h0ZM305.5,237.6c0,37.4-30.5,67.9-67.9,67.9H106.2c-37.4,0-67.9-30.5-67.9-67.9V106.2c0-37.4,30.5-67.9,67.9-67.9h131.4c37.4,0,67.9,30.5,67.9,67.9v131.4Z"/>
      <path class="cls-1" d="M171.9,84c-48.4,0-87.9,39.4-87.9,87.9s39.4,87.9,87.9,87.9,87.9-39.4,87.9-87.9-39.5-87.9-87.9-87.9ZM171.9,225.3c-29.4,0-53.4-23.9-53.4-53.4s23.9-53.4,53.4-53.4,53.4,23.9,53.4,53.4-24,53.4-53.4,53.4Z"/>
      <circle class="cls-1" cx="264.14" cy="78.95" r="14.9"/>
    </g>
  </g>
</svg>