<?xml version="1.0" encoding="UTF-8"?>
<svg xmlns="http://www.w3.org/2000/svg" xmlns:xlink="http://www.w3.org/1999/xlink" viewBox="0 0 81.25 73.72">
  <defs>
    <style>
      .cls-1 {
        fill: url(#linear-gradient-2);
      }

      .cls-2 {
        fill: url(#radial-gradient-2);
        mix-blend-mode: screen;
        opacity: .69;
      }

      .cls-3 {
        fill: #fff;
      }

      .cls-4 {
        fill: url(#radial-gradient);
      }

      .cls-5 {
        isolation: isolate;
      }

      .cls-6 {
        fill: #ee7d00;
      }

      .cls-7 {
        fill: #e74e0f;
      }

      .cls-8 {
        fill: #f29100;
      }

      .cls-9 {
        fill: url(#linear-gradient-3);
      }

      .cls-9, .cls-10, .cls-11 {
        mix-blend-mode: multiply;
      }

      .cls-10 {
        fill: url(#linear-gradient);
      }

      .cls-12 {
        fill: #c6c6c5;
      }

      .cls-11 {
        opacity: .5;
      }
    </style>
    <radialGradient id="radial-gradient" cx="51.88" cy="65.13" fx="51.88" fy="65.13" r="44.99" gradientUnits="userSpaceOnUse">
      <stop offset="0" stop-color="#fff7d4"/>
      <stop offset="1" stop-color="#ee7d00"/>
    </radialGradient>
    <linearGradient id="linear-gradient" x1="9.3" y1="1973.93" x2="9.3" y2="1988.08" gradientTransform="translate(1213.73 -1526.36) rotate(37.12)" gradientUnits="userSpaceOnUse">
      <stop offset=".07" stop-color="#fff"/>
      <stop offset=".15" stop-color="#fefaf7"/>
      <stop offset=".27" stop-color="#fcece3"/>
      <stop offset=".41" stop-color="#f9d6c2"/>
      <stop offset=".58" stop-color="#f5b894"/>
      <stop offset=".75" stop-color="#f0915a"/>
      <stop offset=".87" stop-color="#ed7630"/>
    </linearGradient>
    <linearGradient id="linear-gradient-2" x1="48.61" y1="79.77" x2="44.88" y2="53.68" gradientUnits="userSpaceOnUse">
      <stop offset="0" stop-color="#00a2dd"/>
      <stop offset="1" stop-color="#005ca8"/>
    </linearGradient>
    <radialGradient id="radial-gradient-2" cx="15.02" cy="36.18" fx="15.02" fy="36.18" r="18.46" gradientTransform="translate(35.34 -14.9) rotate(8.18)" gradientUnits="userSpaceOnUse">
      <stop offset="0" stop-color="#00a2e2"/>
      <stop offset="1" stop-color="#0076bc"/>
    </radialGradient>
    <linearGradient id="linear-gradient-3" x1="15.02" y1="71.34" x2="15.02" y2="83.89" gradientTransform="translate(35.34 -14.9) rotate(8.18)" gradientUnits="userSpaceOnUse">
      <stop offset=".07" stop-color="#fff"/>
      <stop offset=".15" stop-color="#f7fafc"/>
      <stop offset=".26" stop-color="#e3edf6"/>
      <stop offset=".39" stop-color="#c2d8eb"/>
      <stop offset=".55" stop-color="#94bbdc"/>
      <stop offset=".71" stop-color="#5996ca"/>
      <stop offset=".87" stop-color="#1d70b7"/>
    </linearGradient>
  </defs>
  <g class="cls-5">
    <g id="Layer_2" data-name="Layer 2">
      <g id="Layer_1-2" data-name="Layer 1">
        <g>
          <g>
            <path class="cls-3" d="M50.91,1.08c-2.9-.72-5.88-1.08-8.84-1.08v.6h0v-.6h0C25.08,0,10.38,11.53,6.31,28.04c-2.35,9.56-.85,19.46,4.25,27.88,5.09,8.42,13.16,14.36,22.72,16.71,2.9.72,5.88,1.08,8.84,1.08,16.98,0,31.68-11.53,35.75-28.04,4.86-19.73-7.24-39.74-26.97-44.6Z"/>
            <g>
              <g>
                <path class="cls-4" d="M42.07,72.53c-7.82,0-15.25-2.5-21.5-7.23-7.6-5.75-12.5-14.11-13.8-23.55-1.3-9.44,1.14-18.82,6.89-26.41C20.46,6.35,30.84,1.19,42.12,1.19c7.82,0,15.25,2.5,21.5,7.23,15.68,11.87,18.78,34.28,6.91,49.96-6.8,8.99-17.18,14.14-28.46,14.14Z"/>
                <path class="cls-10" d="M29.87,53.01c4.25,3.22,8.71,5.32,12.65,6.59,3.91,1.35,7.29,1.86,8.5,3.52,1.12,1.37-.37,4.52-5.6,5.25-5,.81-13.75-.79-21.81-7.09-8.25-6.05-12.17-14.04-12.74-19.07-.72-5.24,1.9-7.53,3.53-6.82,1.93.71,3.34,3.83,5.7,7.23,2.3,3.45,5.53,7.17,9.78,10.39Z"/>
              </g>
              <g>
                <path class="cls-1" d="M73.53,43.18c-2.44,17-18.2,28.8-35.21,26.36-17-2.44-28.8-18.21-26.36-35.21C14.41,17.33,30.17,5.53,47.17,7.97c17,2.44,28.8,18.21,26.36,35.21Z"/>
                <path class="cls-2" d="M64.7,36.34c-5.89,2.07-14.14-2.02-21.22-2.33-6.88-1.69-15.94-.1-21.02-3.74-2.15-1.95-2.16-6.94,2.16-11.58,4.1-4.56,12.53-8.77,22.1-7.19,9.62,1.18,16.53,7.59,19.17,13.12,2.84,5.67,1.42,10.45-1.19,11.72Z"/>
                <path class="cls-9" d="M40.1,57.58c4.68.67,9.04.39,12.65-.31,3.61-.64,6.46-1.69,8.11-.92,1.46.58,1.65,3.66-2.09,6.48-3.53,2.78-11.01,5.29-19.98,3.86-9.01-1.16-15.47-5.67-18.08-9.33-2.8-3.76-1.75-6.66-.18-6.81,1.8-.27,4.24,1.54,7.53,3.16,3.26,1.69,7.37,3.19,12.05,3.86Z"/>
              </g>
            </g>
          </g>
          <g>
            <g class="cls-11">
              <path class="cls-12" d="M12.5,69.17l-.73-1.34c-.36-.66-8.89-16.43-11.49-33.4l-.28-1.8,1.72-.61c.36-.13,8.78-3.09,12.21-3.62l.97,4.29c1.1-.33,1.63-1.38,1.57-2.21.11,1.51,2.07,16.07,5.53,22.76,1.8-.65,4.81-1.62,9.94-3.27l1.9-.61.8,1.82c.09.22,2.33,5.33,3.19,8.4l.08.29v.3c0,1.53-1,1.96-3.19,2.89-1.05.45-2.79,1.15-5.04,1.95-3.79,1.33-9.58,3.1-15.67,3.94l-1.51.21h0ZM4.94,35.57c2.31,12.78,8,24.82,10,28.78,7.7-1.28,14.95-4.02,18.08-5.35-.5-1.43-1.14-3.03-1.63-4.22-3.99,1.3-8.7,2.85-9.33,3.13.9-.39,1.53-1.65,1.03-2.83l-3.58,2.43-.3-.3-.08-.19c-2.05-3.05-3.85-8.35-5.37-15.76-.6-2.95-1.02-5.59-1.27-7.29-.04-.26-.07-.5-.1-.72-2.28.61-5.31,1.59-7.44,2.31h0Z"/>
              <path class="cls-12" d="M67.89,57.5c-6.95,0-12.59-5.73-12.59-12.78s5.65-12.78,12.59-12.78,12.6,5.73,12.6,12.78-5.65,12.78-12.6,12.78h0ZM67.89,36.34c-4.52,0-8.19,3.76-8.19,8.38s3.67,8.38,8.19,8.38,8.19-3.76,8.19-8.38-3.67-8.38-8.19-8.38h0ZM67.6,50.57c-2.39,0-4.33-1.97-4.33-4.38s1.94-4.39,4.33-4.39,4.33,1.97,4.33,4.39-1.94,4.38-4.33,4.38h0Z"/>
              <path class="cls-12" d="M46.11,55.08l-.33-1.91c-.73-4.22-1.57-9.11-2-12-.41.03-.88.05-1.4.08-1.72.1-3.45.17-3.45.17l-2.09.09-.2-2.08c-.7-7.45-.41-8.44-.29-8.81l.38-1.26,1.29-.26c.52-.11,12.84-2.6,21.5-3.36l1.02-.09.73.73q.54.54,2.39,8.76l.48,2.11-2.1.52c-.93.23-2.6.63-3.99.96,0,0,0,.01,0,.02.22,1.25.5,2.96.77,4.7.38,2.49.66,4.43.82,5.82h.15l.02,1.98c0,.16,0,.29,0,.38l-2.2-.08-.03,2.12s.07,0,.12,0c-.23.02-1.35.19-2.33.35-3.22.5-5.99.92-7.35.98l-1.93.08h0ZM47.87,38.69c.05.75.96,6.26,1.9,11.71,1.52-.2,3.48-.51,4.94-.73.2-.03.37-.06.54-.09-.44-3.54-1.59-10.8-1.88-11.8.12.42.62,1.26,1.7,1.44l.24-1.41-.86-2.73.46-.23h.33c.5-.1,1.98-.45,3.64-.85-.31-1.38-.62-2.69-.85-3.68-6.31.69-14.06,2.12-17.44,2.77.04,1.01.13,2.41.25,3.85,2.01-.1,3.86-.22,4.27-.29-.67.12-1.65.87-1.65,2.11h4.41v-.07h0Z"/>
              <path class="cls-12" d="M33.19,59.47c-7.13,0-12.93-6.08-12.93-13.54s5.8-13.54,12.93-13.54,12.93,6.08,12.93,13.54-5.8,13.54-12.93,13.54h0ZM33.19,36.79c-4.7,0-8.52,4.1-8.52,9.14s3.82,9.14,8.52,9.14,8.52-4.1,8.52-9.14-3.82-9.14-8.52-9.14h0ZM33.62,52.16c-2.39,0-4.33-2.09-4.33-4.67s1.94-4.67,4.33-4.67,4.33,2.09,4.33,4.67-1.95,4.67-4.33,4.67h0Z"/>
            </g>
            <path class="cls-8" d="M5.26,33.7c2.31,12.78,8,24.82,10,28.78,7.7-1.28,14.96-4.02,18.08-5.35-.5-1.43-1.14-3.03-1.64-4.22-3.99,1.3-8.7,2.85-9.33,3.13.89-.39,1.54-1.65,1.03-2.83l-3.58,2.43-.3-.3-.08-.19c-2.05-3.05-3.86-8.34-5.37-15.76-.6-2.95-1.02-5.59-1.27-7.29-.04-.26-.07-.5-.11-.72-2.29.61-5.31,1.59-7.44,2.31h0Z"/>
            <g>
              <g>
                <path class="cls-3" d="M2.66,31.46s8.55-3.02,11.81-3.52c-.06,0,2.14,18.73,6.79,25.38-.13-.12,11.56-3.9,11.56-3.9,0,0,2.26,5.15,3.08,8.11,0,.13-10.68,5.03-21.99,6.6,0,0-8.67-15.9-11.25-32.67Z"/>
                <path class="cls-3" d="M13.91,66.33c-.8,0-1.54-.43-1.93-1.15-.36-.66-8.89-16.43-11.49-33.4-.16-1.05.45-2.06,1.44-2.41.36-.13,8.78-3.09,12.21-3.62,1.14-.18,2.23.56,2.48,1.69.03.15.05.3.05.45.15,1.78,2.11,16.09,5.52,22.71,1.8-.65,4.81-1.62,9.94-3.27,1.08-.35,2.24.18,2.69,1.21.09.22,2.34,5.34,3.19,8.41.05.19.08.39.08.59,0,1.53-1,1.96-3.19,2.89-1.06.45-2.79,1.15-5.04,1.95-3.79,1.33-9.58,3.1-15.66,3.95-.1.01-.2.02-.3.02ZM5.15,32.93c2.3,12.76,8,24.82,10,28.78,7.7-1.28,14.96-4.02,18.08-5.35-.5-1.43-1.14-3.03-1.63-4.22-3.83,1.24-8.31,2.73-9.23,3.09-.85.49-1.94.35-2.64-.35-.09-.09-.18-.2-.26-.3h0c-2.1-3.01-3.95-8.38-5.5-15.95-.6-2.95-1.02-5.59-1.27-7.29-.04-.26-.07-.5-.1-.72-2.29.61-5.31,1.59-7.44,2.31ZM22.89,54.81c-.1.11-.22.21-.34.3.12-.09.24-.19.34-.3ZM23.29,52.45c.06.15.11.31.14.46-.03-.15-.07-.31-.14-.46ZM15.7,29.77c-.18.12-.37.21-.58.27.22-.07.41-.16.58-.27ZM16.68,27.98c0,.13-.02.26-.04.39.03-.13.04-.26.04-.39Z"/>
              </g>
              <g>
                <path class="cls-3" d="M68.65,32.07c-5.74,0-10.39,4.74-10.39,10.58s4.65,10.58,10.39,10.58,10.39-4.74,10.39-10.58-4.65-10.58-10.39-10.58ZM68.37,46.3c-1.18,0-2.13-.98-2.13-2.18s.95-2.18,2.13-2.18,2.13.98,2.13,2.18-.95,2.18-2.13,2.18Z"/>
                <path class="cls-3" d="M68.65,55.43c-6.94,0-12.59-5.73-12.59-12.78s5.65-12.79,12.59-12.79,12.6,5.74,12.6,12.79-5.65,12.78-12.6,12.78ZM68.65,34.27c-4.51,0-8.19,3.76-8.19,8.38s3.67,8.38,8.19,8.38,8.19-3.76,8.19-8.38-3.67-8.38-8.19-8.38ZM68.37,48.51c-2.39,0-4.33-1.97-4.33-4.39s1.94-4.39,4.33-4.39,4.33,1.97,4.33,4.39-1.94,4.39-4.33,4.39Z"/>
              </g>
              <g>
                <path class="cls-3" d="M38.52,28.75s12.62-2.56,21.26-3.32c.09.1,1.8,7.69,1.8,7.69,0,0-5.41,1.33-6.07,1.42.19-.09,2.28,13.1,2.18,14.42,0-.09-7.5,1.23-9.68,1.33,0,0-2.28-13.1-2.28-14.04,0,.19-6.83.47-6.83.47,0,0-.66-7.02-.38-7.97Z"/>
                <path class="cls-3" d="M48.01,52.49c-1.07,0-1.99-.77-2.17-1.83-.73-4.22-1.57-9.11-2-12-.44.03-.92.06-1.4.08-1.72.1-3.45.17-3.45.17-1.17.04-2.17-.83-2.28-1.99-.7-7.45-.41-8.44-.3-8.81.23-.78.88-1.37,1.67-1.53.52-.11,12.84-2.59,21.5-3.36.65-.06,1.29.18,1.76.64q.54.55,2.39,8.76c.26,1.17-.46,2.34-1.62,2.62-.93.23-2.6.64-3.99.96,0,0,0,.01,0,.02.22,1.25.5,2.96.77,4.69.72,4.65,1.05,7.4,1,8.19-.08,1.15-1.04,2.04-2.18,2.05-.35.04-1.35.2-2.24.34-3.22.51-6,.93-7.36.99-.03,0-.06,0-.1,0ZM47.94,36.19c.06.8.96,6.28,1.9,11.7,1.52-.2,3.48-.51,4.95-.74.19-.03.37-.06.54-.08-.43-3.39-1.53-10.34-1.85-11.69-.03-.06-.05-.13-.07-.19-.32-1.04.16-2.15,1.13-2.63.21-.1.43-.17.66-.2h0c.31-.05,1.93-.43,3.76-.87-.31-1.38-.62-2.69-.85-3.68-6.31.69-14.06,2.12-17.44,2.77.04,1.01.13,2.41.24,3.85,1.84-.09,3.55-.2,4.14-.27.22-.07.45-.11.68-.11,1.2,0,2.17.96,2.2,2.15ZM54.07,36.2c.23.2.52.37.89.47-.33-.08-.64-.25-.89-.47ZM43.71,35.37c-.11.26-.18.55-.18.87,0-.31.06-.6.18-.87Z"/>
              </g>
              <g>
                <path class="cls-3" d="M33.4,30.27c-5.92,0-10.72,5.08-10.72,11.34s4.8,11.34,10.72,11.34,10.72-5.08,10.72-11.34-4.8-11.34-10.72-11.34ZM33.83,45.64c-1.18,0-2.13-1.1-2.13-2.47s.95-2.47,2.13-2.47,2.13,1.11,2.13,2.47-.95,2.47-2.13,2.47Z"/>
                <path class="cls-3" d="M33.4,55.15c-7.13,0-12.93-6.08-12.93-13.54s5.8-13.54,12.93-13.54,12.93,6.08,12.93,13.54-5.8,13.54-12.93,13.54ZM33.4,32.47c-4.7,0-8.52,4.1-8.52,9.14s3.82,9.14,8.52,9.14,8.52-4.1,8.52-9.14-3.82-9.14-8.52-9.14ZM33.83,47.84c-2.39,0-4.33-2.09-4.33-4.67s1.94-4.67,4.33-4.67,4.33,2.1,4.33,4.67-1.94,4.67-4.33,4.67Z"/>
              </g>
            </g>
            <g>
              <path class="cls-7" d="M2.86,31.73s8.55-3.02,11.81-3.52c-.07,0,2.13,18.72,6.79,25.38-.13-.12,11.56-3.9,11.56-3.9,0,0,2.26,5.15,3.08,8.11,0,.13-10.68,5.03-21.99,6.6,0,0-8.67-15.9-11.25-32.67Z"/>
              <path class="cls-7" d="M68.84,32.35c-5.74,0-10.39,4.74-10.39,10.58s4.65,10.58,10.39,10.58,10.39-4.74,10.39-10.58-4.65-10.58-10.39-10.58ZM68.56,46.58c-1.17,0-2.13-.98-2.13-2.19s.95-2.18,2.13-2.18,2.13.98,2.13,2.18-.95,2.19-2.13,2.19Z"/>
              <path class="cls-7" d="M38.71,29.02s12.62-2.56,21.26-3.32c.09.1,1.8,7.69,1.8,7.69,0,0-5.41,1.33-6.07,1.42.19-.09,2.28,13.1,2.18,14.43,0-.09-7.5,1.23-9.68,1.33,0,0-2.28-13.1-2.28-14.04,0,.19-6.83.47-6.83.47,0,0-.66-7.02-.38-7.97Z"/>
              <path class="cls-7" d="M33.59,30.54c-5.92,0-10.73,5.08-10.73,11.34s4.8,11.34,10.73,11.34,10.72-5.08,10.72-11.34-4.8-11.34-10.72-11.34ZM34.02,45.91c-1.18,0-2.13-1.1-2.13-2.47s.95-2.47,2.13-2.47,2.13,1.1,2.13,2.47-.95,2.47-2.13,2.47Z"/>
            </g>
            <g>
              <path class="cls-6" d="M2.34,31.83s8.54-3.02,11.81-3.52c-.06,0,2.13,18.72,6.79,25.38-.13-.13,11.56-3.9,11.56-3.9,0,0,2.26,5.15,3.08,8.11,0,.12-10.68,5.02-21.99,6.6,0,0-8.67-15.9-11.25-32.68Z"/>
              <path class="cls-6" d="M68.32,32.45c-5.74,0-10.39,4.74-10.39,10.58s4.65,10.58,10.39,10.58,10.39-4.74,10.39-10.58-4.65-10.58-10.39-10.58ZM68.05,46.68c-1.18,0-2.13-.98-2.13-2.19s.95-2.18,2.13-2.18,2.13.98,2.13,2.18-.95,2.19-2.13,2.19Z"/>
              <path class="cls-6" d="M38.19,29.13s12.62-2.56,21.26-3.32c.09.1,1.8,7.69,1.8,7.69,0,0-5.41,1.33-6.07,1.42.19-.09,2.28,13.09,2.18,14.43,0-.1-7.5,1.23-9.68,1.33,0,0-2.28-13.09-2.28-14.04,0,.19-6.83.47-6.83.47,0,0-.66-7.02-.38-7.97Z"/>
              <path class="cls-6" d="M33.07,30.65c-5.92,0-10.72,5.08-10.72,11.34s4.8,11.34,10.72,11.34,10.72-5.08,10.72-11.34-4.8-11.34-10.72-11.34ZM33.5,46.02c-1.18,0-2.13-1.1-2.13-2.47s.95-2.47,2.13-2.47,2.13,1.1,2.13,2.47-.95,2.47-2.13,2.47Z"/>
            </g>
          </g>
        </g>
      </g>
    </g>
  </g>
</svg>