<?xml version="1.0" encoding="UTF-8"?>
<svg id="Layer_2" data-name="Layer 2" xmlns="http://www.w3.org/2000/svg" viewBox="0 0 400.41 361.91">
  <defs>
    <style>
      .cls-1 {
        fill: #095da6;
      }

      .cls-2 {
        fill: #fff;
      }

      .cls-3 {
        fill: #ef7d00;
      }

      .cls-4 {
        fill: #eb8d02;
      }

      .cls-5 {
        fill: #ec7e04;
      }
    </style>
  </defs>
  <g id="Capa_1" data-name="Capa 1">
    <g>
      <g>
        <g>
          <path class="cls-5" d="M206.22,357.56c-38.74,0-75.59-12.38-106.56-35.81-37.65-28.47-61.94-69.88-68.41-116.61-6.47-46.73,5.66-93.17,34.17-130.77C99.13,29.88,150.55,4.35,206.48,4.35c38.74,0,75.59,12.38,106.56,35.8,77.72,58.78,93.08,169.75,34.25,247.39-33.72,44.5-85.14,70.02-141.07,70.02Z"/>
          <path class="cls-2" d="M206.48,4.35c38.74,0,75.59,12.38,106.56,35.8,77.72,58.78,93.08,169.75,34.25,247.39-33.72,44.5-85.14,70.02-141.07,70.02-38.74,0-75.59-12.38-106.56-35.81-37.65-28.47-61.94-69.88-68.41-116.61-6.47-46.73,5.66-93.17,34.17-130.77C99.13,29.88,150.55,4.35,206.48,4.35M206.48,0c-57.31,0-110,26.15-144.54,71.74-29.2,38.53-41.64,86.12-35.01,134,6.63,47.88,31.52,90.31,70.1,119.48,31.73,24,69.49,36.69,109.18,36.69,57.31,0,109.99-26.15,144.54-71.75,14.73-19.44,25.21-41.21,31.15-64.7,5.73-22.68,7-45.99,3.78-69.29-3.22-23.29-10.78-45.39-22.46-65.66-12.09-21-28.09-39.11-47.56-53.83C283.94,12.68,246.18,0,206.48,0h0Z"/>
        </g>
        <path class="cls-1" d="M362.16,212.24c-12.11,84.18-90.23,142.62-174.5,130.53-84.26-12.1-142.76-90.14-130.65-174.32C69.12,84.27,147.25,25.83,231.51,37.92c84.26,12.1,142.76,90.14,130.66,174.32Z"/>
      </g>
      <g>
        <path class="cls-4" d="M23.8,165.33c11.43,63.26,39.65,122.9,49.55,142.52,38.17-6.35,74.13-19.93,89.61-26.51-2.49-7.1-5.65-14.99-8.1-20.88-19.79,6.42-43.1,14.13-46.23,15.5,4.43-1.95,7.61-8.18,5.1-14l-17.74,12.05-1.48-1.48-.41-.95c-10.16-15.08-19.11-41.32-26.61-78.03-2.98-14.61-5.07-27.68-6.29-36.08-.19-1.29-.37-2.49-.52-3.59-11.33,3.02-26.33,7.88-36.86,11.45h0Z"/>
        <g>
          <g>
            <path class="cls-2" d="M10.92,154.2s42.36-14.93,58.55-17.43c-.31,0,10.59,92.72,33.64,125.69-.62-.62,57.3-19.29,57.3-19.29,0,0,11.22,25.52,15.26,40.14,0,.62-52.94,24.9-108.99,32.68,0,0-42.99-78.72-55.76-161.79Z"/>
            <path class="cls-2" d="M66.67,326.9c-3.95,0-7.65-2.15-9.58-5.68-1.79-3.28-44.05-81.36-56.96-165.35-.8-5.18,2.21-10.2,7.16-11.94,1.77-.62,43.52-15.3,60.52-17.92,5.67-.88,11.04,2.78,12.31,8.36.17.74.26,1.48.27,2.21.74,8.83,10.48,79.69,27.38,112.44,8.91-3.2,23.83-8.01,49.28-16.21,5.34-1.72,11.1.87,13.35,5.99.47,1.07,11.59,26.42,15.79,41.63.26.94.39,1.92.39,2.9,0,7.59-4.95,9.7-15.79,14.31-5.23,2.23-13.82,5.71-24.98,9.63-18.77,6.6-47.48,15.35-77.64,19.54-.51.07-1.01.1-1.51.1ZM23.21,161.51c11.42,63.18,39.66,122.88,49.56,142.52,38.18-6.35,74.13-19.93,89.59-26.51-2.49-7.1-5.65-14.99-8.1-20.89-18.97,6.16-41.18,13.5-45.74,15.31-4.22,2.41-9.6,1.75-13.1-1.72-.47-.46-.89-.97-1.27-1.51h0c-10.42-14.91-19.59-41.48-27.26-78.97-2.99-14.6-5.07-27.68-6.3-36.08-.19-1.29-.36-2.48-.52-3.59-11.33,3.02-26.33,7.89-36.86,11.45ZM111.16,269.83c-.51.55-1.07,1.06-1.7,1.5.61-.42,1.18-.93,1.7-1.5ZM113.15,258.17c.32.75.55,1.52.7,2.3-.14-.77-.37-1.53-.7-2.3ZM75.54,145.85c-.87.58-1.83,1.04-2.88,1.36,1.07-.33,2.03-.79,2.88-1.36ZM80.39,136.98c-.01.65-.08,1.28-.2,1.91.13-.65.2-1.29.2-1.91Z"/>
          </g>
          <g>
            <path class="cls-2" d="M337.99,157.23c-28.45,0-51.5,23.46-51.5,52.4s23.05,52.38,51.5,52.38,51.51-23.45,51.51-52.38-23.06-52.4-51.51-52.4ZM336.6,227.72c-5.83,0-10.56-4.84-10.56-10.81s4.73-10.81,10.56-10.81,10.56,4.84,10.56,10.81-4.73,10.81-10.56,10.81Z"/>
            <path class="cls-2" d="M337.99,272.92c-34.42,0-62.42-28.39-62.42-63.29s28-63.31,62.42-63.31,62.43,28.4,62.43,63.31-28,63.29-62.43,63.29ZM337.99,168.14c-22.38,0-40.58,18.61-40.58,41.49s18.21,41.47,40.58,41.47,40.59-18.6,40.59-41.47-18.21-41.49-40.59-41.49ZM336.6,238.63c-11.84,0-21.48-9.74-21.48-21.72s9.63-21.72,21.48-21.72,21.48,9.74,21.48,21.72-9.63,21.72-21.48,21.72Z"/>
          </g>
          <g>
            <path class="cls-2" d="M188.65,140.79s62.57-12.68,105.36-16.45c.47.47,8.94,38.06,8.94,38.06,0,0-26.81,6.58-30.11,7.05.95-.46,11.29,64.84,10.82,71.42,0-.47-37.15,6.11-47.97,6.58,0,0-11.29-64.85-11.29-69.54,0,.94-33.87,2.35-33.87,2.35,0,0-3.29-34.76-1.88-39.47Z"/>
            <path class="cls-2" d="M235.69,258.36c-5.28,0-9.84-3.8-10.75-9.04-3.64-20.91-7.77-45.09-9.94-59.41-2.19.14-4.56.28-6.93.42-8.54.47-17.09.83-17.09.83-5.82.22-10.78-4.1-11.32-9.87-3.49-36.88-2.03-41.77-1.47-43.61,1.15-3.86,4.34-6.77,8.29-7.57,2.58-.52,63.66-12.85,106.57-16.62,3.22-.28,6.41.88,8.7,3.17q2.69,2.7,11.85,43.36c1.31,5.8-2.27,11.57-8.05,12.99-4.63,1.14-12.86,3.15-19.78,4.77,0,.03.01.07.02.1,1.1,6.19,2.49,14.66,3.82,23.25,3.56,23,5.22,36.64,4.94,40.54-.41,5.7-5.15,10.1-10.82,10.13-1.72.21-6.68.99-11.1,1.68-15.96,2.5-29.72,4.6-36.47,4.89-.16,0-.32.01-.48.01ZM235.32,177.66c.29,3.98,4.77,31.09,9.4,57.91,7.55-.99,17.26-2.51,24.54-3.65.96-.15,1.85-.29,2.68-.42-2.11-16.79-7.56-51.2-9.17-57.88-.13-.31-.24-.62-.34-.94-1.59-5.13.79-10.64,5.61-13.01,1.03-.51,2.14-.85,3.28-1.01h0c1.55-.25,9.54-2.12,18.63-4.31-1.56-6.83-3.06-13.34-4.21-18.22-31.26,3.41-69.68,10.48-86.43,13.69.19,4.99.64,11.95,1.21,19.06,9.1-.45,17.58-.98,20.5-1.34,1.07-.35,2.21-.54,3.39-.54,5.95,0,10.78,4.75,10.92,10.65ZM265.71,177.71c1.14.99,2.6,1.85,4.43,2.31-1.64-.42-3.15-1.22-4.43-2.31ZM214.37,173.6c-.55,1.26-.88,2.7-.88,4.31,0-1.53.32-2.99.88-4.31Z"/>
          </g>
          <g>
            <path class="cls-2" d="M163.26,148.31c-29.35,0-53.15,25.14-53.15,56.15s23.79,56.15,53.15,56.15,53.14-25.14,53.14-56.15-23.79-56.15-53.14-56.15ZM165.4,224.43c-5.83,0-10.55-5.47-10.55-12.21s4.73-12.22,10.55-12.22,10.56,5.47,10.56,12.22-4.73,12.21-10.56,12.21Z"/>
            <path class="cls-2" d="M163.26,271.52c-35.33,0-64.07-30.08-64.07-67.05s28.74-67.06,64.07-67.06,64.06,30.08,64.06,67.06-28.74,67.05-64.06,67.05ZM163.26,159.22c-23.29,0-42.23,20.3-42.23,45.24s18.94,45.24,42.23,45.24,42.22-20.29,42.22-45.24-18.94-45.24-42.22-45.24ZM165.4,235.34c-11.84,0-21.47-10.37-21.47-23.12s9.63-23.13,21.47-23.13,21.48,10.38,21.48,23.13-9.63,23.12-21.48,23.12Z"/>
          </g>
        </g>
        <g>
          <path class="cls-3" d="M11.87,155.56s42.36-14.93,58.55-17.41c-.32,0,10.58,92.71,33.64,125.69-.64-.62,57.29-19.29,57.29-19.29,0,0,11.21,25.51,15.27,40.13,0,.62-52.95,24.89-109.01,32.67,0,0-42.97-78.71-55.74-161.79Z"/>
          <path class="cls-3" d="M338.93,158.61c-28.45,0-51.52,23.45-51.52,52.39s23.07,52.39,51.52,52.39,51.5-23.46,51.5-52.39-23.06-52.39-51.5-52.39ZM337.53,229.09c-5.82,0-10.55-4.85-10.55-10.82s4.73-10.8,10.55-10.8,10.57,4.85,10.57,10.8-4.73,10.82-10.57,10.82Z"/>
          <path class="cls-3" d="M189.6,142.16s62.56-12.69,105.35-16.45c.47.48,8.94,38.06,8.94,38.06,0,0-26.81,6.58-30.11,7.04.95-.46,11.29,64.84,10.82,71.43,0-.47-37.15,6.11-47.98,6.57,0,0-11.29-64.84-11.29-69.53,0,.93-33.86,2.34-33.86,2.34,0,0-3.29-34.77-1.88-39.46Z"/>
          <path class="cls-3" d="M164.2,149.67c-29.36,0-53.16,25.14-53.16,56.16s23.8,56.15,53.16,56.15,53.14-25.14,53.14-56.15-23.8-56.16-53.14-56.16ZM166.34,225.79c-5.84,0-10.56-5.47-10.56-12.21s4.72-12.21,10.56-12.21,10.56,5.47,10.56,12.21-4.73,12.21-10.56,12.21Z"/>
        </g>
      </g>
    </g>
  </g>
</svg>