<?xml version="1.0" encoding="UTF-8"?>
<svg xmlns="http://www.w3.org/2000/svg" xmlns:xlink="http://www.w3.org/1999/xlink" viewBox="0 0 888.32 854.2">
  <defs>
    <style>
      .cls-1, .cls-2 {
        fill: #fff;
      }

      .cls-3 {
        fill: #d1d3d4;
      }

      .cls-4 {
        fill: #1d9649;
      }

      .cls-5, .cls-6 {
        mix-blend-mode: multiply;
      }

      .cls-6 {
        fill: url(#Degradado_sin_nombre_18);
        opacity: .5;
      }

      .cls-7 {
        fill: url(#Degradado_sin_nombre_96);
      }

      .cls-8 {
        isolation: isolate;
      }

      .cls-2 {
        mix-blend-mode: overlay;
        opacity: .3;
      }
    </style>
    <linearGradient id="Degradado_sin_nombre_96" data-name="Degradado sin nombre 96" x1="229.96" y1="61.05" x2="601.86" y2="705.19" gradientUnits="userSpaceOnUse">
      <stop offset="0" stop-color="#d7df23"/>
      <stop offset=".1" stop-color="#b8d52d"/>
      <stop offset=".21" stop-color="#a0cd36"/>
      <stop offset=".32" stop-color="#8fc73c"/>
      <stop offset=".45" stop-color="#85c43f"/>
      <stop offset=".6" stop-color="#82c341"/>
    </linearGradient>
    <linearGradient id="Degradado_sin_nombre_18" data-name="Degradado sin nombre 18" x1="368.84" y1="586.23" x2="368.84" y2="732.78" gradientTransform="translate(151.65 -75.65) rotate(13.85)" gradientUnits="userSpaceOnUse">
      <stop offset=".07" stop-color="#fff"/>
      <stop offset=".2" stop-color="#dfeee3"/>
      <stop offset=".49" stop-color="#8ec39c"/>
      <stop offset=".87" stop-color="#1d873a"/>
    </linearGradient>
  </defs>
  <g class="cls-8">
    <g id="Layer_1" data-name="Layer 1">
      <g>
        <g>
          <path class="cls-1" d="M787.84,474.8c-50.64,205.38-258.2,330.83-463.56,280.23C118.86,704.42-6.61,496.87,43.99,291.47,94.61,86.05,302.18-39.39,507.54,11.21c205.42,50.65,330.9,258.17,280.29,463.59Z"/>
          <g>
            <path class="cls-7" d="M777.03,472.13c-49.17,199.41-250.7,321.21-450.09,272.08C127.49,695.08,5.67,493.56,54.8,294.14,103.95,94.69,305.49-27.11,504.88,22.02c199.45,49.17,321.28,250.66,272.15,450.11Z"/>
            <path class="cls-2" d="M678.63,368.05c-70.82,17.23-161.96-39.74-243.79-51.51-77.92-27.58-185.1-19.51-239.79-67.69-22.73-25.16-17.14-83.11,38.41-132.06,52.83-48.21,155.63-87.39,264.92-58.07,110.41,24.83,183.23,107.26,207.64,174.54,26.43,69.13,4.45,123.08-27.39,134.79Z"/>
            <path class="cls-6" d="M370.26,578.72c53.53,13.25,104.53,14.94,147.31,10.94,42.64-3.21,77.01-12.16,95.25-1.32,16.3,8.45,15,44.47-31.78,72.87-44.28,28.17-133.98,48.71-236.5,21.81-103.31-23.82-173.21-83.71-199.31-129.22-28.23-46.89-12.64-79.39,5.7-79.28,21.23-1.1,47.5,22.77,83.78,45.43,35.98,23.39,81.96,45.6,135.55,58.77Z"/>
            <g class="cls-5">
              <g>
                <path class="cls-3" d="M20.55,322.49c32.14-10.84,63.75-20.3,94.79-28.4,15-4.42,28.68-5.65,41.01-3.71,12.35,1.97,23.15,6.34,32.41,13.06,9.29,6.73,16.86,15.46,22.78,26.18,5.88,10.73,9.98,22.52,12.27,35.41,2.31,12.86,2.69,26.43,1.18,40.64-1.52,14.24-5.21,28.29-11.03,42.2-5.84,13.84-13.9,27.12-24.18,39.76-10.27,12.61-22.94,23.75-37.98,33.39-6.12,2.87-12.91,5.24-20.36,7.06-7.46,1.86-17.51,3.52-30.1,5.03-12.62,1.53-28.5,2.37-47.58,2.54L20.55,322.49Zm91.05,142.08c10.08-3.78,18.02-8.5,23.84-14.21,5.84-5.72,10.02-11.37,12.64-17.03,2.56-5.63,4.19-11.11,4.87-16.38,.67-5.31,.83-9.43,.44-12.32-.44-3.13-.63-4.76-.68-4.93-.04-.39-.55-2.11-1.54-5.27-.96-3.09-2.67-6.72-5.09-10.86-2.42-4.14-5.44-7.38-9.12-9.77-3.66-2.39-8.3-2.92-13.88-1.63-5.57,1.32-12.03,5.82-19.36,13.51l7.88,78.89Z"/>
                <path class="cls-3" d="M38.03,554.16L0,310.02l14.67-4.96c32.45-10.91,64.68-20.56,95.75-28.67,17.48-5.13,33.92-6.54,48.8-4.17,15.2,2.42,28.76,7.91,40.36,16.33,11.4,8.3,20.83,19.1,28.06,32.17,6.85,12.52,11.65,26.31,14.27,41.09,2.59,14.44,3.04,29.86,1.35,45.79-1.7,15.94-5.86,31.86-12.34,47.37-6.52,15.42-15.55,30.31-26.86,44.22-11.49,14.1-25.71,26.66-42.32,37.29l-2.14,1.15c-7.19,3.38-15.18,6.17-23.74,8.28-8.25,2.03-18.83,3.83-32.32,5.46-13.24,1.58-29.9,2.47-49.64,2.61l-15.87,.17h0Zm3.07-219.11l28.35,181.87c11.48-.36,21.44-1.07,29.72-2.05,11.82-1.44,21.19-2.99,27.86-4.65,5.83-1.43,11.17-3.23,15.93-5.38,12.86-8.38,23.81-18.07,32.6-28.85,9.11-11.2,16.34-23.07,21.47-35.26,5.09-12.18,8.37-24.65,9.7-37.01,1.31-12.47,.99-24.43-1-35.47-1.91-10.84-5.38-20.85-10.3-29.8-4.61-8.38-10.34-14.97-17.45-20.15-6.96-5.05-14.97-8.25-24.5-9.77-9.5-1.49-20.63-.43-32.9,3.21l-.58,.14c-25.67,6.7-52.13,14.46-78.89,23.17h0Zm54.57,155.11l-11.06-111.07,5.83-6.13c9.9-10.39,19.22-16.49,28.43-18.66,10.73-2.51,20.27-1.01,28.13,4.11,6.02,3.88,11.07,9.26,14.96,15.87,3.18,5.43,5.38,10.25,6.78,14.69,1.6,5.15,1.97,6.56,2.2,8.31h0l.65,4.84c.63,4.62,.51,10.22-.41,17.2-.89,7.01-3.02,14.32-6.37,21.64-3.55,7.71-9.09,15.25-16.48,22.52-7.64,7.52-17.83,13.69-30.27,18.32l-22.38,8.36h0Zm27.25-97.3l3.97,39.68c1.97-2.39,3.46-4.69,4.47-6.89,1.78-3.92,2.93-7.61,3.35-11.04,.7-5.48,.45-7.46,.45-7.54l-.53-3.85c-.2-.74-.53-1.84-1-3.3-.31-.98-1.14-3.21-3.41-7.06-.72-1.22-1.45-2.18-2.29-2.9-.2,.02-.42,.09-.66,.14h0s-1.42,.45-4.35,2.76h0Z"/>
              </g>
              <g>
                <path class="cls-3" d="M287.57,304.03l13.93,166.88-53.04,13.4-20.16-164.99,59.27-15.28Z"/>
                <path class="cls-3" d="M232.74,507.24l-24.66-201.71,95.98-24.75,17.06,204.11-88.38,22.35h0Zm15.77-174.16l15.67,128.29,17.72-4.47-10.85-129.62-22.54,5.8h0Z"/>
              </g>
              <g>
                <path class="cls-3" d="M362.46,294.57l101.35,116.58-49.62,26.88-17.14-21.45-34.82,5.89-3.46,25.92-52.35-9.57,56.04-144.25Zm4.85,100.26l19.35-6.17-11.37-21.56-7.98,27.72Z"/>
                <path class="cls-3" d="M374.44,469.95l-93.21-17.02,75.12-193.43,136.39,156.92-83.31,45.09-19.99-24.99-10.78,1.83-4.22,31.61h0Zm-42.83-45.2l11.48,2.11,.7-5.24-3.66,1.16,22.15-76.98-30.68,78.94h0Zm76.59-23.64l10.77,13.45,15.94-8.64-46.75-53.76,25.02,47.34-4.98,1.61h0Z"/>
              </g>
              <g>
                <path class="cls-3" d="M585.38,394.58l-25.08,37.4-51-27.91,3.86,32.74-46.86,1.43-23.17-148.67c23.81-6.07,46.78-11.68,68.87-16.85,11.79-2.9,21.87-3.35,30.23-1.38,8.39,1.99,15.03,5.6,19.93,10.83,4.92,5.24,8.19,11.66,9.79,19.29,1.63,7.63,1.55,15.65-.14,24.12-1.72,8.48-5.07,16.92-10.11,25.4-5.01,8.44-11.6,16.04-19.76,22.85l43.43,20.78Zm-89.53-68.6l2.22,30.79c4.45-1.61,8.22-3.64,11.34-5.99,3.09-2.37,5.69-4.79,7.68-7.23,1.97-2.49,3.47-4.79,4.39-6.93,.95-2.13,1.46-3.8,1.57-4.98,0-.11-.05-.81-.09-2.1-.05-1.3-.42-2.82-1.09-4.53-.68-1.72-2-3.07-3.86-4.03-1.86-.98-4.59-1.2-8.17-.67-3.55,.57-8.22,2.45-14.02,5.69Z"/>
                <path class="cls-3" d="M450.63,457.11l-28.24-181.27,16.21-4.11c23.88-6.08,47.17-11.79,69.21-16.94,14.33-3.52,27.47-4.03,38.67-1.35,11.88,2.82,21.67,8.22,29.08,16.1,7.26,7.74,12.1,17.21,14.38,28.12,2.11,9.97,2.11,20.58-.08,31.5-2.14,10.56-6.31,21.02-12.33,31.19-1.57,2.59-3.24,5.15-5.07,7.66l40.06,19.17-46.3,68.98-34.48-18.88,2.03,17.28-83.13,2.56h0Zm13.24-153.82l18.1,116.07,10.58-.33-4.55-38.99-6.51,2.37-4.81-66.76,10.22-5.72c7.89-4.42,14.33-6.9,20.18-7.8,7.6-1.15,14.04-.31,19.45,2.51,5.8,3.04,10.08,7.71,12.44,13.5,1.46,3.81,2.25,7.26,2.4,10.68l.11,3.06-.09,1.35c-.31,3.3-1.27,6.7-3.04,10.77-1.63,3.66-3.88,7.26-6.95,11.04-2.9,3.61-6.55,7.09-10.86,10.38-4.61,3.5-10.05,6.4-16.15,8.62l-6.95,2.53,56.96,31.19,3.92-5.79-50.13-23.96,22.01-18.35c6.53-5.44,11.8-11.54,15.74-18.13,3.91-6.61,6.58-13.23,7.88-19.65,1.21-6.02,1.27-11.48,.17-16.63-.9-4.33-2.62-7.76-5.21-10.53-2.42-2.56-5.94-4.36-10.75-5.51-5.43-1.27-12.84-.82-21.62,1.32-16.94,3.97-34.52,8.25-52.52,12.75h0Z"/>
              </g>
              <g>
                <path class="cls-3" d="M625.33,267.75l11.34,135.71-43.12,10.9-16.41-134.17,48.2-12.44Z"/>
                <path class="cls-3" d="M577.81,437.3l-20.88-170.88,84.89-21.89,14.47,172.92-78.48,19.84h0Zm19.5-143.32l11.94,97.44,7.78-1.97-8.2-98.45-11.51,2.99h0Z"/>
              </g>
              <g>
                <path class="cls-3" d="M709.62,217.5l141.37,162.58-69.21,37.46-23.9-29.9-48.55,8.22-4.84,36.14-72.98-13.34,78.1-201.16Zm6.81,139.81l26.96-8.62-15.84-30.03-11.11,38.64Z"/>
                <path class="cls-3" d="M720.18,453.54l-113.86-20.8,97.19-250.28,176.39,202.84-102.87,55.7-26.74-33.41-24.54,4.14-5.57,41.8h0Zm-63.47-48.98l32.14,5.89,3.49-26.15-3.09,.99,33.24-115.52,47.48,89.79-49.71,15.82,45.23-7.63,21.06,26.32,35.52-19.25-106.33-122.26-59.02,152.01h0Z"/>
              </g>
            </g>
            <g>
              <g>
                <path class="cls-4" d="M28.97,309.89c32.14-10.84,63.75-20.33,94.79-28.4,15-4.45,28.67-5.69,41.01-3.71,12.35,1.97,23.15,6.3,32.41,13.03,9.28,6.75,16.86,15.48,22.78,26.2,5.88,10.7,9.99,22.52,12.27,35.41,2.31,12.86,2.68,26.43,1.17,40.64-1.5,14.24-5.19,28.29-11.02,42.2-5.85,13.85-13.9,27.1-24.18,39.73-10.27,12.64-22.94,23.76-37.97,33.42-6.14,2.84-12.92,5.21-20.38,7.06-7.46,1.82-17.51,3.52-30.12,5.04-12.61,1.49-28.48,2.33-47.57,2.51L28.97,309.89Zm91.05,142.08c10.06-3.78,18.03-8.53,23.84-14.24,5.83-5.72,10.02-11.37,12.63-17.03,2.58-5.62,4.21-11.08,4.88-16.37,.67-5.3,.81-9.41,.42-12.33-.42-3.09-.62-4.73-.66-4.93-.04-.36-.55-2.11-1.54-5.24-.97-3.09-2.67-6.72-5.09-10.86-2.42-4.14-5.46-7.4-9.13-9.8-3.65-2.36-8.29-2.89-13.87-1.6-5.57,1.32-12.02,5.8-19.35,13.48l7.87,78.92Z"/>
                <path class="cls-4" d="M46.44,541.52L8.42,297.42l14.67-4.96c32.45-10.94,64.68-20.6,95.75-28.7,17.48-5.1,33.89-6.53,48.82-4.17,15.18,2.42,28.75,7.94,40.32,16.35,11.43,8.28,20.87,19.11,28.07,32.17,6.87,12.5,11.67,26.32,14.3,41.07,2.58,14.48,3.03,29.87,1.34,45.82-1.7,15.94-5.86,31.86-12.36,47.35-6.5,15.44-15.54,30.3-26.85,44.24-11.49,14.1-25.71,26.62-42.32,37.26l-2.14,1.18c-7.18,3.38-15.18,6.13-23.75,8.28-8.23,2.03-18.82,3.8-32.32,5.43-13.2,1.61-29.91,2.47-49.62,2.65l-15.87,.14h0Zm3.07-219.08l28.35,181.87c11.48-.39,21.44-1.1,29.71-2.08,11.82-1.41,21.2-2.99,27.88-4.62,5.83-1.44,11.17-3.26,15.93-5.38,12.86-8.38,23.81-18.1,32.6-28.87,9.11-11.21,16.34-23.05,21.47-35.27,5.09-12.18,8.36-24.63,9.7-36.98,1.31-12.5,.99-24.43-1-35.47-1.93-10.84-5.38-20.85-10.31-29.8-4.61-8.4-10.34-15.01-17.45-20.16-6.96-5.06-14.97-8.25-24.5-9.76-9.5-1.53-20.63-.45-32.92,3.21l-.56,.14c-25.67,6.67-52.13,14.44-78.9,23.17h0Zm54.57,155.11l-11.08-111.09,5.85-6.11c9.9-10.39,19.21-16.49,28.43-18.69,10.72-2.47,20.27-1.01,28.13,4.11,6.04,3.91,11.07,9.26,14.94,15.9,3.19,5.43,5.39,10.24,6.79,14.69,1.6,5.15,1.97,6.53,2.2,8.31h0l.65,4.81c.63,4.62,.51,10.24-.42,17.2-.87,7.04-3.01,14.36-6.37,21.67-3.53,7.68-9.08,15.25-16.46,22.52-7.66,7.52-17.85,13.65-30.27,18.29l-22.38,8.39h0Zm27.25-97.31l3.97,39.69c1.97-2.39,3.46-4.71,4.47-6.89,1.77-3.92,2.93-7.63,3.35-11.04,.7-5.48,.45-7.46,.45-7.57l-.52-3.82c-.21-.74-.55-1.84-1-3.3-.32-.99-1.15-3.21-3.43-7.07-.7-1.21-1.44-2.16-2.28-2.89-.2,0-.41,.05-.65,.11h0s-1.43,.45-4.36,2.78h0Z"/>
              </g>
              <g>
                <path class="cls-4" d="M295.97,291.39l13.95,166.88-53.05,13.43-20.16-165,59.26-15.31Z"/>
                <path class="cls-4" d="M241.15,494.61l-24.66-201.7,95.98-24.77,17.07,204.15-88.39,22.33h0Zm15.75-174.14l15.69,128.28,17.72-4.47-10.85-129.64-22.56,5.82h0Z"/>
              </g>
              <g>
                <path class="cls-4" d="M370.88,281.93l101.35,116.62-49.62,26.88-17.14-21.45-34.82,5.88-3.46,25.93-52.35-9.57,56.04-144.29Zm4.85,100.29l19.35-6.19-11.39-21.54-7.97,27.72Z"/>
                <path class="cls-4" d="M382.86,457.31l-93.21-16.99,75.12-193.43,136.39,156.88-83.31,45.12-19.98-24.99-10.79,1.84-4.22,31.57h0Zm-42.83-45.17l11.48,2.08,.7-5.21-3.66,1.15,22.15-76.97-30.68,78.94h0Zm76.59-23.67l10.75,13.45,15.95-8.64-46.74-53.76,25.04,47.35-5,1.6h0Z"/>
              </g>
              <g>
                <path class="cls-4" d="M593.79,381.94l-25.08,37.41-51-27.89,3.86,32.74-46.86,1.43-23.18-148.69c23.83-6.06,46.78-11.66,68.89-16.86,11.79-2.87,21.87-3.32,30.23-1.35,8.36,1.97,15,5.61,19.93,10.81,4.92,5.26,8.19,11.68,9.79,19.31,1.6,7.59,1.55,15.65-.14,24.1-1.72,8.47-5.07,16.94-10.11,25.39-4.98,8.44-11.6,16.06-19.76,22.85l43.43,20.78Zm-89.5-68.56l2.2,30.79c4.45-1.63,8.22-3.64,11.34-5.99,3.09-2.37,5.69-4.79,7.68-7.26,2-2.45,3.47-4.79,4.42-6.9,.93-2.13,1.46-3.8,1.55-4.98-.03-.11-.05-.84-.09-2.13-.05-1.27-.42-2.79-1.09-4.51-.7-1.71-1.97-3.06-3.86-4.04-1.89-.96-4.62-1.18-8.17-.65-3.55,.53-8.22,2.44-13.99,5.68Z"/>
                <path class="cls-4" d="M459.06,444.51l-28.26-181.27,16.21-4.11c23.89-6.11,47.17-11.8,69.21-16.97,14.33-3.52,27.47-4,38.67-1.32,11.88,2.78,21.67,8.21,29.08,16.1,7.26,7.71,12.1,17.19,14.38,28.1,2.11,9.96,2.09,20.6-.08,31.52-2.17,10.53-6.31,21-12.33,31.16-1.57,2.63-3.24,5.19-5.07,7.68l40.06,19.15-46.3,69.01-34.48-18.89,2.03,17.26-83.12,2.59h0Zm13.23-153.85l18.1,116.08,10.58-.34-4.55-38.99-6.51,2.37-4.81-66.74,10.2-5.74c7.89-4.39,14.34-6.89,20.2-7.8,7.6-1.15,14.04-.28,19.45,2.54,5.8,3.01,10.08,7.68,12.42,13.5,1.49,3.81,2.28,7.26,2.42,10.64l.11,3.06-.09,1.39c-.28,3.26-1.27,6.7-3.04,10.75-1.63,3.68-3.88,7.28-6.95,11.06-2.9,3.59-6.55,7.09-10.86,10.36-4.61,3.52-10.05,6.39-16.15,8.64l-6.95,2.53,56.97,31.19,3.88-5.8-50.1-23.98,22.01-18.32c6.51-5.43,11.8-11.53,15.71-18.12,3.94-6.61,6.59-13.23,7.91-19.65,1.21-6.05,1.27-11.51,.17-16.66-.9-4.31-2.62-7.74-5.21-10.5-2.42-2.59-5.94-4.39-10.75-5.51-5.43-1.3-12.84-.84-21.62,1.32-16.94,3.97-34.52,8.21-52.52,12.71h0Z"/>
              </g>
              <g>
                <path class="cls-4" d="M633.74,255.13l11.34,135.7-43.15,10.91-16.38-134.16,48.2-12.45Z"/>
                <path class="cls-4" d="M586.22,424.66l-20.88-170.84,84.89-21.92,14.47,172.93-78.48,19.84h0Zm19.5-143.32l11.94,97.47,7.77-1.97-8.22-98.45-11.49,2.95h0Z"/>
              </g>
              <g>
                <path class="cls-4" d="M718.03,204.87l141.35,162.59-69.18,37.47-23.9-29.9-48.55,8.22-4.84,36.11-72.98-13.33,78.1-201.16Zm6.78,139.83l26.99-8.62-15.87-30.03-11.12,38.65Z"/>
                <path class="cls-4" d="M728.59,440.9l-113.85-20.77,97.19-250.28,176.39,202.84-102.87,55.7-26.74-33.43-24.54,4.16-5.57,41.77h0Zm-63.47-48.95l32.14,5.86,3.49-26.14-3.09,.98,33.24-115.49,47.45,89.76-49.68,15.85,45.23-7.66,21.06,26.35,35.52-19.22-106.31-122.3-59.05,152.02h0Z"/>
              </g>
            </g>
            <g>
              <path class="cls-1" d="M30.5,293.78c32.19-10.84,63.76-20.29,94.81-28.39,15-4.45,28.68-5.69,41.01-3.71,12.34,1.96,23.14,6.3,32.4,13.02,9.3,6.76,16.87,15.49,22.8,26.21,5.88,10.7,9.99,22.52,12.27,35.4,2.3,12.86,2.67,26.43,1.17,40.65-1.51,14.24-5.19,28.29-11.02,42.19-5.85,13.85-13.91,27.14-24.18,39.74-10.27,12.64-22.94,23.75-37.97,33.41-6.14,2.87-12.93,5.21-20.38,7.07-7.46,1.82-17.52,3.51-30.12,5.03-12.61,1.49-28.48,2.34-47.58,2.51L30.5,293.78Zm91.05,142.09c10.09-3.78,18.03-8.5,23.85-14.25,5.83-5.71,10.02-11.37,12.63-17.02,2.57-5.6,4.21-11.09,4.87-16.38,.69-5.29,.85-9.4,.44-12.33-.44-3.09-.62-4.73-.66-4.92-.04-.37-.56-2.11-1.53-5.24-.96-3.09-2.68-6.73-5.1-10.87-2.42-4.14-5.45-7.37-9.12-9.79-3.66-2.37-8.3-2.9-13.86-1.58-5.58,1.3-12.03,5.8-19.37,13.46l7.87,78.92Z"/>
              <path class="cls-1" d="M297.52,275.32l13.94,166.86-53.02,13.42-20.18-164.99,59.26-15.28Z"/>
              <path class="cls-1" d="M372.42,265.83l101.38,116.6-49.64,26.88-17.14-21.44-34.83,5.88-3.45,25.92-52.35-9.57,56.03-144.27Zm4.85,100.29l19.37-6.17-11.37-21.56-8,27.72Z"/>
              <path class="cls-1" d="M595.34,365.83l-25.05,37.44-51.03-27.93,3.85,32.74-46.86,1.44-23.16-148.67c23.8-6.08,46.74-11.68,68.87-16.86,11.8-2.89,21.87-3.35,30.23-1.38,8.39,1.97,15.03,5.6,19.93,10.84,4.92,5.24,8.19,11.65,9.79,19.29,1.63,7.63,1.55,15.65-.14,24.12-1.72,8.45-5.07,16.92-10.11,25.36-5.01,8.45-11.6,16.07-19.75,22.89l43.43,20.74Zm-89.53-68.55l2.22,30.78c4.45-1.63,8.22-3.63,11.34-5.99,3.09-2.36,5.69-4.78,7.69-7.26,1.97-2.44,3.46-4.75,4.42-6.89,.93-2.14,1.43-3.8,1.55-4.98,0-.12-.05-.82-.08-2.14-.06-1.26-.43-2.78-1.1-4.5-.7-1.72-1.97-3.06-3.86-4.05-1.86-.98-4.59-1.18-8.16-.65-3.55,.54-8.22,2.45-14.02,5.7Z"/>
              <path class="cls-1" d="M635.29,239.04l11.34,135.69-43.13,10.89-16.41-134.14,48.2-12.44Z"/>
              <path class="cls-1" d="M719.59,188.8l141.37,162.57-69.21,37.46-23.89-29.86-48.55,8.18-4.84,36.12-72.98-13.34,78.1-201.13Zm6.81,139.79l26.99-8.61-15.91-30.04-11.09,38.64Z"/>
            </g>
            <g>
              <g>
                <path class="cls-4" d="M519.88,538.98c-6.23,0-12.13,1.47-17.39,4.07-4.97-21.83-5.06-21.92-6.62-23.47-1.33-1.3-3.17-1.93-5.01-1.78-27.7,2.44-67.14,10.38-68.79,10.68-2.33,.48-4.17,2.18-4.84,4.43-.09,.27-.22,.69-.32,1.61-3.2-.85-6.54-1.3-9.99-1.3-22.44,0-40.71,19.05-40.71,42.55,0,10.59,3.73,20.26,9.88,27.7-2.11,.71-3.89,1.32-5.36,1.85-11.29-21.14-17.65-67.61-18.05-73.29,0-.45-.05-.88-.21-1.3-.68-3.26-3.8-5.34-7.11-4.88-10.94,1.69-37.88,11.1-38.99,11.48-2.92,1.04-4.66,3.95-4.2,6.96,8.33,54.06,35.61,104.29,36.73,106.38,1.09,2.05,3.28,3.32,5.6,3.32,.27,0,.57-.03,.87-.07,19.44-2.68,37.93-8.31,50.06-12.58,25.85-9.07,25.85-10.61,25.85-14.75,0-.57-.03-1.14-.21-1.71-.69-2.48-1.67-5.38-2.75-8.34,12.35-3.76,22.29-13.48,26.74-25.97,.86,5.01,1.71,9.88,2.43,14,.51,3.06,3.17,5.21,6.26,5.21h.26c4.31-.2,13.13-1.52,23.36-3.1,3.52-.56,6.38-1.05,7.19-1.1,1.7,.06,3.2-.52,4.34-1.51,7.27,9.2,18.45,15.12,30.98,15.12,21.86,0,39.63-18.01,39.63-40.09s-17.77-40.12-39.63-40.12Zm-34.31,20.05c-.06-.36-.12-.72-.18-1.05,.31-.07,.63-.14,.94-.22-.26,.42-.51,.84-.76,1.27Zm-77.11,23.32c-.18-.09-.62-.67-.62-1.57,0-.73,.28-1.24,.45-1.47,.2,.23,.49,.73,.49,1.47,0,.91-.44,1.48-.32,1.57Z"/>
                <path class="cls-4" d="M518.99,570.46c-7.27,0-13.2,5.98-13.2,13.38s5.93,13.27,13.2,13.27,13.16-5.98,13.16-13.27-5.89-13.38-13.16-13.38Z"/>
              </g>
              <g>
                <path class="cls-1" d="M308.62,544.86s27.38-9.64,37.86-11.28c-.17,0,6.86,59.83,21.76,81.11-.4-.41,36.99-12.47,36.99-12.47,0,0,7.29,16.45,9.91,25.9,0,.36-34.22,16.06-70.47,21.05,0,0-27.79-50.8-36.06-104.3"/>
                <path class="cls-1" d="M520.05,546.83c-18.38,0-33.27,15.13-33.27,33.78s14.89,33.78,33.27,33.78,33.31-15.14,33.31-33.78-14.91-33.78-33.31-33.78m-.9,45.43c-3.76,0-6.84-3.16-6.84-7.01s3.08-6.94,6.84-6.94,6.85,3.12,6.85,6.94-3.07,7.01-6.85,7.01"/>
                <path class="cls-1" d="M423.54,536.21s40.41-8.16,68.07-10.58c.3,.29,5.79,24.53,5.79,24.53,0,0-17.35,4.26-19.46,4.57,.63-.31,7.3,41.79,6.99,45.99,0-.25-24.03,3.97-30.99,4.3,0,0-7.3-41.81-7.3-44.88,0,.62-21.9,1.5-21.9,1.5,0,0-2.13-22.41-1.2-25.44"/>
                <path class="cls-1" d="M407.1,541.05c-18.95,0-34.37,16.21-34.37,36.21s15.41,36.21,34.37,36.21,34.39-16.22,34.39-36.21-15.45-36.21-34.39-36.21m1.38,49.1c-3.76,0-6.8-3.53-6.8-7.89s3.04-7.91,6.8-7.91,6.81,3.55,6.81,7.91-3.04,7.89-6.81,7.89"/>
              </g>
            </g>
          </g>
        </g>
        <g>
          <path class="cls-1" d="M190.6,764.01c1.99-2.2,3.58-2.77,6.54-1.11,2.94,1.68,3.3,3.34,2.46,6.19-3.1,10.07-6.21,18.39-9.05,23.43-2.84,5.05-6.8,6.97-12.28,3.88-5.47-3.08-5.86-7.47-3.03-12.51,2.84-5.05,8.34-12.02,15.36-19.88m16.85-19.39c4.36,2.46,5.88,7.94,3.44,12.28-2.46,4.36-7.92,5.87-12.3,3.41-4.34-2.46-5.88-7.94-3.44-12.28,2.44-4.34,7.94-5.86,12.3-3.41"/>
          <path class="cls-1" d="M227.73,784.67l-7.79-6.7c-5.85-5.03-7.72-10.71-5-16.61,3.22-7.01,10.93-11.44,22.65-6.04,7.79,3.6,17.01,10.12,13.75,17.18-1.5,3.27-4.97,4.15-8.3,2.61-4.5-2.09-2.21-7.25-8.88-10.33-2.28-1.06-4.79-1.16-5.69,.78-.85,1.87,.41,3.44,2.92,5.52l6.12,5.09c6.19,5.19,9.57,10.71,6.19,17.99-4.57,9.98-15.16,10.33-24.07,6.23-14.17-6.54-15.62-14.84-13.86-18.63,1.49-3.27,4.91-4.38,8.2-2.87,4.79,2.21,2.56,8.62,9.19,11.68,2.75,1.26,5.64,1.47,6.82-1.11,.76-1.7-.14-2.96-2.27-4.79"/>
          <path class="cls-1" d="M272.9,783.47c10.02,3.46,16.11,11.37,12.15,22.85-4,11.56-13.65,14-23.65,10.54-10.02-3.48-16.09-11.37-12.11-22.92,3.96-11.51,13.62-13.94,23.62-10.47m-2.89,8.39c-3.36-1.16-6.23,.83-8.29,6.8-1.82,5.29-.8,8.65,2.56,9.81,3.36,1.16,6.23-.85,8.06-6.12,2.06-5.97,1.02-9.33-2.34-10.48"/>
          <path class="cls-1" d="M312.15,811.64c.88-3.56-.19-5.88-3.37-6.7-3.18-.81-5.38,1.28-6.35,5.16l-2.87,11.4c-1.09,4.36-4.29,5.67-8.03,4.72-3.77-.95-5.95-3.63-4.86-7.99l5.48-21.75c1-4,3.48-5.62,7.72-4.55,3.82,.97,4.78,3.55,4.24,7.51l.12,.03c3.11-3.32,7.21-4.6,12.14-3.34,8.95,2.27,11.19,8.67,9.41,15.78l-3.84,15.28c-1.11,4.36-4.29,5.67-8.05,4.72-3.75-.95-5.93-3.63-4.83-7.99l3.08-12.28Zm-2.54-31.42c4.19,1.06,5.88,3.62,7.68,4.07,2.25,.57,3.13-1.31,5.64-.69,1.82,.47,2.99,2.35,2.47,4.41-.73,2.87-4.24,5.5-8.12,4.52-4.19-1.07-5.88-3.62-7.7-4.08-2.25-.57-3.12,1.33-5.62,.69-1.8-.45-2.99-2.35-2.47-4.41,.71-2.85,4.24-5.48,8.11-4.5"/>
          <path class="cls-1" d="M365.33,829.62c-.33,2.28-.24,4.38-.48,5.97-.47,3.25-3.69,4.2-6.82,3.74-4.53-.66-5.87-3.2-5.87-6.26-3.11,3.44-7.99,4.22-12.53,3.55-7.28-1.07-12.01-4.83-10.92-12.15,.81-5.55,5.26-9.12,18.48-8.01,4.97,.41,7.06,0,7.39-2.23,.31-2.09-1.31-3.51-4.83-4.03-5.69-.83-7.7,3.49-12.16,2.82-2.61-.38-3.93-2.08-3.55-4.69,.73-4.9,8.1-7.06,17.23-5.71,6.95,1.04,17.44,4.2,16.23,12.42l-2.18,14.58Zm-11.99-7.11c-2.13,1.7-6.35,.67-8.86,1.28-1.16,.29-1.99,1.07-2.2,2.47-.29,1.97,1.44,3.53,3.55,3.84,3.69,.55,6.59-1.37,6.95-3.84l.55-3.75Zm1.42-33.23c2.44-1.52,3.24-1.66,4.52-1.47,1.8,.26,3.77,2.25,3.46,4.46-.21,1.35-1,2.34-2.3,3.11l-5.97,3.74c-2.44,1.52-3.25,1.66-4.52,1.47-1.8-.26-3.79-2.25-3.44-4.46,.19-1.35,.99-2.34,2.28-3.11l5.97-3.74Z"/>
          <path class="cls-1" d="M410.07,814.73c1.38-5.45,3.11-7.49,6.52-7.42,3.24,.05,6.24,1.97,6.18,5.78-.02,1.09-1.04,4.1-2.68,8.51l-8.15,22.47c-3.04,8.39-8.89,10.22-14.45,10.12-5.31-.09-7.86-2.25-7.79-5.67,.05-3.15,2.13-4.08,5.17-4.03,2.72,.05,3.44-.59,3.44-1.56,.02-.57-.22-1.54-.59-2.58l-6.75-20.29c-1.54-4.53-1.97-6.54-1.94-7.56,.05-3.22,2.87-5.62,6.63-5.55,3.03,.05,4.81,1.63,5.59,5.05l4.52,18.77h.14l4.15-16.04Z"/>
          <path class="cls-1" d="M474.34,822.02c-2.25,.28-4.58-1.25-4.91-4-.4-3.06,1.09-5.26,4.29-5.66l9.48-1.18c4.36-.54,7.3,2.21,7.78,6.11l1.64,13.15c.36,2.94-.29,6.19-4.38,6.71-3.01,.36-5.14-1.51-5.43-3.94l-.16-1.26-.14,.02c-1.83,4.05-7.41,6.82-12.46,7.44-10.31,1.28-23.17-2.77-25.48-21.28-2.15-17.37,9.83-25.66,20.19-26.95,14.86-1.83,19.83,5.07,20.26,8.65,.36,2.94-1.63,6.75-6.24,7.32-4.74,.59-5.59-5.33-12.06-4.53-4.93,.61-8.51,4.74-7.37,13.94,.95,7.79,3.69,12.44,11.11,11.52,4.55-.57,6.87-2.85,7.46-6.51l-3.58,.45Z"/>
          <path class="cls-1" d="M534.84,815.81c.52,2.25,1.38,4.17,1.75,5.74,.74,3.2-1.89,5.28-4.97,5.99-4.46,1.06-6.63-.83-7.77-3.67-1.63,4.36-5.88,6.87-10.35,7.92-7.16,1.68-12.96-.09-14.65-7.3-1.28-5.45,1.54-10.41,14.24-14.24,4.76-1.45,6.56-2.6,6.04-4.79-.48-2.08-2.51-2.79-5.97-1.97-5.61,1.3-5.86,6.07-10.28,7.09-2.58,.61-4.43-.48-5.03-3.05-1.14-4.83,4.91-9.57,13.91-11.66,6.87-1.61,17.8-2.53,19.71,5.57l3.37,14.36Zm-13.79-2.2c-1.37,2.37-5.67,2.98-7.77,4.46-.97,.69-1.45,1.73-1.14,3.11,.47,1.94,2.65,2.75,4.72,2.27,3.65-.85,5.62-3.7,5.05-6.14l-.86-3.7Z"/>
          <path class="cls-1" d="M559.81,798.67c-1.18-3.48-3.34-4.86-6.45-3.81s-3.84,4.01-2.56,7.79l3.77,11.18c1.45,4.26-.52,7.11-4.2,8.34-3.67,1.23-6.95,.17-8.39-4.1l-7.2-21.3c-1.31-3.91-.12-6.61,4.05-8.01,3.72-1.26,5.92,.38,7.61,4.01l.14-.03c.8-4.48,3.56-7.8,8.41-9.43,8.74-2.94,14.1,1.25,16.45,8.2l5.05,14.95c1.44,4.26-.54,7.09-4.22,8.34-3.67,1.23-6.95,.17-8.39-4.1l-4.07-12.02Z"/>
          <path class="cls-1" d="M614.01,785.56c.93,2.11,2.13,3.84,2.78,5.31,1.35,2.99-.86,5.52-3.74,6.8-4.19,1.87-6.66,.43-8.32-2.15-.76,4.58-4.46,7.84-8.65,9.71-6.71,2.99-12.73,2.37-15.74-4.39-2.28-5.1-.45-10.5,11.28-16.64,4.41-2.32,5.93-3.79,5.02-5.83-.85-1.94-2.98-2.27-6.23-.83-5.24,2.34-4.62,7.06-8.74,8.91-2.42,1.07-4.43,.35-5.5-2.06-2.02-4.52,3.03-10.29,11.45-14.05,6.42-2.87,16.97-5.81,20.36,1.76l6.02,13.46Zm-30.62-28.34c1.24-2.6,1.85-3.15,3.01-3.69,1.66-.73,4.41-.12,5.33,1.94,.54,1.23,.41,2.49-.26,3.84l-3.03,6.35c-1.25,2.6-1.85,3.15-3.03,3.68-1.66,.73-4.39,.12-5.31-1.94-.55-1.23-.4-2.49,.26-3.84l3.03-6.35Zm16.68,28.77c-.9,2.58-5,4-6.8,5.85-.81,.85-1.09,1.95-.52,3.25,.81,1.82,3.11,2.21,5.05,1.35,3.43-1.52,4.84-4.69,3.81-6.99l-1.54-3.46Z"/>
          <path class="cls-1" d="M613.01,743.69c5.54-3.01,9.45-1.02,12.22,4.07,2.75,5.09,5.73,13.44,8.65,23.56,.83,2.85,.43,4.52-2.53,6.14-2.98,1.61-4.58,1.02-6.54-1.21-6.88-7.96-12.27-15-15.03-20.09-2.75-5.09-2.28-9.46,3.23-12.47m19.76,36.38c4.39-2.39,9.84-.78,12.21,3.6,2.39,4.38,.76,9.84-3.63,12.23-4.39,2.39-9.84,.78-12.21-3.6-2.39-4.38-.76-9.84,3.63-12.23"/>
        </g>
      </g>
    </g>
  </g>
</svg>