<?xml version="1.0" encoding="utf-8"?>
<!-- Generator: Adobe Illustrator 27.0.0, SVG Export Plug-In . SVG Version: 6.00 Build 0)  -->
<svg version="1.1" id="Layer_1" xmlns="http://www.w3.org/2000/svg" xmlns:xlink="http://www.w3.org/1999/xlink" x="0px" y="0px"
	 viewBox="0 0 1562.91 633.09" style="enable-background:new 0 0 1562.91 633.09;" xml:space="preserve">
<style type="text/css">
	.st0{fill:#1F61A6;}
	.st1{fill:#FFFFFF;}
	.st2{fill:url(#SVGID_1_);}
	.st3{fill:url(#SVGID_00000090292036142443265980000012042044799220953220_);}
	.st4{fill:url(#SVGID_00000081647166244040410490000014853826950129232047_);}
	.st5{opacity:0.35;fill:url(#SVGID_00000047746906966316624130000016529633077151052476_);}
	.st6{fill:url(#SVGID_00000112624854499432361470000008030878049705346192_);}
	.st7{opacity:0.5;}
	.st8{fill:#B1B6BB;}
	.st9{fill:#F58226;}
	.st10{fill:#EE2E34;}
</style>
<g>
	<g>
		<g>
			<g>
				<path class="st0" d="M1436.85,210.23c3.95,0.17,7.94-0.25,11.87-1.23c1.81-0.45,3.58-1.06,5.3-1.8
					c3.25,2.24,7.68,4.06,13.58,4.31c0.96,0.04,1.89,0.04,2.78,0c8.2-0.35,13.42-3.83,16.44-6.85c1.76-1.76,3.2-3.77,4.34-6.02
					c1.39,0.7,2.82,1.35,4.32,1.89c4.42,1.61,9.27,2.53,14.4,2.74c2.67,0.11,5.16,0.11,7.51,0.01c2.21-0.1,4.29-0.29,6.28-0.57
					c4.8-0.68,8.71-1.81,11.99-3.47c3.64-1.85,6.58-4.17,8.75-6.91c2.78-3.48,4.34-7.61,4.52-11.93c0.07-1.73-0.07-3.44-0.43-5.08
					c2.01-2.83,3.67-6.81,3.89-12.31c0.12-2.87-0.22-5.89-1.01-8.97c-0.8-3.13-2.2-6.34-4.19-9.58c-2-3.23-4.51-6.16-7.47-8.71
					c-3.18-2.74-7.04-4.93-11.82-6.7c-4.51-1.67-9.5-2.63-14.83-2.84c-5.14-0.22-10.05,0.3-14.57,1.53
					c-0.66,0.18-1.29,0.41-1.94,0.62l0.38-9.26c0.33-8.02-1.78-14.63-6.27-19.66c-3.16-3.54-9.04-7.84-19.07-8.26
					c-10.04-0.42-16.25,3.39-19.7,6.65c-4.41,4.18-7,9.81-7.71,16.76c-1.34-0.2-2.71-0.33-4.1-0.38
					c-6.11-0.25-11.89,0.74-17.18,2.94c-5.24,2.19-9.69,5.23-13.21,9.05c-3,3.25-5.61,6.99-7.74,11.12
					c-2.06,3.99-3.58,8.02-4.54,11.99c-0.89,3.72-1.41,7.4-1.56,10.94c-0.57,13.81,2.69,25.4,9.69,34.44
					C1413.04,204.32,1423.86,209.69,1436.85,210.23z"/>
				<path class="st0" d="M1561.6,372.18c-0.63-4.88-1.01-8.83-1.11-11.73l-2.11-60.12c-0.28-8.01-2.26-15.38-5.88-21.91
					c-3.61-6.5-8.55-11.9-14.69-16.05c-5-3.38-10.53-6.26-16.43-8.57c-5.94-2.33-12.49-4.01-19.48-5.02
					c-6.18-0.88-12.09-1.49-17.59-1.81c-5.54-0.32-11.23-0.38-16.91-0.18c-21.45,0.75-39.63,5.04-53.99,12.74
					c-7.06,3.78-12.76,8.24-17.02,13.27c-0.8-1.06-1.65-2.08-2.56-3.06c-0.96-1.03-1.97-1.99-3.02-2.9l17.98-13.21
					c11.39-8.28,14.39-18.33,14.9-25.3c0.65-8.99-2.46-17.31-9.03-24.09c-6.06-6.23-13.42-9.83-21.28-10.41
					c-5.15-0.37-10.07,0.35-14.64,2.15c-2.37,0.94-5,2.34-8.15,4.36c0.08-0.1,0.16-0.19,0.24-0.28c3.47-4.55,5.86-9.34,7.12-14.24
					c1.18-4.63,1.6-9.5,1.23-14.48c-0.81-10.9-6.03-20.17-15.09-26.82c-1.34-0.98-2.76-1.91-4.26-2.78c1.99-1.2,3.78-2.68,5.36-4.44
					c4.33-4.82,6.36-10.85,5.87-17.44c-0.49-6.59-3.46-12.54-8.58-17.21c-4.36-3.97-9.92-6.93-16.53-8.8
					c-5.69-1.61-11.91-2.7-18.48-3.24c-6.48-0.54-13.28-0.55-20.24-0.04c-8.8,0.65-16.79,2.01-23.74,4.05
					c-7.4,2.16-13.3,4.76-18.03,7.96c-4.31,2.91-7.92,6.28-10.83,10.01c-4.46-5.93-9.83-10.49-15.98-13.53
					c-6.13-3.04-12.88-4.89-20.05-5.5c-6.92-0.58-14.24-0.01-21.76,1.69c-7.52,1.7-14.38,4.33-20.38,7.83
					c-3.03,1.77-5.84,3.78-8.42,5.99c-1.25-3.04-2.94-5.69-5.11-7.91c-4.99-5.08-11.86-7.52-20.41-7.25
					c-9.55,0.29-15.43,4.38-18.82,8.07c-3.61-2.29-7.47-3.98-11.51-5.03c-4.78-1.23-9.65-1.78-14.49-1.63
					c-7.8,0.25-15.05,2.01-21.54,5.23c-6.55,3.26-12.03,7.68-16.29,13.15c-1.43,1.84-2.69,3.81-3.87,5.85
					c-2.96-3.24-6.34-6.17-10.1-8.71c-5.04-3.41-11.41-6.07-18.94-7.91c-7.38-1.81-15.51-2.39-24.16-1.75
					c-8.28,0.61-15.99,2.32-22.9,5.09c-7.15,2.86-13.47,6.85-18.81,11.88c-5.35,5.05-9.41,11.39-12.11,18.83
					c-3.63-1.24-7.63-1.73-12-1.41c-7.6,0.56-13.79,3.32-18.36,8.17c-3.34,3.53-7.15,9.92-6.38,20.36l2.13,28.74c0,0,0,0,0,0
					c0.25,3.42-0.3,4.98-0.58,5.53c-0.1,0.02-0.25,0.04-0.44,0.05c-0.48,0.04-0.83,0.03-1.07,0.01c-0.18-0.46-0.46-1.43-0.59-3.16
					l-2.29-30.97c-0.77-10.43-5.49-16.19-9.3-19.19c-5.26-4.13-11.77-5.95-19.38-5.39c-6.68,0.5-12.26,2.69-16.63,6.52l-0.46-2.34
					c-1.9-9.63-6.28-16.98-13.04-21.85c-6.88-4.97-15.41-6.63-24.66-4.8c-9.26,1.83-16.51,6.61-20.96,13.83
					c-4.35,7.05-5.59,15.5-3.69,25.12l12.31,62.39c0,0,0,0,0,0c0.15,0.77,0.28,1.48,0.39,2.15c-2.7-7.14-7.37-11.1-11.15-13.24
					c-6.17-3.49-13.03-4.53-20.39-3.08c-9.66,1.91-16.69,6.39-20.89,13.33c-4,6.61-5.03,15-3.08,24.94
					c1.4,7.08,4.2,13.41,8.32,18.81c4.08,5.33,9.47,9.77,16.02,13.2c9.22,4.82,19.69,6.99,31.23,6.49
					c4.16-0.18,8.45-0.71,12.88-1.58c5.83-1.15,11.45-2.88,16.72-5.15c5.44-2.34,10.55-5.41,15.18-9.11
					c4.73-3.78,8.76-8.13,11.99-12.94c2.51-3.74,4.43-7.94,5.77-12.5c2.72,1.72,5.71,3.14,9.04,4.17c4.94,1.52,10.48,2.16,16.48,1.9
					c0.65-0.03,1.3-0.07,1.96-0.12c9.17-0.68,16.98-3.62,23.21-8.66c3.3,3.02,9.07,6.27,18.27,5.59c8.04-0.6,14.28-3.39,18.57-8.31
					c4.31-4.95,6.2-11.53,5.6-19.56l-0.52-7.03c5.66,3.7,11.97,6.45,18.84,8.07c6.44,1.53,13.39,2.14,20.67,1.82
					c0.9-0.04,1.81-0.09,2.73-0.16c8.92-0.66,16.87-1.9,23.62-3.68c7.35-1.94,13.04-4.28,17.39-7.16
					c4.66-3.09,8.07-6.43,10.41-10.19c0.71-1.14,1.31-2.31,1.82-3.49c1.28,1.18,2.62,2.29,4.01,3.32c-2.71,1.29-5.11,3.09-7.13,5.38
					c-4.12,4.65-6.18,10.59-5.97,17.17c0.1,3.07,0.87,6.17,2.3,9.21c1.43,3.04,3.71,5.94,6.95,8.85c2.95,2.66,6.58,4.98,10.78,6.9
					c4.15,1.89,9.26,3.3,15.63,4.31c6.01,0.95,12.77,1.32,20.11,1.08c0.58-0.02,1.15-0.04,1.72-0.06
					c19.21-0.83,33.52-5.25,43.72-13.48c11.23-9.07,16.65-22.14,16.12-38.83l-0.1-3.02c1.98,1.46,4.05,2.75,6.23,3.84
					c6.16,3.08,12.91,4.94,20.08,5.54c2.7,0.23,5.46,0.28,8.27,0.16c4.39-0.19,8.91-0.81,13.5-1.84c7.53-1.7,14.39-4.34,20.37-7.84
					c3.11-1.82,6-3.88,8.63-6.16c-0.17,1.42-0.23,2.87-0.12,4.35c0.65,8.78,5.06,16.31,12.75,21.77c6.46,4.59,14.42,7.68,23.66,9.16
					c7.17,1.15,15.03,1.55,23.41,1.19c1.51-0.07,3.04-0.16,4.59-0.27c9.18-0.68,17.53-2.08,24.82-4.16c3.23-0.92,6.18-1.92,8.9-3.01
					l-6.25,4.59c-11.4,8.28-14.4,18.33-14.91,25.31c-0.51,7.01,1.27,13.6,5.16,19.35c-0.43,0.36-0.86,0.75-1.29,1.15
					c-2.73-3.1-6.04-5.77-9.93-7.96c-6.88-3.87-14.77-5.25-23.46-4.09c-11.06,1.48-20.58,7.16-27.69,16.48
					c-0.43-0.37-0.87-0.72-1.31-1.07c-8.35-6.44-18.79-9.03-30.2-7.51c-11.09,1.48-20.44,6.73-27.02,15.18
					c-1.78,2.28-3.25,4.74-4.44,7.34c-3.82-3.3-7.96-6.31-12.47-8.9c-7.4-4.26-16.58-7.34-27.28-9.13
					c-10.46-1.76-21.82-1.75-33.76,0.02c-11.45,1.7-21.98,4.87-31.3,9.41c-4.27,2.08-8.28,4.47-12.05,7.13
					c-2.13-3.43-4.61-5.9-6.83-7.62c-6.58-5.09-15.06-7.18-25.21-6.21l-0.64,0.06l-0.22-2.27c-1.33-13.85-6.24-24.48-14.6-31.62
					c-8.52-7.28-19.81-10.3-33.55-8.98c-27.54,2.64-42.38,20.97-39.69,49.03l0.25,2.58c-7.57,1.6-13.64,4.98-18.11,10.06
					c-2.3,2.62-4.77,6.45-6.2,11.69c-2.01-0.63-4.05-1.21-6.13-1.71c-10.06-2.38-20.97-3.15-32.44-2.3
					c-11.48,0.85-22.17,3.23-31.75,7.06c-9.95,3.97-18.76,9.54-26.21,16.56c-7.31,6.89-12.89,15.5-16.67,25.58
					c-1.92-12.68-7.11-22.9-15.52-30.39c-9.48-8.43-21.9-12.2-35.92-10.89c-14.04,1.3-25.54,7.31-33.28,17.38
					c-7.54,9.83-10.67,22.19-9.32,36.74l11.88,127.91c1.6,17.25,7.26,30.14,16.83,38.33c8.88,7.6,20.81,11.11,35.52,10.48
					c1.37-0.06,2.77-0.15,4.19-0.29l92.29-8.57c12.24-1.14,22.1-5.76,29.34-13.75c5.21-5.77,11.12-15.91,9.68-31.49
					c-0.99-10.7-4.88-18.23-9.21-23.44c7.77-1.23,15.12-3.2,21.92-5.91c9.97-3.98,18.8-9.59,26.24-16.66
					c4.18-3.97,7.79-8.52,10.84-13.58c3.78,8.06,8.99,14.75,15.63,20c11.53,9.1,26.49,13.3,44.53,12.52
					c1.82-0.08,3.67-0.21,5.56-0.39c9.06-0.87,16.62-2.27,23.14-4.27c7.82-2.42,13.77-5.6,18.18-9.73
					c4.44-4.15,7.59-8.76,9.36-13.68c0.31-0.85,0.53-1.73,0.77-2.61c6.28,2.7,12.95,4.64,19.96,5.76c6.53,1.05,13.35,1.42,20.4,1.12
					c4.03-0.17,8.13-0.57,12.29-1.19c12.21-1.81,23.06-4.32,32.25-7.47c10.05-3.45,17.75-7.3,23.56-11.79
					c1.35-1.05,2.62-2.12,3.82-3.21c2.55,10.32,7.72,18.3,15.52,23.72c7.58,5.26,16.5,7.7,26.57,7.26c1.68-0.07,3.4-0.23,5.14-0.46
					c12.21-1.63,21.9-6.64,28.82-14.89c5.01-5.97,10.52-16.61,8.28-33.36l-4.96-37.15c-0.65-4.9-0.03-6.82,0.1-7.16
					c0.59-0.75,2.74-2.93,9.04-5.49l9.85-3.96l-3.74,51.39c0,0,0,0,0,0c-1.23,16.89,4.92,27.19,10.28,32.85
					c7.42,7.84,17.42,12.26,29.72,13.16c2.25,0.16,4.44,0.2,6.57,0.11c9.53-0.41,17.83-3.38,24.73-8.87
					c5.28-4.2,9.15-9.63,11.65-16.18c5.69,5.54,12.49,9.68,20.33,12.33c9.41,3.17,20.34,4.56,32.48,4.13
					c12.14-0.42,23.57-3.03,33.96-7.74c3.37-1.53,6.53-3.3,9.47-5.29c0.93,0.85,1.91,1.66,2.94,2.42c7.67,5.7,17.52,8.37,29.28,7.96
					c0.16-0.01,0.33-0.01,0.49-0.02c10.03-0.43,18.81-3.32,26.11-8.59c9.16-6.6,13.98-16.63,13.57-28.23
					C1562.8,382.21,1562.4,378.33,1561.6,372.18z M1263.05,169.66c0.01,0,0.01,0.01,0.02,0.01c-0.01,0.01-0.02,0.01-0.03,0.02
					C1263.04,169.68,1263.04,169.67,1263.05,169.66z M857.53,444.15c1.26,0.88,2.55,1.72,3.86,2.53l-19.97,1.85l-2.24-24.1
					C844.12,432.41,850.26,439.05,857.53,444.15z"/>
			</g>
			<g>
				<g>
					<g>
						<g>
							<path class="st1" d="M826.48,207.78l-12.31-62.39c-1.37-6.95-0.59-12.8,2.32-17.54c2.92-4.74,7.59-7.74,14.02-9.01
								c6.42-1.26,11.9-0.27,16.43,3c4.53,3.27,7.48,8.38,8.85,15.34l13.91,70.52c1.14,5.77,1.22,11.25,0.26,16.43
								c-0.97,5.18-2.76,9.73-5.39,13.64c-2.62,3.92-5.89,7.44-9.8,10.57c-3.91,3.13-8.17,5.68-12.77,7.66
								c-4.6,1.98-9.46,3.47-14.59,4.48c-14.38,2.83-26.77,1.53-37.18-3.91s-16.7-13.68-18.88-24.69
								c-2.88-14.61,2.34-23.23,15.65-25.86c4.83-0.95,9.21-0.32,13.14,1.91c3.93,2.22,6.41,5.98,7.46,11.29
								c0.82,4.13,2.33,6.96,4.53,8.52c2.2,1.56,4.81,2.04,7.81,1.45c3.48-0.68,5.79-2.61,6.94-5.78
								C828.05,220.24,827.91,215.03,826.48,207.78z"/>
						</g>
					</g>
					<g>
						<g>
							<path class="st1" d="M927.45,183.28l-2.13-28.74c-0.39-5.31,0.78-9.42,3.52-12.32c2.74-2.9,6.56-4.53,11.47-4.9
								c4.9-0.37,8.92,0.69,12.06,3.15c3.14,2.46,4.9,6.35,5.3,11.67l4.06,54.8c0.76,10.27-4.05,15.79-14.42,16.56
								c-4.6,0.34-8.12-0.67-10.55-3.03c-2.44-2.37-4.12-6.08-5.06-11.15l-0.31,0.03c-4.87,10.58-13.38,16.33-25.54,17.22
								c-5.47,0.41-10.32-0.04-14.55-1.35c-4.23-1.31-7.7-3.32-10.39-6.05c-2.69-2.73-4.78-5.92-6.26-9.59
								c-1.48-3.66-2.39-7.8-2.73-12.4l-2.85-38.47c-0.39-5.32,0.78-9.42,3.52-12.32c2.74-2.9,6.56-4.53,11.47-4.9
								s8.92,0.69,12.06,3.15c3.14,2.46,4.9,6.36,5.3,11.67l2.29,30.96c0.68,9.2,5.01,13.5,12.98,12.91
								c3.88-0.29,6.74-1.93,8.58-4.91C927.08,192.29,927.82,188.29,927.45,183.28z"/>
						</g>
					</g>
					<g>
						<g>
							<path class="st1" d="M1165.6,149.9c-1.62-7.17-1.89-13.8-0.8-19.87c1.08-6.07,3.34-11.29,6.77-15.64
								c3.43-4.36,7.68-8.02,12.76-10.98c5.08-2.96,10.87-5.19,17.38-6.66c6.51-1.47,12.69-1.96,18.55-1.47
								c5.85,0.49,11.27,1.97,16.23,4.43c4.97,2.46,9.25,6.2,12.84,11.21c3.59,5.01,6.2,11.11,7.82,18.28
								c1.63,7.22,1.91,13.88,0.83,19.97c-1.08,6.1-3.33,11.34-6.75,15.72c-3.42,4.38-7.67,8.06-12.75,11.02
								c-5.08,2.97-10.87,5.19-17.38,6.66c-6.51,1.47-12.69,1.96-18.55,1.47c-5.86-0.49-11.27-1.98-16.24-4.47
								c-4.97-2.49-9.26-6.25-12.85-11.29C1169.85,163.25,1167.24,157.12,1165.6,149.9z M1225.18,137.48
								c-3.35-14.8-9.54-21.17-18.6-19.13c-9.05,2.05-11.91,10.47-8.56,25.27c1.52,6.71,3.84,11.53,6.96,14.46
								c3.12,2.93,6.87,3.9,11.24,2.91c4.37-0.99,7.34-3.47,8.9-7.46C1226.68,149.54,1226.69,144.19,1225.18,137.48z"/>
						</g>
					</g>
					<g>
						<g>
							<path class="st1" d="M1058.43,174.7c0.19,2.6-0.47,5.12-2,7.56s-3.95,4.77-7.29,6.98c-3.33,2.21-8.08,4.13-14.24,5.75
								c-6.16,1.62-13.4,2.74-21.71,3.36c-7.24,0.54-13.97,0.07-20.19-1.41c-6.22-1.47-11.8-3.94-16.75-7.41
								c-4.95-3.47-8.95-8.21-12.01-14.2c-3.06-6-4.89-13.01-5.48-21.04c-0.59-7.97,0.19-15.14,2.33-21.49
								c2.14-6.36,5.41-11.6,9.79-15.74c4.39-4.13,9.54-7.38,15.48-9.76c5.94-2.37,12.52-3.83,19.76-4.36
								c7.58-0.56,14.54-0.06,20.87,1.48c6.34,1.55,11.52,3.68,15.53,6.4s7.44,5.89,10.3,9.51c2.85,3.63,4.92,7.1,6.19,10.42
								c1.27,3.32,2.01,6.45,2.23,9.39c0.39,5.31-0.61,9.17-3.02,11.57c-2.41,2.39-6.53,3.81-12.35,4.24l-50.72,3.76
								c0.88,5.79,3.09,10.26,6.62,13.41c3.53,3.15,8.15,4.51,13.86,4.09c2.94-0.22,5.86-1.02,8.78-2.4
								c2.91-1.38,5.38-2.84,7.39-4.38c2.02-1.54,4.35-2.99,7.01-4.36c2.65-1.36,5.2-2.13,7.63-2.31c3.05-0.23,5.76,0.79,8.12,3.06
								C1056.92,169.07,1058.21,171.7,1058.43,174.7z M993.84,141.96l33.5-2.48c-0.43-5.82-2.32-10.01-5.66-12.54
								c-3.34-2.54-7.45-3.63-12.31-3.27c-4.53,0.33-8.3,1.99-11.31,4.97C995.03,131.62,993.63,136.06,993.84,141.96z"/>
						</g>
					</g>
					<g>
						<g>
							<path class="st1" d="M1328.34,171.79c-0.16-2.13-1.24-3.93-3.26-5.42c-2.01-1.49-5.72-2.6-11.11-3.34l-12.65-1.77
								c-7.62-1.04-14.1-2.46-19.44-4.27c-5.34-1.81-9.61-4.02-12.81-6.66c-3.2-2.63-5.57-5.49-7.09-8.59
								c-1.53-3.09-2.45-6.7-2.75-10.81c-0.25-3.45,0.01-6.79,0.81-10.02c0.79-3.23,2.36-6.47,4.69-9.71
								c2.33-3.24,5.39-6.14,9.17-8.69c3.78-2.55,8.81-4.74,15.08-6.57c6.28-1.83,13.46-3.05,21.56-3.65
								c6.44-0.48,12.63-0.47,18.58,0.03c5.94,0.5,11.44,1.46,16.49,2.89c5.04,1.43,9.14,3.58,12.29,6.45
								c3.15,2.88,4.87,6.27,5.16,10.19c0.28,3.72-0.79,6.92-3.2,9.6c-2.4,2.68-5.63,4.17-9.68,4.47c-3.06,0.23-6.11-0.23-9.16-1.37
								c-3.06-1.14-5.74-2.44-8.05-3.91c-2.31-1.46-5.41-2.74-9.3-3.82c-3.88-1.08-8.09-1.45-12.6-1.12
								c-3.78,0.28-6.66,1.14-8.62,2.59c-1.96,1.45-2.85,3.4-2.67,5.85c0.16,2.19,1.11,3.81,2.86,4.85
								c1.74,1.04,5.35,1.96,10.82,2.76l18.01,2.47c25.3,3.67,38.54,13.37,39.71,29.11c0.29,3.85-0.03,7.55-0.93,11.08
								c-0.91,3.54-2.67,7.02-5.29,10.45c-2.62,3.43-6,6.47-10.14,9.11c-4.15,2.65-9.54,4.91-16.17,6.81
								c-6.64,1.89-14.2,3.15-22.7,3.78c-9.36,0.69-17.88,0.42-25.55-0.81c-7.67-1.23-14.08-3.68-19.22-7.34
								c-5.14-3.66-7.92-8.31-8.34-13.96c-0.26-3.52,0.99-6.65,3.76-9.39c2.77-2.74,6.18-4.26,10.23-4.56
								c2.12-0.16,4.3,0.21,6.54,1.12c2.24,0.9,4.41,2.05,6.51,3.42c2.1,1.38,4.34,2.73,6.71,4.06c2.37,1.33,5.22,2.4,8.55,3.22
								c3.33,0.82,6.86,1.09,10.58,0.82c4.18-0.31,7.37-1.38,9.57-3.22C1327.49,176.09,1328.51,174.04,1328.34,171.79z"/>
						</g>
					</g>
					<g>
						<g>
							<path class="st1" d="M1128.87,185.74l-0.39-12.34l-0.35,0.01c-1.68,4.31-4.82,7.63-9.45,9.94
								c-4.63,2.31-9.95,3.56-15.96,3.75c-3.62,0.11-7.22-0.24-10.81-1.06c-3.59-0.82-7.21-2.31-10.87-4.48
								c-3.66-2.16-6.92-4.86-9.76-8.1c-2.85-3.24-5.2-7.43-7.05-12.57c-1.86-5.14-2.89-10.92-3.09-17.34
								c-0.2-6.18,0.54-12.03,2.2-17.55c1.66-5.52,4.14-10.39,7.42-14.6c3.28-4.22,7.5-7.61,12.64-10.17
								c5.15-2.56,10.87-3.94,17.17-4.14c3.85-0.12,7.69,0.31,11.52,1.3c3.83,0.99,7.42,2.76,10.77,5.31
								c3.35,2.55,5.55,5.68,6.61,9.38l0.35-0.01c-0.16-4.96,1.12-9.06,3.82-12.3c2.7-3.24,6.62-4.94,11.75-5.1
								c11.03-0.35,16.73,5.46,17.11,17.42l2.39,75.44c0.84,26.55-16.27,40.38-51.34,41.49c-6.71,0.21-12.75-0.11-18.12-0.96
								c-5.37-0.85-9.67-2.02-12.9-3.49c-3.23-1.47-5.93-3.19-8.09-5.13c-2.17-1.95-3.66-3.78-4.47-5.51
								c-0.81-1.73-1.25-3.41-1.3-5.04c-0.12-3.91,0.99-7.18,3.33-9.83c2.34-2.64,5.55-4.03,9.64-4.16c1.87-0.06,3.94,0.47,6.23,1.6
								c2.28,1.12,4.38,2.37,6.3,3.74c1.91,1.37,4.28,2.61,7.12,3.72c2.84,1.11,5.69,1.61,8.55,1.52
								c7.29-0.23,12.35-2.01,15.16-5.34C1127.8,197.81,1129.1,192.68,1128.87,185.74z M1125.66,156.1
								c2.33-3.79,3.41-8.56,3.23-14.34c-0.18-5.78-1.56-10.46-4.12-14.06c-2.57-3.6-6.53-5.31-11.9-5.14
								c-10.27,0.33-15.19,7.06-14.78,20.18c0.42,13.19,5.76,19.62,16.03,19.29C1119.47,161.85,1123.32,159.88,1125.66,156.1z"/>
						</g>
					</g>
				</g>
				<g>
					<g>
						<g>
							<path class="st1" d="M1462.12,128.68l0.89-21.46c0.35-8.48,4.64-12.55,12.88-12.21c8.24,0.34,12.18,4.75,11.83,13.23
								l-2.77,67.03c-0.34,8.24-4.31,12.2-11.9,11.88c-3.54-0.15-6.22-1.34-8.07-3.59c-1.84-2.25-2.68-5.08-2.54-8.5l-0.24-0.01
								c-0.75,2.55-2.29,4.69-4.61,6.42c-2.33,1.73-4.8,2.93-7.42,3.59c-2.62,0.65-5.24,0.93-7.85,0.82
								c-8.88-0.37-15.79-3.73-20.71-10.1c-4.93-6.36-7.18-14.77-6.75-25.21c0.11-2.65,0.5-5.4,1.19-8.25
								c0.68-2.85,1.8-5.78,3.35-8.8c1.56-3.02,3.41-5.69,5.56-8.01c2.15-2.33,4.91-4.2,8.29-5.6c3.38-1.41,7.09-2.03,11.16-1.86
								c7.84,0.32,13.67,3.87,17.49,10.62L1462.12,128.68z M1461.48,152.74c0.18-4.38-0.59-7.83-2.32-10.36
								c-1.73-2.53-4.01-3.85-6.87-3.97c-2.09-0.08-3.92,0.24-5.5,0.98c-1.59,0.74-2.83,1.8-3.73,3.2c-0.9,1.39-1.58,2.9-2.03,4.53
								c-0.45,1.63-0.72,3.43-0.8,5.41c-0.06,1.48-0.02,2.89,0.13,4.23c0.14,1.34,0.45,2.65,0.92,3.96
								c0.47,1.31,1.09,2.45,1.85,3.43c0.77,0.98,1.79,1.79,3.07,2.42c1.28,0.64,2.75,0.99,4.4,1.06c3.49,0.14,6.13-1.09,7.91-3.72
								C1460.29,161.29,1461.29,157.57,1461.48,152.74z"/>
						</g>
					</g>
					<g>
						<g>
							<path class="st1" d="M1539.71,169.55c-0.05,1.33-0.54,2.58-1.46,3.73c-0.91,1.15-2.29,2.19-4.11,3.11
								c-1.82,0.93-4.34,1.62-7.57,2.08c-3.22,0.46-6.96,0.6-11.22,0.42c-3.71-0.16-7.1-0.79-10.17-1.9
								c-3.07-1.11-5.76-2.69-8.07-4.75c-2.31-2.06-4.06-4.7-5.26-7.93c-1.2-3.22-1.72-6.89-1.55-11.01
								c0.17-4.08,0.98-7.68,2.45-10.78c1.46-3.1,3.43-5.57,5.9-7.41c2.47-1.84,5.29-3.19,8.44-4.05c3.15-0.86,6.58-1.21,10.29-1.05
								c3.89,0.16,7.39,0.82,10.52,1.98c3.13,1.16,5.63,2.55,7.51,4.16c1.88,1.62,3.43,3.43,4.67,5.44
								c1.24,2.01,2.08,3.89,2.53,5.65c0.45,1.76,0.64,3.39,0.58,4.9c-0.11,2.72-0.85,4.62-2.22,5.7c-1.36,1.07-3.54,1.55-6.52,1.43
								l-25.98-1.07c0.11,2.99,0.97,5.39,2.57,7.2c1.61,1.81,3.87,2.77,6.8,2.89c1.51,0.06,3.04-0.17,4.6-0.7
								c1.56-0.53,2.9-1.13,4.02-1.8c1.12-0.66,2.39-1.26,3.81-1.8c1.43-0.54,2.77-0.78,4.01-0.73c1.56,0.07,2.88,0.75,3.94,2.04
								C1539.27,166.6,1539.77,168.01,1539.71,169.55z M1508.83,149.13l17.16,0.71c0.12-2.99-0.59-5.22-2.14-6.71
								c-1.55-1.49-3.57-2.28-6.06-2.38c-2.32-0.09-4.33,0.53-6.04,1.86C1510.04,143.95,1509.07,146.12,1508.83,149.13z"/>
						</g>
					</g>
				</g>
				<g>
					<g>
						<g>
							<path class="st1" d="M830.88,453.83l65.41-6.08c8.12-0.76,14.82,0.87,20.09,4.88c5.27,4.01,8.27,9.98,9.01,17.93
								c0.73,7.86-1.13,14.24-5.57,19.15c-4.44,4.91-10.72,7.74-18.84,8.49l-92.29,8.57c-12.18,1.13-21.42-0.99-27.7-6.37
								c-6.29-5.38-10.03-14.56-11.24-27.54l-11.88-127.91c-0.97-10.42,1.05-18.88,6.06-25.4c5-6.52,12.32-10.23,21.94-11.12
								c9.62-0.89,17.51,1.4,23.68,6.88c6.16,5.48,9.73,13.43,10.7,23.85L830.88,453.83z"/>
						</g>
					</g>
					<g>
						<g>
							<path class="st1" d="M847.03,370.55c-0.81-10.87,0.25-20.64,3.18-29.31c2.93-8.67,7.38-15.82,13.36-21.46
								c5.98-5.63,13.01-10.07,21.11-13.31c8.09-3.23,17.07-5.22,26.95-5.95c9.87-0.73,19.04-0.09,27.53,1.91
								c8.48,2.01,16.09,5.36,22.84,10.06c6.74,4.69,12.2,11.12,16.37,19.26c4.17,8.14,6.65,17.64,7.46,28.52
								c0.81,10.94-0.25,20.77-3.16,29.48c-2.93,8.71-7.37,15.9-13.35,21.57c-5.97,5.68-13.01,10.14-21.1,13.36
								c-8.1,3.24-17.08,5.22-26.94,5.95c-9.87,0.73-19.05,0.09-27.53-1.92c-8.48-2-16.1-5.37-22.84-10.11
								c-6.75-4.73-12.21-11.19-16.38-19.37C850.33,391.07,847.84,381.5,847.03,370.55z M937.12,365.39
								c-1.66-22.44-9.36-33.15-23.08-32.13c-13.72,1.01-19.76,12.74-18.09,35.18c0.75,10.18,3.1,17.76,7.03,22.74
								c3.93,4.98,9.22,7.22,15.85,6.73c6.63-0.49,11.52-3.49,14.68-8.99C936.67,383.41,937.87,375.57,937.12,365.39z"/>
						</g>
					</g>
					<g>
						<g>
							<path class="st1" d="M1235.53,386.08l-11.98-89.65c-1.15-8.62,0.28-15.5,4.28-20.64c4-5.14,9.47-8.17,16.4-9.09
								c7.19-0.96,13.25,0.47,18.19,4.28c4.94,3.82,8.05,10.5,9.33,20.05l1.39,10.4l0.51-0.07c3.03-13.4,6.89-23.6,11.6-30.59
								c4.7-6.99,10.77-10.99,18.21-11.98c5.16-0.69,9.62,0.03,13.39,2.14c3.77,2.13,6.52,4.87,8.27,8.26
								c1.74,3.38,2.9,7.19,3.46,11.41c0.87,6.51,0.31,11.98-1.68,16.42c-1.99,4.44-5.23,7.56-9.72,9.36L1303.2,312
								c-7.59,3.08-12.95,6.74-16.09,10.99c-3.13,4.25-4.14,10.51-3.04,18.79l4.96,37.15c1.18,8.79-0.37,15.73-4.64,20.82
								c-4.27,5.09-10.46,8.17-18.58,9.26c-8.11,1.08-14.9-0.27-20.35-4.05C1240.02,401.16,1236.7,394.87,1235.53,386.08z"/>
						</g>
					</g>
					<g>
						<g>
							<path class="st1" d="M990.91,280.93l-1.76-18.37c-1.84-19.14,6.54-29.6,25.14-31.39c18.5-1.78,28.68,6.91,30.51,26.05
								l1.76,18.37l16.74-1.61c11.88-1.14,18.36,3.87,19.43,15.02c1.07,11.16-4.34,17.31-16.22,18.44l-16.74,1.61l6.07,63.27
								l0.39,4.08c0.21,2.18,0.98,3.78,2.31,4.79c1.33,1.01,2.95,1.43,4.86,1.25c10.52-1.01,17.98-0.1,22.37,2.73
								c4.39,2.82,6.92,7.73,7.59,14.72c0.31,3.17,0.01,6.02-0.9,8.53c-0.9,2.51-2.64,4.97-5.2,7.37c-2.56,2.4-6.54,4.42-11.91,6.09
								c-5.38,1.65-12.02,2.86-19.91,3.62c-16.33,1.57-29.17-1.34-38.53-8.73c-9.36-7.38-14.81-19.15-16.36-35.3l-6.43-67.08
								l-10.61,1.02c-11.88,1.14-18.36-3.87-19.43-15.02c-1.07-11.16,4.33-17.31,16.22-18.44L990.91,280.93z"/>
						</g>
					</g>
					<g>
						<g>
							<path class="st1" d="M1331.48,375.61l6.59-90.47c0.65-8.87,3.58-15.37,8.82-19.49c5.23-4.12,11.94-5.89,20.13-5.29
								c8.19,0.6,14.55,3.31,19.09,8.14c4.54,4.83,6.48,11.69,5.84,20.56l-6.59,90.47c-0.65,8.87-3.56,15.37-8.75,19.49
								c-5.19,4.13-11.88,5.89-20.07,5.3c-8.19-0.6-14.57-3.32-19.15-8.15C1332.8,391.34,1330.84,384.48,1331.48,375.61z
								 M1355.27,222.07l23.1-16.97c4.62-3.35,8.08-5.48,10.37-6.38c2.3-0.91,4.81-1.26,7.54-1.06c3.93,0.29,7.54,2.14,10.85,5.55
								c3.31,3.42,4.81,7.29,4.5,11.65c-0.38,5.2-3.15,9.68-8.31,13.42l-23.11,16.97c-4.62,3.35-8.08,5.48-10.37,6.39
								c-2.3,0.9-4.81,1.26-7.54,1.06c-3.93-0.28-7.54-2.13-10.85-5.55c-3.31-3.42-4.81-7.3-4.49-11.65
								C1347.34,230.29,1350.11,225.81,1355.27,222.07z"/>
						</g>
					</g>
					<g>
						<g>
							<path class="st1" d="M1546.28,288.61l2.11,60.13c0.12,3.42,0.53,7.83,1.23,13.24s1.09,9.1,1.16,11.06
								c0.22,6.24-2.07,11.09-6.87,14.56c-4.8,3.46-10.71,5.32-17.71,5.56c-16.07,0.57-25.43-6.38-28.07-20.84
								c-4.7,7.61-11.28,13.34-19.74,17.19c-8.47,3.85-17.74,5.95-27.83,6.31c-10.26,0.36-19.17-0.74-26.75-3.3
								c-7.58-2.56-13.7-7.01-18.37-13.35c-4.67-6.34-7.18-14.38-7.52-24.13c-0.17-4.78,0.36-9.14,1.59-13.08
								c1.23-3.94,3.43-7.71,6.6-11.33c3.17-3.62,7.31-6.8,12.44-9.55c5.12-2.75,11.69-5.14,19.71-7.18
								c8.01-2.03,17.27-3.58,27.75-4.63c10.4-1.05,17.69-2.59,21.85-4.62c4.17-2.03,6.17-5.31,6.01-9.84
								c-0.31-8.89-7.74-13.08-22.27-12.57c-4.27,0.15-8.24,0.93-11.92,2.34c-3.67,1.41-6.81,3.06-9.39,4.95s-5.11,3.8-7.56,5.72
								c-2.46,1.93-5.2,3.59-8.23,4.97c-3.03,1.39-6.21,2.14-9.54,2.26c-5.38,0.19-9.63-1.12-12.72-3.92
								c-3.1-2.8-4.73-6.9-4.93-12.28c-0.35-10,5.59-18.27,17.81-24.82c12.22-6.55,27.86-10.15,46.92-10.83
								c5.21-0.19,10.35-0.13,15.41,0.17c5.06,0.29,10.47,0.85,16.23,1.68c5.76,0.83,11.05,2.18,15.86,4.07
								c4.82,1.88,9.24,4.19,13.27,6.91c4.03,2.73,7.23,6.23,9.61,10.51C1544.8,278.27,1546.09,283.15,1546.28,288.61z
								 M1495.62,344.56l-0.54-15.51c-2.14,2.47-5.33,4.34-9.56,5.6c-4.24,1.26-8.86,2.34-13.88,3.25
								c-5.02,0.9-8.71,1.87-11.07,2.89c-4.89,2.14-7.23,5.99-7.04,11.54c0.14,3.93,1.87,7.08,5.21,9.44
								c3.34,2.37,7.27,3.47,11.8,3.31c7.44-0.26,13.52-2.42,18.26-6.48C1493.53,354.54,1495.8,349.86,1495.62,344.56z"/>
						</g>
					</g>
					<g>
						<g>
							<path class="st1" d="M1218.25,364.13c0.53,3.54-0.13,7.06-1.97,10.56c-1.84,3.5-4.93,6.92-9.27,10.28
								c-4.34,3.35-10.64,6.45-18.91,9.29c-8.27,2.84-18.06,5.09-29.36,6.77c-9.85,1.46-19.1,1.49-27.76,0.1
								c-8.66-1.39-16.54-4.21-23.66-8.46s-13.07-10.33-17.85-18.23c-4.79-7.9-7.99-17.31-9.61-28.24
								c-1.61-10.85-1.26-20.72,1.04-29.64c2.3-8.91,6.24-16.41,11.82-22.51c5.58-6.1,12.32-11.06,20.2-14.9
								c7.88-3.84,16.75-6.49,26.6-7.95c10.31-1.53,19.88-1.55,28.71-0.07c8.83,1.48,16.12,3.88,21.88,7.19
								c5.76,3.32,10.77,7.31,15.04,11.99c4.27,4.67,7.44,9.22,9.5,13.63c2.07,4.41,3.4,8.62,3.99,12.62
								c1.07,7.23,0.08,12.61-2.98,16.12c-3.05,3.52-8.55,5.87-16.47,7.04l-69.01,10.22c1.79,7.84,5.26,13.73,10.4,17.69
								c5.15,3.95,11.6,5.36,19.37,4.2c4-0.59,7.92-1.98,11.77-4.16c3.84-2.18,7.07-4.43,9.67-6.74c2.61-2.31,5.66-4.53,9.15-6.66
								c3.5-2.13,6.9-3.44,10.21-3.93c4.15-0.61,7.96,0.51,11.41,3.38C1215.62,356.58,1217.65,360.05,1218.25,364.13z
								 M1126.6,325.82l45.59-6.75c-1.17-7.93-4.18-13.46-9-16.6c-4.83-3.14-10.55-4.21-17.17-3.24
								c-6.16,0.91-11.15,3.56-14.98,7.94C1127.2,311.56,1125.73,317.77,1126.6,325.82z"/>
						</g>
					</g>
				</g>
			</g>
		</g>
	</g>
	<g>
		<g>
			<g>
				<path class="st1" d="M218.2,587.29c-2.99-0.97-3.77-3.15-2.95-5.68c0.82-2.54,2.72-3.86,6.08-2.78l22.7,7.3
					c3.37,1.08,4.14,3.27,3.32,5.8c-0.82,2.55-2.72,3.86-5.72,2.89l-6.41-2.06l-6.29,19.52c-1.14,3.55-3.87,5.06-7.14,4.01
					c-3.28-1.06-4.61-3.88-3.47-7.43l6.29-19.51L218.2,587.29z"/>
				<path class="st1" d="M250.21,624.19c-7.81-1.75-13.03-7.17-11.01-16.2c2.01-8.98,9.05-11.66,16.86-9.91
					c10.94,2.46,12.58,10.72,11.75,14.43c-0.66,2.94-2.27,3.68-5.41,2.98l-13.89-3.11c-0.47,3.2,0.88,5.65,4.07,6.36
					c3.56,0.8,6.35-1.77,9.33-1.1c1.71,0.38,2.67,2.34,2.32,3.91C263.62,624.26,259.66,626.31,250.21,624.19z M258.78,609.59
					c0.76-3.44-1.1-5.15-3.53-5.68c-2.19-0.5-4.73,0.18-5.65,3.62L258.78,609.59z"/>
				<path class="st1" d="M299.64,605.17c6.96,0.48,11.33,4.12,11.08,7.61c-0.15,2.27-1.85,3.56-3.82,3.43
					c-2.57-0.17-3.43-3.78-6.97-4.02c-4.05-0.27-5.2,3.04-5.39,5.75c-0.23,3.28,0.62,6.59,4.1,6.83c3.33,0.23,5.08-3.2,7.83-3
					c2.36,0.15,3.57,2.18,3.47,3.91c-0.14,2.04-3.27,6.64-12.11,6.03c-7.92-0.54-13.88-5.07-13.25-14.25
					C285.2,608.32,291.71,604.63,299.64,605.17z"/>
				<path class="st1" d="M340.98,625.04c-0.01,1.75,0.27,3.32,0.26,4.53c-0.02,2.48-2.32,3.54-4.71,3.52
					c-3.45-0.01-4.7-1.78-5.03-4.07c-1.96,2.9-5.53,3.99-8.98,3.97c-5.55-0.05-9.48-2.37-9.44-7.96c0.04-4.25,2.97-7.39,12.96-7.94
					c3.75-0.21,5.27-0.73,5.28-2.44c0.01-1.6-1.35-2.49-4.03-2.52c-4.33-0.03-5.37,3.42-8.79,3.39c-1.99-0.01-3.15-1.13-3.14-3.13
					c0.03-3.75,5.32-6.14,12.27-6.1c5.31,0.05,13.47,1.33,13.43,7.6L340.98,625.04z M331.27,620.97c-1.43,1.51-4.68,1.19-6.49,1.9
					c-0.82,0.34-1.36,1.02-1.37,2.09c-0.02,1.51,1.44,2.5,3.05,2.51c2.83,0.02,4.78-1.72,4.79-3.61L331.27,620.97z"/>
				<path class="st1" d="M464.22,597.14c0.64,1.64,1.47,3,1.91,4.13c0.89,2.33-0.86,4.17-3.11,5.02c-3.23,1.26-5.05,0.06-6.2-1.95
					c-0.77,3.43-3.69,5.76-6.93,7.02c-5.21,2-9.73,1.28-11.75-3.96c-1.52-3.98,0.06-8,9.19-12.19c3.43-1.58,4.65-2.63,4.03-4.22
					c-0.58-1.5-2.18-1.83-4.69-0.87c-4.05,1.57-3.76,5.18-6.96,6.4c-1.87,0.73-3.35,0.11-4.08-1.77c-1.35-3.52,2.7-7.69,9.22-10.21
					c4.98-1.91,13.08-3.72,15.35,2.15L464.22,597.14z M453.65,596.91c-0.78,1.94-3.93,2.84-5.37,4.16c-0.64,0.62-0.9,1.45-0.51,2.46
					c0.54,1.42,2.27,1.81,3.77,1.22c2.65-1.02,3.83-3.36,3.14-5.14L453.65,596.91z"/>
				<path class="st1" d="M517.52,567.87c0.94,1.49,2.02,2.66,2.67,3.69c1.32,2.11-0.05,4.25-2.09,5.52
					c-2.93,1.85-4.94,1.03-6.45-0.73c-0.1,3.52-2.53,6.36-5.46,8.22c-4.73,2.96-9.3,3.12-12.29-1.64
					c-2.26-3.62-1.47-7.86,6.68-13.73c3.06-2.21,4.07-3.47,3.15-4.92c-0.86-1.36-2.49-1.38-4.77,0.04c-3.68,2.32-2.7,5.8-5.61,7.61
					c-1.69,1.07-3.27,0.75-4.35-0.96c-2-3.19,1.18-8.07,7.09-11.79c4.52-2.82,12.13-6.15,15.47-0.82L517.52,567.87z M507.11,569.67
					c-0.39,2.05-3.32,3.54-4.47,5.11c-0.51,0.73-0.6,1.6-0.03,2.51c0.8,1.29,2.57,1.34,3.94,0.48c2.4-1.51,3.12-4.03,2.1-5.65
					L507.11,569.67z"/>
				<path class="st1" d="M603.27,485.91c1.37,1.11,2.77,1.86,3.72,2.62c1.94,1.57,1.33,4.04-0.18,5.9
					c-2.17,2.71-4.34,2.58-6.34,1.41c1.05,3.36-0.32,6.84-2.49,9.54c-3.51,4.33-7.78,5.98-12.15,2.45
					c-3.31-2.69-3.95-6.95,1.85-15.15c2.18-3.08,2.72-4.6,1.38-5.67c-1.25-1.01-2.8-0.5-4.5,1.59c-2.73,3.39-0.66,6.36-2.83,9.02
					c-1.25,1.56-2.85,1.77-4.42,0.51c-2.93-2.37-1.51-8.02,2.87-13.45c3.36-4.14,9.46-9.76,14.36-5.81L603.27,485.91z M594,491
					c0.3,2.06-1.99,4.42-2.56,6.29c-0.25,0.86-0.05,1.71,0.79,2.38c1.18,0.96,2.87,0.43,3.88-0.83c1.78-2.21,1.64-4.83,0.15-6.02
					L594,491z"/>
				<path class="st1" d="M378.5,614.92c-0.37-3.14-1.55-4.13-3.78-3.86c-1.68,0.2-3.12,2.13-2.77,4.93l1.1,9.19
					c0.39,3.37-1.5,5.15-4.38,5.5c-2.89,0.34-5.14-0.96-5.54-4.32l-1.13-9.49c-0.38-3.13-1.56-4.11-3.78-3.84
					c-1.68,0.2-3.12,2.13-2.78,4.91l1.1,9.21c0.39,3.37-1.49,5.14-4.38,5.5c-2.89,0.34-5.13-0.95-5.54-4.32l-2-16.79
					c-0.37-3.09,0.93-4.9,4.19-5.28c2.94-0.36,4.31,1.18,5,4.13l0.08-0.01c1.28-3.19,3.83-5.19,7.63-5.65
					c3.22-0.38,6.77,0.66,8.04,3.98c1.71-3.76,4.29-5.44,7.8-5.86c6.83-0.81,10.13,3.08,10.78,8.57l1.4,11.81
					c0.41,3.37-1.5,5.16-4.37,5.48c-2.89,0.35-5.14-0.95-5.53-4.31L378.5,614.92z"/>
				<path class="st1" d="M388.58,596.3c-0.81-3.4,0.53-5.33,3.59-6.06c3.06-0.74,5.14,0.39,5.95,3.78l2,8.31l0.09-0.03
					c0.89-2.63,2.76-4.7,6.01-5.47c8.21-1.98,12.85,5.59,14.01,10.41c1.93,8.07-1.13,14.21-8.01,15.85
					c-2.82,0.68-7.01,0.27-8.57-2.68l-0.09,0.03c0.61,2.52-0.41,4.84-3.22,5.51c-2.96,0.71-4.79-0.57-5.54-3.73L388.58,596.3z
					 M407.58,616.63c3.34-0.81,3.53-4.02,2.89-6.7c-0.69-2.86-2.4-5.38-5.79-4.58c-2.15,0.53-3.32,2.84-2.48,6.31
					C403.05,615.18,404.76,617.3,407.58,616.63z"/>
				<path class="st1" d="M420.75,581.25c2.5-0.79,5.11,0.57,5.9,3.06c0.79,2.49-0.57,5.11-3.07,5.9c-2.48,0.79-5.1-0.56-5.89-3.06
					C416.9,584.66,418.27,582.05,420.75,581.25z M420.63,598c-1.04-3.26,0.5-5.39,3.3-6.28c2.8-0.89,5.29-0.02,6.32,3.25l5.11,16.11
					c1.02,3.27-0.51,5.4-3.31,6.29c-2.8,0.89-5.28,0.03-6.32-3.25L420.63,598z"/>
				<path class="st1" d="M537.24,514.38c1.94-1.76,4.89-1.62,6.64,0.32c1.76,1.94,1.61,4.88-0.33,6.64
					c-1.93,1.75-4.87,1.62-6.63-0.32C535.16,519.09,535.31,516.14,537.24,514.38z M544.11,529.65c-2.3-2.53-1.8-5.11,0.38-7.08
					c2.18-1.97,4.8-2.22,7.1,0.31l11.36,12.5c2.3,2.55,1.8,5.12-0.39,7.09c-2.18,1.97-4.79,2.23-7.09-0.31L544.11,529.65z"/>
				<path class="st1" d="M470.75,568.25c-1.58-2.99-0.45-5.33,2.11-6.68c2.56-1.35,5.12-0.95,6.7,2.05l12.21,23.18
					c1.57,3.01,0.45,5.33-2.12,6.69c-2.56,1.35-5.12,0.94-6.69-2.05L470.75,568.25z"/>
				<path class="st1" d="M535.63,536.56c-1.23-2.57-1.71-4.46,0.82-6.52c2.03-1.67,4.61-1.65,6.26,0.34
					c0.86,1.05,1.43,2.22,2.11,4.12l5.19,14.52c1.19,3.3-0.18,4.62-2.93,6.87c-2.62,2.17-4.19,3.26-7.19,1.44l-13.24-7.91
					c-1.76-1.08-2.87-1.73-3.74-2.79c-1.63-2-1.14-4.54,0.89-6.21c2.53-2.07,3.86-1.65,6.68,0.38l10.8,7.88l0.08-0.07L535.63,536.56
					z"/>
				<path class="st1" d="M559.76,501.64c-2.49-2.38-2.4-4.71-0.25-6.95c2.16-2.23,4.47-2.42,6.96-0.04l18.97,18.22
					c2.31,2.21,2.5,4.4,0.4,6.58c-1.96,2.06-4.44,1.77-6.29-0.01l-0.07,0.06c1.73,2.81,0.01,6.58-1.98,8.65
					c-4.83,5.03-11.59,4.59-17.5-1.08c-3.53-3.38-7.66-11.11-1.9-17.11c2.28-2.39,4.98-2.95,7.66-2.4l0.07-0.06L559.76,501.64z
					 M566.15,512.88c-2.38,2.48-1.1,5.21,1.01,7.21c1.96,1.88,4.78,3.33,7.15,0.89c1.97-2.07,1.03-4.58-1.56-7.06
					C570.19,511.46,567.66,511.32,566.15,512.88z"/>
			</g>
			<g>
				<path class="st1" d="M190.36,617.27c-4.44-1.85-5.15-5.14-3.43-9.25c1.72-4.1,5.29-9.89,9.93-16.52
					c1.31-1.86,2.5-2.44,4.87-1.43c2.4,0.99,2.83,2.25,2.43,4.48c-1.46,7.96-3.08,14.57-4.8,18.67
					C197.64,617.32,194.79,619.13,190.36,617.27z M202.58,588.44c-3.54-1.46-5.19-5.51-3.72-9.04c1.48-3.54,5.52-5.19,9.04-3.72
					c3.54,1.48,5.19,5.52,3.72,9.05C210.12,588.26,206.1,589.92,202.58,588.44z"/>
			</g>
			<g>
				<path class="st1" d="M587.41,457.54c2.63-4.03,6.01-4.13,9.72-1.7c3.75,2.44,8.78,7,14.46,12.76c1.59,1.63,1.95,2.9,0.53,5.06
					c-1.41,2.19-2.72,2.37-4.85,1.56c-7.56-2.88-13.77-5.66-17.5-8.1C586.05,464.7,584.78,461.57,587.41,457.54z M614.03,474.91
					c2.1-3.21,6.36-4.09,9.57-2.01c3.21,2.1,4.1,6.36,2.01,9.56c-2.08,3.21-6.35,4.11-9.56,2.03
					C612.84,482.37,611.95,478.1,614.03,474.91z"/>
			</g>
		</g>
		<g>
			<g>
				<path class="st1" d="M397.71,8.4C375.09,2.82,351.93,0,328.86,0v4.67h-0.01V0h-0.02C196.57,0.01,82.07,89.81,50.39,218.38
					c-18.34,74.44-6.6,151.56,33.07,217.15c39.66,65.61,102.5,111.83,176.94,130.17c22.62,5.57,45.79,8.39,68.87,8.39
					c132.25,0,246.76-89.79,278.46-218.36C645.57,202.1,551.36,46.28,397.71,8.4"/>
				<g>
					<g>
						<g>
							<g>
								<g>
									<radialGradient id="SVGID_1_" cx="406.2832" cy="504.244" r="350.0501" gradientUnits="userSpaceOnUse">
										<stop  offset="0" style="stop-color:#FFFCD5"/>
										<stop  offset="1" style="stop-color:#F58226"/>
									</radialGradient>
									<path class="st2" d="M551.3,451.76c-92.49,122.18-266.51,146.26-388.69,53.76C40.45,413.04,16.37,239.01,108.87,116.85
										C201.36-5.34,375.38-29.39,497.55,63.08C619.73,155.59,643.79,329.6,551.3,451.76z"/>
									
										<linearGradient id="SVGID_00000031168228605209754460000016005794645389446579_" gradientUnits="userSpaceOnUse" x1="379.9104" y1="2640.2664" x2="379.9104" y2="2752.2439" gradientTransform="matrix(0.7974 0.6036 -0.6036 0.7974 1522.5713 -1920.5847)">
										<stop  offset="0.07" style="stop-color:#FFFFFF"/>
										<stop  offset="0.1475" style="stop-color:#FFFBF8"/>
										<stop  offset="0.2629" style="stop-color:#FEEFE3"/>
										<stop  offset="0.402" style="stop-color:#FCDCC2"/>
										<stop  offset="0.5595" style="stop-color:#FAC194"/>
										<stop  offset="0.7302" style="stop-color:#F7A05A"/>
										<stop  offset="0.8664" style="stop-color:#F58226"/>
									</linearGradient>
									<path style="fill:url(#SVGID_00000031168228605209754460000016005794645389446579_);" d="M233.33,412.15
										c33.6,25.47,68.91,42.09,100.11,52.18c30.91,10.65,57.72,14.73,67.27,27.87c8.89,10.84-2.91,35.74-44.32,41.53
										c-39.58,6.42-108.78-6.26-172.63-56.13C118.44,429.69,87.45,366.54,82.9,326.7c-5.68-41.44,15.07-59.55,27.93-53.94
										c15.24,5.64,26.46,30.32,45.08,57.2C174.1,357.25,199.67,386.7,233.33,412.15z"/>
								</g>
								<g>
									
										<linearGradient id="SVGID_00000040540420301257389320000009408089579588802960_" gradientUnits="userSpaceOnUse" x1="381.6191" y1="623.8947" x2="352.1184" y2="417.3898">
										<stop  offset="0" style="stop-color:#54B7E6"/>
										<stop  offset="0.3777" style="stop-color:#379BD4"/>
										<stop  offset="1" style="stop-color:#0065B1"/>
									</linearGradient>
									<path style="fill:url(#SVGID_00000040540420301257389320000009408089579588802960_);" d="M578.86,334.31
										C559.52,468.86,434.8,562.25,300.24,542.93C165.71,523.59,72.31,398.86,91.64,264.32
										c19.34-134.54,144.08-227.95,278.6-208.62C504.78,75.04,598.19,199.78,578.86,334.31z"/>
									
										<radialGradient id="SVGID_00000178917249452052506460000014305524682174683032_" cx="312.1107" cy="250.7941" r="146.0958" gradientTransform="matrix(0.9898 0.1422 -0.1422 0.9898 80.2757 -117.6353)" gradientUnits="userSpaceOnUse">
										<stop  offset="0" style="stop-color:#54B7E6"/>
										<stop  offset="1" style="stop-color:#0075B9"/>
									</radialGradient>
									<path style="opacity:0.35;fill:url(#SVGID_00000178917249452052506460000014305524682174683032_);" d="M508.99,280.17
										c-46.62,16.36-111.92-15.96-167.91-18.41c-54.42-13.41-126.18-0.78-166.32-29.61c-17.02-15.46-17.12-54.96,17.07-91.67
										c32.42-36.07,99.16-69.39,174.85-56.92c76.15,9.35,130.78,60.1,151.73,103.83C540.9,232.25,529.68,270.12,508.99,280.17z"
										/>
									
										<linearGradient id="SVGID_00000160885679688443579370000003433475698309691577_" gradientUnits="userSpaceOnUse" x1="312.1112" y1="529.0864" x2="312.1112" y2="628.4217" gradientTransform="matrix(0.9898 0.1422 -0.1422 0.9898 80.2757 -117.6353)">
										<stop  offset="0" style="stop-color:#FFFFFF"/>
										<stop  offset="0.0935" style="stop-color:#F6F9FB"/>
										<stop  offset="0.2457" style="stop-color:#DEE8F2"/>
										<stop  offset="0.4377" style="stop-color:#B6CCE2"/>
										<stop  offset="0.6619" style="stop-color:#7FA5CC"/>
										<stop  offset="0.9105" style="stop-color:#3A74B1"/>
										<stop  offset="1" style="stop-color:#1F61A6"/>
									</linearGradient>
									<path style="fill:url(#SVGID_00000160885679688443579370000003433475698309691577_);" d="M314.29,448.3
										c37.01,5.34,71.53,3.09,100.11-2.46c28.54-5.04,51.13-13.37,64.17-7.26c11.57,4.58,13.09,28.99-16.57,51.24
										c-27.97,21.99-87.11,41.87-158.08,30.57c-71.28-9.15-122.43-44.86-143.11-73.82c-22.17-29.73-13.85-52.7-1.46-53.87
										c14.23-2.16,33.57,12.18,59.56,25.04C244.75,431.12,277.25,443,314.29,448.3z"/>
								</g>
								<g>
									<g class="st7">
										<g>
											<g>
												<path class="st8" d="M97.61,535.89l-5.69-10.44c-2.83-5.18-69.41-128.34-89.76-260.85L0,250.52l13.45-4.75
													c2.79-0.98,68.58-24.14,95.39-28.26l7.54,33.49c8.57-2.58,12.71-10.81,12.25-17.24c0.83,11.8,16.18,125.5,43.17,177.79
													c14.04-5.05,37.54-12.63,77.67-25.56l14.81-4.78l6.25,14.24c0.74,1.69,18.24,41.65,24.88,65.65l0.62,2.26v2.33
													c0,11.97-7.8,15.29-24.9,22.56c-8.23,3.51-21.77,9-39.37,15.2c-29.6,10.42-74.84,24.2-122.37,30.81L97.61,535.89
													L97.61,535.89z M38.56,273.52c18.01,99.81,62.48,193.88,78.08,224.82c60.17-10,116.81-31.41,141.2-41.8
													c-3.92-11.2-8.9-23.63-12.76-32.94c-31.2,10.14-67.94,22.29-72.86,24.45c6.99-3.08,11.99-12.89,8.02-22.07l-27.94,18.99
													l-2.33-2.32l-0.66-1.51c-15.99-23.79-30.1-65.18-41.95-123.08c-4.7-23.05-7.98-43.67-9.92-56.93
													c-0.29-2.03-0.56-3.91-0.82-5.66C78.79,260.23,55.15,267.91,38.56,273.52L38.56,273.52z"/>
											</g>
										</g>
										<g>
											<g>
												<path class="st8" d="M530.25,444.79c-54.25,0-98.38-44.79-98.38-99.86c0-55.06,44.13-99.85,98.38-99.85
													c54.24,0,98.38,44.79,98.38,99.85C628.63,399.99,584.5,444.79,530.25,444.79L530.25,444.79z M530.25,279.49
													c-35.27,0-63.95,29.36-63.95,65.44c0,36.08,28.69,65.44,63.95,65.44c35.26,0,63.96-29.36,63.96-65.44
													C594.21,308.85,565.51,279.49,530.25,279.49L530.25,279.49z M528.06,390.68c-18.66,0-33.84-15.37-33.84-34.25
													c0-18.9,15.18-34.27,33.84-34.27c18.67,0,33.84,15.37,33.84,34.27C561.9,375.3,546.73,390.68,528.06,390.68
													L528.06,390.68z"/>
											</g>
										</g>
										<g>
											<g>
												<path class="st8" d="M360.13,425.86l-2.61-14.89c-5.73-32.98-12.24-71.13-15.65-93.71c-3.21,0.21-6.84,0.43-10.92,0.64
													c-13.45,0.75-26.91,1.32-26.91,1.32l-16.31,0.68l-1.54-16.25c-5.5-58.19-3.18-65.93-2.3-68.83l2.96-9.87l10.1-2.05
													c4.07-0.84,100.3-20.28,167.96-26.22l8-0.7l5.67,5.69c4.26,4.25,4.26,4.25,18.69,68.41l3.71,16.47l-16.39,4.03
													c-7.3,1.8-20.28,4.95-31.18,7.51c0.02,0.05,0.03,0.1,0.04,0.16c1.73,9.78,3.92,23.13,6,36.68
													c3,19.42,5.14,34.61,6.42,45.49h1.2l0.19,15.49c0.03,1.22,0.02,2.23-0.03,2.99l-17.17-0.61l-0.21,16.55
													c0.24,0,0.56,0,0.97-0.03c-1.81,0.16-10.52,1.52-18.2,2.74c-25.13,3.92-46.77,7.22-57.42,7.68L360.13,425.86
													L360.13,425.86z M373.89,297.81c0.38,5.85,7.5,48.87,14.81,91.45c11.88-1.55,27.15-3.96,38.61-5.73
													c1.52-0.24,2.93-0.48,4.26-0.67c-3.45-27.65-12.45-84.35-14.67-92.19c0.94,3.27,4.88,9.83,13.25,11.27l1.91-11.04
													l-6.69-21.31l3.63-1.8h2.54c3.87-0.78,15.44-3.5,28.43-6.63c-2.45-10.77-4.82-21.03-6.62-28.74
													c-49.27,5.38-109.82,16.52-136.21,21.61c0.29,7.87,1.02,18.86,1.91,30.07c15.67-0.78,30.17-1.71,33.35-2.28
													c-5.2,0.93-12.91,6.82-12.91,16.52h34.42L373.89,297.81L373.89,297.81z"/>
											</g>
										</g>
										<g>
											<g>
												<path class="st8" d="M259.24,460.15c-55.67,0-100.96-47.46-100.96-105.78c0-58.34,45.29-105.8,100.96-105.8
													c55.68,0,100.97,47.46,100.97,105.8C360.21,412.69,314.92,460.15,259.24,460.15L259.24,460.15z M259.24,282.99
													c-36.7,0-66.54,32.02-66.54,71.38c0,39.36,29.85,71.37,66.54,71.37s66.55-32.01,66.55-71.37
													C325.79,315.01,295.94,282.99,259.24,282.99L259.24,282.99z M262.62,403.06c-18.66,0-33.85-16.34-33.85-36.46
													c0-20.12,15.19-36.48,33.85-36.48c18.66,0,33.85,16.36,33.85,36.48C296.47,386.72,281.28,403.06,262.62,403.06
													L262.62,403.06z"/>
											</g>
										</g>
									</g>
									<g>
										<g>
											<g>
												<path class="st9" d="M41.12,258.9c18.01,99.8,62.49,193.88,78.08,224.82c60.16-10.01,116.82-31.44,141.21-41.81
													c-3.93-11.21-8.91-23.64-12.77-32.95c-31.18,10.13-67.93,22.29-72.85,24.46c6.99-3.07,11.99-12.9,8.04-22.09
													l-27.96,19.02l-2.33-2.33l-0.64-1.51c-16.01-23.79-30.11-65.18-41.94-123.09c-4.7-23.04-8-43.67-9.92-56.92
													c-0.29-2.03-0.58-3.92-0.83-5.66C81.35,245.6,57.72,253.27,41.12,258.9L41.12,258.9z"/>
											</g>
										</g>
									</g>
									<g>
										<g>
											<path class="st1" d="M20.82,241.34c0,0,66.75-23.56,92.28-27.49c-0.49,0,16.69,146.27,53.01,198.27
												c-0.98-0.98,90.29-30.43,90.29-30.43s17.69,40.25,24.05,63.32c0,0.99-83.43,39.27-171.77,51.55
												C108.68,496.56,40.94,372.38,20.82,241.34z"/>
											<path class="st1" d="M108.68,513.77c-6.23,0-12.06-3.39-15.1-8.97c-2.82-5.18-69.42-128.35-89.77-260.85
												c-1.26-8.17,3.48-16.09,11.28-18.84c2.79-0.99,68.58-24.14,95.38-28.27c8.93-1.39,17.4,4.38,19.4,13.19
												c0.27,1.16,0.4,2.33,0.43,3.48c1.17,13.93,16.51,125.71,43.15,177.37c14.04-5.04,37.55-12.63,77.66-25.57
												c8.41-2.72,17.49,1.38,21.04,9.45c0.74,1.69,18.27,41.67,24.89,65.67c0.41,1.49,0.62,3.03,0.62,4.58
												c0,11.98-7.8,15.3-24.88,22.58c-8.25,3.51-21.77,9-39.37,15.2C203.82,493.2,158.58,507,111.05,513.6
												C110.26,513.71,109.47,513.77,108.68,513.77z M40.19,252.86c17.99,99.66,62.5,193.85,78.1,224.82
												c60.17-10.02,116.82-31.44,141.2-41.82c-3.92-11.2-8.91-23.64-12.77-32.95c-29.9,9.72-64.9,21.3-72.08,24.14
												c-6.66,3.8-15.12,2.76-20.65-2.72c-0.74-0.73-1.4-1.53-2-2.38l0,0c-16.43-23.53-30.88-65.44-42.96-124.58
												c-4.71-23.04-8-43.67-9.93-56.92c-0.3-2.03-0.57-3.91-0.82-5.66C80.43,239.57,56.79,247.24,40.19,252.86z M178.79,423.74
												c-0.8,0.87-1.69,1.67-2.68,2.37C177.07,425.45,177.97,424.65,178.79,423.74z M181.92,405.36c0.51,1.18,0.87,2.4,1.1,3.62
												C182.8,407.77,182.44,406.56,181.92,405.36z M122.65,228.17c-1.37,0.91-2.89,1.64-4.54,2.14
												C119.8,229.8,121.31,229.06,122.65,228.17z M130.3,214.16c-0.02,1.02-0.13,2.03-0.32,3.01
												C130.19,216.16,130.29,215.14,130.3,214.16z"/>
										</g>
										<g>
											<path class="st1" d="M536.26,246.12c-44.83,0-81.16,37.01-81.16,82.67c0,45.64,36.33,82.63,81.16,82.63
												c44.83,0,81.17-36.99,81.17-82.63C617.43,283.13,581.09,246.12,536.26,246.12z M534.07,357.32
												c-9.19,0-16.64-7.64-16.64-17.06c0-9.41,7.45-17.05,16.64-17.05c9.18,0,16.64,7.64,16.64,17.05
												C550.71,349.68,543.25,357.32,534.07,357.32z"/>
											<path class="st1" d="M536.26,428.62c-54.24,0-98.37-44.79-98.37-99.84c0-55.07,44.13-99.87,98.37-99.87
												c54.25,0,98.38,44.8,98.38,99.87C634.64,383.84,590.5,428.62,536.26,428.62z M536.26,263.33
												c-35.26,0-63.95,29.36-63.95,65.46c0,36.08,28.69,65.42,63.95,65.42c35.27,0,63.97-29.35,63.97-65.42
												C600.22,292.69,571.53,263.33,536.26,263.33z M534.07,374.53c-18.66,0-33.84-15.37-33.84-34.27
												c0-18.89,15.18-34.26,33.84-34.26c18.66,0,33.84,15.37,33.84,34.26C567.92,359.16,552.73,374.53,534.07,374.53z"/>
										</g>
										<g>
											<path class="st1" d="M300.91,220.19c0,0,98.6-20.01,166.04-25.94c0.74,0.75,14.09,60.04,14.09,60.04
												s-42.26,10.38-47.45,11.12c1.49-0.73,17.8,102.29,17.06,112.67c0-0.74-58.55,9.64-75.6,10.38
												c0,0-17.79-102.3-17.79-109.7c0,1.49-53.37,3.7-53.37,3.7S298.69,227.6,300.91,220.19z"/>
											<path class="st1" d="M375.04,405.66c-8.33,0-15.51-5.99-16.95-14.26c-5.74-32.98-12.24-71.13-15.66-93.72
												c-3.45,0.23-7.18,0.45-10.92,0.65c-13.46,0.75-26.93,1.3-26.93,1.3c-9.17,0.35-16.98-6.46-17.84-15.57
												c-5.5-58.18-3.19-65.9-2.32-68.8c1.82-6.09,6.84-10.68,13.07-11.94c4.06-0.82,100.32-20.27,167.95-26.22
												c5.07-0.45,10.11,1.38,13.71,5.01c4.24,4.26,4.24,4.26,18.68,68.39c2.06,9.14-3.58,18.25-12.68,20.49
												c-7.3,1.8-20.27,4.96-31.16,7.52c0.01,0.05,0.02,0.1,0.03,0.15c1.73,9.76,3.92,23.13,6.01,36.67
												c5.61,36.29,8.23,57.8,7.79,63.95c-0.64,9-8.11,15.93-17.05,15.98c-2.71,0.34-10.52,1.56-17.49,2.65
												c-25.15,3.95-46.84,7.25-57.48,7.71C375.54,405.65,375.29,405.66,375.04,405.66z M374.46,278.34
												c0.46,6.29,7.52,49.05,14.81,91.35c11.9-1.56,27.2-3.96,38.67-5.76c1.51-0.24,2.92-0.46,4.22-0.66
												c-3.32-26.49-11.91-80.77-14.46-91.3c-0.2-0.48-0.38-0.98-0.53-1.49c-2.5-8.09,1.24-16.79,8.83-20.52
												c1.63-0.8,3.38-1.34,5.17-1.6v0c2.45-0.39,15.04-3.34,29.35-6.79c-2.45-10.77-4.82-21.04-6.63-28.74
												c-49.26,5.38-109.81,16.53-136.2,21.6c0.29,7.88,1.01,18.85,1.9,30.06c14.35-0.72,27.71-1.54,32.31-2.11
												c1.68-0.55,3.48-0.85,5.35-0.85C366.62,261.53,374.24,269.02,374.46,278.34z M422.36,278.42
												c1.79,1.56,4.09,2.92,6.98,3.65C426.75,281.4,424.36,280.15,422.36,278.42z M341.44,271.94
												c-0.87,1.99-1.39,4.27-1.39,6.8C340.04,276.33,340.54,274.03,341.44,271.94z"/>
										</g>
										<g>
											<path class="st1" d="M260.89,232.05c-46.26,0-83.76,39.67-83.76,88.58c0,48.92,37.5,88.57,83.76,88.57
												c46.26,0,83.75-39.66,83.75-88.57C344.64,271.71,307.15,232.05,260.89,232.05z M264.26,352.12
												c-9.18,0-16.63-8.63-16.63-19.27s7.45-19.28,16.63-19.28c9.18,0,16.64,8.64,16.64,19.28S273.45,352.12,264.26,352.12z"/>
											<path class="st1" d="M260.89,426.41c-55.67,0-100.97-47.45-100.97-105.78c0-58.33,45.29-105.79,100.97-105.79
												c55.67,0,100.96,47.46,100.96,105.79C361.85,378.96,316.56,426.41,260.89,426.41z M260.89,249.25
												c-36.7,0-66.55,32.02-66.55,71.37c0,39.35,29.85,71.36,66.55,71.36c36.69,0,66.54-32.01,66.54-71.36
												C327.43,281.27,297.58,249.25,260.89,249.25z M264.26,369.33c-18.66,0-33.84-16.36-33.84-36.48
												c0-20.12,15.18-36.49,33.84-36.49c18.66,0,33.84,16.37,33.84,36.49C298.11,352.97,282.92,369.33,264.26,369.33z"/>
										</g>
									</g>
									<g>
										<g>
											<path class="st10" d="M22.31,243.48c0,0,66.75-23.56,92.28-27.47c-0.51,0,16.68,146.26,53.01,198.27
												c-1.01-0.97,90.29-30.43,90.29-30.43s17.67,40.24,24.06,63.31c0,0.98-83.44,39.26-171.79,51.54
												C110.15,498.7,42.43,374.53,22.31,243.48z"/>
										</g>
										<g>
											<path class="st10" d="M537.75,248.29c-44.83,0-81.19,36.99-81.19,82.64c0,45.64,36.35,82.65,81.19,82.65
												c44.81,0,81.16-37,81.16-82.65C618.9,285.28,582.56,248.29,537.75,248.29z M535.54,359.48
												c-9.17,0-16.62-7.65-16.62-17.07c0-9.4,7.45-17.04,16.62-17.04c9.21,0,16.66,7.64,16.66,17.04
												C552.2,351.83,544.75,359.48,535.54,359.48z"/>
										</g>
										<g>
											<path class="st10" d="M302.4,222.35c0,0,98.58-20.02,166.03-25.95c0.73,0.75,14.09,60.04,14.09,60.04
												s-42.25,10.38-47.45,11.11c1.49-0.73,17.8,102.29,17.05,112.68c0-0.74-58.55,9.63-75.61,10.37
												c0,0-17.8-102.29-17.8-109.69c0,1.47-53.36,3.7-53.36,3.7S300.18,229.75,302.4,222.35z"/>
										</g>
										<g>
											<path class="st10" d="M262.38,234.2c-46.27,0-83.77,39.65-83.77,88.59c0,48.92,37.51,88.57,83.77,88.57
												c46.25,0,83.75-39.66,83.75-88.57C346.13,273.85,308.63,234.2,262.38,234.2z M265.75,354.27
												c-9.2,0-16.64-8.62-16.64-19.27c0-10.64,7.44-19.27,16.64-19.27c9.18,0,16.64,8.63,16.64,19.27
												C282.39,345.65,274.93,354.27,265.75,354.27z"/>
										</g>
									</g>
									<g>
										<g>
											<path class="st9" d="M18.26,244.29c0,0,66.73-23.56,92.27-27.47c-0.5,0,16.67,146.25,53.01,198.28
												c-1-0.99,90.29-30.44,90.29-30.44s17.67,40.25,24.06,63.32c0,0.98-83.44,39.25-171.79,51.54
												C106.1,499.52,38.37,375.34,18.26,244.29z"/>
										</g>
										<g>
											<path class="st9" d="M533.68,249.1c-44.83,0-81.17,36.99-81.17,82.65c0,45.64,36.33,82.64,81.17,82.64
												c44.82,0,81.17-37,81.17-82.64C614.84,286.09,578.5,249.1,533.68,249.1z M531.5,360.29c-9.19,0-16.64-7.64-16.64-17.07
												c0-9.4,7.46-17.05,16.64-17.05c9.18,0,16.63,7.64,16.63,17.05C548.13,352.65,540.68,360.29,531.5,360.29z"/>
										</g>
										<g>
											<path class="st9" d="M298.33,223.16c0,0,98.6-20.02,166.05-25.95c0.73,0.75,14.08,60.04,14.08,60.04
												s-42.25,10.38-47.44,11.11c1.48-0.73,17.78,102.28,17.06,112.69c0-0.75-58.57,9.63-75.61,10.36
												c0,0-17.8-102.28-17.8-109.68c0,1.47-53.36,3.71-53.36,3.71S296.11,230.57,298.33,223.16z"/>
										</g>
										<g>
											<path class="st9" d="M258.32,235.01c-46.27,0-83.77,39.66-83.77,88.59c0,48.92,37.5,88.57,83.77,88.57
												c46.25,0,83.76-39.65,83.76-88.57C342.08,274.67,304.57,235.01,258.32,235.01z M261.69,355.08
												c-9.2,0-16.64-8.63-16.64-19.26c0-10.64,7.43-19.27,16.64-19.27c9.19,0,16.64,8.63,16.64,19.27
												C278.33,346.45,270.88,355.08,261.69,355.08z"/>
										</g>
									</g>
								</g>
							</g>
						</g>
					</g>
				</g>
			</g>
		</g>
	</g>
</g>
</svg>
