<?xml version="1.0" encoding="UTF-8"?>
<svg xmlns="http://www.w3.org/2000/svg" xmlns:xlink="http://www.w3.org/1999/xlink" viewBox="0 0 1042.83 421.93">
  <defs>
    <style>
      .cls-1 {
        fill: url(#Degradado_sin_nombre_15);
        mix-blend-mode: screen;
        opacity: .35;
      }

      .cls-2 {
        fill: #005ca9;
      }

      .cls-3 {
        fill: #fff;
      }

      .cls-4 {
        fill: #ff161f;
      }

      .cls-5 {
        fill: #ff8304;
      }

      .cls-6 {
        fill: #c3c5ca;
      }

      .cls-7 {
        fill: #1860ab;
      }

      .cls-8 {
        fill: url(#Degradado_sin_nombre_14);
      }

      .cls-8, .cls-9, .cls-10 {
        mix-blend-mode: multiply;
      }

      .cls-11 {
        fill: url(#Degradado_sin_nombre_17);
      }

      .cls-12 {
        fill: url(#Degradado_sin_nombre_16);
      }

      .cls-9 {
        fill: url(#linear-gradient);
      }

      .cls-13 {
        isolation: isolate;
      }

      .cls-10 {
        opacity: .5;
      }
    </style>
    <radialGradient id="Degradado_sin_nombre_17" data-name="Degradado sin nombre 17" cx="270.78" cy="336.06" fx="270.78" fy="336.06" r="233.3" gradientUnits="userSpaceOnUse">
      <stop offset="0" stop-color="#fffbdc"/>
      <stop offset="1" stop-color="#ff8304"/>
    </radialGradient>
    <linearGradient id="linear-gradient" x1="214.15" y1="2409.1" x2="214.15" y2="2483.73" gradientTransform="translate(1437.89 -1774.31) rotate(37.12)" gradientUnits="userSpaceOnUse">
      <stop offset=".07" stop-color="#fff"/>
      <stop offset=".14" stop-color="#fffbf7"/>
      <stop offset=".24" stop-color="#fff1e3"/>
      <stop offset=".37" stop-color="#ffe0c2"/>
      <stop offset=".51" stop-color="#ffca94"/>
      <stop offset=".67" stop-color="#ffac58"/>
      <stop offset=".84" stop-color="#ff8912"/>
      <stop offset=".87" stop-color="#ff8304"/>
    </linearGradient>
    <linearGradient id="Degradado_sin_nombre_16" data-name="Degradado sin nombre 16" x1="254.34" y1="415.81" x2="234.68" y2="278.18" gradientUnits="userSpaceOnUse">
      <stop offset="0" stop-color="#52b7e7"/>
      <stop offset=".37" stop-color="#3e9ad3"/>
      <stop offset="1" stop-color="#1860ab"/>
    </linearGradient>
    <radialGradient id="Degradado_sin_nombre_15" data-name="Degradado sin nombre 15" cx="191.99" cy="172.26" fx="191.99" fy="172.26" r="97.37" gradientTransform="translate(70.09 -81.19) rotate(8.18)" gradientUnits="userSpaceOnUse">
      <stop offset="0" stop-color="#52b7e7"/>
      <stop offset="1" stop-color="#0075b9"/>
    </radialGradient>
    <linearGradient id="Degradado_sin_nombre_14" data-name="Degradado sin nombre 14" x1="191.99" y1="357.74" x2="191.99" y2="423.94" gradientTransform="translate(70.09 -81.19) rotate(8.18)" gradientUnits="userSpaceOnUse">
      <stop offset="0" stop-color="#fff"/>
      <stop offset=".08" stop-color="#f6f9fb"/>
      <stop offset=".22" stop-color="#dde9f3"/>
      <stop offset=".4" stop-color="#b6d0e6"/>
      <stop offset=".6" stop-color="#7fadd3"/>
      <stop offset=".83" stop-color="#3a81bc"/>
      <stop offset="1" stop-color="#005ca9"/>
    </linearGradient>
  </defs>
  <g class="cls-13">
    <g id="Layer_1" data-name="Layer 1">
      <g>
        <g>
          <g>
            <path class="cls-2" d="M957.73,139.19c2.66,.11,5.36-.17,8.01-.83,1.22-.31,2.42-.71,3.58-1.22,2.2,1.51,5.18,2.74,9.17,2.91,.65,.03,1.28,.03,1.88,0,5.53-.24,9.06-2.58,11.1-4.62,1.19-1.19,2.16-2.55,2.93-4.07,.94,.47,1.9,.91,2.91,1.28,2.99,1.08,6.26,1.71,9.73,1.85,1.8,.07,3.49,.08,5.07,0,1.49-.06,2.9-.19,4.24-.39,3.24-.46,5.88-1.23,8.09-2.34,2.45-1.25,4.44-2.82,5.91-4.66,1.88-2.35,2.93-5.14,3.05-8.05,.05-1.17-.05-2.32-.29-3.43,1.36-1.91,2.47-4.6,2.63-8.31,.08-1.94-.15-3.98-.68-6.06-.54-2.11-1.49-4.28-2.83-6.47-1.35-2.18-3.04-4.16-5.04-5.88-2.15-1.85-4.76-3.33-7.98-4.52-3.04-1.13-6.41-1.77-10.01-1.92-3.47-.15-6.79,.2-9.83,1.03-.45,.12-.87,.28-1.31,.42l.26-6.25c.22-5.41-1.2-9.88-4.24-13.27-2.14-2.39-6.1-5.29-12.87-5.57-6.77-.28-10.97,2.29-13.3,4.49-2.98,2.82-4.73,6.62-5.21,11.31-.9-.13-1.83-.22-2.77-.26-4.13-.17-8.03,.5-11.6,1.99-3.54,1.48-6.54,3.53-8.92,6.11-2.03,2.19-3.79,4.72-5.22,7.51-1.39,2.7-2.42,5.41-3.06,8.09-.6,2.51-.95,5-1.05,7.39-.39,9.33,1.81,17.15,6.54,23.25,5.04,6.5,12.35,10.13,21.12,10.49Z"/>
            <path class="cls-2" d="M1041.95,248.53c-.43-3.3-.68-5.96-.75-7.92l-1.43-40.59c-.19-5.41-1.52-10.39-3.97-14.79-2.44-4.39-5.78-8.03-9.92-10.84-3.37-2.28-7.11-4.23-11.09-5.79-4.01-1.57-8.43-2.71-13.15-3.39-4.17-.6-8.16-1.01-11.87-1.22-3.74-.21-7.58-.26-11.41-.12-14.48,.51-26.76,3.4-36.45,8.6-4.76,2.55-8.61,5.56-11.49,8.96-.54-.71-1.11-1.41-1.73-2.07-.65-.69-1.33-1.35-2.04-1.96l12.14-8.92c7.69-5.59,9.71-12.37,10.06-17.08,.44-6.07-1.66-11.69-6.09-16.26-4.09-4.21-9.06-6.64-14.37-7.03-3.48-.25-6.8,.24-9.88,1.45-1.6,.63-3.38,1.58-5.5,2.94,.05-.07,.11-.13,.16-.19,2.34-3.07,3.96-6.3,4.81-9.61,.8-3.13,1.08-6.42,.83-9.78-.55-7.36-4.07-13.62-10.19-18.1-.9-.66-1.86-1.29-2.87-1.88,1.34-.81,2.55-1.81,3.62-3,2.92-3.25,4.29-7.32,3.96-11.77-.33-4.45-2.33-8.47-5.79-11.62-2.94-2.68-6.7-4.68-11.16-5.94-3.84-1.09-8.04-1.82-12.48-2.19-4.37-.36-8.97-.37-13.66-.02-5.94,.44-11.33,1.36-16.03,2.73-5,1.46-8.98,3.22-12.17,5.37-2.91,1.96-5.35,4.24-7.31,6.76-3.01-4-6.63-7.08-10.79-9.13-4.14-2.05-8.69-3.3-13.53-3.71-4.67-.39-9.61,0-14.69,1.14-5.08,1.15-9.71,2.93-13.76,5.29-2.05,1.2-3.94,2.55-5.69,4.04-.84-2.05-1.98-3.84-3.45-5.34-3.37-3.43-8.01-5.08-13.78-4.89-6.45,.2-10.42,2.96-12.7,5.45-2.44-1.55-5.04-2.69-7.77-3.39-3.23-.83-6.52-1.2-9.78-1.1-5.27,.17-10.16,1.36-14.54,3.53-4.42,2.2-8.12,5.18-10.99,8.88-.96,1.24-1.82,2.57-2.62,3.95-2-2.19-4.28-4.16-6.82-5.88-3.4-2.3-7.7-4.1-12.79-5.34-4.98-1.22-10.47-1.62-16.31-1.18-5.59,.41-10.79,1.57-15.46,3.43-4.82,1.93-9.1,4.63-12.7,8.02-3.61,3.41-6.35,7.69-8.17,12.71-2.45-.84-5.15-1.17-8.1-.95-5.13,.38-9.31,2.24-12.4,5.52-2.25,2.38-4.83,6.7-4.31,13.75l1.44,19.4s0,0,0,0c.17,2.31-.2,3.36-.39,3.74-.07,.01-.17,.03-.3,.04-.33,.02-.56,.02-.72,0-.12-.31-.31-.96-.4-2.14l-1.55-20.91c-.52-7.04-3.7-10.93-6.28-12.95-3.55-2.79-7.95-4.02-13.08-3.64-4.51,.34-8.28,1.82-11.23,4.4l-.31-1.58c-1.28-6.5-4.24-11.47-8.8-14.75-4.65-3.35-10.4-4.47-16.65-3.24-6.25,1.24-11.15,4.46-14.15,9.34-2.93,4.76-3.77,10.47-2.49,16.96l8.31,42.12h0c.1,.52,.19,1,.26,1.45-1.82-4.82-4.98-7.49-7.53-8.94-4.17-2.36-8.8-3.06-13.76-2.08-6.52,1.29-11.27,4.31-14.1,9-2.7,4.46-3.4,10.13-2.08,16.83,.94,4.78,2.83,9.05,5.62,12.7,2.75,3.6,6.39,6.6,10.82,8.91,6.23,3.26,13.29,4.72,21.08,4.38,2.81-.12,5.71-.48,8.7-1.07,3.93-.78,7.73-1.94,11.29-3.47,3.67-1.58,7.12-3.65,10.25-6.15,3.19-2.55,5.92-5.49,8.09-8.73,1.69-2.53,2.99-5.36,3.9-8.44,1.83,1.16,3.86,2.12,6.1,2.81,3.34,1.03,7.08,1.46,11.13,1.29,.44-.02,.88-.04,1.32-.08,6.19-.46,11.47-2.44,15.67-5.84,2.23,2.04,6.12,4.23,12.33,3.77,5.43-.4,9.64-2.29,12.54-5.61,2.91-3.34,4.18-7.79,3.78-13.2l-.35-4.74c3.82,2.5,8.08,4.35,12.72,5.45,4.35,1.03,9.04,1.44,13.96,1.23,.61-.03,1.22-.06,1.84-.11,6.02-.45,11.39-1.28,15.94-2.48,4.96-1.31,8.8-2.89,11.74-4.83,3.15-2.09,5.45-4.34,7.03-6.88,.48-.77,.89-1.56,1.23-2.35,.87,.79,1.77,1.55,2.71,2.24-1.83,.87-3.45,2.09-4.82,3.63-2.78,3.14-4.17,7.15-4.03,11.59,.07,2.08,.59,4.17,1.55,6.22,.97,2.05,2.51,4.01,4.69,5.97,1.99,1.8,4.44,3.36,7.27,4.66,2.8,1.28,6.25,2.23,10.55,2.91,4.06,.64,8.62,.89,13.58,.73,.39-.01,.78-.03,1.16-.04,12.97-.56,22.63-3.54,29.51-9.1,7.58-6.13,11.24-14.95,10.88-26.22l-.06-2.04c1.34,.98,2.74,1.86,4.21,2.59,4.16,2.08,8.72,3.34,13.56,3.74,1.82,.15,3.69,.19,5.58,.11,2.96-.13,6.01-.54,9.11-1.24,5.08-1.15,9.71-2.93,13.75-5.29,2.1-1.23,4.05-2.62,5.83-4.16-.12,.96-.15,1.94-.08,2.94,.44,5.93,3.42,11.01,8.61,14.7,4.36,3.1,9.73,5.18,15.98,6.19,4.84,.78,10.14,1.05,15.81,.8,1.02-.04,2.05-.11,3.1-.18,6.2-.46,11.84-1.4,16.76-2.81,2.18-.62,4.17-1.3,6.01-2.03l-4.22,3.1c-7.7,5.59-9.72,12.38-10.07,17.09-.34,4.73,.86,9.18,3.48,13.07-.29,.24-.58,.5-.87,.78-1.84-2.09-4.08-3.9-6.7-5.38-4.64-2.61-9.97-3.54-15.84-2.76-7.47,1-13.89,4.83-18.7,11.13-.29-.25-.58-.49-.89-.72-5.63-4.35-12.69-6.1-20.39-5.07-7.49,1-13.8,4.54-18.24,10.25-1.2,1.54-2.19,3.2-3,4.96-2.58-2.23-5.38-4.26-8.42-6.01-5-2.88-11.19-4.95-18.41-6.17-7.06-1.19-14.73-1.18-22.79,.01-7.73,1.15-14.84,3.28-21.13,6.35-2.88,1.4-5.59,3.02-8.13,4.81-1.44-2.32-3.11-3.98-4.61-5.14-4.44-3.44-10.17-4.85-17.02-4.19l-.43,.04-.15-1.53c-.9-9.35-4.21-16.53-9.86-21.35-5.75-4.91-13.37-6.95-22.65-6.06-18.6,1.78-28.61,14.16-26.8,33.1l.17,1.74c-5.11,1.08-9.21,3.36-12.23,6.79-1.56,1.77-3.22,4.35-4.19,7.89-1.36-.43-2.73-.82-4.14-1.15-6.79-1.61-14.16-2.13-21.9-1.56-7.75,.57-14.96,2.18-21.44,4.77-6.71,2.68-12.67,6.44-17.69,11.18-4.93,4.65-8.7,10.47-11.25,17.27-1.3-8.56-4.8-15.46-10.48-20.52-6.4-5.69-14.79-8.23-24.25-7.35-9.48,.88-17.25,4.93-22.47,11.73-5.09,6.64-7.21,14.98-6.29,24.8l8.02,86.35c1.08,11.64,4.9,20.35,11.36,25.88,6,5.13,14.05,7.5,23.98,7.07,.93-.04,1.87-.1,2.83-.19l62.31-5.79c8.26-.77,14.92-3.89,19.81-9.28,3.52-3.89,7.51-10.74,6.53-21.26-.67-7.22-3.29-12.31-6.22-15.82,5.25-.83,10.21-2.16,14.8-3.99,6.73-2.69,12.69-6.47,17.72-11.25,2.83-2.68,5.26-5.75,7.32-9.17,2.55,5.44,6.07,9.96,10.55,13.5,7.79,6.14,17.89,8.98,30.07,8.45,1.23-.05,2.48-.14,3.75-.26,6.12-.59,11.22-1.53,15.62-2.88,5.28-1.63,9.3-3.78,12.27-6.57,3-2.8,5.12-5.92,6.32-9.24,.21-.57,.36-1.17,.52-1.76,4.24,1.82,8.75,3.13,13.48,3.89,4.41,.71,9.02,.96,13.77,.75,2.72-.12,5.49-.39,8.3-.8,8.24-1.22,15.57-2.92,21.77-5.04,6.78-2.33,11.98-4.93,15.9-7.96,.91-.71,1.77-1.43,2.58-2.17,1.72,6.96,5.21,12.35,10.48,16.01,5.12,3.55,11.14,5.2,17.94,4.9,1.14-.05,2.29-.15,3.47-.31,8.24-1.1,14.79-4.48,19.46-10.05,3.39-4.03,7.1-11.21,5.59-22.52l-3.35-25.08c-.44-3.31-.02-4.61,.07-4.83,.4-.51,1.85-1.98,6.1-3.7l6.65-2.67-2.53,34.7h0c-.83,11.4,3.32,18.36,6.94,22.18,5.01,5.29,11.76,8.28,20.07,8.88,1.52,.11,3,.13,4.44,.07,6.43-.28,12.04-2.28,16.7-5.99,3.56-2.83,6.18-6.5,7.86-10.92,3.84,3.74,8.43,6.54,13.72,8.33,6.35,2.14,13.73,3.08,21.93,2.79,8.2-.29,15.91-2.04,22.93-5.23,2.27-1.03,4.41-2.23,6.4-3.57,.63,.58,1.29,1.12,1.98,1.63,5.18,3.84,11.83,5.65,19.77,5.38,.11,0,.22,0,.33-.01,6.77-.29,12.7-2.24,17.63-5.8,6.18-4.46,9.44-11.23,9.16-19.06-.06-1.72-.33-4.34-.87-8.49Zm-201.56-136.73s0,0,.01,0c0,0-.01,0-.02,.01v-.02Zm-273.76,185.32c.85,.6,1.72,1.16,2.61,1.71l-13.48,1.25-1.51-16.27c3.33,5.39,7.48,9.87,12.39,13.32Z"/>
          </g>
          <g>
            <g>
              <path class="cls-7" d="M545.78,140.37l-8.31-42.12c-.93-4.69-.4-8.64,1.57-11.84,1.97-3.2,5.13-5.22,9.46-6.08,4.34-.85,8.03-.18,11.09,2.02,3.06,2.21,5.05,5.66,5.98,10.35l9.39,47.61c.77,3.9,.83,7.6,.17,11.09-.65,3.5-1.87,6.57-3.64,9.21-1.77,2.65-3.98,5.02-6.62,7.13-2.64,2.11-5.52,3.84-8.62,5.17-3.11,1.34-6.39,2.34-9.85,3.03-9.71,1.91-18.07,1.04-25.1-2.64-7.03-3.67-11.28-9.23-12.74-16.67-1.94-9.86,1.58-15.69,10.57-17.46,3.26-.64,6.22-.21,8.87,1.29,2.65,1.5,4.33,4.04,5.04,7.62,.55,2.79,1.57,4.7,3.06,5.75,1.49,1.05,3.25,1.37,5.27,.98,2.35-.46,3.91-1.76,4.69-3.9,.78-2.14,.68-5.65-.28-10.55Z"/>
              <path class="cls-7" d="M613.94,123.83l-1.44-19.4c-.27-3.59,.52-6.36,2.38-8.32,1.85-1.96,4.43-3.06,7.74-3.31,3.31-.25,6.03,.46,8.14,2.13,2.12,1.66,3.31,4.29,3.58,7.88l2.74,37c.51,6.93-2.73,10.66-9.73,11.18-3.11,.23-5.48-.45-7.12-2.05-1.64-1.6-2.78-4.1-3.42-7.53l-.21,.02c-3.29,7.15-9.04,11.02-17.24,11.63-3.69,.27-6.97-.03-9.82-.91-2.86-.88-5.2-2.24-7.01-4.09-1.82-1.84-3.23-4-4.22-6.48-1-2.47-1.61-5.27-1.84-8.37l-1.92-25.97c-.27-3.59,.53-6.36,2.37-8.32,1.85-1.96,4.43-3.06,7.74-3.31s6.03,.47,8.14,2.13c2.12,1.66,3.31,4.29,3.58,7.88l1.55,20.9c.46,6.21,3.38,9.11,8.76,8.72,2.62-.2,4.55-1.3,5.79-3.32,1.24-2.02,1.73-4.71,1.48-8.1Z"/>
              <path class="cls-7" d="M774.72,101.29c-1.09-4.84-1.28-9.32-.54-13.41,.73-4.1,2.26-7.62,4.57-10.56,2.31-2.94,5.18-5.41,8.61-7.41,3.43-2,7.34-3.5,11.73-4.49,4.39-.99,8.57-1.32,12.53-.99,3.95,.33,7.61,1.33,10.96,2.99,3.35,1.66,6.24,4.18,8.67,7.57,2.43,3.38,4.19,7.5,5.28,12.34,1.1,4.87,1.29,9.37,.56,13.49-.73,4.12-2.25,7.66-4.56,10.61-2.31,2.96-5.18,5.44-8.6,7.44-3.43,2-7.34,3.5-11.73,4.49-4.4,.99-8.57,1.32-12.53,.99-3.95-.33-7.61-1.34-10.97-3.01-3.36-1.68-6.25-4.22-8.68-7.62-2.43-3.4-4.19-7.54-5.3-12.41Zm40.22-8.39c-2.26-9.99-6.44-14.3-12.56-12.91-6.11,1.38-8.04,7.07-5.78,17.06,1.02,4.53,2.59,7.79,4.7,9.76,2.11,1.98,4.64,2.63,7.59,1.97,2.95-.67,4.96-2.34,6.01-5.04,1.05-2.69,1.06-6.31,.04-10.84Z"/>
              <path class="cls-7" d="M702.37,118.03c.13,1.76-.32,3.46-1.35,5.11s-2.67,3.22-4.92,4.71c-2.25,1.49-5.45,2.79-9.61,3.88-4.16,1.09-9.05,1.85-14.66,2.27-4.89,.36-9.43,.04-13.63-.95-4.2-.99-7.97-2.66-11.31-5-3.34-2.35-6.04-5.54-8.11-9.59-2.07-4.05-3.3-8.79-3.7-14.21-.4-5.38,.13-10.22,1.57-14.51,1.45-4.29,3.65-7.83,6.61-10.63,2.96-2.79,6.44-4.99,10.45-6.59,4.01-1.6,8.45-2.58,13.34-2.94,5.12-.38,9.81-.04,14.09,1,4.28,1.05,7.77,2.48,10.48,4.32,2.71,1.84,5.03,3.98,6.95,6.42,1.93,2.45,3.32,4.8,4.18,7.03,.86,2.24,1.36,4.35,1.51,6.34,.27,3.59-.41,6.19-2.04,7.81-1.63,1.62-4.41,2.57-8.34,2.86l-34.24,2.54c.6,3.91,2.09,6.93,4.47,9.05,2.38,2.13,5.5,3.05,9.36,2.76,1.99-.15,3.96-.69,5.93-1.62,1.96-.93,3.63-1.92,4.99-2.96,1.36-1.04,2.94-2.02,4.73-2.94,1.79-.92,3.51-1.44,5.15-1.56,2.06-.15,3.89,.54,5.48,2.07,1.59,1.53,2.46,3.31,2.61,5.34Zm-43.61-22.1l22.62-1.67c-.29-3.93-1.56-6.76-3.82-8.47-2.26-1.72-5.03-2.45-8.31-2.21-3.05,.22-5.6,1.35-7.64,3.36-2.04,2.01-2.99,5.01-2.85,8.99Z"/>
              <path class="cls-7" d="M884.59,116.07c-.11-1.44-.84-2.65-2.2-3.66-1.36-1.01-3.86-1.76-7.5-2.25l-8.54-1.19c-5.15-.7-9.52-1.66-13.13-2.88-3.6-1.22-6.49-2.72-8.65-4.5-2.16-1.78-3.76-3.71-4.79-5.8-1.03-2.09-1.65-4.52-1.86-7.3-.17-2.33,0-4.59,.55-6.77,.54-2.18,1.59-4.37,3.16-6.56,1.57-2.19,3.64-4.15,6.19-5.87,2.55-1.72,5.95-3.2,10.18-4.44,4.24-1.24,9.09-2.06,14.56-2.46,4.35-.32,8.53-.31,12.54,.02,4.01,.34,7.72,.98,11.13,1.95,3.41,.97,6.17,2.42,8.3,4.35,2.13,1.94,3.29,4.23,3.48,6.88,.19,2.51-.53,4.67-2.16,6.48-1.62,1.81-3.8,2.82-6.54,3.02-2.06,.15-4.13-.15-6.19-.93-2.06-.77-3.88-1.65-5.43-2.64-1.56-.99-3.65-1.85-6.28-2.58-2.62-.73-5.46-.98-8.51-.75-2.55,.19-4.5,.77-5.82,1.75-1.33,.98-1.93,2.29-1.8,3.95,.11,1.48,.75,2.57,1.93,3.27,1.18,.7,3.61,1.32,7.3,1.86l12.16,1.67c17.08,2.48,26.02,9.03,26.81,19.65,.19,2.6-.02,5.1-.63,7.48-.61,2.39-1.8,4.74-3.57,7.06-1.77,2.32-4.05,4.37-6.84,6.15-2.8,1.79-6.44,3.32-10.92,4.6-4.48,1.28-9.59,2.13-15.33,2.55-6.32,.47-12.07,.28-17.25-.55-5.18-.83-9.5-2.48-12.98-4.95-3.47-2.47-5.35-5.61-5.63-9.42-.18-2.38,.67-4.49,2.54-6.34,1.87-1.85,4.17-2.88,6.91-3.08,1.43-.11,2.91,.14,4.41,.75,1.51,.61,2.98,1.38,4.4,2.31,1.42,.93,2.93,1.84,4.53,2.74,1.6,.89,3.52,1.62,5.77,2.17,2.25,.56,4.63,.74,7.14,.55,2.82-.21,4.98-.93,6.46-2.17,1.49-1.23,2.17-2.62,2.06-4.14Z"/>
              <path class="cls-7" d="M749.93,125.49l-.26-8.33h-.24c-1.13,2.92-3.26,5.16-6.38,6.72-3.13,1.56-6.72,2.4-10.77,2.53-2.44,.08-4.87-.16-7.3-.72-2.42-.55-4.87-1.56-7.34-3.02-2.47-1.46-4.67-3.28-6.59-5.47-1.92-2.19-3.51-5.01-4.76-8.48-1.25-3.47-1.95-7.37-2.09-11.7-.13-4.17,.36-8.12,1.49-11.85,1.12-3.72,2.79-7.01,5.01-9.86,2.22-2.85,5.06-5.14,8.54-6.86,3.47-1.73,7.34-2.66,11.59-2.79,2.6-.08,5.19,.21,7.78,.88,2.58,.67,5.01,1.86,7.27,3.58,2.26,1.72,3.75,3.83,4.46,6.34h.24c-.11-3.36,.75-6.12,2.58-8.31,1.82-2.19,4.47-3.34,7.94-3.44,7.44-.24,11.29,3.68,11.55,11.76l1.62,50.93c.57,17.92-10.99,27.26-34.66,28.01-4.53,.14-8.61-.07-12.23-.65-3.63-.57-6.53-1.36-8.71-2.36-2.18-1-4-2.15-5.46-3.46-1.46-1.32-2.47-2.56-3.02-3.72-.55-1.17-.84-2.3-.88-3.4-.08-2.64,.67-4.85,2.25-6.64,1.58-1.79,3.75-2.72,6.51-2.81,1.26-.04,2.66,.32,4.2,1.08,1.54,.76,2.96,1.6,4.25,2.52,1.29,.93,2.89,1.76,4.81,2.51,1.92,.75,3.84,1.09,5.77,1.03,4.92-.16,8.34-1.36,10.24-3.6,1.9-2.25,2.78-5.72,2.63-10.4Zm-2.17-20.01c1.57-2.56,2.3-5.78,2.18-9.68-.12-3.9-1.05-7.06-2.78-9.49-1.73-2.43-4.41-3.59-8.04-3.47-6.93,.22-10.26,4.76-9.98,13.62,.28,8.9,3.89,13.25,10.82,13.02,3.62-.12,6.22-1.45,7.8-4Z"/>
            </g>
            <g>
              <path class="cls-7" d="M974.91,86.96l.6-14.49c.24-5.72,3.13-8.47,8.7-8.24,5.56,.23,8.22,3.21,7.99,8.93l-1.87,45.25c-.23,5.56-2.91,8.23-8.04,8.02-2.39-.1-4.2-.91-5.45-2.43-1.24-1.52-1.81-3.43-1.72-5.74h-.16c-.51,1.71-1.54,3.16-3.11,4.33-1.57,1.17-3.24,1.98-5.01,2.42-1.77,.44-3.54,.63-5.3,.55-6-.25-10.66-2.52-13.98-6.82-3.33-4.3-4.85-9.97-4.55-17.02,.08-1.79,.34-3.65,.8-5.57,.46-1.92,1.22-3.91,2.26-5.94,1.05-2.04,2.3-3.84,3.75-5.41,1.45-1.57,3.32-2.83,5.6-3.78,2.28-.95,4.79-1.37,7.53-1.26,5.29,.22,9.23,2.61,11.81,7.17h.16Zm-.43,16.25c.12-2.96-.4-5.29-1.57-7-1.17-1.71-2.71-2.6-4.64-2.68-1.41-.06-2.65,.16-3.71,.66-1.07,.5-1.91,1.22-2.52,2.16-.61,.94-1.07,1.96-1.37,3.06-.31,1.1-.49,2.32-.54,3.65-.04,1-.01,1.95,.09,2.85,.1,.9,.3,1.79,.62,2.68,.32,.88,.74,1.66,1.25,2.31,.52,.66,1.21,1.21,2.07,1.64,.86,.43,1.86,.67,2.97,.71,2.36,.1,4.14-.74,5.34-2.51,1.2-1.77,1.87-4.28,2-7.54Z"/>
              <path class="cls-7" d="M1027.29,114.56c-.04,.9-.37,1.74-.99,2.52-.62,.78-1.54,1.48-2.78,2.1-1.23,.63-2.93,1.09-5.11,1.41-2.17,.31-4.7,.41-7.58,.29-2.5-.1-4.79-.53-6.87-1.28-2.07-.75-3.89-1.82-5.45-3.2-1.56-1.39-2.74-3.17-3.55-5.35-.81-2.18-1.16-4.65-1.04-7.43,.11-2.76,.66-5.18,1.65-7.28,.99-2.09,2.31-3.76,3.98-5,1.67-1.24,3.57-2.15,5.7-2.73,2.13-.58,4.45-.81,6.95-.71,2.62,.11,4.99,.55,7.1,1.34,2.11,.78,3.8,1.72,5.07,2.81,1.27,1.09,2.32,2.32,3.15,3.67s1.41,2.63,1.71,3.81c.3,1.19,.43,2.29,.39,3.31-.08,1.84-.57,3.12-1.5,3.85-.92,.73-2.39,1.05-4.4,.96l-17.54-.72c.07,2.02,.65,3.64,1.74,4.86,1.09,1.22,2.62,1.87,4.59,1.95,1.02,.04,2.05-.11,3.1-.47,1.05-.36,1.96-.76,2.71-1.21,.75-.45,1.61-.85,2.57-1.21,.97-.36,1.87-.53,2.71-.49,1.05,.04,1.94,.5,2.66,1.38,.72,.87,1.06,1.82,1.02,2.86Zm-20.85-13.79l11.58,.48c.08-2.02-.4-3.52-1.44-4.53-1.05-1-2.41-1.54-4.09-1.61-1.56-.06-2.92,.36-4.08,1.25-1.15,.9-1.81,2.37-1.97,4.4Z"/>
            </g>
            <g>
              <path class="cls-7" d="M548.74,306.48l44.16-4.1c5.48-.51,10,.59,13.56,3.29,3.56,2.7,5.58,6.74,6.08,12.1,.49,5.31-.76,9.62-3.76,12.93-3,3.32-7.24,5.22-12.72,5.74l-62.31,5.79c-8.22,.77-14.46-.67-18.7-4.3-4.25-3.63-6.77-9.83-7.59-18.59l-8.02-86.36c-.65-7.03,.71-12.75,4.09-17.15,3.38-4.4,8.32-6.9,14.81-7.51,6.5-.6,11.82,.95,15.98,4.65,4.16,3.7,6.57,9.07,7.22,16.1l7.19,77.42Z"/>
              <path class="cls-7" d="M559.65,250.26c-.54-7.34,.17-13.93,2.14-19.79,1.98-5.85,4.98-10.68,9.02-14.49,4.04-3.8,8.79-6.8,14.25-8.98,5.46-2.18,11.53-3.52,18.19-4.01,6.66-.49,12.86-.06,18.58,1.29,5.73,1.36,10.87,3.62,15.42,6.79,4.55,3.17,8.23,7.5,11.05,13,2.81,5.5,4.49,11.91,5.04,19.25,.55,7.39-.17,14.02-2.14,19.9-1.97,5.88-4.98,10.73-9.01,14.56-4.03,3.83-8.78,6.84-14.25,9.02-5.47,2.19-11.53,3.53-18.19,4.02-6.66,.49-12.86,.06-18.58-1.3-5.73-1.35-10.87-3.63-15.42-6.82-4.56-3.2-8.24-7.56-11.06-13.08-2.82-5.52-4.5-11.98-5.05-19.37Zm60.82-3.48c-1.12-15.15-6.32-22.38-15.58-21.69-9.27,.68-13.34,8.6-12.22,23.75,.51,6.87,2.09,11.99,4.75,15.35,2.66,3.36,6.22,4.88,10.7,4.54,4.48-.33,7.78-2.35,9.91-6.07,2.13-3.72,2.95-9.01,2.44-15.88Z"/>
              <path class="cls-7" d="M821.93,260.74l-8.09-60.52c-.78-5.82,.19-10.46,2.89-13.93,2.7-3.47,6.39-5.52,11.07-6.14,4.85-.65,8.94,.31,12.28,2.89,3.34,2.58,5.43,7.09,6.3,13.53l.94,7.02,.34-.04c2.05-9.04,4.65-15.93,7.83-20.65,3.17-4.72,7.27-7.42,12.29-8.09,3.48-.46,6.49,.02,9.04,1.45,2.55,1.44,4.4,3.29,5.58,5.57,1.18,2.28,1.96,4.85,2.34,7.7,.59,4.4,.21,8.09-1.13,11.08-1.34,3-3.53,5.11-6.56,6.32l-9.43,3.79c-5.12,2.08-8.75,4.55-10.86,7.42-2.11,2.87-2.8,7.1-2.05,12.69l3.35,25.08c.79,5.94-.25,10.62-3.13,14.06-2.88,3.43-7.06,5.52-12.54,6.25-5.48,.73-10.06-.18-13.74-2.74-3.68-2.56-5.92-6.81-6.71-12.74Z"/>
              <path class="cls-7" d="M656.79,189.76l-1.19-12.4c-1.24-12.92,4.42-19.99,16.97-21.19,12.49-1.2,19.36,4.66,20.6,17.58l1.19,12.4,11.3-1.08c8.02-.77,12.4,2.61,13.12,10.14,.72,7.53-2.93,11.68-10.95,12.45l-11.3,1.08,4.1,42.72,.27,2.75c.14,1.47,.66,2.55,1.56,3.24,.9,.68,1.99,.97,3.28,.84,7.1-.68,12.14-.07,15.1,1.84,2.96,1.91,4.67,5.22,5.12,9.93,.21,2.14,0,4.07-.61,5.76-.61,1.7-1.78,3.36-3.51,4.97-1.73,1.62-4.41,2.99-8.04,4.11-3.63,1.12-8.11,1.93-13.44,2.44-11.02,1.06-19.69-.91-26.01-5.89-6.32-4.99-10-12.93-11.05-23.83l-4.34-45.29-7.16,.69c-8.02,.77-12.4-2.61-13.12-10.14-.72-7.53,2.93-11.68,10.95-12.45l7.16-.69Z"/>
              <path class="cls-7" d="M886.71,253.67l4.45-61.08c.44-5.99,2.42-10.38,5.95-13.16,3.53-2.78,8.06-3.97,13.59-3.57,5.53,.41,9.82,2.24,12.89,5.5,3.06,3.26,4.38,7.89,3.94,13.88l-4.45,61.08c-.44,5.99-2.4,10.38-5.91,13.16-3.5,2.79-8.02,3.98-13.55,3.58-5.53-.4-9.84-2.24-12.93-5.5-3.09-3.27-4.42-7.89-3.98-13.88Zm16.06-103.66l15.6-11.46c3.12-2.26,5.45-3.7,7-4.31,1.55-.61,3.25-.85,5.09-.72,2.65,.19,5.09,1.44,7.33,3.75,2.24,2.31,3.25,4.92,3.03,7.86-.26,3.51-2.13,6.53-5.61,9.06l-15.6,11.46c-3.12,2.26-5.45,3.7-7,4.31-1.55,.61-3.24,.85-5.09,.71-2.65-.19-5.09-1.44-7.33-3.75-2.24-2.31-3.25-4.93-3.03-7.86,.25-3.51,2.12-6.53,5.61-9.06Z"/>
              <path class="cls-7" d="M1031.73,194.94l1.43,40.59c.08,2.31,.36,5.29,.83,8.94,.47,3.65,.74,6.14,.78,7.47,.15,4.21-1.4,7.49-4.64,9.83-3.24,2.34-7.23,3.59-11.96,3.76-10.85,.38-17.17-4.31-18.95-14.07-3.17,5.14-7.61,9.01-13.33,11.6-5.72,2.6-11.98,4.02-18.79,4.26-6.92,.24-12.94-.5-18.06-2.23-5.11-1.73-9.25-4.73-12.4-9.01-3.16-4.28-4.85-9.71-5.08-16.29-.11-3.23,.24-6.17,1.08-8.83,.83-2.66,2.32-5.21,4.46-7.65,2.14-2.44,4.94-4.59,8.4-6.45,3.46-1.86,7.89-3.47,13.31-4.85,5.41-1.37,11.66-2.42,18.74-3.13,7.02-.71,11.94-1.75,14.75-3.12,2.81-1.37,4.16-3.58,4.06-6.64-.21-6-5.22-8.83-15.03-8.49-2.89,.1-5.57,.63-8.05,1.58-2.48,.95-4.59,2.07-6.34,3.34-1.75,1.27-3.45,2.56-5.11,3.86-1.66,1.3-3.51,2.42-5.56,3.36-2.05,.94-4.19,1.45-6.44,1.53-3.64,.13-6.5-.75-8.59-2.65-2.09-1.89-3.2-4.66-3.33-8.29-.24-6.75,3.77-12.33,12.02-16.76,8.25-4.42,18.81-6.86,31.68-7.31,3.52-.12,6.99-.09,10.4,.11,3.41,.2,7.07,.58,10.96,1.13,3.89,.56,7.46,1.47,10.71,2.74,3.25,1.27,6.24,2.83,8.96,4.67,2.72,1.84,4.88,4.21,6.49,7.1,1.6,2.89,2.47,6.18,2.6,9.87Zm-34.2,37.77l-.37-10.47c-1.45,1.67-3.6,2.93-6.45,3.78-2.86,.85-5.98,1.58-9.37,2.19-3.39,.61-5.88,1.26-7.47,1.95-3.3,1.45-4.88,4.04-4.75,7.79,.09,2.66,1.26,4.78,3.52,6.38,2.25,1.6,4.91,2.34,7.97,2.23,5.02-.18,9.13-1.63,12.33-4.37,3.2-2.74,4.73-5.9,4.61-9.48Z"/>
              <path class="cls-7" d="M810.27,245.92c.35,2.39-.09,4.77-1.33,7.13-1.24,2.36-3.33,4.67-6.26,6.94-2.93,2.26-7.19,4.35-12.77,6.27-5.58,1.92-12.19,3.44-19.82,4.57-6.65,.98-12.9,1.01-18.74,.07-5.85-.94-11.17-2.84-15.97-5.71-4.81-2.87-8.82-6.97-12.05-12.31-3.23-5.33-5.39-11.69-6.49-19.06-1.08-7.32-.85-13.99,.7-20.01,1.55-6.01,4.21-11.08,7.98-15.2,3.77-4.12,8.32-7.47,13.64-10.06,5.32-2.59,11.31-4.38,17.96-5.37,6.96-1.03,13.42-1.04,19.38-.04,5.96,1,10.88,2.62,14.77,4.86,3.89,2.24,7.27,4.93,10.16,8.09,2.88,3.15,5.02,6.22,6.42,9.2,1.4,2.98,2.3,5.82,2.7,8.52,.72,4.88,.05,8.51-2.01,10.89-2.06,2.38-5.77,3.96-11.12,4.75l-46.59,6.9c1.21,5.29,3.55,9.27,7.02,11.94,3.47,2.67,7.83,3.62,13.08,2.84,2.7-.4,5.35-1.33,7.95-2.81,2.59-1.47,4.77-2.99,6.53-4.55,1.76-1.56,3.82-3.06,6.18-4.5,2.36-1.44,4.66-2.32,6.89-2.65,2.8-.41,5.37,.35,7.7,2.28,2.33,1.94,3.7,4.28,4.11,7.03Zm-61.88-25.87l30.78-4.56c-.79-5.35-2.82-9.09-6.08-11.2-3.26-2.12-7.12-2.85-11.59-2.19-4.16,.62-7.53,2.4-10.11,5.36-2.59,2.96-3.59,7.16-2.99,12.59Z"/>
            </g>
          </g>
          <g>
            <g>
              <path class="cls-3" d="M545.65,137.54l-8.31-42.12c-.93-4.69-.4-8.64,1.57-11.84,1.97-3.2,5.13-5.22,9.46-6.08,4.34-.85,8.03-.18,11.09,2.02,3.06,2.21,5.05,5.66,5.98,10.35l9.39,47.61c.77,3.9,.83,7.6,.17,11.09-.65,3.5-1.87,6.57-3.64,9.21-1.77,2.65-3.98,5.02-6.62,7.13-2.64,2.11-5.52,3.84-8.62,5.17-3.11,1.34-6.39,2.34-9.85,3.03-9.71,1.91-18.07,1.04-25.1-2.64-7.03-3.67-11.28-9.23-12.74-16.67-1.94-9.86,1.58-15.69,10.57-17.46,3.26-.64,6.22-.21,8.87,1.29,2.65,1.5,4.33,4.04,5.04,7.62,.55,2.79,1.57,4.7,3.06,5.75,1.49,1.05,3.25,1.37,5.27,.98,2.35-.46,3.91-1.76,4.69-3.9,.78-2.14,.68-5.65-.28-10.55Z"/>
              <path class="cls-3" d="M613.81,121l-1.44-19.4c-.27-3.59,.52-6.36,2.38-8.32,1.85-1.96,4.43-3.06,7.74-3.31,3.31-.25,6.03,.46,8.14,2.13,2.12,1.66,3.31,4.29,3.58,7.88l2.74,37c.51,6.93-2.73,10.66-9.73,11.18-3.11,.23-5.48-.45-7.12-2.05-1.64-1.6-2.78-4.1-3.42-7.53l-.21,.02c-3.29,7.15-9.04,11.02-17.24,11.63-3.69,.27-6.97-.03-9.82-.91-2.86-.88-5.2-2.24-7.01-4.09-1.82-1.84-3.23-4-4.22-6.48-1-2.47-1.61-5.27-1.84-8.37l-1.92-25.97c-.27-3.59,.53-6.36,2.37-8.32,1.85-1.96,4.43-3.06,7.74-3.31,3.31-.24,6.03,.47,8.14,2.13,2.12,1.66,3.31,4.29,3.58,7.88l1.55,20.9c.46,6.21,3.38,9.11,8.76,8.72,2.62-.2,4.55-1.3,5.79-3.32,1.24-2.02,1.73-4.71,1.48-8.1Z"/>
              <path class="cls-3" d="M774.6,98.46c-1.09-4.84-1.28-9.32-.54-13.41,.73-4.1,2.26-7.62,4.57-10.56,2.31-2.94,5.18-5.41,8.61-7.41,3.43-2,7.34-3.5,11.73-4.49,4.39-.99,8.57-1.32,12.53-.99,3.95,.33,7.61,1.33,10.96,2.99,3.35,1.66,6.24,4.18,8.67,7.57,2.43,3.38,4.19,7.5,5.28,12.34,1.1,4.87,1.29,9.37,.56,13.49-.73,4.12-2.25,7.66-4.56,10.61-2.31,2.96-5.18,5.44-8.6,7.44-3.43,2-7.34,3.5-11.73,4.49-4.4,.99-8.57,1.32-12.53,.99-3.95-.33-7.61-1.34-10.97-3.01-3.36-1.68-6.25-4.22-8.68-7.62-2.43-3.4-4.19-7.54-5.3-12.41Zm40.22-8.39c-2.26-9.99-6.44-14.3-12.56-12.91-6.11,1.38-8.04,7.07-5.78,17.06,1.02,4.53,2.59,7.79,4.7,9.76,2.11,1.98,4.64,2.63,7.59,1.97s4.96-2.34,6.01-5.04c1.05-2.69,1.06-6.31,.04-10.84Z"/>
              <path class="cls-3" d="M702.24,115.2c.13,1.76-.32,3.46-1.35,5.11-1.03,1.65-2.67,3.22-4.92,4.71-2.25,1.49-5.45,2.79-9.61,3.88-4.16,1.09-9.05,1.85-14.66,2.27-4.89,.36-9.43,.04-13.63-.95-4.2-.99-7.97-2.66-11.31-5-3.34-2.35-6.04-5.54-8.11-9.59-2.07-4.05-3.3-8.79-3.7-14.21-.4-5.38,.13-10.22,1.57-14.51,1.45-4.29,3.65-7.83,6.61-10.63,2.96-2.79,6.44-4.99,10.45-6.59,4.01-1.6,8.45-2.58,13.34-2.94,5.12-.38,9.81-.04,14.09,1,4.28,1.05,7.77,2.48,10.48,4.32,2.71,1.84,5.03,3.98,6.95,6.42,1.93,2.45,3.32,4.8,4.18,7.03,.86,2.24,1.36,4.35,1.51,6.34,.27,3.59-.41,6.19-2.04,7.81-1.63,1.62-4.41,2.57-8.34,2.86l-34.24,2.54c.6,3.91,2.09,6.93,4.47,9.05,2.38,2.13,5.5,3.05,9.36,2.76,1.99-.15,3.96-.69,5.93-1.62,1.96-.93,3.63-1.92,4.99-2.96,1.36-1.04,2.94-2.02,4.73-2.94,1.79-.92,3.51-1.44,5.15-1.56,2.06-.15,3.89,.54,5.48,2.07,1.59,1.53,2.46,3.31,2.61,5.34Zm-43.61-22.1l22.62-1.67c-.29-3.93-1.56-6.76-3.82-8.47-2.26-1.72-5.03-2.45-8.31-2.21-3.05,.22-5.6,1.35-7.64,3.36-2.04,2.01-2.99,5.01-2.85,8.99Z"/>
              <path class="cls-3" d="M884.47,113.24c-.11-1.44-.84-2.65-2.2-3.66-1.36-1.01-3.86-1.76-7.5-2.25l-8.54-1.19c-5.15-.7-9.52-1.66-13.13-2.88-3.6-1.22-6.49-2.72-8.65-4.5-2.16-1.78-3.76-3.71-4.79-5.8-1.03-2.09-1.65-4.52-1.86-7.3-.17-2.33,0-4.59,.55-6.77,.54-2.18,1.59-4.37,3.16-6.56,1.57-2.19,3.64-4.15,6.19-5.87,2.55-1.72,5.95-3.2,10.18-4.44,4.24-1.24,9.09-2.06,14.56-2.46,4.35-.32,8.53-.31,12.54,.02,4.01,.34,7.72,.98,11.13,1.95,3.41,.97,6.17,2.42,8.3,4.35,2.13,1.94,3.29,4.23,3.48,6.88,.19,2.51-.53,4.67-2.16,6.48-1.62,1.81-3.8,2.82-6.54,3.02-2.06,.15-4.13-.15-6.19-.93-2.06-.77-3.88-1.65-5.43-2.64-1.56-.99-3.65-1.85-6.28-2.58-2.62-.73-5.46-.98-8.51-.75-2.55,.19-4.5,.77-5.82,1.75-1.33,.98-1.93,2.29-1.8,3.95,.11,1.48,.75,2.57,1.93,3.27,1.18,.7,3.61,1.32,7.3,1.86l12.16,1.67c17.08,2.48,26.02,9.03,26.81,19.65,.19,2.6-.02,5.1-.63,7.48-.61,2.39-1.8,4.74-3.57,7.06-1.77,2.32-4.05,4.37-6.84,6.15-2.8,1.79-6.44,3.32-10.92,4.6-4.48,1.28-9.59,2.13-15.33,2.55-6.32,.47-12.07,.28-17.25-.55-5.18-.83-9.5-2.48-12.98-4.95-3.47-2.47-5.35-5.61-5.63-9.42-.18-2.38,.67-4.49,2.54-6.34,1.87-1.85,4.17-2.88,6.91-3.08,1.43-.11,2.91,.14,4.41,.75,1.51,.61,2.98,1.38,4.4,2.31,1.42,.93,2.93,1.84,4.53,2.74,1.6,.89,3.52,1.62,5.77,2.17,2.25,.56,4.63,.74,7.14,.55,2.82-.21,4.98-.93,6.46-2.17,1.49-1.23,2.17-2.62,2.06-4.14Z"/>
              <path class="cls-3" d="M749.8,122.66l-.26-8.33h-.24c-1.13,2.92-3.26,5.16-6.38,6.72-3.13,1.56-6.72,2.4-10.77,2.53-2.44,.08-4.87-.16-7.3-.72-2.42-.55-4.87-1.56-7.34-3.02-2.47-1.46-4.67-3.28-6.59-5.47-1.92-2.19-3.51-5.01-4.76-8.48-1.25-3.47-1.95-7.37-2.09-11.7-.13-4.17,.36-8.12,1.49-11.85,1.12-3.72,2.79-7.01,5.01-9.86,2.22-2.85,5.06-5.14,8.54-6.86,3.47-1.73,7.34-2.66,11.59-2.79,2.6-.08,5.19,.21,7.78,.88,2.58,.67,5.01,1.86,7.27,3.58,2.26,1.72,3.75,3.83,4.46,6.34h.24c-.11-3.36,.75-6.12,2.58-8.31,1.82-2.19,4.47-3.34,7.94-3.44,7.44-.24,11.29,3.68,11.55,11.76l1.62,50.93c.57,17.92-10.99,27.26-34.66,28.01-4.53,.14-8.61-.07-12.23-.65-3.63-.57-6.53-1.36-8.71-2.36-2.18-1-4-2.15-5.46-3.46-1.46-1.32-2.47-2.56-3.02-3.72-.55-1.17-.84-2.3-.88-3.4-.08-2.64,.67-4.85,2.25-6.64,1.58-1.79,3.75-2.72,6.51-2.81,1.26-.04,2.66,.32,4.2,1.08,1.54,.76,2.96,1.6,4.25,2.52,1.29,.93,2.89,1.76,4.81,2.51,1.92,.75,3.84,1.09,5.77,1.03,4.92-.16,8.34-1.36,10.24-3.6,1.9-2.25,2.78-5.72,2.63-10.4Zm-2.17-20.01c1.57-2.56,2.3-5.78,2.18-9.68-.12-3.9-1.05-7.06-2.78-9.49-1.73-2.43-4.41-3.59-8.04-3.47-6.93,.22-10.26,4.76-9.98,13.62,.28,8.9,3.89,13.25,10.82,13.02,3.62-.12,6.22-1.45,7.8-4Z"/>
            </g>
            <g>
              <path class="cls-3" d="M974.79,84.13l.6-14.49c.24-5.72,3.13-8.47,8.7-8.24,5.56,.23,8.22,3.21,7.99,8.93l-1.87,45.25c-.23,5.56-2.91,8.23-8.04,8.02-2.39-.1-4.2-.91-5.45-2.43-1.24-1.52-1.81-3.43-1.72-5.74h-.16c-.51,1.71-1.54,3.16-3.11,4.33-1.57,1.17-3.24,1.98-5.01,2.42-1.77,.44-3.54,.63-5.3,.55-6-.25-10.66-2.52-13.98-6.82-3.33-4.3-4.85-9.97-4.55-17.02,.08-1.79,.34-3.65,.8-5.57,.46-1.92,1.22-3.91,2.26-5.94,1.05-2.04,2.3-3.84,3.75-5.41,1.45-1.57,3.32-2.83,5.6-3.78,2.28-.95,4.79-1.37,7.53-1.26,5.29,.22,9.23,2.61,11.81,7.17h.16Zm-.43,16.25c.12-2.96-.4-5.29-1.57-7-1.17-1.71-2.71-2.6-4.64-2.68-1.41-.06-2.65,.16-3.71,.66-1.07,.5-1.91,1.22-2.52,2.16-.61,.94-1.07,1.96-1.37,3.06-.31,1.1-.49,2.32-.54,3.65-.04,1-.01,1.95,.09,2.85,.1,.9,.3,1.79,.62,2.68,.32,.88,.74,1.66,1.25,2.31,.52,.66,1.21,1.21,2.07,1.64,.86,.43,1.86,.67,2.97,.71,2.36,.1,4.14-.74,5.34-2.51,1.2-1.77,1.87-4.28,2-7.54Z"/>
              <path class="cls-3" d="M1027.17,111.73c-.04,.9-.37,1.74-.99,2.52-.62,.78-1.54,1.48-2.78,2.1-1.23,.63-2.93,1.09-5.11,1.41-2.17,.31-4.7,.41-7.58,.29-2.5-.1-4.79-.53-6.87-1.28-2.07-.75-3.89-1.82-5.45-3.2-1.56-1.39-2.74-3.17-3.55-5.35-.81-2.18-1.16-4.65-1.04-7.43,.11-2.76,.66-5.18,1.65-7.28,.99-2.09,2.31-3.76,3.98-5,1.67-1.24,3.57-2.15,5.7-2.73,2.13-.58,4.45-.81,6.95-.71,2.62,.11,4.99,.55,7.1,1.34,2.11,.78,3.8,1.72,5.07,2.81,1.27,1.09,2.32,2.32,3.15,3.67,.83,1.36,1.41,2.63,1.71,3.81,.3,1.19,.43,2.29,.39,3.31-.08,1.84-.57,3.12-1.5,3.85-.92,.73-2.39,1.05-4.4,.96l-17.54-.72c.07,2.02,.65,3.64,1.74,4.86,1.09,1.22,2.62,1.87,4.59,1.95,1.02,.04,2.05-.11,3.1-.47,1.05-.36,1.96-.76,2.71-1.21,.75-.45,1.61-.85,2.57-1.21,.97-.36,1.87-.53,2.71-.49,1.05,.04,1.94,.5,2.66,1.38,.72,.87,1.06,1.82,1.02,2.86Zm-20.85-13.79l11.58,.48c.08-2.02-.4-3.52-1.44-4.53-1.05-1-2.41-1.54-4.09-1.61-1.56-.06-2.92,.36-4.08,1.25-1.15,.9-1.81,2.37-1.97,4.4Z"/>
            </g>
            <g>
              <path class="cls-3" d="M548.62,303.65l44.16-4.1c5.48-.51,10,.59,13.56,3.29,3.56,2.7,5.58,6.74,6.08,12.1,.49,5.31-.76,9.62-3.76,12.93-3,3.32-7.24,5.22-12.72,5.74l-62.31,5.79c-8.22,.77-14.46-.67-18.7-4.3-4.25-3.63-6.77-9.83-7.59-18.59l-8.02-86.36c-.65-7.03,.71-12.75,4.09-17.15,3.38-4.4,8.32-6.9,14.81-7.51,6.5-.6,11.82,.95,15.98,4.65,4.16,3.7,6.57,9.07,7.22,16.1l7.19,77.42Z"/>
              <path class="cls-3" d="M559.52,247.43c-.54-7.34,.17-13.93,2.14-19.79,1.98-5.85,4.98-10.68,9.02-14.49,4.04-3.8,8.79-6.8,14.25-8.98,5.46-2.18,11.53-3.52,18.19-4.01,6.66-.49,12.86-.06,18.58,1.29,5.73,1.36,10.87,3.62,15.42,6.79,4.55,3.17,8.23,7.5,11.05,13,2.81,5.5,4.49,11.91,5.04,19.25,.55,7.39-.17,14.02-2.14,19.9-1.97,5.88-4.98,10.73-9.01,14.56-4.03,3.83-8.78,6.84-14.25,9.02-5.47,2.19-11.53,3.53-18.19,4.02-6.66,.49-12.86,.06-18.58-1.3-5.73-1.35-10.87-3.63-15.42-6.82-4.56-3.2-8.24-7.56-11.06-13.08-2.82-5.52-4.5-11.98-5.05-19.37Zm60.82-3.48c-1.12-15.15-6.32-22.38-15.58-21.69-9.27,.68-13.34,8.6-12.22,23.75,.51,6.87,2.09,11.99,4.75,15.35,2.66,3.36,6.22,4.88,10.7,4.54,4.48-.33,7.78-2.35,9.91-6.07,2.13-3.72,2.95-9.01,2.44-15.88Z"/>
              <path class="cls-3" d="M821.81,257.91l-8.09-60.52c-.78-5.82,.19-10.46,2.89-13.93,2.7-3.47,6.39-5.52,11.07-6.14,4.85-.65,8.94,.31,12.28,2.89,3.34,2.58,5.43,7.09,6.3,13.53l.94,7.02,.34-.04c2.05-9.04,4.65-15.93,7.83-20.65,3.17-4.72,7.27-7.42,12.29-8.09,3.48-.46,6.49,.02,9.04,1.45,2.55,1.44,4.4,3.29,5.58,5.57,1.18,2.28,1.96,4.85,2.34,7.7,.59,4.4,.21,8.09-1.13,11.08-1.34,3-3.53,5.11-6.56,6.32l-9.43,3.79c-5.12,2.08-8.75,4.55-10.86,7.42-2.11,2.87-2.8,7.1-2.05,12.69l3.35,25.08c.79,5.94-.25,10.62-3.13,14.06-2.88,3.43-7.06,5.52-12.54,6.25-5.48,.73-10.06-.18-13.74-2.74-3.68-2.56-5.92-6.81-6.71-12.74Z"/>
              <path class="cls-3" d="M656.66,186.93l-1.19-12.4c-1.24-12.92,4.42-19.99,16.97-21.19,12.49-1.2,19.36,4.66,20.6,17.58l1.19,12.4,11.3-1.08c8.02-.77,12.4,2.61,13.12,10.14,.72,7.53-2.93,11.68-10.95,12.45l-11.3,1.08,4.1,42.72,.27,2.75c.14,1.47,.66,2.55,1.56,3.24,.9,.68,1.99,.97,3.28,.84,7.1-.68,12.14-.07,15.1,1.84,2.96,1.91,4.67,5.22,5.12,9.93,.21,2.14,0,4.07-.61,5.76-.61,1.7-1.78,3.36-3.51,4.97-1.73,1.62-4.41,2.99-8.04,4.11-3.63,1.12-8.11,1.93-13.44,2.44-11.02,1.06-19.69-.91-26.01-5.89-6.32-4.99-10-12.93-11.05-23.83l-4.34-45.29-7.16,.69c-8.02,.77-12.4-2.61-13.12-10.14-.72-7.53,2.93-11.68,10.95-12.45l7.16-.69Z"/>
              <path class="cls-3" d="M886.59,250.84l4.45-61.08c.44-5.99,2.42-10.38,5.95-13.16,3.53-2.78,8.06-3.97,13.59-3.57,5.53,.41,9.82,2.24,12.89,5.5,3.06,3.26,4.38,7.89,3.94,13.88l-4.45,61.08c-.44,5.99-2.4,10.38-5.91,13.16-3.5,2.79-8.02,3.98-13.55,3.58-5.53-.4-9.84-2.24-12.93-5.5-3.09-3.27-4.42-7.89-3.98-13.88Zm16.06-103.66l15.6-11.46c3.12-2.26,5.45-3.7,7-4.31,1.55-.61,3.25-.85,5.09-.72,2.65,.19,5.09,1.44,7.33,3.75,2.24,2.31,3.25,4.92,3.03,7.86-.26,3.51-2.13,6.53-5.61,9.06l-15.6,11.46c-3.12,2.26-5.45,3.7-7,4.31-1.55,.61-3.24,.85-5.09,.71-2.65-.19-5.09-1.44-7.33-3.75-2.24-2.31-3.25-4.93-3.03-7.86,.25-3.51,2.12-6.53,5.61-9.06Z"/>
              <path class="cls-3" d="M1031.6,192.11l1.43,40.59c.08,2.31,.36,5.29,.83,8.94,.47,3.65,.74,6.14,.78,7.47,.15,4.21-1.4,7.49-4.64,9.83-3.24,2.34-7.23,3.59-11.96,3.76-10.85,.38-17.17-4.31-18.95-14.07-3.17,5.14-7.61,9.01-13.33,11.6-5.72,2.6-11.98,4.02-18.79,4.26-6.92,.24-12.94-.5-18.06-2.23-5.11-1.73-9.25-4.73-12.4-9.01-3.16-4.28-4.85-9.71-5.08-16.29-.11-3.23,.24-6.17,1.08-8.83,.83-2.66,2.32-5.21,4.46-7.65,2.14-2.44,4.94-4.59,8.4-6.45,3.46-1.86,7.89-3.47,13.31-4.85,5.41-1.37,11.66-2.42,18.74-3.13,7.02-.71,11.94-1.75,14.75-3.12,2.81-1.37,4.16-3.58,4.06-6.64-.21-6-5.22-8.83-15.03-8.49-2.89,.1-5.57,.63-8.05,1.58-2.48,.95-4.59,2.07-6.34,3.34-1.75,1.27-3.45,2.56-5.11,3.86-1.66,1.3-3.51,2.42-5.56,3.36-2.05,.94-4.19,1.45-6.44,1.53-3.64,.13-6.5-.75-8.59-2.65-2.09-1.89-3.2-4.66-3.33-8.29-.24-6.75,3.77-12.33,12.02-16.76,8.25-4.42,18.81-6.86,31.68-7.31,3.52-.12,6.99-.09,10.4,.11,3.41,.2,7.07,.58,10.96,1.13,3.89,.56,7.46,1.47,10.71,2.74,3.25,1.27,6.24,2.83,8.96,4.67,2.72,1.84,4.88,4.21,6.49,7.1,1.6,2.89,2.47,6.18,2.6,9.87Zm-34.2,37.77l-.37-10.47c-1.45,1.67-3.6,2.93-6.45,3.78-2.86,.85-5.98,1.58-9.37,2.19-3.39,.61-5.88,1.26-7.47,1.95-3.3,1.45-4.88,4.04-4.75,7.79,.09,2.66,1.26,4.78,3.52,6.38,2.25,1.6,4.91,2.34,7.97,2.23,5.02-.18,9.13-1.63,12.33-4.37,3.2-2.74,4.73-5.9,4.61-9.48Z"/>
              <path class="cls-3" d="M810.15,243.09c.35,2.39-.09,4.77-1.33,7.13-1.24,2.36-3.33,4.67-6.26,6.94-2.93,2.26-7.19,4.35-12.77,6.27-5.58,1.92-12.19,3.44-19.82,4.57-6.65,.98-12.9,1.01-18.74,.07-5.85-.94-11.17-2.84-15.97-5.71-4.81-2.87-8.82-6.97-12.05-12.31-3.23-5.33-5.39-11.69-6.49-19.06-1.08-7.32-.85-13.99,.7-20.01,1.55-6.01,4.21-11.08,7.98-15.2s8.32-7.47,13.64-10.06c5.32-2.59,11.31-4.38,17.96-5.37,6.96-1.03,13.42-1.04,19.38-.04,5.96,1,10.88,2.62,14.77,4.86,3.89,2.24,7.27,4.93,10.16,8.09,2.88,3.15,5.02,6.22,6.42,9.2,1.4,2.98,2.3,5.82,2.7,8.52,.72,4.88,.05,8.51-2.01,10.89-2.06,2.38-5.77,3.96-11.12,4.75l-46.59,6.9c1.21,5.29,3.55,9.27,7.02,11.94,3.47,2.67,7.83,3.62,13.08,2.84,2.7-.4,5.35-1.33,7.95-2.81,2.59-1.47,4.77-2.99,6.53-4.55,1.76-1.56,3.82-3.06,6.18-4.5,2.36-1.44,4.66-2.32,6.89-2.65,2.8-.41,5.37,.35,7.7,2.28,2.33,1.94,3.7,4.28,4.11,7.03Zm-61.88-25.87l30.78-4.56c-.79-5.35-2.82-9.09-6.08-11.2-3.26-2.12-7.12-2.85-11.59-2.19-4.16,.62-7.53,2.4-10.11,5.36-2.59,2.96-3.59,7.16-2.99,12.59Z"/>
            </g>
          </g>
        </g>
        <g>
          <g>
            <g>
              <path class="cls-3" d="M145.43,391.41c-2-.65-2.51-2.1-1.97-3.79,.55-1.69,1.82-2.58,4.06-1.85l15.13,4.87c2.24,.72,2.76,2.18,2.21,3.87-.55,1.7-1.81,2.57-3.81,1.93l-4.27-1.37-4.19,13.01c-.76,2.36-2.58,3.37-4.76,2.67-2.19-.71-3.07-2.58-2.31-4.95l4.19-13-4.28-1.38Z"/>
              <path class="cls-3" d="M166.75,416c-5.21-1.16-8.68-4.78-7.34-10.8,1.34-5.99,6.03-7.77,11.23-6.61,7.29,1.64,8.38,7.14,7.83,9.62-.44,1.96-1.51,2.45-3.61,1.98l-9.25-2.07c-.31,2.13,.59,3.76,2.71,4.24,2.37,.53,4.23-1.18,6.22-.73,1.14,.25,1.78,1.56,1.55,2.61-.41,1.81-3.05,3.18-9.35,1.76Zm5.71-9.73c.5-2.29-.73-3.43-2.35-3.79-1.46-.33-3.15,.12-3.77,2.41l6.12,1.37Z"/>
              <path class="cls-3" d="M199.7,403.33c4.64,.32,7.55,2.75,7.39,5.07-.1,1.51-1.23,2.37-2.55,2.28-1.71-.12-2.29-2.52-4.64-2.68-2.7-.18-3.47,2.03-3.59,3.83-.16,2.19,.42,4.39,2.73,4.55,2.22,.16,3.38-2.13,5.22-2,1.57,.1,2.38,1.45,2.31,2.6-.09,1.36-2.18,4.43-8.07,4.02-5.28-.36-9.25-3.38-8.83-9.5,.42-6.09,4.76-8.54,10.04-8.18Z"/>
              <path class="cls-3" d="M227.25,416.57c0,1.17,.18,2.21,.17,3.02-.01,1.65-1.55,2.36-3.14,2.34-2.3,0-3.13-1.19-3.35-2.71-1.31,1.93-3.68,2.66-5.99,2.65-3.7-.03-6.32-1.58-6.29-5.3,.03-2.83,1.98-4.92,8.64-5.29,2.5-.14,3.51-.49,3.52-1.63,0-1.07-.9-1.66-2.68-1.68-2.89-.02-3.58,2.28-5.86,2.26-1.33,0-2.1-.75-2.09-2.09,.02-2.5,3.54-4.09,8.18-4.06,3.54,.04,8.98,.89,8.95,5.07l-.06,7.43Zm-6.47-2.71c-.95,1.01-3.12,.79-4.33,1.27-.55,.23-.91,.68-.91,1.39-.01,1.01,.96,1.67,2.03,1.67,1.88,.01,3.19-1.14,3.19-2.41l.02-1.92Z"/>
              <path class="cls-3" d="M309.39,397.98c.42,1.1,.98,2,1.27,2.76,.6,1.55-.58,2.78-2.07,3.35-2.15,.84-3.36,.04-4.13-1.3-.51,2.29-2.46,3.84-4.62,4.68-3.47,1.33-6.48,.85-7.83-2.64-1.02-2.65,.04-5.33,6.12-8.13,2.28-1.05,3.1-1.75,2.69-2.81-.39-1-1.45-1.22-3.13-.58-2.7,1.05-2.5,3.45-4.64,4.27-1.24,.48-2.24,.07-2.72-1.18-.9-2.34,1.8-5.13,6.14-6.81,3.32-1.27,8.72-2.48,10.23,1.44l2.68,6.96Zm-7.04-.15c-.52,1.29-2.62,1.89-3.58,2.78-.43,.41-.6,.97-.34,1.64,.36,.95,1.51,1.2,2.51,.81,1.76-.68,2.55-2.24,2.1-3.43l-.69-1.8Z"/>
              <path class="cls-3" d="M344.91,378.47c.63,.99,1.34,1.78,1.78,2.46,.88,1.41-.03,2.84-1.39,3.68-1.95,1.24-3.29,.68-4.3-.48-.06,2.34-1.68,4.24-3.64,5.48-3.15,1.97-6.2,2.08-8.19-1.09-1.5-2.41-.98-5.24,4.46-9.15,2.04-1.47,2.71-2.31,2.1-3.28-.57-.91-1.66-.92-3.18,.03-2.45,1.54-1.8,3.86-3.74,5.07-1.13,.71-2.18,.5-2.9-.64-1.33-2.13,.79-5.38,4.73-7.86,3.01-1.88,8.08-4.1,10.31-.55l3.97,6.32Zm-6.94,1.2c-.26,1.37-2.21,2.36-2.98,3.41-.34,.49-.4,1.07-.02,1.67,.53,.86,1.71,.89,2.62,.32,1.6-1,2.08-2.69,1.4-3.76l-1.02-1.64Z"/>
              <path class="cls-3" d="M402.06,323.84c.91,.74,1.85,1.24,2.48,1.75,1.29,1.04,.89,2.69-.12,3.93-1.44,1.8-2.89,1.72-4.22,.94,.7,2.24-.21,4.56-1.66,6.36-2.34,2.89-5.19,3.98-8.1,1.63-2.21-1.79-2.63-4.63,1.24-10.1,1.45-2.06,1.81-3.07,.92-3.78-.84-.67-1.87-.33-3,1.06-1.82,2.26-.44,4.24-1.89,6.01-.83,1.04-1.9,1.18-2.95,.34-1.95-1.58-1.01-5.34,1.91-8.97,2.24-2.76,6.31-6.51,9.57-3.87l5.81,4.69Zm-6.17,3.39c.2,1.38-1.32,2.95-1.71,4.19-.17,.57-.03,1.14,.52,1.59,.79,.64,1.91,.29,2.59-.55,1.19-1.47,1.09-3.22,.1-4.01l-1.5-1.21Z"/>
              <path class="cls-3" d="M252.26,409.82c-.25-2.09-1.04-2.75-2.52-2.57-1.12,.13-2.08,1.42-1.85,3.28l.73,6.12c.26,2.24-1,3.43-2.92,3.66-1.93,.23-3.43-.64-3.69-2.88l-.75-6.32c-.25-2.08-1.04-2.74-2.52-2.56-1.12,.14-2.08,1.42-1.85,3.27l.73,6.14c.26,2.24-.99,3.43-2.92,3.66-1.93,.23-3.42-.63-3.69-2.88l-1.33-11.19c-.25-2.06,.62-3.27,2.8-3.52,1.96-.24,2.87,.79,3.33,2.75h.06c.86-2.13,2.55-3.46,5.09-3.77,2.15-.25,4.51,.44,5.36,2.65,1.14-2.51,2.86-3.63,5.2-3.9,4.55-.54,6.75,2.05,7.19,5.71l.93,7.87c.27,2.25-1,3.44-2.91,3.65-1.92,.23-3.43-.63-3.69-2.87l-.76-6.31Z"/>
              <path class="cls-3" d="M258.98,397.42c-.54-2.26,.35-3.55,2.39-4.04,2.04-.49,3.43,.26,3.96,2.52l1.33,5.54,.06-.02c.59-1.75,1.84-3.13,4-3.65,5.47-1.32,8.56,3.73,9.34,6.94,1.28,5.38-.76,9.47-5.34,10.57-1.88,.45-4.67,.18-5.71-1.79l-.06,.02c.41,1.68-.27,3.23-2.15,3.67-1.98,.48-3.19-.38-3.69-2.48l-4.14-17.27Zm12.66,13.55c2.23-.54,2.35-2.68,1.93-4.47-.46-1.91-1.6-3.59-3.86-3.05-1.43,.35-2.21,1.89-1.65,4.21,.56,2.35,1.7,3.76,3.58,3.31Z"/>
              <path class="cls-3" d="M280.42,387.39c1.67-.53,3.41,.38,3.93,2.04,.52,1.66-.38,3.41-2.05,3.93-1.65,.52-3.4-.38-3.93-2.04-.52-1.66,.38-3.4,2.04-3.93Zm-.08,11.16c-.69-2.17,.33-3.59,2.2-4.18,1.87-.59,3.52-.01,4.21,2.16l3.4,10.73c.68,2.18-.34,3.6-2.21,4.19-1.87,.59-3.52,.02-4.21-2.16l-3.4-10.74Z"/>
              <path class="cls-3" d="M358.05,342.82c1.29-1.17,3.26-1.08,4.43,.21,1.17,1.29,1.08,3.26-.22,4.43-1.28,1.17-3.25,1.08-4.42-.21-1.17-1.29-1.07-3.25,.21-4.43Zm4.58,10.18c-1.54-1.68-1.2-3.4,.25-4.72,1.45-1.32,3.2-1.48,4.73,.21l7.57,8.33c1.53,1.7,1.2,3.41-.26,4.73-1.45,1.32-3.19,1.48-4.73-.21l-7.57-8.34Z"/>
              <path class="cls-3" d="M313.74,378.72c-1.05-1.99-.3-3.55,1.41-4.45,1.7-.9,3.41-.63,4.46,1.36l8.13,15.45c1.04,2,.3,3.55-1.41,4.46-1.71,.9-3.41,.63-4.46-1.37l-8.13-15.45Z"/>
              <path class="cls-3" d="M356.98,357.6c-.82-1.71-1.14-2.97,.54-4.35,1.35-1.11,3.07-1.1,4.17,.23,.57,.7,.95,1.48,1.41,2.74l3.46,9.68c.79,2.2-.12,3.08-1.95,4.58-1.75,1.45-2.79,2.18-4.79,.96l-8.82-5.27c-1.17-.72-1.91-1.15-2.49-1.86-1.09-1.33-.76-3.03,.59-4.14,1.68-1.38,2.57-1.1,4.45,.25l7.2,5.25,.05-.04-3.82-8.03Z"/>
              <path class="cls-3" d="M373.06,334.33c-1.66-1.58-1.6-3.14-.17-4.63,1.44-1.49,2.98-1.61,4.64-.03l12.65,12.14c1.54,1.47,1.66,2.93,.26,4.38-1.31,1.37-2.96,1.18-4.19,0l-.05,.04c1.15,1.87,0,4.39-1.32,5.76-3.22,3.35-7.72,3.06-11.66-.72-2.35-2.25-5.1-7.4-1.26-11.4,1.52-1.59,3.32-1.97,5.1-1.6l.05-.04-4.05-3.89Zm4.26,7.49c-1.58,1.65-.73,3.47,.67,4.8,1.31,1.25,3.19,2.22,4.77,.59,1.31-1.38,.68-3.05-1.04-4.71-1.71-1.63-3.39-1.73-4.4-.69Z"/>
            </g>
            <path class="cls-3" d="M126.87,411.39c-2.96-1.23-3.43-3.43-2.29-6.17,1.15-2.73,3.52-6.59,6.62-11.01,.88-1.24,1.66-1.63,3.25-.96,1.6,.66,1.88,1.5,1.62,2.99-.97,5.31-2.05,9.71-3.2,12.45-1.14,2.73-3.04,3.94-6,2.7Zm8.14-19.22c-2.36-.98-3.46-3.67-2.48-6.02,.99-2.36,3.68-3.46,6.03-2.48,2.36,.99,3.46,3.68,2.48,6.03-1,2.35-3.68,3.46-6.02,2.47Z"/>
            <path class="cls-3" d="M391.49,304.94c1.75-2.69,4-2.75,6.48-1.14,2.5,1.63,5.85,4.67,9.64,8.5,1.06,1.09,1.3,1.93,.36,3.37-.94,1.46-1.81,1.58-3.23,1.04-5.04-1.92-9.18-3.77-11.66-5.4-2.49-1.61-3.33-3.7-1.58-6.38Zm17.74,11.58c1.4-2.14,4.24-2.73,6.38-1.34,2.14,1.4,2.73,4.24,1.34,6.37-1.39,2.14-4.23,2.74-6.37,1.35-2.14-1.4-2.74-4.25-1.35-6.38Z"/>
          </g>
          <g>
            <path class="cls-3" d="M265.06,5.6c-15.07-3.72-30.51-5.6-45.88-5.6V3.11h0V0h-.02C131.01,0,54.7,59.86,33.58,145.54c-12.22,49.61-4.4,101.01,22.04,144.73,26.44,43.73,68.32,74.53,117.92,86.76,15.07,3.71,30.51,5.59,45.9,5.59,88.14,0,164.46-59.84,185.58-145.53,25.23-102.4-37.56-206.25-139.97-231.49"/>
            <g>
              <g>
                <path class="cls-11" d="M367.43,301.09c-61.64,81.43-177.62,97.48-259.05,35.83C26.96,275.28,10.91,159.29,72.56,77.88,134.2-3.56,250.18-19.59,331.6,42.04c81.43,61.65,97.46,177.63,35.83,259.04Z"/>
                <path class="cls-9" d="M155.5,274.69c22.4,16.97,45.92,28.05,66.72,34.78,20.6,7.09,38.47,9.82,44.83,18.57,5.93,7.22-1.94,23.82-29.54,27.68-26.38,4.28-72.5-4.18-115.05-37.41-43.53-31.93-64.18-74.02-67.22-100.58-3.79-27.62,10.05-39.69,18.61-35.95,10.16,3.76,17.64,20.21,30.05,38.12,12.12,18.19,29.17,37.82,51.59,54.78Z"/>
              </g>
              <g>
                <path class="cls-12" d="M385.79,222.81c-12.89,89.67-96.01,151.92-185.69,139.04-89.66-12.89-151.91-96.02-139.02-185.68C73.97,86.5,157.1,24.24,246.76,37.13c89.66,12.89,151.92,96.02,139.03,185.68Z"/>
                <path class="cls-1" d="M339.23,186.72c-31.07,10.91-74.59-10.64-111.91-12.27-36.27-8.93-84.09-.52-110.85-19.73-11.35-10.31-11.41-36.63,11.37-61.09,21.61-24.04,66.08-46.25,116.53-37.94,50.75,6.23,87.16,40.06,101.12,69.2,14.98,29.9,7.51,55.14-6.28,61.83Z"/>
                <path class="cls-8" d="M209.46,298.78c24.67,3.56,47.68,2.06,66.72-1.64,19.02-3.36,34.08-8.91,42.77-4.84,7.71,3.06,8.73,19.32-11.04,34.15-18.64,14.66-58.06,27.91-105.35,20.38-47.51-6.1-81.6-29.9-95.38-49.2-14.78-19.81-9.23-35.13-.98-35.9,9.49-1.44,22.37,8.12,39.7,16.69,17.22,8.91,38.88,16.83,63.57,20.37Z"/>
              </g>
              <g>
                <g class="cls-10">
                  <path class="cls-6" d="M65.06,357.16l-3.79-6.96c-1.89-3.45-46.26-85.53-59.82-173.85l-1.45-9.39,8.96-3.16c1.86-.66,45.7-16.09,63.57-18.83l5.03,22.32c5.71-1.72,8.47-7.2,8.17-11.49,.55,7.87,10.79,83.65,28.77,118.49,9.36-3.37,25.02-8.42,51.76-17.04l9.87-3.18,4.16,9.49c.49,1.13,12.15,27.76,16.58,43.75l.41,1.5v1.56c0,7.98-5.2,10.19-16.59,15.04-5.49,2.34-14.51,6-26.24,10.13-19.73,6.94-49.88,16.13-81.56,20.53l-7.85,1.09h0ZM25.7,182.29c12,66.52,41.64,129.22,52.03,149.84,40.1-6.67,77.85-20.94,94.11-27.86-2.61-7.46-5.93-15.75-8.5-21.96-20.79,6.76-45.28,14.86-48.56,16.3,4.66-2.05,7.99-8.59,5.34-14.71l-18.62,12.65-1.55-1.54-.44-1.01c-10.66-15.86-20.06-43.44-27.96-82.03-3.13-15.36-5.32-29.11-6.61-37.94-.19-1.35-.37-2.61-.55-3.77-11.89,3.17-27.65,8.29-38.71,12.02h0Z"/>
                  <path class="cls-6" d="M353.4,296.44c-36.16,0-65.57-29.85-65.57-66.55s29.41-66.55,65.57-66.55,65.57,29.85,65.57,66.55-29.42,66.55-65.57,66.55h0Zm0-110.17c-23.5,0-42.62,19.57-42.62,43.62s19.12,43.61,42.62,43.61,42.63-19.56,42.63-43.61-19.12-43.62-42.63-43.62h0Zm-1.46,74.1c-12.43,0-22.55-10.25-22.55-22.83s10.12-22.84,22.55-22.84,22.55,10.24,22.55,22.84-10.11,22.83-22.55,22.83h0Z"/>
                  <path class="cls-6" d="M240.02,283.82l-1.74-9.92c-3.82-21.98-8.15-47.41-10.43-62.46-2.14,.14-4.56,.29-7.28,.43-8.97,.5-17.94,.88-17.94,.88l-10.87,.45-1.03-10.83c-3.66-38.78-2.12-43.94-1.53-45.88l1.97-6.58,6.73-1.37c2.71-.56,66.85-13.51,111.94-17.47l5.33-.47,3.78,3.79q2.84,2.84,12.46,45.59l2.47,10.97-10.92,2.69c-4.87,1.2-13.52,3.3-20.78,5.01,.01,.03,.02,.07,.03,.1,1.15,6.52,2.61,15.42,4,24.44,2,12.94,3.43,23.07,4.28,30.31h.8l.13,10.32c.02,.82,.01,1.48-.02,1.99l-11.44-.41-.14,11.03c.16,0,.37,0,.64-.02-1.2,.1-7.01,1.01-12.13,1.83-16.75,2.61-31.17,4.81-38.27,5.12l-10.06,.43h0Zm9.17-85.34c.25,3.9,5,32.57,9.87,60.95,7.92-1.03,18.09-2.64,25.73-3.82,1.02-.16,1.95-.32,2.84-.44-2.3-18.43-8.3-56.22-9.78-61.44,.63,2.18,3.25,6.55,8.83,7.51l1.27-7.36-4.46-14.2,2.42-1.2h1.69c2.58-.52,10.29-2.34,18.95-4.42-1.64-7.18-3.22-14.02-4.41-19.15-32.84,3.58-73.19,11.01-90.78,14.4,.19,5.25,.68,12.57,1.28,20.04,10.44-.52,20.1-1.14,22.23-1.52-3.46,.62-8.61,4.55-8.61,11.01h22.94v-.34h-.01Z"/>
                  <path class="cls-6" d="M172.78,306.67c-37.1,0-67.29-31.63-67.29-70.5s30.18-70.51,67.29-70.51,67.29,31.63,67.29,70.51-30.18,70.5-67.29,70.5h0Zm0-118.07c-24.46,0-44.35,21.34-44.35,47.57s19.89,47.56,44.35,47.56,44.35-21.33,44.35-47.56-19.89-47.57-44.35-47.57h0Zm2.25,80.02c-12.44,0-22.56-10.89-22.56-24.3s10.12-24.31,22.56-24.31,22.56,10.91,22.56,24.31-10.13,24.3-22.56,24.3h0Z"/>
                </g>
                <path class="cls-5" d="M27.4,172.55c12,66.51,41.65,129.22,52.04,149.84,40.1-6.67,77.86-20.95,94.12-27.87-2.62-7.47-5.94-15.76-8.51-21.96-20.78,6.75-45.27,14.86-48.55,16.3,4.66-2.05,7.99-8.6,5.36-14.72l-18.63,12.67-1.56-1.55-.43-1c-10.67-15.85-20.07-43.44-27.95-82.03-3.13-15.36-5.33-29.11-6.61-37.94-.2-1.36-.39-2.61-.55-3.77-11.9,3.17-27.66,8.29-38.72,12.04h0Z"/>
                <g>
                  <g>
                    <path class="cls-3" d="M13.87,160.84s44.49-15.7,61.5-18.32c-.32,0,11.13,97.48,35.33,132.14-.66-.65,60.18-20.28,60.18-20.28,0,0,11.79,26.83,16.03,42.2,0,.66-55.61,26.17-114.48,34.36,0,0-45.15-82.76-58.56-170.1Z"/>
                    <path class="cls-3" d="M72.43,342.41c-4.15,0-8.04-2.26-10.06-5.98-1.88-3.45-46.27-85.54-59.83-173.85-.84-5.45,2.32-10.72,7.52-12.56,1.86-.66,45.71-16.09,63.57-18.84,5.95-.92,11.6,2.92,12.93,8.79,.18,.78,.27,1.55,.29,2.32,.78,9.28,11,83.78,28.76,118.21,9.36-3.36,25.03-8.42,51.76-17.04,5.61-1.81,11.66,.92,14.02,6.3,.49,1.13,12.17,27.77,16.59,43.76,.27,.99,.41,2.02,.41,3.05,0,7.98-5.2,10.2-16.58,15.05-5.5,2.34-14.51,6-26.24,10.13-19.72,6.94-49.87,16.14-81.54,20.54-.53,.07-1.06,.11-1.58,.11ZM26.78,168.52c11.99,66.42,41.65,129.2,52.05,149.84,40.1-6.68,77.86-20.95,94.1-27.87-2.61-7.46-5.94-15.76-8.51-21.96-19.93,6.48-43.26,14.2-48.04,16.09-4.44,2.54-10.08,1.84-13.76-1.81-.49-.49-.94-1.02-1.33-1.58h0c-10.95-15.68-20.58-43.62-28.63-83.03-3.14-15.35-5.33-29.1-6.62-37.93-.2-1.35-.38-2.61-.55-3.77-11.9,3.18-27.66,8.29-38.72,12.04Zm92.37,113.89c-.53,.58-1.13,1.11-1.79,1.58,.64-.44,1.24-.98,1.79-1.58Zm2.09-12.25c.34,.79,.58,1.6,.73,2.41-.15-.8-.39-1.61-.73-2.41Zm-39.51-118.09c-.91,.61-1.92,1.09-3.02,1.43,1.12-.34,2.13-.83,3.02-1.43Zm5.1-9.33c-.01,.68-.08,1.35-.21,2.01,.14-.68,.21-1.35,.21-2.01Z"/>
                  </g>
                  <g>
                    <path class="cls-3" d="M357.4,164.03c-29.88,0-54.09,24.67-54.09,55.09s24.21,55.07,54.09,55.07,54.1-24.65,54.1-55.07-24.22-55.09-54.1-55.09Zm-1.46,74.11c-6.12,0-11.09-5.09-11.09-11.37s4.96-11.36,11.09-11.36,11.09,5.09,11.09,11.36-4.97,11.37-11.09,11.37Z"/>
                    <path class="cls-3" d="M357.4,285.66c-36.15,0-65.56-29.85-65.56-66.54s29.41-66.56,65.56-66.56,65.57,29.86,65.57,66.56-29.41,66.54-65.57,66.54Zm0-110.17c-23.5,0-42.62,19.57-42.62,43.63s19.12,43.6,42.62,43.6,42.63-19.56,42.63-43.6-19.12-43.63-42.63-43.63Zm-1.46,74.11c-12.44,0-22.56-10.24-22.56-22.84s10.12-22.83,22.56-22.83,22.56,10.24,22.56,22.83-10.12,22.84-22.56,22.84Z"/>
                  </g>
                  <g>
                    <path class="cls-3" d="M200.55,146.75s65.71-13.33,110.66-17.29c.49,.5,9.39,40.01,9.39,40.01,0,0-28.16,6.92-31.62,7.41,.99-.49,11.86,68.17,11.37,75.09,0-.49-39.02,6.43-50.39,6.92,0,0-11.86-68.18-11.86-73.11,0,.99-35.57,2.47-35.57,2.47,0,0-3.45-36.55-1.98-41.49Z"/>
                    <path class="cls-3" d="M249.95,270.36c-5.55,0-10.34-3.99-11.29-9.5-3.82-21.98-8.16-47.41-10.44-62.46-2.3,.15-4.79,.3-7.27,.44-8.97,.5-17.95,.87-17.95,.87-6.11,.23-11.32-4.31-11.89-10.38-3.66-38.77-2.13-43.92-1.55-45.86,1.21-4.06,4.56-7.11,8.71-7.96,2.71-.55,66.86-13.51,111.93-17.47,3.38-.3,6.74,.92,9.14,3.34q2.83,2.84,12.45,45.58c1.37,6.09-2.39,12.17-8.45,13.66-4.87,1.2-13.51,3.31-20.77,5.01,0,.03,.01,.07,.02,.1,1.15,6.51,2.61,15.41,4.01,24.44,3.74,24.18,5.48,38.52,5.19,42.62-.43,6-5.41,10.62-11.36,10.65-1.81,.22-7.01,1.04-11.66,1.77-16.76,2.63-31.22,4.83-38.31,5.14-.17,0-.34,.01-.5,.01Zm-.39-84.85c.31,4.19,5.01,32.69,9.87,60.88,7.93-1.04,18.13-2.64,25.77-3.84,1.01-.16,1.94-.3,2.81-.44-2.22-17.66-7.94-53.83-9.63-60.85-.13-.32-.25-.65-.36-.99-1.67-5.39,.83-11.19,5.89-13.68,1.09-.53,2.25-.89,3.44-1.06h0c1.63-.26,10.02-2.23,19.56-4.53-1.63-7.18-3.21-14.02-4.42-19.15-32.83,3.59-73.18,11.02-90.77,14.4,.2,5.25,.67,12.57,1.27,20.04,9.56-.48,18.47-1.03,21.54-1.41,1.12-.37,2.32-.57,3.57-.57,6.24,0,11.32,4.99,11.47,11.2Zm31.93,.06c1.19,1.04,2.73,1.94,4.65,2.43-1.72-.44-3.31-1.28-4.65-2.43Zm-53.93-4.32c-.58,1.33-.93,2.84-.93,4.53,0-1.61,.33-3.14,.93-4.53Z"/>
                  </g>
                  <g>
                    <path class="cls-3" d="M173.87,154.65c-30.83,0-55.82,26.44-55.82,59.04s24.99,59.03,55.82,59.03,55.82-26.43,55.82-59.03-24.98-59.04-55.82-59.04Zm2.25,80.03c-6.12,0-11.08-5.75-11.08-12.84s4.96-12.85,11.08-12.85,11.09,5.76,11.09,12.85-4.97,12.84-11.09,12.84Z"/>
                    <path class="cls-3" d="M173.87,284.19c-37.1,0-67.29-31.63-67.29-70.5s30.19-70.51,67.29-70.51,67.29,31.63,67.29,70.51-30.18,70.5-67.29,70.5Zm0-118.07c-24.46,0-44.35,21.34-44.35,47.57s19.9,47.56,44.35,47.56,44.35-21.34,44.35-47.56-19.89-47.57-44.35-47.57Zm2.25,80.03c-12.44,0-22.55-10.9-22.55-24.31s10.12-24.32,22.55-24.32,22.56,10.91,22.56,24.32-10.12,24.31-22.56,24.31Z"/>
                  </g>
                </g>
                <g>
                  <path class="cls-4" d="M14.87,162.27s44.49-15.7,61.5-18.31c-.34,0,11.11,97.48,35.33,132.14-.67-.65,60.18-20.28,60.18-20.28,0,0,11.77,26.82,16.04,42.19,0,.65-55.61,26.17-114.5,34.35,0,0-45.13-82.76-58.55-170.1Z"/>
                  <path class="cls-4" d="M358.39,165.48c-29.88,0-54.11,24.65-54.11,55.08s24.23,55.08,54.11,55.08,54.09-24.66,54.09-55.08-24.22-55.08-54.09-55.08Zm-1.47,74.1c-6.11,0-11.08-5.1-11.08-11.38s4.96-11.36,11.08-11.36,11.1,5.09,11.1,11.36-4.96,11.38-11.1,11.38Z"/>
                  <path class="cls-4" d="M201.54,148.19s65.7-13.34,110.65-17.3c.49,.5,9.39,40.01,9.39,40.01,0,0-28.16,6.92-31.62,7.41,.99-.48,11.86,68.17,11.36,75.1,0-.49-39.02,6.42-50.39,6.91,0,0-11.86-68.18-11.86-73.11,0,.98-35.56,2.46-35.56,2.46,0,0-3.45-36.56-1.97-41.49Z"/>
                  <path class="cls-4" d="M174.87,156.08c-30.83,0-55.83,26.43-55.83,59.04s25,59.03,55.83,59.03,55.82-26.43,55.82-59.03-24.99-59.04-55.82-59.04Zm2.25,80.03c-6.13,0-11.09-5.75-11.09-12.84s4.96-12.84,11.09-12.84,11.09,5.75,11.09,12.84-4.97,12.84-11.09,12.84Z"/>
                </g>
                <g>
                  <path class="cls-5" d="M12.17,162.81s44.47-15.7,61.49-18.31c-.34,0,11.11,97.47,35.33,132.15-.67-.66,60.18-20.29,60.18-20.29,0,0,11.77,26.82,16.03,42.2,0,.65-55.61,26.16-114.49,34.35,0,0-45.13-82.77-58.54-170.1Z"/>
                  <path class="cls-5" d="M355.68,166.02c-29.88,0-54.09,24.65-54.09,55.08s24.21,55.08,54.09,55.08,54.09-24.66,54.09-55.08-24.22-55.08-54.09-55.08Zm-1.45,74.11c-6.12,0-11.09-5.1-11.09-11.38s4.97-11.36,11.09-11.36,11.08,5.09,11.08,11.36-4.96,11.38-11.08,11.38Z"/>
                  <path class="cls-5" d="M198.83,148.73s65.71-13.34,110.67-17.3c.48,.5,9.38,40.01,9.38,40.01,0,0-28.16,6.92-31.62,7.41,.99-.48,11.85,68.17,11.37,75.1,0-.5-39.03,6.42-50.39,6.9,0,0-11.87-68.17-11.87-73.1,0,.98-35.56,2.47-35.56,2.47,0,0-3.46-36.56-1.97-41.5Z"/>
                  <path class="cls-5" d="M172.16,156.63c-30.83,0-55.83,26.43-55.83,59.04s25,59.03,55.83,59.03,55.82-26.42,55.82-59.03-25-59.04-55.82-59.04Zm2.25,80.02c-6.13,0-11.09-5.75-11.09-12.84s4.95-12.85,11.09-12.85,11.09,5.75,11.09,12.85-4.97,12.84-11.09,12.84Z"/>
                </g>
              </g>
            </g>
          </g>
        </g>
      </g>
    </g>
  </g>
</svg>