<?xml version="1.0" encoding="UTF-8"?>
<svg xmlns="http://www.w3.org/2000/svg" xmlns:xlink="http://www.w3.org/1999/xlink" viewBox="0 0 1023.06 413.93">
  <defs>
    <style>
      .cls-1 {
        fill: url(#Degradado_sin_nombre_15);
        mix-blend-mode: screen;
        opacity: .35;
      }

      .cls-2 {
        fill: #005ca9;
      }

      .cls-3 {
        fill: #fff;
      }

      .cls-4 {
        fill: #ff161f;
      }

      .cls-5 {
        fill: #ff8304;
      }

      .cls-6 {
        fill: #c3c5ca;
      }

      .cls-7 {
        fill: #1860ab;
      }

      .cls-8 {
        fill: url(#Degradado_sin_nombre_14);
      }

      .cls-8, .cls-9, .cls-10 {
        mix-blend-mode: multiply;
      }

      .cls-11 {
        fill: url(#Degradado_sin_nombre_17);
      }

      .cls-12 {
        fill: url(#Degradado_sin_nombre_16);
      }

      .cls-9 {
        fill: url(#linear-gradient);
      }

      .cls-13 {
        isolation: isolate;
      }

      .cls-10 {
        opacity: .5;
      }
    </style>
    <radialGradient id="Degradado_sin_nombre_17" data-name="Degradado sin nombre 17" cx="265.64" cy="329.69" fx="265.64" fy="329.69" r="228.87" gradientUnits="userSpaceOnUse">
      <stop offset="0" stop-color="#fffbdc"/>
      <stop offset="1" stop-color="#ff8304"/>
    </radialGradient>
    <linearGradient id="linear-gradient" x1="211.48" y1="2399.11" x2="211.48" y2="2472.32" gradientTransform="translate(1431.05 -1769.96) rotate(37.12)" gradientUnits="userSpaceOnUse">
      <stop offset=".07" stop-color="#fff"/>
      <stop offset=".14" stop-color="#fffbf7"/>
      <stop offset=".24" stop-color="#fff1e3"/>
      <stop offset=".37" stop-color="#ffe0c2"/>
      <stop offset=".51" stop-color="#ffca94"/>
      <stop offset=".67" stop-color="#ffac58"/>
      <stop offset=".84" stop-color="#ff8912"/>
      <stop offset=".87" stop-color="#ff8304"/>
    </linearGradient>
    <linearGradient id="Degradado_sin_nombre_16" data-name="Degradado sin nombre 16" x1="249.52" y1="407.92" x2="230.23" y2="272.9" gradientUnits="userSpaceOnUse">
      <stop offset="0" stop-color="#52b7e7"/>
      <stop offset=".37" stop-color="#3e9ad3"/>
      <stop offset="1" stop-color="#1860ab"/>
    </linearGradient>
    <radialGradient id="Degradado_sin_nombre_15" data-name="Degradado sin nombre 15" cx="188.29" cy="169.22" fx="188.29" fy="169.22" r="95.52" gradientTransform="translate(68.85 -79.86) rotate(8.18)" gradientUnits="userSpaceOnUse">
      <stop offset="0" stop-color="#52b7e7"/>
      <stop offset="1" stop-color="#0075b9"/>
    </radialGradient>
    <linearGradient id="Degradado_sin_nombre_14" data-name="Degradado sin nombre 14" x1="188.29" y1="351.18" x2="188.29" y2="416.13" gradientTransform="translate(68.85 -79.86) rotate(8.18)" gradientUnits="userSpaceOnUse">
      <stop offset="0" stop-color="#fff"/>
      <stop offset=".08" stop-color="#f6f9fb"/>
      <stop offset=".22" stop-color="#dde9f3"/>
      <stop offset=".4" stop-color="#b6d0e6"/>
      <stop offset=".6" stop-color="#7fadd3"/>
      <stop offset=".83" stop-color="#3a81bc"/>
      <stop offset="1" stop-color="#005ca9"/>
    </linearGradient>
  </defs>
  <g class="cls-13">
    <g id="Layer_1" data-name="Layer 1">
      <g>
        <g>
          <g>
            <path class="cls-2" d="M939.57,136.55c2.61,.11,5.26-.16,7.86-.81,1.2-.3,2.37-.7,3.51-1.2,2.15,1.48,5.09,2.69,8.99,2.85,.64,.03,1.25,.03,1.84,0,5.43-.23,8.89-2.54,10.89-4.54,1.17-1.16,2.12-2.5,2.87-3.99,.92,.46,1.87,.89,2.86,1.25,2.93,1.06,6.14,1.67,9.54,1.81,1.77,.07,3.42,.08,4.98,0,1.46-.06,2.84-.19,4.16-.38,3.18-.45,5.77-1.2,7.94-2.3,2.41-1.22,4.36-2.76,5.8-4.57,1.84-2.31,2.88-5.04,2.99-7.9,.05-1.15-.05-2.28-.28-3.37,1.33-1.88,2.43-4.51,2.58-8.15,.08-1.9-.15-3.9-.67-5.94-.53-2.07-1.46-4.2-2.78-6.34-1.32-2.14-2.98-4.08-4.95-5.77-2.11-1.81-4.66-3.27-7.83-4.44-2.99-1.11-6.29-1.74-9.82-1.88-3.41-.14-6.66,.2-9.65,1.02-.44,.12-.86,.27-1.28,.41l.25-6.13c.22-5.31-1.18-9.69-4.16-13.02-2.1-2.34-5.99-5.19-12.63-5.47-6.65-.28-10.76,2.24-13.04,4.41-2.92,2.77-4.64,6.5-5.11,11.1-.89-.13-1.79-.22-2.72-.25-4.05-.17-7.87,.49-11.38,1.95-3.47,1.45-6.42,3.47-8.75,5.99-1.99,2.15-3.71,4.63-5.12,7.37-1.36,2.65-2.37,5.31-3,7.94-.59,2.47-.94,4.9-1.03,7.25-.38,9.15,1.78,16.82,6.42,22.81,4.95,6.38,12.11,9.94,20.72,10.3Z"/>
            <path class="cls-2" d="M1022.19,243.82c-.42-3.23-.67-5.85-.73-7.77l-1.4-39.82c-.19-5.31-1.49-10.19-3.89-14.51-2.39-4.31-5.67-7.88-9.73-10.63-3.31-2.24-6.97-4.15-10.88-5.68-3.93-1.54-8.27-2.66-12.9-3.32-4.09-.58-8.01-.99-11.65-1.2-3.67-.21-7.44-.25-11.2-.12-14.21,.5-26.25,3.34-35.76,8.44-4.67,2.5-8.45,5.46-11.27,8.79-.53-.7-1.09-1.38-1.7-2.03-.64-.68-1.31-1.32-2-1.92l11.91-8.75c7.54-5.49,9.53-12.14,9.87-16.76,.43-5.95-1.63-11.47-5.98-15.95-4.01-4.13-8.89-6.51-14.1-6.89-3.41-.25-6.67,.23-9.7,1.42-1.57,.62-3.31,1.55-5.4,2.89,.05-.06,.11-.12,.16-.19,2.3-3.01,3.88-6.18,4.72-9.43,.78-3.07,1.06-6.29,.82-9.59-.53-7.22-3.99-13.36-9.99-17.76-.89-.65-1.83-1.26-2.82-1.84,1.32-.79,2.51-1.78,3.55-2.94,2.87-3.19,4.21-7.19,3.89-11.55-.32-4.36-2.29-8.31-5.68-11.4-2.89-2.63-6.57-4.59-10.95-5.83-3.77-1.07-7.89-1.79-12.24-2.15-4.29-.36-8.8-.36-13.4-.02-5.83,.43-11.12,1.33-15.72,2.68-4.9,1.43-8.81,3.16-11.94,5.27-2.86,1.93-5.25,4.16-7.17,6.63-2.96-3.93-6.51-6.95-10.58-8.96-4.06-2.01-8.53-3.24-13.28-3.64-4.58-.38-9.43,0-14.41,1.12-4.98,1.13-9.52,2.87-13.5,5.19-2.01,1.17-3.87,2.5-5.58,3.96-.83-2.01-1.94-3.77-3.38-5.24-3.31-3.37-7.86-4.98-13.52-4.8-6.33,.19-10.22,2.9-12.46,5.35-2.39-1.52-4.95-2.64-7.62-3.33-3.17-.82-6.39-1.18-9.6-1.08-5.17,.16-9.97,1.33-14.26,3.47-4.34,2.16-7.97,5.08-10.79,8.71-.95,1.22-1.78,2.53-2.57,3.87-1.96-2.15-4.2-4.08-6.69-5.77-3.34-2.26-7.56-4.02-12.54-5.24-4.89-1.2-10.27-1.59-16-1.16-5.49,.41-10.59,1.54-15.17,3.37-4.73,1.89-8.92,4.54-12.46,7.87-3.54,3.34-6.23,7.54-8.02,12.47-2.4-.82-5.05-1.15-7.95-.93-5.04,.37-9.13,2.2-12.16,5.41-2.21,2.34-4.74,6.57-4.23,13.49l1.41,19.04s0,0,0,0c.17,2.26-.2,3.3-.39,3.67-.07,.01-.16,.03-.29,.04-.32,.02-.55,.02-.71,0-.12-.31-.31-.95-.39-2.1l-1.52-20.51c-.51-6.91-3.63-10.73-6.16-12.71-3.48-2.74-7.79-3.94-12.84-3.57-4.42,.33-8.12,1.78-11.02,4.32l-.31-1.55c-1.26-6.38-4.16-11.25-8.63-14.47-4.56-3.29-10.21-4.39-16.33-3.18-6.13,1.21-10.94,4.38-13.88,9.16-2.88,4.67-3.7,10.27-2.45,16.64l8.15,41.32h0c.1,.51,.19,.98,.26,1.42-1.79-4.73-4.88-7.35-7.38-8.77-4.09-2.31-8.63-3-13.5-2.04-6.4,1.26-11.06,4.23-13.84,8.83-2.65,4.38-3.33,9.94-2.04,16.52,.93,4.69,2.78,8.88,5.51,12.46,2.7,3.53,6.27,6.47,10.61,8.74,6.11,3.19,13.04,4.63,20.69,4.3,2.75-.12,5.6-.47,8.53-1.05,3.86-.76,7.59-1.91,11.07-3.41,3.6-1.55,6.99-3.58,10.06-6.03,3.13-2.5,5.8-5.39,7.94-8.57,1.66-2.48,2.94-5.26,3.82-8.28,1.8,1.14,3.78,2.08,5.99,2.76,3.28,1.01,6.94,1.43,10.92,1.26,.43-.02,.86-.04,1.3-.08,6.07-.45,11.25-2.4,15.37-5.73,2.19,2,6.01,4.15,12.1,3.7,5.32-.39,9.46-2.25,12.3-5.51,2.86-3.28,4.1-7.64,3.71-12.95l-.34-4.65c3.75,2.45,7.93,4.27,12.48,5.35,4.27,1.01,8.87,1.42,13.69,1.21,.6-.03,1.2-.06,1.81-.11,5.91-.44,11.17-1.26,15.64-2.43,4.87-1.28,8.64-2.83,11.52-4.74,3.09-2.05,5.34-4.26,6.9-6.75,.47-.76,.87-1.53,1.2-2.31,.85,.78,1.73,1.52,2.65,2.2-1.8,.85-3.39,2.05-4.72,3.56-2.73,3.08-4.09,7.01-3.95,11.37,.07,2.04,.58,4.09,1.52,6.1,.95,2.02,2.46,3.94,4.6,5.86,1.96,1.76,4.36,3.3,7.14,4.57,2.75,1.25,6.13,2.19,10.35,2.86,3.98,.63,8.46,.87,13.32,.72,.38-.01,.76-.03,1.14-.04,12.72-.55,22.2-3.48,28.95-8.93,7.44-6.01,11.03-14.66,10.68-25.72l-.06-2c1.31,.97,2.68,1.82,4.13,2.54,4.08,2.04,8.55,3.27,13.3,3.67,1.79,.15,3.62,.19,5.48,.11,2.91-.13,5.9-.53,8.94-1.22,4.99-1.13,9.53-2.87,13.49-5.19,2.06-1.2,3.97-2.57,5.72-4.08-.11,.94-.15,1.9-.08,2.88,.43,5.82,3.35,10.8,8.45,14.42,4.28,3.04,9.55,5.08,15.67,6.07,4.75,.76,9.95,1.03,15.51,.79,1-.04,2.02-.1,3.04-.18,6.08-.45,11.61-1.38,16.44-2.76,2.14-.61,4.09-1.27,5.9-1.99l-4.14,3.04c-7.55,5.48-9.54,12.14-9.88,16.77-.34,4.64,.84,9.01,3.42,12.82-.28,.24-.57,.49-.86,.76-1.81-2.05-4-3.82-6.58-5.28-4.56-2.57-9.78-3.48-15.54-2.71-7.33,.98-13.63,4.74-18.34,10.92-.28-.24-.57-.48-.87-.71-5.53-4.26-12.45-5.98-20-4.97-7.35,.98-13.54,4.46-17.9,10.06-1.18,1.51-2.15,3.14-2.94,4.86-2.53-2.19-5.27-4.18-8.26-5.9-4.9-2.82-10.98-4.86-18.07-6.05-6.93-1.16-14.45-1.16-22.36,.01-7.58,1.12-14.56,3.22-20.73,6.23-2.83,1.38-5.49,2.96-7.98,4.72-1.41-2.27-3.05-3.91-4.52-5.05-4.36-3.37-9.98-4.75-16.69-4.11l-.42,.04-.14-1.5c-.88-9.17-4.13-16.22-9.67-20.95-5.64-4.82-13.12-6.82-22.22-5.95-18.24,1.75-28.07,13.89-26.29,32.47l.16,1.71c-5.01,1.06-9.04,3.3-12,6.66-1.53,1.74-3.16,4.27-4.11,7.74-1.33-.42-2.68-.8-4.06-1.13-6.66-1.58-13.89-2.09-21.49-1.53-7.6,.56-14.68,2.14-21.03,4.68-6.59,2.63-12.42,6.32-17.36,10.97-4.84,4.56-8.54,10.27-11.04,16.95-1.27-8.4-4.71-15.17-10.28-20.13-6.28-5.58-14.5-8.08-23.79-7.22-9.3,.86-16.92,4.84-22.04,11.51-4.99,6.51-7.07,14.7-6.17,24.33l7.87,84.72c1.06,11.42,4.81,19.96,11.15,25.39,5.88,5.03,13.79,7.36,23.53,6.94,.91-.04,1.83-.1,2.77-.19l61.13-5.68c8.1-.75,14.64-3.82,19.43-9.11,3.45-3.82,7.37-10.54,6.41-20.86-.66-7.08-3.23-12.08-6.1-15.52,5.15-.81,10.01-2.12,14.52-3.91,6.6-2.64,12.45-6.35,17.38-11.03,2.77-2.63,5.16-5.65,7.18-8.99,2.5,5.34,5.95,9.77,10.35,13.24,7.64,6.03,17.55,8.81,29.5,8.29,1.21-.05,2.43-.14,3.68-.26,6-.58,11.01-1.5,15.33-2.83,5.18-1.6,9.12-3.71,12.04-6.44,2.94-2.75,5.03-5.8,6.2-9.06,.2-.56,.35-1.15,.51-1.73,4.16,1.79,8.58,3.07,13.22,3.82,4.32,.7,8.84,.94,13.51,.74,2.67-.12,5.39-.38,8.14-.79,8.09-1.2,15.27-2.86,21.36-4.95,6.65-2.28,11.76-4.84,15.6-7.81,.9-.69,1.74-1.41,2.53-2.13,1.69,6.83,5.12,12.12,10.28,15.71,5.02,3.49,10.93,5.1,17.6,4.81,1.11-.05,2.25-.15,3.41-.3,8.08-1.08,14.51-4.4,19.09-9.86,3.32-3.96,6.97-11,5.49-22.09l-3.29-24.61c-.43-3.24-.02-4.52,.07-4.74,.39-.5,1.81-1.94,5.99-3.63l6.53-2.62-2.48,34.04h0c-.81,11.19,3.26,18.01,6.81,21.76,4.91,5.19,11.54,8.12,19.68,8.72,1.49,.11,2.94,.13,4.35,.07,6.31-.27,11.81-2.24,16.38-5.87,3.5-2.78,6.06-6.38,7.72-10.71,3.77,3.67,8.27,6.41,13.46,8.17,6.23,2.1,13.47,3.02,21.51,2.74,8.04-.28,15.61-2.01,22.49-5.13,2.23-1.01,4.32-2.18,6.28-3.51,.62,.56,1.27,1.1,1.94,1.6,5.08,3.77,11.6,5.55,19.39,5.27,.11,0,.22,0,.32-.01,6.64-.29,12.46-2.2,17.3-5.69,6.06-4.37,9.26-11.01,8.99-18.7-.06-1.69-.32-4.26-.85-8.33Zm-197.74-134.14s0,0,.01,0c0,0-.01,0-.02,.01v-.02Zm-268.57,181.8c.83,.58,1.69,1.14,2.56,1.67l-13.23,1.23-1.48-15.96c3.27,5.29,7.33,9.68,12.15,13.06Z"/>
          </g>
          <g>
            <g>
              <path class="cls-7" d="M535.43,137.71l-8.15-41.32c-.91-4.61-.39-8.48,1.54-11.62,1.94-3.14,5.03-5.12,9.28-5.96,4.25-.84,7.88-.18,10.88,1.99,3,2.17,4.96,5.55,5.86,10.16l9.22,46.71c.75,3.82,.81,7.45,.17,10.88-.64,3.43-1.83,6.45-3.57,9.04-1.74,2.6-3.9,4.93-6.49,7-2.59,2.07-5.41,3.76-8.45,5.07-3.05,1.31-6.27,2.3-9.66,2.97-9.52,1.88-17.73,1.02-24.62-2.59-6.89-3.6-11.06-9.06-12.5-16.36-1.91-9.68,1.55-15.39,10.37-17.13,3.2-.63,6.1-.21,8.7,1.26,2.6,1.47,4.25,3.96,4.94,7.48,.54,2.73,1.54,4.61,3,5.64,1.46,1.03,3.18,1.35,5.17,.96,2.3-.45,3.84-1.73,4.6-3.83,.76-2.1,.67-5.55-.28-10.35Z"/>
              <path class="cls-7" d="M602.3,121.48l-1.41-19.04c-.26-3.52,.51-6.24,2.33-8.16,1.81-1.92,4.35-3,7.6-3.24,3.25-.24,5.91,.45,7.99,2.09,2.08,1.63,3.25,4.21,3.51,7.73l2.69,36.3c.5,6.8-2.68,10.46-9.55,10.97-3.05,.23-5.37-.44-6.99-2.01-1.61-1.57-2.73-4.03-3.35-7.38l-.2,.02c-3.22,7.01-8.86,10.81-16.92,11.41-3.62,.27-6.83-.03-9.64-.89-2.8-.86-5.1-2.2-6.88-4.01-1.78-1.81-3.17-3.92-4.14-6.35-.98-2.43-1.58-5.17-1.81-8.21l-1.89-25.48c-.26-3.52,.52-6.24,2.33-8.16,1.81-1.92,4.35-3,7.6-3.24s5.91,.46,7.99,2.09c2.08,1.63,3.25,4.21,3.51,7.73l1.52,20.51c.45,6.09,3.32,8.94,8.6,8.55,2.57-.19,4.46-1.28,5.68-3.25,1.21-1.98,1.7-4.62,1.45-7.94Z"/>
              <path class="cls-7" d="M760.03,99.37c-1.07-4.75-1.25-9.14-.53-13.16,.72-4.02,2.21-7.47,4.48-10.36,2.27-2.89,5.09-5.31,8.45-7.27,3.36-1.96,7.2-3.43,11.51-4.41,4.31-.97,8.41-1.3,12.29-.97,3.88,.33,7.46,1.31,10.75,2.93,3.29,1.63,6.12,4.1,8.5,7.43,2.38,3.32,4.11,7.36,5.18,12.11,1.08,4.78,1.26,9.19,.55,13.23-.72,4.04-2.21,7.51-4.47,10.41-2.26,2.9-5.08,5.34-8.44,7.3-3.36,1.96-7.2,3.43-11.51,4.41-4.31,.97-8.41,1.3-12.29,.97-3.88-.33-7.47-1.31-10.76-2.96-3.29-1.65-6.13-4.14-8.51-7.48-2.39-3.34-4.12-7.4-5.2-12.18Zm39.46-8.23c-2.22-9.8-6.32-14.02-12.32-12.67-5.99,1.35-7.89,6.93-5.67,16.74,1.01,4.44,2.54,7.64,4.61,9.58,2.07,1.94,4.55,2.58,7.45,1.93,2.9-.66,4.86-2.3,5.89-4.94,1.03-2.64,1.04-6.19,.04-10.63Z"/>
              <path class="cls-7" d="M689.05,115.8c.13,1.72-.31,3.39-1.32,5.01s-2.62,3.16-4.83,4.62c-2.21,1.46-5.35,2.74-9.43,3.81-4.08,1.07-8.87,1.82-14.38,2.22-4.79,.35-9.25,.04-13.37-.93-4.12-.97-7.82-2.61-11.1-4.91-3.28-2.3-5.93-5.44-7.96-9.41-2.03-3.98-3.24-8.62-3.63-13.94-.39-5.28,.12-10.03,1.54-14.23,1.42-4.21,3.58-7.68,6.48-10.42,2.91-2.74,6.32-4.89,10.25-6.46,3.93-1.57,8.29-2.53,13.09-2.89,5.02-.37,9.63-.04,13.83,.98,4.2,1.03,7.63,2.44,10.28,4.24,2.66,1.8,4.93,3.9,6.82,6.3,1.89,2.4,3.26,4.7,4.1,6.9,.84,2.2,1.33,4.27,1.48,6.22,.26,3.52-.41,6.07-2,7.66-1.6,1.59-4.32,2.52-8.18,2.81l-33.59,2.49c.59,3.84,2.05,6.8,4.38,8.88,2.34,2.09,5.4,2.99,9.18,2.71,1.95-.15,3.88-.67,5.81-1.59,1.93-.91,3.56-1.88,4.9-2.9,1.34-1.02,2.88-1.98,4.64-2.88,1.76-.9,3.44-1.41,5.05-1.53,2.02-.15,3.82,.53,5.38,2.03,1.56,1.5,2.41,3.25,2.56,5.24Zm-42.78-21.69l22.19-1.64c-.28-3.86-1.53-6.63-3.75-8.31-2.21-1.68-4.93-2.4-8.15-2.17-3,.22-5.49,1.32-7.49,3.29-2,1.97-2.93,4.92-2.79,8.82Z"/>
              <path class="cls-7" d="M867.82,113.87c-.1-1.41-.82-2.6-2.16-3.59-1.33-.99-3.79-1.72-7.36-2.21l-8.38-1.17c-5.05-.69-9.34-1.63-12.88-2.83-3.54-1.2-6.37-2.67-8.48-4.41-2.12-1.74-3.69-3.64-4.7-5.69-1.01-2.05-1.62-4.44-1.82-7.16-.17-2.29,0-4.5,.54-6.64,.52-2.14,1.56-4.28,3.1-6.43,1.54-2.15,3.57-4.07,6.07-5.76,2.5-1.69,5.84-3.14,9.99-4.35,4.16-1.21,8.91-2.02,14.28-2.42,4.27-.32,8.37-.31,12.31,.02,3.94,.33,7.58,.97,10.92,1.91,3.34,.95,6.05,2.37,8.14,4.27,2.09,1.91,3.23,4.15,3.42,6.75,.18,2.46-.52,4.58-2.12,6.36-1.59,1.78-3.73,2.76-6.41,2.96-2.02,.15-4.05-.15-6.07-.91-2.02-.75-3.8-1.62-5.33-2.59-1.53-.97-3.58-1.81-6.16-2.53-2.57-.71-5.36-.96-8.35-.74-2.51,.19-4.41,.76-5.71,1.71-1.3,.96-1.89,2.25-1.77,3.88,.11,1.45,.74,2.52,1.9,3.21,1.15,.69,3.54,1.3,7.16,1.82l11.93,1.63c16.76,2.43,25.53,8.86,26.3,19.28,.19,2.55-.02,5-.62,7.34-.6,2.34-1.77,4.65-3.5,6.92-1.73,2.27-3.97,4.29-6.72,6.04-2.75,1.75-6.32,3.25-10.71,4.51-4.4,1.25-9.41,2.09-15.04,2.5-6.2,.46-11.84,.28-16.92-.54-5.08-.82-9.32-2.44-12.73-4.86-3.41-2.42-5.25-5.5-5.53-9.24-.17-2.33,.66-4.4,2.49-6.22,1.83-1.82,4.09-2.82,6.78-3.02,1.41-.11,2.85,.14,4.33,.74,1.48,.6,2.92,1.35,4.31,2.27,1.39,.91,2.87,1.81,4.44,2.69,1.57,.88,3.46,1.59,5.66,2.13,2.21,.54,4.54,.72,7.01,.54,2.77-.21,4.88-.92,6.34-2.13,1.46-1.21,2.13-2.57,2.02-4.06Z"/>
              <path class="cls-7" d="M735.71,123.11l-.26-8.17h-.23c-1.11,2.87-3.2,5.06-6.26,6.59-3.07,1.53-6.59,2.36-10.57,2.48-2.4,.07-4.78-.16-7.16-.7-2.38-.54-4.78-1.53-7.2-2.96-2.42-1.43-4.58-3.22-6.47-5.36-1.89-2.15-3.44-4.92-4.67-8.32-1.23-3.4-1.91-7.23-2.05-11.48-.13-4.1,.36-7.97,1.46-11.62,1.1-3.65,2.74-6.88,4.92-9.67,2.17-2.8,4.97-5.04,8.37-6.73,3.41-1.7,7.2-2.61,11.37-2.74,2.55-.08,5.09,.21,7.63,.86,2.54,.66,4.91,1.83,7.13,3.52,2.22,1.69,3.68,3.76,4.38,6.22h.23c-.1-3.29,.74-6.01,2.53-8.15,1.79-2.15,4.38-3.27,7.78-3.38,7.3-.23,11.08,3.61,11.33,11.54l1.58,49.97c.56,17.58-10.78,26.74-34,27.48-4.45,.14-8.45-.07-12-.64-3.56-.56-6.41-1.34-8.55-2.31-2.14-.98-3.93-2.11-5.36-3.4-1.44-1.29-2.42-2.51-2.96-3.65-.54-1.14-.83-2.26-.86-3.34-.08-2.59,.65-4.76,2.2-6.51,1.55-1.75,3.68-2.67,6.38-2.75,1.24-.04,2.61,.31,4.12,1.06,1.51,.74,2.9,1.57,4.17,2.48,1.26,.91,2.84,1.73,4.72,2.46,1.88,.73,3.77,1.07,5.66,1.01,4.83-.15,8.18-1.33,10.04-3.54,1.86-2.21,2.73-5.61,2.58-10.21Zm-2.13-19.63c1.54-2.51,2.26-5.67,2.14-9.5-.12-3.82-1.03-6.93-2.73-9.31-1.7-2.38-4.33-3.52-7.88-3.41-6.8,.22-10.06,4.67-9.79,13.37,.28,8.73,3.81,12.99,10.62,12.78,3.56-.11,6.11-1.42,7.65-3.93Z"/>
            </g>
            <g>
              <path class="cls-7" d="M956.42,85.32l.59-14.21c.23-5.62,3.07-8.31,8.53-8.09,5.46,.23,8.07,3.15,7.84,8.76l-1.84,44.39c-.23,5.46-2.86,8.08-7.88,7.87-2.34-.1-4.12-.89-5.34-2.38-1.22-1.49-1.78-3.37-1.68-5.63h-.16c-.5,1.68-1.52,3.1-3.06,4.25-1.54,1.15-3.18,1.94-4.92,2.38-1.74,.43-3.47,.61-5.2,.54-5.88-.24-10.46-2.47-13.72-6.69-3.27-4.21-4.75-9.78-4.47-16.7,.07-1.76,.33-3.58,.79-5.47,.45-1.89,1.19-3.83,2.22-5.83,1.03-2,2.26-3.77,3.68-5.31,1.42-1.54,3.25-2.78,5.49-3.71,2.24-.94,4.7-1.34,7.39-1.23,5.19,.21,9.05,2.56,11.58,7.04h.16Zm-.42,15.95c.12-2.9-.39-5.19-1.54-6.86-1.15-1.67-2.66-2.55-4.55-2.63-1.38-.06-2.6,.16-3.64,.65-1.05,.49-1.87,1.2-2.47,2.12-.6,.92-1.05,1.92-1.34,3-.3,1.08-.48,2.27-.53,3.58-.04,.98-.01,1.92,.09,2.8,.1,.89,.3,1.76,.61,2.63,.31,.86,.72,1.62,1.23,2.27,.51,.65,1.19,1.18,2.03,1.6,.85,.42,1.82,.66,2.91,.7,2.31,.1,4.06-.72,5.24-2.46,1.18-1.74,1.83-4.2,1.96-7.39Z"/>
              <path class="cls-7" d="M1007.81,112.38c-.04,.88-.36,1.71-.97,2.47-.61,.76-1.51,1.45-2.72,2.06-1.21,.61-2.88,1.07-5.01,1.38-2.13,.3-4.61,.4-7.43,.28-2.46-.1-4.7-.52-6.74-1.26-2.03-.73-3.82-1.78-5.35-3.14-1.53-1.36-2.69-3.11-3.49-5.25-.8-2.14-1.14-4.57-1.02-7.29,.11-2.7,.65-5.09,1.62-7.14,.97-2.05,2.27-3.69,3.91-4.91,1.64-1.22,3.5-2.11,5.59-2.68,2.09-.57,4.36-.8,6.82-.7,2.57,.11,4.89,.54,6.97,1.31,2.07,.77,3.73,1.69,4.97,2.76,1.24,1.07,2.27,2.27,3.09,3.6,.82,1.33,1.38,2.58,1.68,3.74,.3,1.17,.43,2.25,.38,3.25-.07,1.8-.56,3.06-1.47,3.77-.9,.71-2.34,1.03-4.32,.94l-17.21-.71c.07,1.98,.64,3.57,1.7,4.77,1.07,1.2,2.57,1.84,4.5,1.92,1,.04,2.01-.11,3.05-.46,1.03-.35,1.92-.75,2.66-1.19,.74-.44,1.58-.83,2.53-1.19,.95-.35,1.84-.52,2.66-.48,1.03,.04,1.9,.49,2.61,1.35,.71,.86,1.04,1.79,1,2.81Zm-20.45-13.53l11.36,.47c.08-1.98-.39-3.46-1.41-4.44-1.03-.98-2.36-1.51-4.02-1.58-1.53-.06-2.87,.35-4,1.23-1.13,.89-1.78,2.33-1.93,4.32Z"/>
            </g>
            <g>
              <path class="cls-7" d="M538.34,300.67l43.32-4.03c5.38-.5,9.81,.58,13.3,3.23,3.49,2.65,5.48,6.61,5.97,11.87,.48,5.21-.75,9.43-3.69,12.68-2.94,3.25-7.1,5.13-12.48,5.63l-61.13,5.68c-8.07,.75-14.19-.66-18.35-4.22-4.17-3.56-6.65-9.64-7.44-18.24l-7.87-84.72c-.64-6.9,.7-12.51,4.01-16.82,3.31-4.32,8.16-6.77,14.53-7.37,6.37-.59,11.6,.93,15.68,4.56,4.08,3.63,6.44,8.9,7.08,15.79l7.05,75.95Z"/>
              <path class="cls-7" d="M549.03,245.51c-.53-7.2,.17-13.67,2.1-19.41,1.94-5.74,4.89-10.48,8.85-14.21,3.96-3.73,8.62-6.67,13.98-8.81,5.36-2.14,11.31-3.45,17.85-3.94,6.54-.48,12.61-.06,18.23,1.27,5.62,1.33,10.66,3.55,15.13,6.66,4.47,3.11,8.08,7.36,10.84,12.75,2.76,5.39,4.41,11.69,4.94,18.89,.54,7.25-.16,13.76-2.1,19.52-1.94,5.77-4.88,10.53-8.84,14.29-3.96,3.76-8.62,6.71-13.98,8.85-5.36,2.14-11.31,3.46-17.85,3.94-6.54,.48-12.61,.06-18.23-1.27-5.62-1.33-10.66-3.56-15.13-6.7-4.47-3.14-8.08-7.41-10.85-12.83-2.76-5.42-4.41-11.75-4.95-19Zm59.67-3.42c-1.1-14.86-6.2-21.96-15.29-21.28-9.09,.67-13.08,8.44-11.98,23.3,.5,6.74,2.05,11.76,4.66,15.06,2.61,3.3,6.1,4.78,10.5,4.46,4.39-.32,7.63-2.31,9.73-5.96,2.09-3.64,2.89-8.84,2.39-15.58Z"/>
              <path class="cls-7" d="M806.35,255.8l-7.93-59.38c-.76-5.71,.18-10.26,2.83-13.67,2.65-3.4,6.27-5.41,10.86-6.02,4.76-.64,8.77,.31,12.05,2.83,3.27,2.53,5.33,6.95,6.18,13.28l.92,6.89,.34-.04c2.01-8.87,4.57-15.63,7.68-20.26,3.11-4.63,7.13-7.28,12.06-7.94,3.42-.46,6.37,.02,8.87,1.42,2.5,1.41,4.32,3.23,5.47,5.47,1.15,2.24,1.92,4.76,2.29,7.56,.58,4.31,.21,7.94-1.11,10.87-1.32,2.94-3.46,5.01-6.44,6.2l-9.25,3.72c-5.03,2.04-8.58,4.46-10.65,7.28-2.07,2.81-2.74,6.96-2.01,12.45l3.29,24.61c.78,5.82-.25,10.42-3.07,13.79-2.83,3.37-6.93,5.41-12.3,6.13-5.37,.72-9.87-.18-13.48-2.68-3.61-2.51-5.81-6.68-6.59-12.5Z"/>
              <path class="cls-7" d="M644.33,186.16l-1.17-12.17c-1.22-12.68,4.33-19.61,16.65-20.79,12.26-1.18,18.99,4.58,20.21,17.25l1.17,12.17,11.08-1.06c7.87-.75,12.16,2.56,12.87,9.95,.71,7.39-2.87,11.46-10.74,12.22l-11.08,1.06,4.02,41.91,.26,2.7c.14,1.44,.65,2.5,1.53,3.17,.88,.67,1.95,.95,3.22,.83,6.97-.67,11.91-.07,14.82,1.81,2.91,1.87,4.58,5.12,5.03,9.75,.2,2.1,0,3.99-.6,5.65-.6,1.67-1.75,3.29-3.44,4.88-1.7,1.59-4.33,2.93-7.89,4.03-3.56,1.09-7.96,1.9-13.18,2.4-10.81,1.04-19.32-.89-25.52-5.78-6.2-4.89-9.81-12.68-10.84-23.38l-4.26-44.43-7.03,.67c-7.87,.75-12.16-2.56-12.87-9.95-.71-7.39,2.87-11.46,10.74-12.22l7.03-.67Z"/>
              <path class="cls-7" d="M869.9,248.86l4.36-59.92c.43-5.88,2.37-10.18,5.84-12.91,3.46-2.73,7.91-3.9,13.33-3.5,5.43,.4,9.64,2.19,12.64,5.39,3.01,3.2,4.29,7.74,3.86,13.62l-4.36,59.92c-.43,5.88-2.36,10.18-5.8,12.91-3.44,2.73-7.87,3.9-13.29,3.51-5.42-.39-9.65-2.2-12.68-5.4-3.03-3.2-4.34-7.74-3.91-13.62Zm15.75-101.69l15.3-11.24c3.06-2.22,5.35-3.63,6.87-4.23,1.52-.6,3.19-.83,4.99-.7,2.6,.19,4.99,1.42,7.19,3.68,2.19,2.26,3.19,4.83,2.98,7.71-.25,3.44-2.09,6.41-5.5,8.89l-15.3,11.24c-3.06,2.22-5.35,3.63-6.87,4.23-1.52,.6-3.18,.83-4.99,.7-2.6-.19-5-1.41-7.19-3.67-2.19-2.26-3.18-4.83-2.97-7.71,.25-3.45,2.08-6.41,5.5-8.89Z"/>
              <path class="cls-7" d="M1012.16,191.24l1.4,39.82c.08,2.27,.35,5.19,.82,8.77,.47,3.58,.72,6.02,.77,7.32,.14,4.13-1.37,7.35-4.55,9.64-3.18,2.29-7.09,3.52-11.73,3.68-10.64,.37-16.84-4.22-18.59-13.8-3.11,5.04-7.47,8.84-13.08,11.38-5.61,2.55-11.75,3.94-18.43,4.18-6.79,.24-12.7-.49-17.72-2.19-5.02-1.69-9.08-4.64-12.17-8.84-3.1-4.2-4.76-9.53-4.98-15.98-.11-3.17,.24-6.06,1.06-8.67,.82-2.61,2.27-5.11,4.37-7.51,2.1-2.4,4.84-4.51,8.24-6.32,3.39-1.82,7.74-3.4,13.05-4.75,5.31-1.35,11.44-2.37,18.38-3.07,6.89-.69,11.72-1.71,14.47-3.06,2.76-1.34,4.09-3.52,3.98-6.52-.21-5.89-5.12-8.66-14.75-8.32-2.83,.1-5.46,.62-7.89,1.55-2.43,.94-4.51,2.03-6.22,3.28-1.71,1.25-3.38,2.51-5.01,3.79-1.63,1.28-3.45,2.37-5.45,3.29-2.01,.92-4.11,1.42-6.32,1.5-3.57,.12-6.38-.74-8.42-2.6-2.05-1.86-3.14-4.57-3.26-8.13-.23-6.62,3.7-12.1,11.79-16.44,8.09-4.34,18.45-6.73,31.08-7.17,3.45-.12,6.85-.08,10.21,.11,3.35,.2,6.93,.57,10.75,1.11,3.82,.55,7.32,1.44,10.51,2.69,3.19,1.25,6.12,2.78,8.79,4.58,2.67,1.81,4.79,4.13,6.37,6.96,1.57,2.84,2.42,6.06,2.55,9.68Zm-33.55,37.06l-.36-10.28c-1.42,1.64-3.53,2.87-6.33,3.71-2.81,.83-5.87,1.55-9.19,2.15-3.32,.6-5.77,1.24-7.33,1.92-3.24,1.42-4.79,3.97-4.66,7.64,.09,2.6,1.24,4.69,3.45,6.26,2.21,1.57,4.81,2.3,7.81,2.19,4.92-.17,8.96-1.6,12.09-4.29,3.14-2.69,4.64-5.79,4.52-9.3Z"/>
              <path class="cls-7" d="M794.91,241.26c.35,2.35-.09,4.68-1.31,6.99-1.22,2.32-3.27,4.58-6.14,6.81-2.88,2.22-7.05,4.27-12.53,6.15-5.48,1.88-11.96,3.37-19.45,4.48-6.52,.97-12.65,.99-18.39,.07-5.73-.92-10.96-2.79-15.67-5.61-4.71-2.81-8.66-6.84-11.83-12.08-3.17-5.23-5.29-11.47-6.36-18.7-1.06-7.18-.83-13.73,.69-19.63,1.52-5.9,4.13-10.87,7.83-14.91,3.7-4.04,8.16-7.33,13.38-9.87,5.22-2.55,11.09-4.3,17.62-5.26,6.83-1.01,13.16-1.02,19.01-.04,5.85,.98,10.68,2.57,14.49,4.76,3.81,2.2,7.13,4.84,9.96,7.94,2.83,3.09,4.93,6.11,6.3,9.02,1.37,2.92,2.25,5.71,2.64,8.36,.71,4.79,.05,8.35-1.97,10.68-2.02,2.33-5.66,3.88-10.91,4.66l-45.71,6.77c1.19,5.19,3.48,9.1,6.89,11.71,3.41,2.62,7.68,3.55,12.83,2.78,2.65-.39,5.25-1.31,7.8-2.75,2.54-1.45,4.68-2.93,6.41-4.47,1.73-1.53,3.75-3,6.06-4.41,2.32-1.41,4.57-2.28,6.76-2.6,2.75-.41,5.27,.34,7.56,2.24,2.29,1.9,3.63,4.2,4.03,6.9Zm-60.7-25.37l30.19-4.47c-.78-5.25-2.77-8.91-5.96-10.99-3.2-2.08-6.99-2.79-11.37-2.14-4.08,.6-7.38,2.36-9.92,5.26-2.54,2.9-3.52,7.02-2.94,12.35Z"/>
            </g>
          </g>
          <g>
            <g>
              <path class="cls-3" d="M535.31,134.93l-8.15-41.32c-.91-4.61-.39-8.48,1.54-11.62,1.94-3.14,5.03-5.12,9.28-5.96,4.25-.84,7.88-.18,10.88,1.99,3,2.17,4.96,5.55,5.86,10.16l9.22,46.71c.75,3.82,.81,7.45,.17,10.88-.64,3.43-1.83,6.45-3.57,9.04-1.74,2.6-3.9,4.93-6.49,7-2.59,2.07-5.41,3.76-8.45,5.07-3.05,1.31-6.27,2.3-9.66,2.97-9.52,1.88-17.73,1.02-24.62-2.59-6.89-3.6-11.06-9.06-12.5-16.36-1.91-9.68,1.55-15.39,10.37-17.13,3.2-.63,6.1-.21,8.7,1.26,2.6,1.47,4.25,3.96,4.94,7.48,.54,2.73,1.54,4.61,3,5.64,1.46,1.03,3.18,1.35,5.17,.96,2.3-.45,3.84-1.73,4.6-3.83,.76-2.1,.67-5.55-.28-10.35Z"/>
              <path class="cls-3" d="M602.18,118.7l-1.41-19.04c-.26-3.52,.51-6.24,2.33-8.16,1.81-1.92,4.35-3,7.6-3.24,3.25-.24,5.91,.45,7.99,2.09,2.08,1.63,3.25,4.21,3.51,7.73l2.69,36.3c.5,6.8-2.68,10.46-9.55,10.97-3.05,.23-5.37-.44-6.99-2.01-1.61-1.57-2.73-4.03-3.35-7.38l-.2,.02c-3.22,7.01-8.86,10.81-16.92,11.41-3.62,.27-6.83-.03-9.64-.89-2.8-.86-5.1-2.2-6.88-4.01-1.78-1.81-3.17-3.92-4.14-6.35-.98-2.43-1.58-5.17-1.81-8.21l-1.89-25.48c-.26-3.52,.52-6.24,2.33-8.16,1.81-1.92,4.35-3,7.6-3.24,3.25-.24,5.91,.46,7.99,2.09,2.08,1.63,3.25,4.21,3.51,7.73l1.52,20.51c.45,6.09,3.32,8.94,8.6,8.55,2.57-.19,4.46-1.28,5.68-3.25,1.21-1.98,1.7-4.62,1.45-7.94Z"/>
              <path class="cls-3" d="M759.91,96.59c-1.07-4.75-1.25-9.14-.53-13.16,.72-4.02,2.21-7.47,4.48-10.36,2.27-2.89,5.09-5.31,8.45-7.27,3.36-1.96,7.2-3.43,11.51-4.41,4.31-.97,8.41-1.3,12.29-.97,3.88,.33,7.46,1.31,10.75,2.93,3.29,1.63,6.12,4.1,8.5,7.43,2.38,3.32,4.11,7.36,5.18,12.11,1.08,4.78,1.26,9.19,.55,13.23-.72,4.04-2.21,7.51-4.47,10.41-2.26,2.9-5.08,5.34-8.44,7.3-3.36,1.96-7.2,3.43-11.51,4.41-4.31,.97-8.41,1.3-12.29,.97-3.88-.33-7.47-1.31-10.76-2.96-3.29-1.65-6.13-4.14-8.51-7.48-2.39-3.34-4.12-7.4-5.2-12.18Zm39.46-8.23c-2.22-9.8-6.32-14.02-12.32-12.67-5.99,1.35-7.89,6.93-5.67,16.74,1.01,4.44,2.54,7.64,4.61,9.58,2.07,1.94,4.55,2.58,7.45,1.93,2.9-.66,4.86-2.3,5.89-4.94,1.03-2.64,1.04-6.19,.04-10.63Z"/>
              <path class="cls-3" d="M688.93,113.02c.13,1.72-.31,3.39-1.32,5.01-1.01,1.62-2.62,3.16-4.83,4.62-2.21,1.46-5.35,2.74-9.43,3.81-4.08,1.07-8.87,1.82-14.38,2.22-4.79,.35-9.25,.04-13.37-.93-4.12-.97-7.82-2.61-11.1-4.91-3.28-2.3-5.93-5.44-7.96-9.41-2.03-3.98-3.24-8.62-3.63-13.94-.39-5.28,.12-10.03,1.54-14.23,1.42-4.21,3.58-7.68,6.48-10.42,2.91-2.74,6.32-4.89,10.25-6.46,3.93-1.57,8.29-2.53,13.09-2.89,5.02-.37,9.63-.04,13.83,.98,4.2,1.03,7.63,2.44,10.28,4.24,2.66,1.8,4.93,3.9,6.82,6.3,1.89,2.4,3.26,4.7,4.1,6.9,.84,2.2,1.33,4.27,1.48,6.22,.26,3.52-.41,6.07-2,7.66-1.6,1.59-4.32,2.52-8.18,2.81l-33.59,2.49c.59,3.84,2.05,6.8,4.38,8.88,2.34,2.09,5.4,2.99,9.18,2.71,1.95-.15,3.88-.67,5.81-1.59,1.93-.91,3.56-1.88,4.9-2.9,1.34-1.02,2.88-1.98,4.64-2.88,1.76-.9,3.44-1.41,5.05-1.53,2.02-.15,3.82,.53,5.38,2.03,1.56,1.5,2.41,3.25,2.56,5.24Zm-42.78-21.69l22.19-1.64c-.28-3.86-1.53-6.63-3.75-8.31-2.21-1.68-4.93-2.4-8.15-2.17-3,.22-5.49,1.32-7.49,3.29-2,1.97-2.93,4.92-2.79,8.82Z"/>
              <path class="cls-3" d="M867.7,111.09c-.1-1.41-.82-2.6-2.16-3.59-1.33-.99-3.79-1.72-7.36-2.21l-8.38-1.17c-5.05-.69-9.34-1.63-12.88-2.83-3.54-1.2-6.37-2.67-8.48-4.41-2.12-1.74-3.69-3.64-4.7-5.69-1.01-2.05-1.62-4.44-1.82-7.16-.17-2.29,0-4.5,.54-6.64,.52-2.14,1.56-4.28,3.1-6.43,1.54-2.15,3.57-4.07,6.07-5.76,2.5-1.69,5.84-3.14,9.99-4.35,4.16-1.21,8.91-2.02,14.28-2.42,4.27-.32,8.37-.31,12.31,.02,3.94,.33,7.58,.97,10.92,1.91,3.34,.95,6.05,2.37,8.14,4.27,2.09,1.91,3.23,4.15,3.42,6.75,.18,2.46-.52,4.58-2.12,6.36-1.59,1.78-3.73,2.76-6.41,2.96-2.02,.15-4.05-.15-6.07-.91-2.02-.75-3.8-1.62-5.33-2.59-1.53-.97-3.58-1.81-6.16-2.53-2.57-.71-5.36-.96-8.35-.74-2.51,.19-4.41,.76-5.71,1.71-1.3,.96-1.89,2.25-1.77,3.88,.11,1.45,.74,2.52,1.9,3.21,1.15,.69,3.54,1.3,7.16,1.82l11.93,1.63c16.76,2.43,25.53,8.86,26.3,19.28,.19,2.55-.02,5-.62,7.34-.6,2.34-1.77,4.65-3.5,6.92-1.73,2.27-3.97,4.29-6.72,6.04-2.75,1.75-6.32,3.25-10.71,4.51-4.4,1.25-9.41,2.09-15.04,2.5-6.2,.46-11.84,.28-16.92-.54-5.08-.82-9.32-2.44-12.73-4.86-3.41-2.42-5.25-5.5-5.53-9.24-.17-2.33,.66-4.4,2.49-6.22,1.83-1.82,4.09-2.82,6.78-3.02,1.41-.11,2.85,.14,4.33,.74,1.48,.6,2.92,1.35,4.31,2.27,1.39,.91,2.87,1.81,4.44,2.69,1.57,.88,3.46,1.59,5.66,2.13,2.21,.54,4.54,.72,7.01,.54,2.77-.21,4.88-.92,6.34-2.13,1.46-1.21,2.13-2.57,2.02-4.06Z"/>
              <path class="cls-3" d="M735.59,120.33l-.26-8.17h-.23c-1.11,2.87-3.2,5.06-6.26,6.59-3.07,1.53-6.59,2.36-10.57,2.48-2.4,.07-4.78-.16-7.16-.7-2.38-.54-4.78-1.53-7.2-2.96-2.42-1.43-4.58-3.22-6.47-5.36-1.89-2.15-3.44-4.92-4.67-8.32-1.23-3.4-1.91-7.23-2.05-11.48-.13-4.1,.36-7.97,1.46-11.62,1.1-3.65,2.74-6.88,4.92-9.67,2.17-2.8,4.97-5.04,8.37-6.73,3.41-1.7,7.2-2.61,11.37-2.74,2.55-.08,5.09,.21,7.63,.86,2.54,.66,4.91,1.83,7.13,3.52,2.22,1.69,3.68,3.76,4.38,6.22h.23c-.1-3.29,.74-6.01,2.53-8.15,1.79-2.15,4.38-3.27,7.78-3.38,7.3-.23,11.08,3.61,11.33,11.54l1.58,49.97c.56,17.58-10.78,26.74-34,27.48-4.45,.14-8.45-.07-12-.64-3.56-.56-6.41-1.34-8.55-2.31-2.14-.98-3.93-2.11-5.36-3.4-1.44-1.29-2.42-2.51-2.96-3.65-.54-1.14-.83-2.26-.86-3.34-.08-2.59,.65-4.76,2.2-6.51,1.55-1.75,3.68-2.67,6.38-2.75,1.24-.04,2.61,.31,4.12,1.06,1.51,.74,2.9,1.57,4.17,2.48,1.26,.91,2.84,1.73,4.72,2.46,1.88,.73,3.77,1.07,5.66,1.01,4.83-.15,8.18-1.33,10.04-3.54,1.86-2.21,2.73-5.61,2.58-10.21Zm-2.13-19.63c1.54-2.51,2.26-5.67,2.14-9.5-.12-3.82-1.03-6.93-2.73-9.31-1.7-2.38-4.33-3.52-7.88-3.41-6.8,.22-10.06,4.67-9.79,13.37,.28,8.73,3.81,12.99,10.62,12.78,3.56-.11,6.11-1.42,7.65-3.93Z"/>
            </g>
            <g>
              <path class="cls-3" d="M956.3,82.54l.59-14.21c.23-5.62,3.07-8.31,8.53-8.09,5.46,.23,8.07,3.15,7.84,8.76l-1.84,44.39c-.23,5.46-2.86,8.08-7.88,7.87-2.34-.1-4.12-.89-5.34-2.38-1.22-1.49-1.78-3.37-1.68-5.63h-.16c-.5,1.68-1.52,3.1-3.06,4.25-1.54,1.15-3.18,1.94-4.92,2.38-1.74,.43-3.47,.61-5.2,.54-5.88-.24-10.46-2.47-13.72-6.69-3.27-4.21-4.75-9.78-4.47-16.7,.07-1.76,.33-3.58,.79-5.47,.45-1.89,1.19-3.83,2.22-5.83,1.03-2,2.26-3.77,3.68-5.31,1.42-1.54,3.25-2.78,5.49-3.71,2.24-.94,4.7-1.34,7.39-1.23,5.19,.21,9.05,2.56,11.58,7.04h.16Zm-.42,15.95c.12-2.9-.39-5.19-1.54-6.86-1.15-1.67-2.66-2.55-4.55-2.63-1.38-.06-2.6,.16-3.64,.65-1.05,.49-1.87,1.2-2.47,2.12-.6,.92-1.05,1.92-1.34,3-.3,1.08-.48,2.27-.53,3.58-.04,.98-.01,1.92,.09,2.8,.1,.89,.3,1.76,.61,2.63,.31,.86,.72,1.62,1.23,2.27,.51,.65,1.19,1.18,2.03,1.6,.85,.42,1.82,.66,2.91,.7,2.31,.1,4.06-.72,5.24-2.46,1.18-1.74,1.83-4.2,1.96-7.39Z"/>
              <path class="cls-3" d="M1007.69,109.61c-.04,.88-.36,1.71-.97,2.47-.61,.76-1.51,1.45-2.72,2.06-1.21,.61-2.88,1.07-5.01,1.38-2.13,.3-4.61,.4-7.43,.28-2.46-.1-4.7-.52-6.74-1.26-2.03-.73-3.82-1.78-5.35-3.14-1.53-1.36-2.69-3.11-3.49-5.25-.8-2.14-1.14-4.57-1.02-7.29,.11-2.7,.65-5.09,1.62-7.14,.97-2.05,2.27-3.69,3.91-4.91,1.64-1.22,3.5-2.11,5.59-2.68,2.09-.57,4.36-.8,6.82-.7,2.57,.11,4.89,.54,6.97,1.31,2.07,.77,3.73,1.69,4.97,2.76,1.24,1.07,2.27,2.27,3.09,3.6,.82,1.33,1.38,2.58,1.68,3.74,.3,1.17,.43,2.25,.38,3.25-.07,1.8-.56,3.06-1.47,3.77-.9,.71-2.34,1.03-4.32,.94l-17.21-.71c.07,1.98,.64,3.57,1.7,4.77,1.07,1.2,2.57,1.84,4.5,1.92,1,.04,2.01-.11,3.05-.46,1.03-.35,1.92-.75,2.66-1.19,.74-.44,1.58-.83,2.53-1.19,.95-.35,1.84-.52,2.66-.48,1.03,.04,1.9,.49,2.61,1.35,.71,.86,1.04,1.79,1,2.81Zm-20.45-13.53l11.36,.47c.08-1.98-.39-3.46-1.41-4.44-1.03-.98-2.36-1.51-4.02-1.58-1.53-.06-2.87,.35-4,1.23-1.13,.89-1.78,2.33-1.93,4.32Z"/>
            </g>
            <g>
              <path class="cls-3" d="M538.22,297.9l43.32-4.03c5.38-.5,9.81,.58,13.3,3.23,3.49,2.65,5.48,6.61,5.97,11.87,.48,5.21-.75,9.43-3.69,12.68-2.94,3.25-7.1,5.13-12.48,5.63l-61.13,5.68c-8.07,.75-14.19-.66-18.35-4.22-4.17-3.56-6.65-9.64-7.44-18.24l-7.87-84.72c-.64-6.9,.7-12.51,4.01-16.82,3.31-4.32,8.16-6.77,14.53-7.37,6.37-.59,11.6,.93,15.68,4.56,4.08,3.63,6.44,8.9,7.08,15.79l7.05,75.95Z"/>
              <path class="cls-3" d="M548.91,242.74c-.53-7.2,.17-13.67,2.1-19.41,1.94-5.74,4.89-10.48,8.85-14.21,3.96-3.73,8.62-6.67,13.98-8.81,5.36-2.14,11.31-3.45,17.85-3.94,6.54-.48,12.61-.06,18.23,1.27,5.62,1.33,10.66,3.55,15.13,6.66,4.47,3.11,8.08,7.36,10.84,12.75,2.76,5.39,4.41,11.69,4.94,18.89,.54,7.25-.16,13.76-2.1,19.52-1.94,5.77-4.88,10.53-8.84,14.29-3.96,3.76-8.62,6.71-13.98,8.85-5.36,2.14-11.31,3.46-17.85,3.94-6.54,.48-12.61,.06-18.23-1.27-5.62-1.33-10.66-3.56-15.13-6.7-4.47-3.14-8.08-7.41-10.85-12.83-2.76-5.42-4.41-11.75-4.95-19Zm59.67-3.42c-1.1-14.86-6.2-21.96-15.29-21.28-9.09,.67-13.08,8.44-11.98,23.3,.5,6.74,2.05,11.76,4.66,15.06,2.61,3.3,6.1,4.78,10.5,4.46,4.39-.32,7.63-2.31,9.73-5.96,2.09-3.64,2.89-8.84,2.39-15.58Z"/>
              <path class="cls-3" d="M806.23,253.02l-7.93-59.38c-.76-5.71,.18-10.26,2.83-13.67,2.65-3.4,6.27-5.41,10.86-6.02,4.76-.64,8.77,.31,12.05,2.83,3.27,2.53,5.33,6.95,6.18,13.28l.92,6.89,.34-.04c2.01-8.87,4.57-15.63,7.68-20.26,3.11-4.63,7.13-7.28,12.06-7.94,3.42-.46,6.37,.02,8.87,1.42,2.5,1.41,4.32,3.23,5.47,5.47,1.15,2.24,1.92,4.76,2.29,7.56,.58,4.31,.21,7.94-1.11,10.87-1.32,2.94-3.46,5.01-6.44,6.2l-9.25,3.72c-5.03,2.04-8.58,4.46-10.65,7.28-2.07,2.81-2.74,6.96-2.01,12.45l3.29,24.61c.78,5.82-.25,10.42-3.07,13.79-2.83,3.37-6.93,5.41-12.3,6.13-5.37,.72-9.87-.18-13.48-2.68-3.61-2.51-5.81-6.68-6.59-12.5Z"/>
              <path class="cls-3" d="M644.21,183.38l-1.17-12.17c-1.22-12.68,4.33-19.61,16.65-20.79,12.26-1.18,18.99,4.58,20.21,17.25l1.17,12.17,11.08-1.06c7.87-.75,12.16,2.56,12.87,9.95,.71,7.39-2.87,11.46-10.74,12.22l-11.08,1.06,4.02,41.91,.26,2.7c.14,1.44,.65,2.5,1.53,3.17,.88,.67,1.95,.95,3.22,.83,6.97-.67,11.91-.07,14.82,1.81,2.91,1.87,4.58,5.12,5.03,9.75,.2,2.1,0,3.99-.6,5.65-.6,1.67-1.75,3.29-3.44,4.88-1.7,1.59-4.33,2.93-7.89,4.03-3.56,1.09-7.96,1.9-13.18,2.4-10.81,1.04-19.32-.89-25.52-5.78-6.2-4.89-9.81-12.68-10.84-23.38l-4.26-44.43-7.03,.67c-7.87,.75-12.16-2.56-12.87-9.95-.71-7.39,2.87-11.46,10.74-12.22l7.03-.67Z"/>
              <path class="cls-3" d="M869.78,246.09l4.36-59.92c.43-5.88,2.37-10.18,5.84-12.91,3.46-2.73,7.91-3.9,13.33-3.5,5.43,.4,9.64,2.19,12.64,5.39,3.01,3.2,4.29,7.74,3.86,13.62l-4.36,59.92c-.43,5.88-2.36,10.18-5.8,12.91-3.44,2.73-7.87,3.9-13.29,3.51-5.42-.39-9.65-2.2-12.68-5.4-3.03-3.2-4.34-7.74-3.91-13.62Zm15.75-101.69l15.3-11.24c3.06-2.22,5.35-3.63,6.87-4.23,1.52-.6,3.19-.83,4.99-.7,2.6,.19,4.99,1.42,7.19,3.68,2.19,2.26,3.19,4.83,2.98,7.71-.25,3.44-2.09,6.41-5.5,8.89l-15.3,11.24c-3.06,2.22-5.35,3.63-6.87,4.23-1.52,.6-3.18,.83-4.99,.7-2.6-.19-5-1.41-7.19-3.67-2.19-2.26-3.18-4.83-2.97-7.71,.25-3.45,2.08-6.41,5.5-8.89Z"/>
              <path class="cls-3" d="M1012.04,188.47l1.4,39.82c.08,2.27,.35,5.19,.82,8.77,.47,3.58,.72,6.02,.77,7.32,.14,4.13-1.37,7.35-4.55,9.64-3.18,2.29-7.09,3.52-11.73,3.68-10.64,.37-16.84-4.22-18.59-13.8-3.11,5.04-7.47,8.84-13.08,11.38-5.61,2.55-11.75,3.94-18.43,4.18-6.79,.24-12.7-.49-17.72-2.19-5.02-1.69-9.08-4.64-12.17-8.84-3.1-4.2-4.76-9.53-4.98-15.98-.11-3.17,.24-6.06,1.06-8.67,.82-2.61,2.27-5.11,4.37-7.51,2.1-2.4,4.84-4.51,8.24-6.32,3.39-1.82,7.74-3.4,13.05-4.75,5.31-1.35,11.44-2.37,18.38-3.07,6.89-.69,11.72-1.71,14.47-3.06,2.76-1.34,4.09-3.52,3.98-6.52-.21-5.89-5.12-8.66-14.75-8.32-2.83,.1-5.46,.62-7.89,1.55-2.43,.94-4.51,2.03-6.22,3.28-1.71,1.25-3.38,2.51-5.01,3.79-1.63,1.28-3.45,2.37-5.45,3.29-2.01,.92-4.11,1.42-6.32,1.5-3.57,.12-6.38-.74-8.42-2.6-2.05-1.86-3.14-4.57-3.26-8.13-.23-6.62,3.7-12.1,11.79-16.44,8.09-4.34,18.45-6.73,31.08-7.17,3.45-.12,6.85-.08,10.21,.11,3.35,.2,6.93,.57,10.75,1.11,3.82,.55,7.32,1.44,10.51,2.69,3.19,1.25,6.12,2.78,8.79,4.58,2.67,1.81,4.79,4.13,6.37,6.96,1.57,2.84,2.42,6.06,2.55,9.68Zm-33.55,37.06l-.36-10.28c-1.42,1.64-3.53,2.87-6.33,3.71-2.81,.83-5.87,1.55-9.19,2.15-3.32,.6-5.77,1.24-7.33,1.92-3.24,1.42-4.79,3.97-4.66,7.64,.09,2.6,1.24,4.69,3.45,6.26,2.21,1.57,4.81,2.3,7.81,2.19,4.92-.17,8.96-1.6,12.09-4.29,3.14-2.69,4.64-5.79,4.52-9.3Z"/>
              <path class="cls-3" d="M794.79,238.48c.35,2.35-.09,4.68-1.31,6.99-1.22,2.32-3.27,4.58-6.14,6.81-2.88,2.22-7.05,4.27-12.53,6.15-5.48,1.88-11.96,3.37-19.45,4.48-6.52,.97-12.65,.99-18.39,.07-5.73-.92-10.96-2.79-15.67-5.61-4.71-2.81-8.66-6.84-11.83-12.08-3.17-5.23-5.29-11.47-6.36-18.7-1.06-7.18-.83-13.73,.69-19.63,1.52-5.9,4.13-10.87,7.83-14.91s8.16-7.33,13.38-9.87c5.22-2.55,11.09-4.3,17.62-5.26,6.83-1.01,13.16-1.02,19.01-.04,5.85,.98,10.68,2.57,14.49,4.76,3.81,2.2,7.13,4.84,9.96,7.94,2.83,3.09,4.93,6.11,6.3,9.02,1.37,2.92,2.25,5.71,2.64,8.36,.71,4.79,.05,8.35-1.97,10.68-2.02,2.33-5.66,3.88-10.91,4.66l-45.71,6.77c1.19,5.19,3.48,9.1,6.89,11.71,3.41,2.62,7.68,3.55,12.83,2.78,2.65-.39,5.25-1.31,7.8-2.75,2.54-1.45,4.68-2.93,6.41-4.47,1.73-1.53,3.75-3,6.06-4.41,2.32-1.41,4.57-2.28,6.76-2.6,2.75-.41,5.27,.34,7.56,2.24,2.29,1.9,3.63,4.2,4.03,6.9Zm-60.7-25.37l30.19-4.47c-.78-5.25-2.77-8.91-5.96-10.99-3.2-2.08-6.99-2.79-11.37-2.14-4.08,.6-7.38,2.36-9.92,5.26-2.54,2.9-3.52,7.02-2.94,12.35Z"/>
            </g>
          </g>
        </g>
        <g>
          <g>
            <g>
              <path class="cls-2" d="M142.67,383.99c-1.96-.63-2.47-2.06-1.93-3.71,.54-1.66,1.78-2.53,3.98-1.81l14.84,4.77c2.2,.71,2.71,2.14,2.17,3.79-.54,1.67-1.78,2.52-3.74,1.89l-4.19-1.35-4.11,12.76c-.74,2.32-2.53,3.31-4.67,2.62-2.15-.69-3.01-2.53-2.27-4.86l4.11-12.76-4.2-1.35Z"/>
              <path class="cls-2" d="M163.59,408.11c-5.11-1.14-8.52-4.68-7.2-10.59,1.32-5.87,5.92-7.62,11.02-6.48,7.15,1.61,8.22,7.01,7.68,9.43-.43,1.93-1.49,2.41-3.54,1.95l-9.08-2.04c-.31,2.09,.57,3.69,2.66,4.16,2.33,.52,4.15-1.16,6.1-.72,1.12,.25,1.75,1.53,1.52,2.56-.4,1.78-2.99,3.12-9.17,1.73Zm5.6-9.54c.49-2.25-.72-3.37-2.31-3.72-1.43-.33-3.09,.11-3.7,2.37l6,1.35Z"/>
              <path class="cls-2" d="M195.91,395.68c4.55,.32,7.41,2.7,7.25,4.97-.1,1.48-1.21,2.33-2.5,2.24-1.68-.11-2.24-2.47-4.56-2.63-2.65-.18-3.4,1.99-3.52,3.76-.15,2.15,.41,4.31,2.68,4.47,2.18,.15,3.32-2.09,5.12-1.96,1.54,.1,2.34,1.42,2.27,2.55-.09,1.33-2.14,4.34-7.92,3.94-5.18-.35-9.08-3.32-8.66-9.32,.41-5.97,4.67-8.38,9.85-8.03Z"/>
              <path class="cls-2" d="M222.94,408.67c0,1.15,.17,2.17,.17,2.96-.01,1.62-1.52,2.32-3.08,2.3-2.26,0-3.07-1.17-3.29-2.66-1.28,1.9-3.61,2.61-5.87,2.6-3.63-.03-6.2-1.55-6.17-5.2,.03-2.78,1.94-4.83,8.48-5.19,2.45-.14,3.45-.48,3.45-1.6,0-1.05-.88-1.63-2.63-1.65-2.83-.02-3.51,2.24-5.75,2.21-1.3,0-2.06-.74-2.05-2.05,.02-2.45,3.48-4.02,8.02-3.99,3.47,.03,8.81,.87,8.78,4.97l-.06,7.29Zm-6.35-2.66c-.93,.99-3.06,.78-4.25,1.24-.54,.22-.89,.67-.9,1.37-.01,.99,.94,1.64,1.99,1.64,1.85,.01,3.13-1.12,3.13-2.36l.02-1.89Z"/>
              <path class="cls-2" d="M303.52,390.43c.42,1.07,.96,1.96,1.25,2.7,.58,1.52-.57,2.72-2.03,3.28-2.11,.82-3.3,.04-4.05-1.27-.5,2.24-2.42,3.77-4.53,4.59-3.4,1.31-6.36,.84-7.68-2.59-1-2.6,.04-5.23,6.01-7.97,2.24-1.03,3.04-1.72,2.64-2.76-.38-.98-1.42-1.2-3.07-.57-2.65,1.03-2.46,3.38-4.55,4.18-1.22,.47-2.19,.07-2.67-1.16-.89-2.3,1.77-5.03,6.03-6.68,3.25-1.25,8.55-2.43,10.03,1.41l2.63,6.83Zm-6.91-.15c-.51,1.27-2.57,1.85-3.51,2.72-.42,.41-.59,.95-.33,1.61,.35,.93,1.48,1.18,2.47,.8,1.73-.67,2.51-2.2,2.06-3.36l-.68-1.77Z"/>
              <path class="cls-2" d="M338.37,371.29c.61,.98,1.32,1.74,1.74,2.41,.86,1.38-.03,2.78-1.37,3.61-1.92,1.21-3.23,.67-4.22-.47-.06,2.3-1.65,4.16-3.57,5.37-3.09,1.93-6.08,2.04-8.03-1.07-1.48-2.36-.96-5.14,4.37-8.97,2-1.44,2.66-2.27,2.06-3.21-.56-.89-1.63-.9-3.12,.03-2.41,1.51-1.76,3.79-3.67,4.98-1.11,.7-2.14,.49-2.84-.63-1.31-2.09,.77-5.28,4.64-7.71,2.96-1.84,7.93-4.02,10.12-.54l3.89,6.2Zm-6.81,1.18c-.26,1.34-2.17,2.31-2.92,3.34-.34,.48-.4,1.05-.02,1.64,.52,.84,1.68,.88,2.57,.31,1.57-.99,2.04-2.64,1.38-3.69l-1-1.6Z"/>
              <path class="cls-2" d="M394.44,317.7c.9,.72,1.81,1.22,2.43,1.72,1.27,1.03,.87,2.64-.12,3.86-1.42,1.77-2.84,1.69-4.14,.92,.69,2.19-.21,4.47-1.63,6.24-2.29,2.83-5.09,3.91-7.95,1.6-2.17-1.76-2.58-4.55,1.21-9.91,1.42-2.02,1.78-3.01,.9-3.71-.82-.66-1.83-.32-2.94,1.04-1.78,2.21-.43,4.16-1.85,5.9-.82,1.02-1.86,1.16-2.89,.33-1.92-1.55-.99-5.24,1.88-8.8,2.19-2.71,6.19-6.38,9.39-3.8l5.7,4.6Zm-6.06,3.33c.19,1.35-1.3,2.89-1.68,4.11-.16,.56-.03,1.12,.51,1.56,.77,.63,1.88,.28,2.54-.54,1.17-1.44,1.07-3.16,.1-3.94l-1.47-1.19Z"/>
              <path class="cls-2" d="M247.47,402.05c-.24-2.06-1.02-2.7-2.47-2.52-1.1,.13-2.04,1.39-1.81,3.22l.72,6.01c.25,2.2-.98,3.37-2.86,3.6-1.89,.22-3.36-.62-3.62-2.82l-.74-6.2c-.25-2.04-1.02-2.69-2.47-2.51-1.1,.13-2.04,1.39-1.82,3.21l.72,6.02c.26,2.2-.98,3.36-2.86,3.6-1.89,.22-3.36-.62-3.62-2.83l-1.31-10.98c-.24-2.02,.61-3.2,2.74-3.45,1.92-.24,2.82,.77,3.27,2.7h.05c.84-2.09,2.5-3.4,4.99-3.7,2.11-.25,4.42,.43,5.25,2.6,1.12-2.46,2.8-3.56,5.1-3.83,4.46-.53,6.62,2.01,7.05,5.6l.92,7.72c.27,2.2-.98,3.37-2.86,3.58-1.89,.23-3.36-.62-3.62-2.82l-.75-6.19Z"/>
              <path class="cls-2" d="M254.06,389.88c-.53-2.22,.34-3.48,2.35-3.96,2-.48,3.36,.25,3.89,2.47l1.31,5.43,.06-.02c.58-1.72,1.8-3.07,3.93-3.58,5.37-1.29,8.4,3.66,9.16,6.81,1.26,5.28-.74,9.29-5.24,10.37-1.84,.45-4.58,.18-5.6-1.76l-.06,.02c.4,1.65-.27,3.16-2.1,3.6-1.94,.47-3.13-.37-3.62-2.44l-4.06-16.94Zm12.42,13.29c2.19-.53,2.31-2.63,1.89-4.38-.45-1.87-1.57-3.52-3.79-3-1.41,.34-2.17,1.86-1.62,4.13,.55,2.3,1.67,3.69,3.51,3.25Z"/>
              <path class="cls-2" d="M275.1,380.04c1.63-.52,3.34,.37,3.86,2,.51,1.63-.37,3.34-2.01,3.86-1.62,.51-3.34-.37-3.85-2-.51-1.63,.38-3.34,2-3.86Zm-.08,10.95c-.68-2.13,.33-3.53,2.16-4.1,1.83-.58,3.46-.01,4.13,2.12l3.34,10.53c.67,2.14-.33,3.53-2.17,4.11-1.83,.58-3.45,.02-4.13-2.12l-3.33-10.54Z"/>
              <path class="cls-2" d="M351.26,336.32c1.27-1.15,3.2-1.06,4.34,.21,1.15,1.27,1.06,3.19-.21,4.34-1.26,1.15-3.19,1.06-4.34-.21-1.15-1.26-1.05-3.19,.21-4.34Zm4.5,9.98c-1.51-1.65-1.18-3.34,.25-4.63,1.42-1.29,3.14-1.45,4.64,.2l7.43,8.18c1.5,1.67,1.17,3.35-.25,4.64-1.42,1.29-3.13,1.46-4.64-.21l-7.43-8.18Z"/>
              <path class="cls-2" d="M307.79,371.54c-1.03-1.95-.3-3.49,1.38-4.37,1.67-.88,3.35-.62,4.38,1.34l7.98,15.16c1.02,1.97,.29,3.48-1.39,4.37-1.67,.88-3.35,.61-4.37-1.34l-7.98-15.16Z"/>
              <path class="cls-2" d="M350.21,350.82c-.81-1.68-1.12-2.91,.53-4.26,1.33-1.09,3.01-1.08,4.09,.22,.56,.69,.94,1.45,1.38,2.69l3.39,9.49c.78,2.16-.12,3.02-1.92,4.49-1.71,1.42-2.74,2.13-4.7,.94l-8.65-5.17c-1.15-.7-1.88-1.13-2.44-1.82-1.07-1.31-.75-2.97,.58-4.06,1.65-1.35,2.53-1.08,4.37,.25l7.06,5.15,.05-.04-3.75-7.88Z"/>
              <path class="cls-2" d="M365.99,327.99c-1.63-1.55-1.57-3.08-.17-4.54,1.41-1.46,2.92-1.58,4.55-.03l12.41,11.91c1.51,1.45,1.63,2.88,.26,4.3-1.28,1.35-2.9,1.16-4.11,0l-.05,.04c1.13,1.84,0,4.31-1.29,5.66-3.16,3.29-7.58,3-11.44-.71-2.31-2.21-5.01-7.26-1.24-11.19,1.49-1.56,3.25-1.93,5.01-1.57l.05-.04-3.97-3.82Zm4.18,7.35c-1.55,1.62-.72,3.4,.66,4.71,1.28,1.23,3.13,2.18,4.68,.58,1.29-1.35,.67-3-1.02-4.62-1.67-1.6-3.33-1.7-4.32-.68Z"/>
            </g>
            <path class="cls-2" d="M124.46,403.59c-2.9-1.21-3.37-3.36-2.24-6.05,1.13-2.68,3.46-6.47,6.49-10.8,.86-1.22,1.63-1.6,3.19-.94,1.57,.65,1.85,1.47,1.59,2.93-.95,5.21-2.02,9.53-3.14,12.21-1.12,2.68-2.98,3.86-5.88,2.65Zm7.99-18.85c-2.32-.96-3.39-3.61-2.43-5.91,.97-2.31,3.61-3.39,5.91-2.43,2.31,.97,3.39,3.61,2.43,5.91-.98,2.31-3.61,3.39-5.91,2.43Z"/>
            <path class="cls-2" d="M384.07,299.15c1.72-2.64,3.93-2.7,6.36-1.11,2.45,1.6,5.74,4.58,9.46,8.34,1.04,1.07,1.28,1.89,.35,3.31-.92,1.43-1.78,1.55-3.17,1.02-4.94-1.88-9.01-3.7-11.44-5.29-2.44-1.58-3.27-3.63-1.55-6.26Zm17.41,11.36c1.37-2.1,4.16-2.68,6.26-1.32,2.1,1.37,2.68,4.16,1.31,6.25-1.36,2.1-4.15,2.69-6.25,1.32-2.1-1.38-2.68-4.17-1.32-6.26Z"/>
          </g>
          <g>
            <path class="cls-3" d="M260.04,5.49c-14.79-3.65-29.93-5.49-45.01-5.49V3.05h0V0h-.02C128.53,0,53.66,58.72,32.95,142.78c-11.99,48.67-4.31,99.09,21.62,141.98,25.93,42.9,67.02,73.12,115.69,85.11,14.79,3.64,29.94,5.49,45.03,5.49,86.47,0,161.34-58.7,182.06-142.77,24.75-100.46-36.85-202.34-137.31-227.11"/>
            <g>
              <g>
                <path class="cls-11" d="M360.46,295.38c-60.47,79.88-174.25,95.63-254.14,35.15C26.44,270.06,10.7,156.27,71.18,76.4,131.65-3.49,245.43-19.22,325.31,41.24c79.89,60.48,95.62,174.26,35.15,254.13Z"/>
                <path class="cls-9" d="M152.56,269.48c21.97,16.65,45.05,27.52,65.46,34.12,20.21,6.96,37.74,9.63,43.98,18.22,5.82,7.09-1.91,23.37-28.98,27.16-25.88,4.2-71.12-4.1-112.87-36.7-42.71-31.33-62.97-72.62-65.94-98.67-3.72-27.09,9.86-38.94,18.26-35.27,9.97,3.69,17.3,19.82,29.48,37.4,11.89,17.85,28.61,37.1,50.62,53.74Z"/>
              </g>
              <g>
                <path class="cls-12" d="M378.48,218.58c-12.64,87.97-94.19,149.04-182.17,136.4-87.96-12.64-149.03-94.2-136.39-182.16C72.56,84.86,154.12,23.78,242.08,36.42c87.96,12.64,149.04,94.2,136.4,182.16Z"/>
                <path class="cls-1" d="M332.8,183.18c-30.48,10.7-73.18-10.44-109.78-12.04-35.58-8.77-82.5-.51-108.75-19.36-11.13-10.11-11.19-35.93,11.16-59.93,21.2-23.59,64.83-45.37,114.33-37.22,49.79,6.11,85.51,39.3,99.21,67.89,14.7,29.33,7.37,54.09-6.16,60.66Z"/>
                <path class="cls-8" d="M205.49,293.11c24.2,3.49,46.77,2.02,65.45-1.61,18.66-3.29,33.43-8.74,41.96-4.75,7.56,3,8.56,18.95-10.84,33.5-18.29,14.38-56.96,27.38-103.36,19.99-46.61-5.98-80.05-29.33-93.57-48.27-14.5-19.44-9.06-34.46-.96-35.22,9.31-1.41,21.95,7.97,38.94,16.37,16.89,8.75,38.14,16.51,62.36,19.98Z"/>
              </g>
              <g>
                <g class="cls-10">
                  <path class="cls-6" d="M63.82,350.39l-3.72-6.82c-1.85-3.39-45.38-83.91-58.69-170.55l-1.42-9.21,8.79-3.1c1.83-.64,44.84-15.78,62.37-18.48l4.93,21.9c5.6-1.68,8.31-7.07,8.01-11.27,.54,7.72,10.58,82.06,28.23,116.25,9.18-3.3,24.55-8.26,50.78-16.72l9.68-3.12,4.08,9.31c.48,1.1,11.92,27.23,16.27,42.92l.41,1.48v1.53c0,7.83-5.1,10-16.28,14.75-5.38,2.3-14.24,5.89-25.74,9.94-19.35,6.81-48.93,15.82-80.01,20.14l-7.7,1.07h0ZM25.21,178.83c11.77,65.26,40.85,126.77,51.05,147,39.34-6.54,76.37-20.54,92.32-27.33-2.56-7.32-5.82-15.45-8.34-21.54-20.4,6.63-44.42,14.57-47.64,15.99,4.57-2.02,7.84-8.43,5.24-14.43l-18.27,12.41-1.52-1.51-.43-.99c-10.46-15.55-19.68-42.62-27.43-80.47-3.07-15.07-5.22-28.55-6.48-37.22-.19-1.32-.37-2.56-.53-3.7-11.67,3.11-27.12,8.13-37.97,11.8h0Z"/>
                  <path class="cls-6" d="M346.7,290.82c-35.47,0-64.32-29.29-64.32-65.29s28.85-65.28,64.32-65.28,64.33,29.29,64.33,65.28-28.86,65.29-64.33,65.29h0Zm0-108.08c-23.06,0-41.81,19.2-41.81,42.79s18.76,42.79,41.81,42.79,41.82-19.19,41.82-42.79-18.76-42.79-41.82-42.79h0Zm-1.43,72.7c-12.2,0-22.12-10.05-22.12-22.39s9.93-22.41,22.12-22.41,22.13,10.05,22.13,22.41-9.92,22.39-22.13,22.39h0Z"/>
                  <path class="cls-6" d="M235.47,278.44l-1.7-9.73c-3.75-21.56-8-46.51-10.23-61.27-2.1,.13-4.47,.28-7.14,.42-8.8,.49-17.6,.86-17.6,.86l-10.67,.44-1.01-10.62c-3.59-38.05-2.08-43.11-1.5-45.01l1.93-6.45,6.6-1.34c2.66-.55,65.58-13.26,109.82-17.14l5.23-.46,3.71,3.72q2.78,2.78,12.22,44.73l2.43,10.77-10.71,2.64c-4.77,1.18-13.26,3.24-20.38,4.91,.01,.03,.02,.07,.03,.1,1.13,6.39,2.56,15.12,3.93,23.98,1.96,12.7,3.36,22.63,4.2,29.74h.78l.13,10.13c.02,.8,.01,1.46-.02,1.96l-11.23-.4-.13,10.82c.16,0,.36,0,.63-.02-1.18,.1-6.88,.99-11.9,1.79-16.43,2.57-30.58,4.72-37.54,5.02l-9.87,.42h0Zm8.99-83.72c.25,3.82,4.9,31.96,9.69,59.79,7.77-1.01,17.75-2.59,25.24-3.75,1-.16,1.91-.31,2.78-.44-2.25-18.08-8.14-55.15-9.59-60.28,.62,2.14,3.19,6.43,8.66,7.37l1.25-7.22-4.38-13.94,2.37-1.18h1.66c2.53-.51,10.09-2.29,18.59-4.34-1.6-7.04-3.15-13.75-4.33-18.79-32.21,3.52-71.8,10.8-89.06,14.13,.19,5.15,.67,12.33,1.25,19.66,10.24-.51,19.72-1.12,21.81-1.49-3.4,.61-8.44,4.46-8.44,10.8h22.51v-.34h-.01Z"/>
                  <path class="cls-6" d="M169.5,300.86c-36.4,0-66.01-31.03-66.01-69.16s29.61-69.17,66.01-69.17,66.02,31.03,66.02,69.17-29.61,69.16-66.02,69.16h0Zm0-115.83c-23.99,0-43.51,20.94-43.51,46.67s19.51,46.66,43.51,46.66,43.51-20.93,43.51-46.66-19.52-46.67-43.51-46.67h0Zm2.21,78.51c-12.2,0-22.13-10.69-22.13-23.84s9.93-23.85,22.13-23.85,22.13,10.7,22.13,23.85-9.93,23.84-22.13,23.84h0Z"/>
                </g>
                <path class="cls-5" d="M26.89,169.28c11.78,65.25,40.86,126.77,51.05,147,39.34-6.55,76.38-20.56,92.33-27.34-2.57-7.33-5.83-15.46-8.35-21.54-20.39,6.62-44.41,14.57-47.63,15.99,4.57-2.01,7.84-8.44,5.25-14.44l-18.28,12.43-1.53-1.52-.42-.98c-10.47-15.55-19.69-42.62-27.42-80.48-3.07-15.06-5.23-28.55-6.48-37.22-.19-1.33-.38-2.57-.54-3.7-11.68,3.11-27.13,8.13-37.98,11.81h0Z"/>
                <g>
                  <g>
                    <path class="cls-3" d="M13.61,157.79s43.65-15.4,60.33-17.97c-.32,0,10.91,95.63,34.66,129.64-.64-.64,59.04-19.9,59.04-19.9,0,0,11.57,26.32,15.73,41.4,0,.64-54.55,25.68-112.31,33.7,0,0-44.29-81.19-57.45-166.87Z"/>
                    <path class="cls-3" d="M71.06,335.92c-4.07,0-7.88-2.21-9.87-5.86-1.85-3.39-45.39-83.92-58.69-170.55-.82-5.34,2.28-10.52,7.38-12.32,1.82-.64,44.84-15.78,62.36-18.48,5.84-.91,11.38,2.87,12.68,8.62,.17,.76,.26,1.52,.28,2.28,.76,9.11,10.79,82.2,28.21,115.97,9.18-3.3,24.55-8.26,50.78-16.72,5.5-1.78,11.44,.9,13.76,6.18,.48,1.11,11.94,27.25,16.27,42.93,.27,.97,.4,1.98,.4,2.99,0,7.83-5.1,10-16.27,14.76-5.39,2.3-14.24,5.89-25.74,9.94-19.34,6.81-48.93,15.83-80,20.15-.52,.07-1.04,.11-1.55,.11ZM26.28,165.33c11.76,65.16,40.86,126.75,51.06,147,39.34-6.55,76.38-20.56,92.32-27.34-2.56-7.32-5.82-15.46-8.35-21.54-19.55,6.36-42.44,13.93-47.13,15.79-4.35,2.49-9.89,1.81-13.5-1.78-.48-.48-.92-1-1.31-1.55h0c-10.74-15.38-20.19-42.79-28.09-81.46-3.08-15.06-5.23-28.55-6.49-37.21-.19-1.33-.37-2.56-.53-3.7-11.67,3.12-27.13,8.13-37.99,11.81Zm90.62,111.73c-.52,.57-1.11,1.09-1.75,1.55,.63-.44,1.22-.96,1.75-1.55Zm2.05-12.02c.33,.77,.57,1.57,.72,2.37-.14-.79-.38-1.58-.72-2.37Zm-38.76-115.85c-.89,.6-1.89,1.07-2.97,1.4,1.1-.34,2.09-.82,2.97-1.4Zm5-9.16c-.01,.67-.08,1.33-.21,1.97,.14-.67,.21-1.33,.21-1.97Z"/>
                  </g>
                  <g>
                    <path class="cls-3" d="M350.62,160.92c-29.31,0-53.07,24.2-53.07,54.05s23.75,54.03,53.07,54.03,53.07-24.19,53.07-54.03-23.76-54.05-53.07-54.05Zm-1.43,72.71c-6.01,0-10.88-4.99-10.88-11.15s4.87-11.15,10.88-11.15,10.88,4.99,10.88,11.15-4.87,11.15-10.88,11.15Z"/>
                    <path class="cls-3" d="M350.62,280.25c-35.46,0-64.32-29.28-64.32-65.28s28.85-65.3,64.32-65.3,64.33,29.29,64.33,65.3-28.86,65.28-64.33,65.28Zm0-108.08c-23.06,0-41.81,19.2-41.81,42.8s18.76,42.78,41.81,42.78,41.82-19.19,41.82-42.78-18.76-42.8-41.82-42.8Zm-1.43,72.71c-12.2,0-22.13-10.05-22.13-22.4s9.93-22.4,22.13-22.4,22.13,10.05,22.13,22.4-9.93,22.4-22.13,22.4Z"/>
                  </g>
                  <g>
                    <path class="cls-3" d="M196.75,143.96s64.47-13.08,108.56-16.96c.48,.49,9.21,39.26,9.21,39.26,0,0-27.63,6.79-31.02,7.27,.98-.48,11.64,66.88,11.15,73.67,0-.48-38.28,6.3-49.43,6.79,0,0-11.63-66.89-11.63-71.73,0,.97-34.9,2.42-34.9,2.42,0,0-3.39-35.86-1.94-40.71Z"/>
                    <path class="cls-3" d="M245.21,265.23c-5.44,0-10.14-3.91-11.08-9.32-3.75-21.57-8-46.51-10.24-61.28-2.26,.15-4.7,.29-7.14,.43-8.8,.49-17.61,.85-17.61,.85-5.99,.23-11.1-4.23-11.67-10.18-3.6-38.04-2.09-43.09-1.52-44.99,1.19-3.98,4.47-6.98,8.54-7.81,2.66-.54,65.6-13.25,109.81-17.14,3.31-.29,6.61,.91,8.96,3.27q2.77,2.79,12.21,44.72c1.35,5.98-2.34,11.94-8.29,13.4-4.77,1.17-13.25,3.24-20.38,4.92,0,.03,.01,.07,.02,.1,1.13,6.38,2.56,15.12,3.93,23.98,3.67,23.73,5.38,37.79,5.09,41.81-.42,5.88-5.3,10.41-11.15,10.45-1.77,.22-6.88,1.02-11.44,1.73-16.45,2.58-30.63,4.74-37.58,5.04-.16,0-.33,.01-.49,.01Zm-.38-83.25c.3,4.11,4.92,32.07,9.68,59.73,7.78-1.02,17.78-2.59,25.28-3.77,.99-.15,1.91-.3,2.76-.43-2.17-17.32-7.79-52.81-9.45-59.7-.13-.31-.25-.64-.35-.97-1.64-5.29,.81-10.98,5.78-13.42,1.06-.52,2.21-.88,3.38-1.04h0c1.6-.26,9.83-2.19,19.19-4.44-1.6-7.04-3.15-13.76-4.33-18.79-32.21,3.52-71.8,10.81-89.05,14.13,.19,5.15,.66,12.33,1.24,19.66,9.38-.47,18.12-1.01,21.13-1.38,1.1-.36,2.28-.55,3.5-.55,6.13,0,11.11,4.89,11.25,10.99Zm31.32,.06c1.17,1.02,2.67,1.91,4.56,2.38-1.69-.43-3.25-1.25-4.56-2.38Zm-52.91-4.24c-.57,1.3-.91,2.79-.91,4.45,0-1.58,.33-3.08,.91-4.45Z"/>
                  </g>
                  <g>
                    <path class="cls-3" d="M170.58,151.72c-30.25,0-54.76,25.93-54.76,57.92s24.52,57.91,54.76,57.91,54.76-25.93,54.76-57.91-24.51-57.92-54.76-57.92Zm2.21,78.51c-6.01,0-10.87-5.64-10.87-12.6s4.87-12.6,10.87-12.6,10.88,5.65,10.88,12.6-4.87,12.6-10.88,12.6Z"/>
                    <path class="cls-3" d="M170.58,278.8c-36.4,0-66.01-31.03-66.01-69.16s29.61-69.17,66.01-69.17,66.01,31.03,66.01,69.17-29.61,69.16-66.01,69.16Zm0-115.83c-23.99,0-43.51,20.94-43.51,46.67s19.52,46.66,43.51,46.66,43.51-20.93,43.51-46.66-19.52-46.67-43.51-46.67Zm2.21,78.51c-12.2,0-22.13-10.7-22.13-23.85s9.93-23.86,22.13-23.86,22.13,10.7,22.13,23.86-9.93,23.85-22.13,23.85Z"/>
                  </g>
                </g>
                <g>
                  <path class="cls-4" d="M14.58,159.2s43.64-15.4,60.33-17.96c-.33,0,10.9,95.63,34.66,129.64-.66-.64,59.03-19.9,59.03-19.9,0,0,11.55,26.31,15.73,41.39,0,.64-54.56,25.67-112.33,33.7,0,0-44.28-81.19-57.44-166.87Z"/>
                  <path class="cls-4" d="M351.6,162.34c-29.31,0-53.08,24.18-53.08,54.03s23.77,54.04,53.08,54.04,53.06-24.19,53.06-54.04-23.76-54.03-53.06-54.03Zm-1.44,72.7c-6,0-10.87-5-10.87-11.16s4.87-11.14,10.87-11.14,10.89,5,10.89,11.14-4.87,11.16-10.89,11.16Z"/>
                  <path class="cls-4" d="M197.72,145.38s64.46-13.09,108.56-16.97c.48,.49,9.21,39.25,9.21,39.25,0,0-27.63,6.79-31.02,7.26,.97-.48,11.64,66.88,11.15,73.68,0-.48-38.28,6.3-49.44,6.78,0,0-11.64-66.88-11.64-71.72,0,.96-34.89,2.42-34.89,2.42,0,0-3.39-35.86-1.93-40.7Z"/>
                  <path class="cls-4" d="M171.55,153.13c-30.25,0-54.77,25.93-54.77,57.92s24.52,57.91,54.77,57.91,54.76-25.93,54.76-57.91-24.52-57.92-54.76-57.92Zm2.21,78.51c-6.02,0-10.88-5.64-10.88-12.6s4.86-12.6,10.88-12.6,10.88,5.64,10.88,12.6-4.87,12.6-10.88,12.6Z"/>
                </g>
                <g>
                  <path class="cls-5" d="M11.94,159.73s43.63-15.4,60.33-17.96c-.33,0,10.9,95.63,34.66,129.64-.65-.65,59.04-19.9,59.04-19.9,0,0,11.55,26.32,15.73,41.4,0,.64-54.56,25.66-112.32,33.7,0,0-44.28-81.2-57.43-166.88Z"/>
                  <path class="cls-5" d="M348.93,162.87c-29.31,0-53.07,24.18-53.07,54.04s23.75,54.03,53.07,54.03,53.07-24.19,53.07-54.03-23.76-54.04-53.07-54.04Zm-1.42,72.7c-6.01,0-10.88-5-10.88-11.16s4.87-11.14,10.88-11.14,10.87,5,10.87,11.14-4.87,11.16-10.87,11.16Z"/>
                  <path class="cls-5" d="M195.06,145.91s64.47-13.09,108.57-16.97c.47,.49,9.2,39.25,9.2,39.25,0,0-27.63,6.79-31.02,7.26,.97-.48,11.63,66.88,11.15,73.68,0-.49-38.29,6.3-49.44,6.77,0,0-11.64-66.88-11.64-71.72,0,.96-34.89,2.42-34.89,2.42,0,0-3.39-35.87-1.94-40.71Z"/>
                  <path class="cls-5" d="M168.9,153.66c-30.25,0-54.77,25.93-54.77,57.92s24.52,57.91,54.77,57.91,54.76-25.92,54.76-57.91-24.53-57.92-54.76-57.92Zm2.2,78.51c-6.02,0-10.88-5.64-10.88-12.59s4.86-12.6,10.88-12.6,10.88,5.64,10.88,12.6-4.87,12.59-10.88,12.59Z"/>
                </g>
              </g>
            </g>
          </g>
        </g>
      </g>
    </g>
  </g>
</svg>