<?xml version="1.0" encoding="UTF-8"?>
<svg id="Capa_2" data-name="Capa 2" xmlns="http://www.w3.org/2000/svg" viewBox="0 0 106.11 33.53">
  <defs>
    <style>
      .cls-1 {
        stroke: #213d8a;
        stroke-miterlimit: 10;
        stroke-width: .44px;
      }

      .cls-1, .cls-2 {
        fill: #213d8a;
      }

      .cls-3 {
        fill: #f08124;
      }

      .cls-4 {
        fill: #fff;
      }
    </style>
  </defs>
  <g id="Capa_1-2" data-name="Capa 1">
    <g>
      <rect class="cls-3" width="106.11" height="33.53" rx="8" ry="8"/>
      <g>
        <path class="cls-1" d="M9.26,8.74c.32-.99,1.07-1.36,2.05-1.5,1.88-.27,3.75-.6,5.63-.89.22-.03.44-.04.66-.04,1.01,0,1.69.67,1.7,1.67.02,1.33.03,2.66.07,3.99.03.89.11,1.77.16,2.65.04,0,.08.01.12.02.05-.12.1-.24.14-.37,1.03-2.87,2.99-4.69,6.02-5.29,1.04-.2,2.07-.13,3.09.15.25.07.38,0,.58-.14.31-.22.68-.46,1.04-.48,3.9-.26,7.81-.44,11.72-.31.92.03,1.8.48,1.9,1.8.05.71.13,1.42.2,2.14.01.13.04.25.07.37,4.71-.5,7.66,1.52,9.03,6.08.05-.15.19-.32.15-.44-.67-2.34.22-4.55,2.37-5.6,2-.98,4.06-.88,6.09-.07.91.37,1.46,1.09,1.68,2.2.23-.38.39-.64.55-.91.58-1,1.37-1.72,2.58-1.82.47-.04.94-.04,1.4,0,1.2.1,1.99.82,2.26,2.04.04.18.08.36.22.57.05-.13.1-.27.15-.4.45-1.23,1.29-2,2.61-2.18,2-.27,3.37,1.18,2.98,3.15-.2.99-.41,1.97-.62,2.96-.03.14-.05.28-.09.53.53,0,1.02.02,1.51-.01.08,0,.19-.2.22-.32.25-1.1.48-2.2.71-3.3.42-1.96,1.55-2.87,3.55-2.89.64,0,1.29,0,1.93,0,1.71-.02,3.26.35,4.41,1.81.14-.11.26-.21.38-.31,1.68-1.37,3.59-1.94,5.74-1.6,2.37.38,4.02,2.15,4.05,4.54.03,2.83-1.09,5.13-3.61,6.58-1.74,1-3.62,1.21-5.55.6-.45-.14-.89-.38-1.29-.65-.39-.27-.72-.63-1.09-.97-.05.03-.11.06-.16.11-1.26,1.12-2.75,1.63-4.43,1.62-.89,0-1.79.03-2.68-.03-.48-.03-.95-.33-1.43-.33-.48,0-.95.32-1.43.33-1.57.05-3.14.03-4.7,0-.4,0-.81-.14-1.17-.3-.26-.11-.43-.11-.68.04-.93.55-1.91.65-2.89.13-.3-.16-.57-.42-.78-.68-.37-.45-.87-.48-1.26-.02-1,1.19-2.82,1.37-4.02.39-.21-.17-.35-.18-.58-.06-1.73.89-3.54.94-5.38.46-.4-.11-.8-.3-1.16-.51-.36-.22-.66-.52-1.02-.81-.06.12-.12.23-.17.34-2.25,5.22-9.08,6.12-12.61,1.67-.12-.15-.38-.27-.57-.27-1.71-.01-3.43.02-5.14,0-1.26-.01-1.82-.6-1.89-1.86,0-.07-.02-.14-.04-.29-.15.13-.25.22-.35.32-.88.89-1.91,1.55-3.11,1.91-.38.11-.42.29-.36.63.25,1.36-.13,2-1.46,2.39-3.37.99-6.81,1.6-10.31,1.84-.42.03-.84.11-1.26.17h-1.23c-.7-.32-1.19-.79-1.46-1.56-1.8-5.25-3.11-10.61-3.55-16.16-.05-.61-.12-1.22-.17-1.82v-.96ZM33.96,14.82c0,.19,0,.35,0,.51.07,2.2.14,4.41.23,6.61.02.62.04.63.69.63,1.35,0,2.7-.03,4.04-.06.77-.01.78.15.77-.79-.02-2.38-.06-4.76-.09-7.16.91-.09,1.87-.21,2.83-.28.35-.03.5-.12.45-.49-.12-1.09-.2-2.18-.32-3.27-.07-.69-.09-.72-.78-.71-3.59.08-7.17.17-10.76.25-.33,0-.48.14-.51.46-.03.34-.09.67-.14,1.04-3.13-2-6.14-.84-7.71.92-.99,1.11-1.54,2.4-1.64,3.88-.13,1.96.52,3.64,1.9,5.04-.06.03-.09.05-.11.06-.7.14-1.41.27-2.11.41-1.28.26-1.29.26-1.68-.99-.76-2.42-1.02-4.92-1.18-7.42-.11-1.72-.11-3.44-.14-5.17,0-.3-.11-.4-.39-.36-.13.02-.26.01-.39.03-1.86.31-3.72.63-5.58.93-.3.05-.43.17-.4.48.1,1.28.14,2.57.29,3.84.55,4.67,1.66,9.22,3.21,13.66.28.8.12.71,1.01.68,3.74-.13,7.4-.73,11-1.75.87-.24.79-.12.62-1.04-.11-.59-.25-1.18-.38-1.8,2.17-.03,3.84-.92,5.04-2.64,1.19-1.71,1.39-3.6.88-5.61.47.04.88.07,1.36.1ZM46.06,14.02c-3.18-.01-5.78,2.6-5.8,5.82-.02,3.21,2.55,5.83,5.72,5.84,3.16,0,5.77-2.63,5.78-5.85,0-3.19-2.55-5.8-5.7-5.81ZM81.05,22.42h0c.47,0,.94.02,1.41,0,1.34-.07,2.5-.57,3.42-1.57.94-1.03,1.43-2.28,1.53-3.65.17-2.35-1.05-3.61-3.43-3.63-.78,0-1.55,0-2.33,0-1.2,0-1.81.48-2.08,1.66-.27,1.2-.52,2.4-.77,3.6-.16.74-.34,1.48-.45,2.23-.13.89.3,1.35,1.21,1.37.5,0,1,0,1.49,0ZM91.08,22.64c2.86-.04,5.13-1.92,5.65-4.71.52-2.8-1-4.59-3.87-4.53-3.05.07-5.51,2.66-5.53,5.8,0,1.7.89,2.88,2.54,3.27.4.09.81.12,1.21.17ZM57.27,22.7s.02-.05.03-.07c.41-.04.82-.06,1.22-.13,1.77-.31,3.01-1.48,3.28-3.09.15-.86-.14-1.55-.9-1.96-.46-.25-.97-.4-1.47-.57-.5-.17-1.02-.28-1.51-.46-.4-.16-.42-.58-.07-.82.14-.09.32-.15.49-.18.6-.08,1.13.05,1.53.55.24.3.54.49.94.47.7-.03,1.29-.5,1.43-1.15.14-.63-.17-1.16-.89-1.48-.19-.08-.38-.18-.58-.2-.86-.08-1.72-.24-2.57-.17-1.83.15-3.09,1.25-3.43,2.83-.21.97.14,1.74,1.01,2.2.24.13.51.22.77.31.63.2,1.26.37,1.89.58.5.17.56.59.14.92-.13.1-.31.17-.47.21-.75.18-1.33-.08-1.8-.69-.51-.65-1.16-.7-1.81-.21-.62.46-.8,1.26-.34,1.85.26.33.63.64,1.02.78.66.23,1.38.33,2.08.48ZM70,20.71c-.13-.93-.3-2.12-.46-3.3-.14-.95-.28-1.91-.42-2.86-.07-.44-.18-.93-.66-1.05-.69-.18-1.45-.27-2.09.11-.39.23-.71.66-.94,1.06-1.05,1.77-2.06,3.56-3.08,5.36-.22.39-.44.8-.59,1.22-.26.7.19,1.33.95,1.36.7.03,1.23-.26,1.5-.91.14-.33.34-.44.7-.43.67.03,1.35.02,2.02,0,.32,0,.44.08.45.41.01.6.34.9.94.93.97.05,1.71-.66,1.7-1.89ZM74,20.07c.11-.54.21-.99.3-1.45.27-1.27.55-2.54.79-3.81.17-.89-.34-1.45-1.25-1.41-.79.03-1.43.58-1.66,1.45-.13.52-.23,1.05-.34,1.58-.32,1.51-.66,3.02-.94,4.54-.17.97.27,1.44,1.25,1.44.73,0,1.46,0,2.2,0,.72,0,1.43.01,2.15,0,.82-.02,1.44-.69,1.42-1.48-.02-.62-.42-.87-1.36-.87-.09,0-.18,0-.26,0-.74,0-1.49,0-2.3,0Z"/>
        <path class="cls-4" d="M33.96,14.82c-.48-.04-.89-.07-1.36-.1.51,2.01.3,3.91-.88,5.61-1.2,1.72-2.87,2.62-5.04,2.64.13.61.27,1.2.38,1.8.17.91.25.79-.62,1.04-3.6,1.01-7.26,1.61-11,1.75-.89.03-.73.12-1.01-.68-1.55-4.44-2.66-8.99-3.21-13.66-.15-1.27-.19-2.56-.29-3.84-.03-.32.1-.44.4-.48,1.86-.3,3.72-.62,5.58-.93.13-.02.26-.02.39-.03.28-.04.38.07.39.36.03,1.72.04,3.45.14,5.17.15,2.51.41,5.01,1.18,7.42.4,1.25.41,1.25,1.68.99.7-.14,1.41-.28,2.11-.41.03,0,.05-.03.11-.06-1.37-1.41-2.03-3.08-1.9-5.04.1-1.48.65-2.77,1.64-3.88,1.57-1.77,4.58-2.92,7.71-.92.05-.36.11-.7.14-1.04.03-.32.19-.45.51-.46,3.59-.08,7.17-.18,10.76-.25.7-.01.71.02.78.71.12,1.09.2,2.18.32,3.27.04.38-.11.47-.45.49-.96.07-1.92.19-2.83.28.03,2.41.07,4.79.09,7.16,0,.94,0,.78-.77.79-1.35.02-2.69.05-4.04.06-.65,0-.66-.02-.69-.63-.08-2.2-.15-4.41-.23-6.61,0-.16,0-.31,0-.51ZM28.16,17.55c0-.7-.47-1.25-1.08-1.25-.62,0-1.16.64-1.16,1.35,0,.69.49,1.24,1.09,1.24.64,0,1.15-.6,1.15-1.35Z"/>
        <path class="cls-4" d="M46.06,14.02c3.14.01,5.7,2.62,5.7,5.81,0,3.21-2.62,5.85-5.78,5.85-3.16,0-5.73-2.63-5.72-5.84.02-3.22,2.62-5.83,5.8-5.82ZM46.86,20.63c.01-.64-.45-1.13-1.07-1.14-.65-.01-1.14.46-1.15,1.11-.01.64.45,1.12,1.07,1.14.64.01,1.14-.46,1.15-1.11Z"/>
        <path class="cls-4" d="M81.05,22.42c-.5,0-1,0-1.49,0-.91-.02-1.34-.47-1.21-1.37.11-.75.29-1.49.45-2.23.25-1.2.5-2.4.77-3.6.27-1.18.87-1.65,2.08-1.66.78,0,1.55,0,2.33,0,2.38.01,3.6,1.27,3.43,3.63-.1,1.37-.58,2.62-1.53,3.65-.91,1-2.07,1.5-3.42,1.57-.47.02-.94,0-1.41,0h0ZM81.35,20.17c.5-.04.94-.05,1.36-.12.6-.1,1.09-.44,1.3-1,.22-.61.4-1.25.47-1.89.08-.71-.26-1.09-.96-1.23-.3-.06-.61-.04-.91-.08-.27-.03-.35.1-.4.33-.27,1.3-.55,2.59-.86,3.99Z"/>
        <path class="cls-4" d="M91.08,22.64c-.4-.05-.82-.08-1.21-.17-1.64-.39-2.54-1.57-2.54-3.27.02-3.15,2.48-5.74,5.53-5.8,2.87-.06,4.39,1.72,3.87,4.53-.52,2.79-2.79,4.68-5.65,4.71ZM93.91,17.29c.02-1.33-.87-1.96-2.01-1.46-.37.16-.7.47-.95.8-.49.63-.64,1.4-.68,2.18-.06,1.18.77,1.81,1.89,1.41.38-.14.74-.42,1-.73.54-.65.7-1.46.76-2.2Z"/>
        <path class="cls-4" d="M57.27,22.7c-.69-.15-1.41-.24-2.08-.48-.39-.14-.76-.45-1.02-.78-.47-.6-.28-1.39.34-1.85.65-.49,1.3-.44,1.81.21.48.61,1.05.86,1.8.69.17-.04.34-.11.47-.21.42-.32.36-.75-.14-.92-.62-.21-1.26-.38-1.89-.58-.26-.08-.53-.18-.77-.31-.88-.46-1.22-1.23-1.01-2.2.34-1.58,1.6-2.68,3.43-2.83.85-.07,1.71.09,2.57.17.2.02.39.12.58.2.71.33,1.02.85.89,1.48-.14.65-.73,1.12-1.43,1.15-.4.02-.7-.17-.94-.47-.4-.5-.93-.64-1.53-.55-.17.02-.35.08-.49.18-.36.24-.34.66.07.82.49.19,1.01.3,1.51.46.5.17,1.01.32,1.47.57.76.41,1.05,1.11.9,1.96-.28,1.61-1.52,2.78-3.28,3.09-.4.07-.81.09-1.22.13,0,.02-.02.05-.03.07Z"/>
        <path class="cls-4" d="M70,20.71c0,1.23-.73,1.94-1.7,1.89-.6-.03-.92-.33-.94-.93,0-.33-.13-.42-.45-.41-.67.02-1.35.03-2.02,0-.36-.02-.56.1-.7.43-.27.66-.8.94-1.5.91-.76-.03-1.21-.66-.95-1.36.16-.42.37-.83.59-1.22,1.02-1.79,2.03-3.58,3.08-5.36.24-.4.56-.83.94-1.06.64-.38,1.4-.29,2.09-.11.48.13.59.61.66,1.05.15.95.29,1.9.42,2.86.17,1.18.33,2.37.46,3.3ZM66.92,16.54s-.05-.02-.08-.03c-.48.95-.97,1.9-1.47,2.89h1.79c-.08-.97-.16-1.92-.24-2.86Z"/>
        <path class="cls-4" d="M74,20.07c.81,0,1.55,0,2.3,0,.09,0,.18,0,.26,0,.94,0,1.34.26,1.36.87.03.79-.59,1.46-1.42,1.48-.72.02-1.43,0-2.15,0-.73,0-1.46,0-2.2,0-.98,0-1.43-.48-1.25-1.44.27-1.52.62-3.03.94-4.54.11-.53.21-1.06.34-1.58.22-.87.86-1.42,1.66-1.45.91-.04,1.42.52,1.25,1.41-.25,1.27-.53,2.54-.79,3.81-.1.46-.19.91-.3,1.45Z"/>
        <path class="cls-2" d="M28.16,17.55c0,.74-.51,1.34-1.15,1.35-.6,0-1.09-.55-1.09-1.24,0-.72.55-1.35,1.16-1.35.6,0,1.08.54,1.08,1.25Z"/>
        <path class="cls-2" d="M46.86,20.63c-.01.65-.5,1.13-1.15,1.11-.62-.01-1.08-.5-1.07-1.14.01-.65.5-1.13,1.15-1.11.62.01,1.08.5,1.07,1.14Z"/>
        <path class="cls-2" d="M81.35,20.17c.3-1.4.59-2.69.86-3.99.05-.24.13-.37.4-.33.3.04.62.02.91.08.7.14,1.04.52.96,1.23-.07.64-.25,1.28-.47,1.89-.21.56-.69.9-1.3,1-.43.07-.86.08-1.36.12Z"/>
        <path class="cls-2" d="M93.91,17.29c-.06.74-.22,1.55-.76,2.2-.26.31-.63.59-1,.73-1.12.4-1.94-.22-1.89-1.41.04-.78.2-1.55.68-2.18.25-.32.59-.64.95-.8,1.14-.5,2.03.13,2.01,1.46ZM92.46,17.15c-.48.29-.75,1.04-.59,1.64.41-.5.54-1.02.59-1.64Z"/>
        <path class="cls-2" d="M66.92,16.54c.08.94.16,1.88.24,2.86h-1.79c.5-.98.99-1.94,1.47-2.89.03.01.05.02.08.03Z"/>
        <path class="cls-2" d="M92.46,17.15c-.05.62-.19,1.15-.59,1.64-.15-.6.12-1.35.59-1.64Z"/>
      </g>
    </g>
  </g>
</svg>