<?xml version="1.0" encoding="UTF-8"?>
<svg id="Capa_2" data-name="Capa 2" xmlns="http://www.w3.org/2000/svg" viewBox="0 0 106.11 33.53">
  <defs>
    <style>
      .cls-1 {
        fill: #fff;
      }

      .cls-2 {
        fill: #505151;
      }
    </style>
  </defs>
  <g id="Capa_1-2" data-name="Capa 1">
    <g>
      <rect class="cls-2" width="106.11" height="33.53" rx="8" ry="8"/>
      <path class="cls-1" d="M76.22,5.38c2.8,2.67,1.46,8.57-2.75,8.84h-41.12c-5.62-.6-5.62-9.49,0-10.08h41.04c.99.07,2.11.55,2.83,1.24ZM70.9,5.94c-.97.12-1.96.85-2.08,1.87-.08.67-.07,2.93.12,3.51.71,2.09,4.62,1.86,4.88-.44.08-.68.08-2.39,0-3.06-.16-1.38-1.68-2.03-2.92-1.87ZM34.08,10.11h1.98c.05,0,.44-.16.53-.2,1.29-.6,1.55-2.7.39-3.55-.09-.07-.7-.37-.76-.37h-3.27v6.69h1.13v-2.58ZM42.79,6h-1.13v4.96c0,.1.19.51.26.63,1.08,1.96,4.82,1.26,4.82-.87v-4.72c-.25.05-1.11-.12-1.2.13v4.59c-.11,1.06-1.76,1.3-2.4.66-.08-.08-.35-.58-.35-.66v-4.72ZM52.14,6h-1.13v6.57c.26.19.94.2,1.21,0v-4.39l3.02,4.44,1.09.07v-6.69h-1.13v4.6l-3.06-4.6ZM65.12,6h-4.84v1.05h1.85v5.64h1.13v-5.64h1.73c.24-.26.07-.71.12-1.05Z"/>
      <path class="cls-1" d="M71.68,18.69c3.33-3.96,9.92-2.46,11.21,2.55,1.26,4.89-3.13,9.21-8,7.92-4.56-1.2-6.23-6.88-3.21-10.47ZM72.64,21.34c-.13.2-.16.45.06.58l3.55,1.77c.51.84.74,2.42,1.25,3.18.33.49.59.24.75-.2.5-1.38,1.04-4.16,1.34-5.68.07-.39.27-.73-.18-.95l-6.77,1.3Z"/>
      <path class="cls-1" d="M66.97,16.32c.06,1.34-1.01,2.38-2.3,2.5-.57.05-1.2-.05-1.78,0-2.82.22-4.42,3.57-2.89,5.96,2.17,3.4,7.15,1.63,7.05-2.25-1.38.04-2.81-1.05-2.74-2.5h5.4v9.03c-1.04.13-1.9-.5-2.38-1.37-4.68,3.62-11.53-.15-10.5-6.15.39-2.29,2.98-5.22,5.42-5.22h4.72Z"/>
      <path class="cls-1" d="M56.33,29.22c-1.38-.07-2.54-1.05-2.66-2.46-.2-2.36.68-5.05-1.24-6.9s-5.18-1.09-6.15,1.43,1.31,7.43-2.92,7.92v-7.38c0-.86.82-2.47,1.37-3.14,2.75-3.34,7.88-3.23,10.43.29.5.69,1.18,2.17,1.18,3.02v7.22Z"/>
      <path class="cls-1" d="M42.79,16.64c.06,1.3-.94,2.37-2.22,2.5-1.09.11-1.81-.17-2.92.31-2.73,1.18-3,5.13-.48,6.72,1.23.78,2.03.43,3.32.55s2.36,1.16,2.3,2.5c-2.3-.09-4.66.36-6.75-.79-3.84-2.12-4.36-7.46-.99-10.29,2.27-1.91,4.97-1.44,7.74-1.49Z"/>
      <path class="cls-1" d="M34.72,16.64c-.11.9-.42,1.64-1.22,2.13-.16.1-.69.37-.84.37h-3.06l-.12.12v9.96c-.93-.07-1.79-.48-2.29-1.3-.1-.16-.37-.69-.37-.84v-7.82l-.12-.12h-3.06c-.13,0-.81-.32-.95-.42-.65-.44-1.1-1.29-1.02-2.08h13.06Z"/>
    </g>
  </g>
</svg>