<?xml version="1.0" encoding="UTF-8"?>
<svg id="Capa_2" xmlns="http://www.w3.org/2000/svg" version="1.1" viewBox="0 0 106.1 33.5">
  <!-- Generator: Adobe Illustrator 29.8.3, SVG Export Plug-In . SVG Version: 2.1.1 Build 3)  -->
  <defs>
    <style>
      .st0 {
        fill: #fff;
      }

      .st1 {
        isolation: isolate;
      }

      .st2 {
        fill: #f08124;
      }
    </style>
  </defs>
  <g id="Capa_1-2">
    <g>
      <rect class="st2" width="106.1" height="33.5" rx="8" ry="8"/>
      <g>
        <path class="st0" d="M21.1,21.5H7.8c-.8,0-1.5-.7-1.5-1.5v-5.6h13.7v-3.3H6.3v-.7c0-.8.7-1.5,1.5-1.5h12.2v-.7H7.8c-1.2,0-2.2,1-2.2,2.2v9.6c0,1.2,1,2.2,2.2,2.2h13.6c-.1-.2-.2-.5-.3-.7h0Z"/>
        <rect class="st0" x="8.1" y="16.5" width="3" height="2.2" rx=".4" ry=".4"/>
        <path class="st0" d="M17.7,16.9c0-.2-.2-.4-.4-.4h-4.8c-.2,0-.4.2-.4.4s.2.4.4.4h4.8c.2,0,.4-.2.4-.4Z"/>
        <path class="st0" d="M12.6,18c-.2,0-.4.2-.4.4s.2.4.4.4h2.5c.2,0,.4-.2.4-.4s-.2-.4-.4-.4h-2.5Z"/>
        <rect class="st0" x="20.1" y="8.2" width="0" height=".7"/>
        <rect class="st0" x="20.1" y="11.1" width="0" height="3.3"/>
        <path class="st0" d="M30.4,3.8c-5,0-9.6,2.7-9.6,2.7v9.5c0,10.3,9.6,12.1,9.6,12.1,0,0,9.6-1.7,9.6-12.1V6.5s-4.6-2.7-9.6-2.7ZM29.4,19.7l-4.3-4.3,1.6-1.6,2.6,2.7,4.5-4.5,1.7,1.6-6.1,6.1h0Z"/>
      </g>
      <g class="st1">
        <g class="st1">
          <path class="st0" d="M45.7,16.3v-7.1h-2.8v-1.7h7.7v1.7h-2.8v7.1h-2Z"/>
        </g>
        <g class="st1">
          <path class="st0" d="M50.1,16.3l3.9-8.8h2l3.9,8.8h-2.1l-3.2-7.8h.8l-3.2,7.8h-2.1ZM52,14.4l.5-1.5h4.5l.6,1.5h-5.6Z"/>
        </g>
        <g class="st1">
          <path class="st0" d="M60.9,16.3V7.5h3.8c.8,0,1.5.1,2,.4s1,.6,1.3,1.1c.3.5.5,1,.5,1.7s-.2,1.2-.5,1.7c-.3.5-.8.8-1.3,1.1-.6.3-1.2.4-2,.4h-2.7l.9-.9v3.3h-2ZM62.9,13.2l-.9-1h2.6c.6,0,1.1-.1,1.4-.4s.5-.6.5-1.1-.2-.9-.5-1.1c-.3-.3-.8-.4-1.4-.4h-2.6l.9-1v5ZM66.5,16.3l-2.2-3.2h2.2l2.2,3.2h-2.2Z"/>
        </g>
        <g class="st1">
          <path class="st0" d="M71.6,16.4c-.6,0-1.1-.1-1.6-.3-.5-.2-.9-.5-1.2-.9l1.1-1.4c.2.3.5.6.8.7.3.2.6.2.9.2.8,0,1.2-.5,1.2-1.5v-4.2h-3.1v-1.6h5.1v5.7c0,1.1-.3,1.9-.8,2.4s-1.3.8-2.4.8Z"/>
          <path class="st0" d="M78.8,14.7h4.8v1.6h-6.8V7.5h6.7v1.6h-4.6v5.5ZM78.7,11h4.2v1.6h-4.2v-1.6Z"/>
        </g>
        <g class="st1">
          <path class="st0" d="M87.1,16.3v-7.1h-2.8v-1.7h7.7v1.7h-2.8v7.1h-2Z"/>
        </g>
        <g class="st1">
          <path class="st0" d="M91.4,16.3l3.9-8.8h2l3.9,8.8h-2.1l-3.2-7.8h.8l-3.2,7.8h-2.1ZM93.4,14.4l.5-1.5h4.5l.6,1.5h-5.6Z"/>
        </g>
      </g>
      <g class="st1">
        <g class="st1">
          <path class="st0" d="M43.3,25.1c-.3-.3-.5-.8-.5-1.4v-4.2c0-.6.2-1.1.5-1.4.3-.3.8-.5,1.4-.5s1,.2,1.4.5c.3.3.5.8.5,1.4v.8h-1.2v-.9c0-.5-.2-.7-.6-.7s-.6.2-.6.7v4.4c0,.5.2.7.6.7s.6-.2.6-.7v-1.2h1.2v1.1c0,.6-.2,1.1-.5,1.4s-.8.5-1.4.5-1-.2-1.4-.5Z"/>
          <path class="st0" d="M47.2,17.6h1.8c.6,0,1.1.1,1.4.4.3.3.4.7.4,1.4v.5c0,.8-.3,1.3-.8,1.5h0c.3.1.5.3.6.6.1.3.2.6.2,1.1v1.4c0,.2,0,.4,0,.5,0,.1,0,.3.1.4h-1.3c0-.1,0-.2,0-.4s0-.3,0-.6v-1.4c0-.4,0-.6-.2-.8s-.3-.2-.6-.2h-.4v3.4h-1.2v-7.8ZM48.9,21c.2,0,.4,0,.6-.2.1-.1.2-.3.2-.6v-.6c0-.3,0-.5-.2-.6-.1-.1-.3-.2-.5-.2h-.6v2.2h.4Z"/>
          <path class="st0" d="M51.8,17.6h3.4v1.1h-2.1v2.1h1.7v1.1h-1.7v2.4h2.1v1.1h-3.4v-7.8Z"/>
          <path class="st0" d="M55.8,17.6h1.9c.6,0,1.1.2,1.4.5.3.3.5.8.5,1.4v4c0,.6-.2,1.1-.5,1.4-.3.3-.8.5-1.4.5h-1.9v-7.8ZM57.7,24.4c.2,0,.4,0,.5-.2s.2-.3.2-.6v-4.1c0-.3,0-.5-.2-.6s-.3-.2-.5-.2h-.6v5.6h.6Z"/>
          <path class="st0" d="M60.4,17.6h1.2v7.8h-1.2v-7.8Z"/>
        </g>
        <g class="st1">
          <path class="st0" d="M63.5,18.8h-1.3v-1.1h3.8v1.1h-1.3v6.7h-1.2v-6.7Z"/>
        </g>
        <g class="st1">
          <path class="st0" d="M67,25.1c-.3-.3-.5-.8-.5-1.5v-4.1c0-.6.2-1.1.5-1.5.3-.3.8-.5,1.4-.5s1.1.2,1.4.5c.3.3.5.8.5,1.5v4.1c0,.6-.2,1.1-.5,1.5s-.8.5-1.4.5-1.1-.2-1.4-.5ZM69,23.7v-4.3c0-.5-.2-.8-.6-.8s-.6.3-.6.8v4.3c0,.5.2.8.6.8s.6-.3.6-.8Z"/>
          <path class="st0" d="M73.2,25.1c-.3-.3-.5-.8-.5-1.5v-4.1c0-.6.2-1.1.5-1.5.3-.3.8-.5,1.4-.5s1.1.2,1.4.5c.3.3.5.8.5,1.5v4.1c0,.6-.2,1.1-.5,1.5s-.8.5-1.4.5-1.1-.2-1.4-.5ZM75.3,23.7v-4.3c0-.5-.2-.8-.6-.8s-.6.3-.6.8v4.3c0,.5.2.8.6.8s.6-.3.6-.8Z"/>
          <path class="st0" d="M79.1,17.6h1.9c.6,0,1.1.2,1.4.5.3.3.5.8.5,1.4v4c0,.6-.2,1.1-.5,1.4-.3.3-.8.5-1.4.5h-1.9v-7.8ZM81,24.4c.2,0,.4,0,.5-.2s.2-.3.2-.6v-4.1c0-.3,0-.5-.2-.6s-.3-.2-.5-.2h-.6v5.6h.6Z"/>
          <path class="st0" d="M83.7,17.6h3.4v1.1h-2.1v2.1h1.7v1.1h-1.7v2.4h2.1v1.1h-3.4v-7.8Z"/>
          <path class="st0" d="M87.7,17.6h1.9c.6,0,1.1.1,1.4.4.3.3.4.7.4,1.4v.3c0,.4,0,.7-.2,1-.1.3-.3.4-.6.5h0c.6.2.9.8.9,1.7v.7c0,.6-.2,1.1-.5,1.4-.3.3-.8.5-1.4.5h-1.9v-7.8ZM89.4,20.8c.2,0,.4,0,.6-.2.1-.1.2-.3.2-.6v-.4c0-.3,0-.5-.2-.6s-.3-.2-.5-.2h-.6v2.1h.5ZM89.7,24.4c.2,0,.4,0,.5-.2s.2-.3.2-.6v-.7c0-.4,0-.6-.2-.7-.1-.1-.3-.2-.6-.2h-.5v2.4h.7Z"/>
          <path class="st0" d="M92.3,17.6h1.2v7.8h-1.2v-7.8Z"/>
        </g>
        <g class="st1">
          <path class="st0" d="M95.4,18.8h-1.3v-1.1h3.8v1.1h-1.3v6.7h-1.2v-6.7Z"/>
        </g>
        <g class="st1">
          <path class="st0" d="M98.9,25.1c-.3-.3-.5-.8-.5-1.5v-4.1c0-.6.2-1.1.5-1.5.3-.3.8-.5,1.4-.5s1.1.2,1.4.5c.3.3.5.8.5,1.5v4.1c0,.6-.2,1.1-.5,1.5s-.8.5-1.4.5-1.1-.2-1.4-.5ZM100.9,23.7v-4.3c0-.5-.2-.8-.6-.8s-.6.3-.6.8v4.3c0,.5.2.8.6.8s.6-.3.6-.8Z"/>
        </g>
      </g>
    </g>
  </g>
</svg>