<?xml version="1.0" encoding="UTF-8"?>
<svg id="Capa_2" data-name="Capa 2" xmlns="http://www.w3.org/2000/svg" viewBox="0 0 106.11 33.53">
  <defs>
    <style>
      .cls-1 {
        fill: #fff;
      }

      .cls-2 {
        fill: #505151;
      }
    </style>
  </defs>
  <g id="Capa_1-2" data-name="Capa 1">
    <g>
      <rect class="cls-2" width="106.11" height="33.53" rx="8" ry="8"/>
      <g>
        <path class="cls-1" d="M93.2,7.96c.08-.08.22-.11.34-.12l5.94,4.1c.06.23-.85,1.81-1.04,2.13-2.15,3.66-5.56,7.11-9.1,9.43-.42.28-2.47,1.58-2.82,1.49-1.34-1.1-2.75-2.16-4.01-3.35-.24-.22-1.02-.93-1.14-1.13-.08-.14-.14-.23-.09-.4,4.34-2.87,7.98-6.43,10.99-10.66.23-.33.75-1.32.94-1.5Z"/>
        <path class="cls-1" d="M38.09,11.55l-.1,1.45c1.04-1.71,4.43-2.68,4.76,0,.1.11.74-.71.88-.83.84-.73,2.14-1.13,3.17-.57,1.34.72.97,2.56.79,3.8-.22,1.49-.62,2.96-.82,4.46l-.13.18h-1.71c.03-1.86.97-4.04.94-5.85-.01-.98-.7-1.55-1.63-1.11-1.92.9-2,5.13-2.41,6.96h-1.86c.15-1.74.83-3.61.94-5.33.07-1.09-.17-2.22-1.53-1.63-1.98.87-2.03,4.96-2.43,6.78l-.14.17h-1.81l1.45-8.49h1.66Z"/>
        <path class="cls-1" d="M28.95,11.48c6.16-.73,6.22,9.31-.21,8.44-4.2-.57-4.23-7.91.21-8.44ZM29.37,13.34c-2.09.3-2.01,4.34-.21,4.72,3,.62,3.01-5.12.21-4.72Z"/>
        <path class="cls-1" d="M52.56,11.38c5.55-.64,4.87,7.76.13,8.73-6.09,1.24-5.44-8.11-.13-8.73ZM52.45,12.92c-1.78.33-3,4.38-1.31,5.51,2.84,1.9,5.15-6.22,1.31-5.51Z"/>
        <path class="cls-1" d="M74.85,11.55l.93,6.21,2.74-6.21h1.92c-1.26,2.61-2.36,5.34-3.78,7.87-1.09,1.95-2.47,3.9-4.71,4.55l-.41-1.75c1.29-.44,2.4-1.38,2.95-2.65l-1.71-8.03h2.07Z"/>
        <path class="cls-1" d="M63.67,20.04h-1.97l1.04-5.85c-.07-1.1-.8-1.52-1.77-1.04-2.04,1.01-2.01,4.94-2.48,6.89h-1.97l1.55-8.49h1.66l-.21,1.45c.15.12.66-.63.83-.78.5-.44,1.26-.8,1.93-.87,4.37-.4,1.38,6.46,1.39,8.68Z"/>
        <path class="cls-1" d="M24.63,14.24c-.36-.11-.64-.35-1.01-.49-2.37-.9-4.91.29-4.14,3.1.37,1.33,1.5,1.81,2.81,1.63.83-.12.45-1.96.27-2.58.65,0,2.07-.09,2.18.77.07.57.05,2.1-.23,2.58-.97,1.66-4.39,1.15-5.76.19-2.33-1.65-1.94-5.62.46-7.04,1.85-1.1,6.05-1.31,5.41,1.84Z"/>
        <path class="cls-1" d="M67.08,16.52c-.07,2.51,2.57,2.53,4.24,1.55l.16,1.45c-.16.26-1.53.56-1.88.61-6.95.9-4.8-9,.43-8.79,3.06.12,3.52,3.82.54,4.8-.4.13-1.52.39-1.89.39h-1.6ZM69.33,12.82c-.73.12-1.47.89-1.78,1.53-.07.14-.28.54-.16.67.36.2,2.02-.08,2.46-.24,1.5-.56.98-2.2-.51-1.96Z"/>
        <path class="cls-1" d="M8.79,9.9v1.86h2.8c-.05.51.16,1.16-.26,1.56-.06.05-.49.31-.52.31h-2.02c.1,1.13-.13,2.47,0,3.57.16,1.38,1.87,1.05,2.8.67.19,1.29-.28,2.06-1.62,2.16-1.43.11-2.92-.52-3.2-2.05-.18-.98-.19-5.57-.02-6.56s1.1-1.47,2.05-1.53Z"/>
        <path class="cls-1" d="M19.35,21.39c.24-.06.17.06.24.13,1.89,2.2,3.23,3.1,6.31,2.64,2.17-.33,2.93-1.1,4.3-2.63.06-.07,0-.2.24-.13v1.71c0,.66-1.26,2.05-1.83,2.41-2.56,1.62-6.51,1.28-8.47-1.12-.15-.19-.78-1.14-.78-1.3v-1.71Z"/>
        <path class="cls-1" d="M91.73,8.86c-1.76,2.65-3.91,5.11-6.31,7.2-.4.35-.88.76-1.3,1.08-.1.08-.59.49-.67.42l2.78-5.04c.38-.9.78-1.79,1.13-2.7.12-.32.56-1.9.69-2,.19-.15.37-.09.59-.05.96.21,2.1.89,3.1,1.1Z"/>
        <path class="cls-1" d="M13.03,11.97c1.19-.09,1.96.09,2.07,1.39.12,1.42-.12,2.99.02,4.43.15.66,1.04.53,1.53.38.31,1.74-1.09,2.11-2.48,1.6-.39-.14-1.14-.83-1.14-1.24v-6.58Z"/>
        <path class="cls-1" d="M86.86,8.76c-1.09,3.49-2.85,6.84-5.07,9.73.79-2.13,1.55-4.27,2.04-6.5.11-.52.5-3.3.6-3.44.2-.29,2.01.32,2.44.21Z"/>
        <path class="cls-1" d="M33.43,10.83l-1.55-1.19c-1.83-1.03-4.56-.62-5.75,1.19-.72-2.42,2.11-3.44,4.04-3.31,1.76.11,3.65,1.32,3.26,3.31Z"/>
        <path class="cls-1" d="M13.83,8.88c1.36-.23,1.89,1.58.82,2.17-1.65.92-2.7-1.86-.82-2.17Z"/>
        <path class="cls-1" d="M84.79,24.6c-.63-.27-1.28-.55-1.9-.84-.43-.2-2.77-1.33-2.85-1.61-.12-.42.59-.78.76-1.17l3.99,3.62Z"/>
        <path class="cls-1" d="M83.13,24.6c.02.19-.21.08-.32.06-.23-.04-.51-.13-.74-.19-.38-.1-2.7-.78-2.76-.97-.08-.25.05-.6.25-.76,1.06.77,2.33,1.42,3.57,1.86Z"/>
      </g>
    </g>
  </g>
</svg>