<?xml version="1.0" encoding="UTF-8"?>
<svg id="Capa_2" data-name="Capa 2" xmlns="http://www.w3.org/2000/svg" viewBox="0 0 29.24 29.24">
  <defs>
    <style>
      .cls-1 {
        fill: #fff;
      }

      .cls-2 {
        fill: #303030;
      }
    </style>
  </defs>
  <g id="ELEMENTS">
    <g>
      <rect class="cls-2" x="0" y="0" width="29.24" height="29.24" rx="7.65" ry="7.65" transform="translate(29.24 0) rotate(90)"/>
      <path class="cls-1" d="M22.2,12.94c-.15.01-.3.02-.45.02-1.65,0-3.19-.83-4.09-2.21v7.52c0,3.07-2.49,5.56-5.56,5.56s-5.56-2.49-5.56-5.56,2.49-5.56,5.56-5.56h0c.12,0,.23.01.34.02v2.74c-.11-.01-.23-.03-.34-.03-1.57,0-2.84,1.27-2.84,2.84s1.27,2.84,2.84,2.84,2.95-1.24,2.95-2.8l.03-12.78h2.62c.25,2.35,2.14,4.19,4.5,4.36v3.05"/>
    </g>
  </g>
</svg>